<svg width="306" height="98" viewBox="0 0 306 98" fill="none" xmlns="http://www.w3.org/2000/svg">
<rect width="274" height="67" fill="#D8AD39"/>
<rect x="26" y="28" width="280" height="64" fill="#022F45"/>
<path d="M115.592 62.916C115.524 63.0514 115.38 63.3392 115.16 63.7793C114.957 64.2025 114.686 64.6934 114.348 65.252C114.026 65.8105 113.645 66.3945 113.205 67.0039C112.765 67.6133 112.274 68.1719 111.732 68.6797C111.191 69.1875 110.607 69.6107 109.98 69.9492C109.354 70.2708 108.694 70.4316 108 70.4316C107.018 70.4316 106.189 70.1185 105.512 69.4922C104.852 68.8659 104.369 68.0788 104.064 67.1309C103.489 68.0957 102.803 68.8659 102.008 69.4414C101.212 70 100.417 70.2793 99.6211 70.2793C98.9948 70.2793 98.4277 70.1693 97.9199 69.9492C97.4121 69.7122 96.9805 69.3906 96.625 68.9844C96.2695 68.5612 95.9902 68.0703 95.7871 67.5117C95.6009 66.9531 95.5078 66.3438 95.5078 65.6836C95.5078 64.3633 95.7279 63.2038 96.168 62.2051C96.625 61.1895 97.2005 60.3431 97.8945 59.666C98.5885 58.9889 99.3503 58.4811 100.18 58.1426C101.026 57.804 101.839 57.6348 102.617 57.6348C103.142 57.6348 103.624 57.7109 104.064 57.8633C104.505 57.9987 104.877 58.151 105.182 58.3203C105.503 58.4896 105.749 58.6504 105.918 58.8027C106.087 58.9382 106.18 59.0143 106.197 59.0312C106.383 59.2513 106.477 59.4798 106.477 59.7168C106.477 59.9707 106.383 60.1992 106.197 60.4023C106.011 60.5885 105.791 60.6816 105.537 60.6816C105.266 60.6816 105.038 60.5885 104.852 60.4023C104.818 60.3685 104.742 60.3092 104.623 60.2246C104.505 60.123 104.344 60.0215 104.141 59.9199C103.938 59.8184 103.692 59.7337 103.404 59.666C103.133 59.5814 102.82 59.5391 102.465 59.5391C101.94 59.5391 101.382 59.6576 100.789 59.8945C100.197 60.1315 99.6549 60.5039 99.1641 61.0117C98.6732 61.5026 98.2585 62.1289 97.9199 62.8906C97.5983 63.6354 97.4375 64.5241 97.4375 65.5566C97.4375 65.8783 97.4714 66.2083 97.5391 66.5469C97.6068 66.8685 97.7253 67.1647 97.8945 67.4355C98.0638 67.7064 98.2923 67.9264 98.5801 68.0957C98.8678 68.265 99.2233 68.3496 99.6465 68.3496C99.9512 68.3496 100.298 68.248 100.688 68.0449C101.094 67.8418 101.475 67.5286 101.83 67.1055C102.202 66.6823 102.533 66.1491 102.82 65.5059C103.125 64.8626 103.337 64.1009 103.455 63.2207C103.489 62.9837 103.599 62.7891 103.785 62.6367C103.971 62.4674 104.191 62.3828 104.445 62.3828C104.682 62.3828 104.885 62.4759 105.055 62.6621C105.241 62.8483 105.342 63.0599 105.359 63.2969C105.376 63.6185 105.41 64.0755 105.461 64.668C105.512 65.2435 105.622 65.819 105.791 66.3945C105.977 66.9701 106.248 67.4694 106.604 67.8926C106.959 68.3158 107.45 68.5273 108.076 68.5273C108.482 68.5273 108.88 68.4173 109.27 68.1973C109.676 67.9772 110.065 67.6895 110.438 67.334C110.827 66.9616 111.191 66.5469 111.529 66.0898C111.885 65.6159 112.206 65.1419 112.494 64.668C112.782 64.194 113.036 63.737 113.256 63.2969C113.476 62.8568 113.662 62.4759 113.814 62.1543C113.899 61.9681 114.018 61.8242 114.17 61.7227C114.339 61.6211 114.517 61.5703 114.703 61.5703C114.991 61.5703 115.219 61.6803 115.389 61.9004C115.575 62.1035 115.668 62.3236 115.668 62.5605C115.668 62.679 115.643 62.7975 115.592 62.916ZM135.244 62.9668C135.193 63.0684 135.083 63.2799 134.914 63.6016C134.745 63.9062 134.525 64.2702 134.254 64.6934C133.983 65.0996 133.661 65.5397 133.289 66.0137C132.917 66.4707 132.51 66.8939 132.07 67.2832C131.63 67.6725 131.156 67.9941 130.648 68.248C130.141 68.502 129.616 68.6289 129.074 68.6289C128.194 68.6289 127.449 68.4766 126.84 68.1719C126.23 67.8503 125.731 67.4948 125.342 67.1055C125.071 67.6979 124.741 68.2396 124.352 68.7305C123.962 69.2214 123.531 69.6445 123.057 70C122.583 70.3724 122.075 70.6602 121.533 70.8633C121.008 71.0664 120.467 71.168 119.908 71.168C118.876 71.168 117.995 70.8633 117.268 70.2539C116.54 69.6445 115.93 68.832 115.439 67.8164C114.965 66.7839 114.593 65.5905 114.322 64.2363C114.051 62.8822 113.84 61.4603 113.688 59.9707C113.552 58.4811 113.467 56.9746 113.434 55.4512C113.4 53.9277 113.383 52.4805 113.383 51.1094C113.383 48.4857 113.459 46.2174 113.611 44.3047C113.764 42.375 113.967 40.7415 114.221 39.4043C114.492 38.0501 114.796 36.9583 115.135 36.1289C115.49 35.2826 115.863 34.6309 116.252 34.1738C116.641 33.6999 117.039 33.3783 117.445 33.209C117.852 33.0397 118.249 32.9551 118.639 32.9551C119.265 32.9551 119.815 33.1413 120.289 33.5137C120.78 33.8861 121.186 34.4108 121.508 35.0879C121.846 35.748 122.1 36.5521 122.27 37.5C122.439 38.4479 122.523 39.4889 122.523 40.623C122.523 42.4342 122.329 44.3047 121.939 46.2344C121.55 48.1641 121.042 50.0938 120.416 52.0234C119.807 53.9362 119.121 55.8236 118.359 57.6855C117.598 59.5306 116.844 61.2826 116.1 62.9414C116.201 63.7708 116.354 64.5664 116.557 65.3281C116.76 66.0729 117.022 66.7415 117.344 67.334C117.665 67.9095 118.046 68.375 118.486 68.7305C118.926 69.069 119.434 69.2383 120.01 69.2383C120.585 69.2383 121.127 69.0775 121.635 68.7559C122.143 68.4173 122.583 67.9857 122.955 67.4609C123.327 66.9193 123.615 66.3099 123.818 65.6328C124.038 64.9557 124.148 64.2617 124.148 63.5508C124.148 63.0768 124.098 62.6029 123.996 62.1289C123.911 61.638 123.768 61.2064 123.564 60.834C123.378 60.4447 123.141 60.1315 122.854 59.8945C122.566 59.6576 122.219 59.5391 121.812 59.5391C121.508 59.5391 121.271 59.6068 121.102 59.7422C120.932 59.8607 120.805 60.0046 120.721 60.1738C120.636 60.3262 120.585 60.4785 120.568 60.6309C120.551 60.7832 120.543 60.8848 120.543 60.9355C120.543 61.1725 120.594 61.4095 120.695 61.6465C120.797 61.8835 120.992 62.0951 121.279 62.2812C121.567 62.4844 121.711 62.7637 121.711 63.1191C121.711 63.4069 121.609 63.6354 121.406 63.8047C121.22 63.974 121.008 64.0586 120.771 64.0586C120.433 64.0586 120.128 63.957 119.857 63.7539C119.604 63.5508 119.383 63.2969 119.197 62.9922C119.011 62.6706 118.867 62.332 118.766 61.9766C118.664 61.6211 118.613 61.291 118.613 60.9863C118.613 60.4954 118.698 60.0469 118.867 59.6406C119.036 59.2174 119.265 58.862 119.553 58.5742C119.857 58.2695 120.196 58.041 120.568 57.8887C120.958 57.7194 121.364 57.6348 121.787 57.6348C122.515 57.6348 123.141 57.804 123.666 58.1426C124.208 58.4811 124.656 58.9297 125.012 59.4883C125.367 60.0469 125.63 60.6816 125.799 61.3926C125.968 62.1035 126.053 62.8229 126.053 63.5508C126.053 63.974 126.027 64.3887 125.977 64.7949C126.044 64.9303 126.154 65.1081 126.307 65.3281C126.459 65.5482 126.662 65.7598 126.916 65.9629C127.17 66.166 127.475 66.3438 127.83 66.4961C128.186 66.6484 128.6 66.7246 129.074 66.7246C129.48 66.7246 129.895 66.5723 130.318 66.2676C130.758 65.946 131.173 65.5566 131.562 65.0996C131.969 64.6257 132.341 64.1263 132.68 63.6016C133.018 63.0599 133.298 62.5605 133.518 62.1035C133.602 61.9342 133.721 61.8073 133.873 61.7227C134.025 61.6211 134.195 61.5703 134.381 61.5703C134.669 61.5703 134.897 61.6719 135.066 61.875C135.253 62.0781 135.346 62.3066 135.346 62.5605C135.346 62.6621 135.312 62.7975 135.244 62.9668ZM115.617 59.6914C116.193 58.2695 116.777 56.7799 117.369 55.2227C117.962 53.6484 118.495 52.0488 118.969 50.4238C119.443 48.7988 119.832 47.1569 120.137 45.498C120.441 43.8392 120.594 42.2057 120.594 40.5977C120.594 39.9883 120.56 39.3535 120.492 38.6934C120.441 38.0163 120.34 37.3984 120.188 36.8398C120.035 36.2812 119.824 35.8158 119.553 35.4434C119.299 35.071 118.969 34.8848 118.562 34.8848C118.427 34.8848 118.249 34.9779 118.029 35.1641C117.826 35.3333 117.606 35.6465 117.369 36.1035C117.132 36.5436 116.895 37.1615 116.658 37.957C116.421 38.7526 116.201 39.7682 115.998 41.0039C115.812 42.2227 115.651 43.6953 115.516 45.4219C115.397 47.1484 115.338 49.1797 115.338 51.5156C115.338 52.2943 115.346 53.0898 115.363 53.9023C115.38 54.6979 115.397 55.4596 115.414 56.1875C115.448 56.9154 115.482 57.584 115.516 58.1934C115.549 58.8027 115.583 59.3021 115.617 59.6914ZM145.248 67.207C144.825 67.207 144.452 67.1732 144.131 67.1055C143.877 67.6133 143.572 68.0872 143.217 68.5273C142.861 68.9505 142.447 69.3229 141.973 69.6445C141.516 69.9661 140.999 70.2201 140.424 70.4062C139.848 70.5924 139.222 70.6855 138.545 70.6855C137.749 70.6855 137.021 70.5417 136.361 70.2539C135.701 69.9831 135.126 69.6022 134.635 69.1113C134.144 68.6035 133.763 68.0026 133.492 67.3086C133.221 66.5977 133.086 65.819 133.086 64.9727C133.086 63.8893 133.281 62.9499 133.67 62.1543C134.059 61.3418 134.508 60.6732 135.016 60.1484C135.523 59.6068 136.031 59.209 136.539 58.9551C137.047 58.6842 137.428 58.5488 137.682 58.5488C137.969 58.5488 138.181 58.625 138.316 58.7773C138.469 58.9297 138.545 59.1328 138.545 59.3867C138.545 59.6745 138.452 59.8945 138.266 60.0469C138.096 60.1823 137.876 60.3177 137.605 60.4531C137.335 60.5885 137.047 60.7832 136.742 61.0371C136.438 61.2741 136.15 61.5788 135.879 61.9512C135.625 62.3236 135.413 62.7637 135.244 63.2715C135.075 63.7793 134.99 64.3464 134.99 64.9727C134.99 65.5312 135.075 66.056 135.244 66.5469C135.413 67.0208 135.659 67.4355 135.98 67.791C136.302 68.1296 136.683 68.4004 137.123 68.6035C137.563 68.7897 138.054 68.8828 138.596 68.8828C139.561 68.8828 140.356 68.6628 140.982 68.2227C141.626 67.7656 142.117 67.1901 142.455 66.4961C141.456 65.9714 140.635 65.2266 139.992 64.2617C139.349 63.2969 139.027 62.2135 139.027 61.0117C139.027 60.0469 139.256 59.2598 139.713 58.6504C140.187 58.041 140.805 57.7363 141.566 57.7363C142.023 57.7363 142.455 57.8464 142.861 58.0664C143.268 58.2865 143.623 58.6335 143.928 59.1074C144.249 59.5814 144.503 60.1908 144.689 60.9355C144.876 61.6803 144.969 62.569 144.969 63.6016C144.969 64.1432 144.901 64.7103 144.766 65.3027C144.867 65.3197 144.969 65.3281 145.07 65.3281C145.172 65.3281 145.282 65.3281 145.4 65.3281C145.976 65.3281 146.492 65.2604 146.949 65.125C147.406 64.9896 147.821 64.7865 148.193 64.5156C148.566 64.2448 148.896 63.8978 149.184 63.4746C149.488 63.0514 149.776 62.5605 150.047 62.002C150.098 61.9004 150.208 61.8073 150.377 61.7227C150.546 61.6211 150.715 61.5703 150.885 61.5703C151.105 61.5703 151.308 61.6634 151.494 61.8496C151.697 62.0189 151.799 62.2474 151.799 62.5352C151.799 62.6706 151.765 62.8229 151.697 62.9922C151.63 63.1445 151.562 63.2884 151.494 63.4238C151.206 63.9316 150.868 64.4225 150.479 64.8965C150.106 65.3535 149.658 65.7598 149.133 66.1152C148.625 66.4538 148.049 66.7246 147.406 66.9277C146.763 67.1309 146.044 67.224 145.248 67.207ZM140.906 60.8086C140.906 61.1302 140.949 61.4688 141.033 61.8242C141.118 62.1797 141.245 62.5352 141.414 62.8906C141.6 63.2292 141.82 63.5592 142.074 63.8809C142.345 64.1855 142.658 64.4479 143.014 64.668C143.064 64.3125 143.09 63.9655 143.09 63.627C143.09 63.1699 143.056 62.7044 142.988 62.2305C142.921 61.7565 142.819 61.3249 142.684 60.9355C142.565 60.5293 142.413 60.2077 142.227 59.9707C142.04 59.7168 141.82 59.5898 141.566 59.5898C141.465 59.5898 141.329 59.666 141.16 59.8184C140.991 59.9707 140.906 60.3008 140.906 60.8086ZM158.426 67.1562C157.833 68.1211 157.139 68.8828 156.344 69.4414C155.565 70 154.778 70.2793 153.982 70.2793C153.339 70.2793 152.764 70.1608 152.256 69.9238C151.748 69.6868 151.308 69.3568 150.936 68.9336C150.563 68.4935 150.275 67.9688 150.072 67.3594C149.886 66.75 149.793 66.0645 149.793 65.3027C149.793 64.1178 149.903 63.0684 150.123 62.1543C150.36 61.2402 150.614 60.4785 150.885 59.8691C151.156 59.2428 151.41 58.7689 151.646 58.4473C151.883 58.1257 152.002 57.9648 152.002 57.9648C152.087 57.8633 152.188 57.7871 152.307 57.7363C152.442 57.6855 152.577 57.6602 152.713 57.6602C152.984 57.6602 153.204 57.7617 153.373 57.9648C153.559 58.151 153.652 58.3711 153.652 58.625C153.652 58.7266 153.627 58.8281 153.576 58.9297C153.542 59.0312 153.5 59.1328 153.449 59.2344C153.365 59.3867 153.229 59.6237 153.043 59.9453C152.857 60.25 152.662 60.6562 152.459 61.1641C152.256 61.6719 152.078 62.2728 151.926 62.9668C151.773 63.6439 151.697 64.4225 151.697 65.3027C151.697 66.3014 151.892 67.0632 152.281 67.5879C152.688 68.0957 153.255 68.3496 153.982 68.3496C154.287 68.3496 154.634 68.2565 155.023 68.0703C155.43 67.8672 155.819 67.5625 156.191 67.1562C156.581 66.75 156.919 66.2337 157.207 65.6074C157.495 64.9811 157.681 64.2448 157.766 63.3984L158.146 59.0312C158.18 58.7773 158.29 58.5658 158.477 58.3965C158.663 58.2272 158.883 58.1426 159.137 58.1426C159.424 58.1426 159.653 58.2526 159.822 58.4727C159.992 58.6758 160.076 58.9128 160.076 59.1836L159.746 63.3984C159.712 63.7539 159.721 64.2194 159.771 64.7949C159.839 65.3704 159.966 65.9375 160.152 66.4961C160.339 67.0547 160.618 67.5371 160.99 67.9434C161.363 68.3327 161.854 68.5273 162.463 68.5273C162.903 68.5273 163.335 68.4173 163.758 68.1973C164.181 67.9603 164.587 67.6556 164.977 67.2832C165.366 66.9108 165.721 66.4961 166.043 66.0391C166.382 65.5651 166.686 65.0911 166.957 64.6172C167.245 64.1432 167.49 63.6947 167.693 63.2715C167.896 62.8314 168.066 62.459 168.201 62.1543C168.286 61.9681 168.404 61.8242 168.557 61.7227C168.709 61.6211 168.878 61.5703 169.064 61.5703C169.369 61.5703 169.606 61.6719 169.775 61.875C169.945 62.0781 170.029 62.2982 170.029 62.5352C170.029 62.6706 170.004 62.7975 169.953 62.916C169.885 63.0514 169.75 63.3392 169.547 63.7793C169.361 64.2025 169.107 64.6934 168.785 65.252C168.48 65.7936 168.108 66.3691 167.668 66.9785C167.228 67.5879 166.737 68.1549 166.195 68.6797C165.654 69.1875 165.061 69.6107 164.418 69.9492C163.792 70.2708 163.115 70.4316 162.387 70.4316C161.388 70.4316 160.559 70.1523 159.898 69.5938C159.238 69.0182 158.747 68.2057 158.426 67.1562ZM188.793 44.584C188.793 44.8548 188.7 45.0749 188.514 45.2441C188.327 45.3965 188.099 45.4727 187.828 45.4727H174.955V45.752C174.955 46.7845 174.879 47.8848 174.727 49.0527C174.574 50.2207 174.363 51.3887 174.092 52.5566C173.838 53.7077 173.542 54.8333 173.203 55.9336C172.882 57.0339 172.543 58.0495 172.188 58.9805C171.849 59.9115 171.51 60.724 171.172 61.418C170.833 62.0951 170.529 62.6029 170.258 62.9414C170.478 63.7201 170.74 64.4479 171.045 65.125C171.35 65.7852 171.688 66.3691 172.061 66.877C172.45 67.3678 172.865 67.7572 173.305 68.0449C173.745 68.3327 174.219 68.4766 174.727 68.4766C175.319 68.4766 175.903 68.2311 176.479 67.7402C177.071 67.2324 177.613 66.64 178.104 65.9629C178.611 65.2689 179.051 64.5749 179.424 63.8809C179.813 63.1699 180.092 62.6029 180.262 62.1797C180.431 61.7734 180.727 61.5703 181.15 61.5703C181.438 61.5703 181.667 61.6719 181.836 61.875C182.022 62.0781 182.115 62.2982 182.115 62.5352C182.115 62.6536 182.09 62.7721 182.039 62.8906C181.988 63.0091 181.861 63.2799 181.658 63.7031C181.472 64.1263 181.218 64.6172 180.896 65.1758C180.592 65.7344 180.228 66.3268 179.805 66.9531C179.398 67.5625 178.933 68.1211 178.408 68.6289C177.9 69.1367 177.35 69.5599 176.758 69.8984C176.165 70.237 175.539 70.4062 174.879 70.4062C173.711 70.4062 172.661 70.0254 171.73 69.2637C170.799 68.502 170.004 67.4355 169.344 66.0645C168.701 64.6934 168.21 63.0684 167.871 61.1895C167.533 59.3105 167.363 57.2539 167.363 55.0195C167.363 54.4609 167.372 53.8092 167.389 53.0645C167.406 52.3027 167.439 51.5072 167.49 50.6777C167.541 49.8314 167.617 48.9681 167.719 48.0879C167.82 47.1908 167.956 46.319 168.125 45.4727H159.01C158.739 45.4727 158.51 45.3965 158.324 45.2441C158.138 45.0749 158.045 44.8548 158.045 44.584C158.045 44.3132 158.138 44.1016 158.324 43.9492C158.51 43.7799 158.739 43.6953 159.01 43.6953H168.557C168.726 43.0859 168.921 42.5273 169.141 42.0195C169.378 41.5117 169.64 41.0716 169.928 40.6992C170.232 40.3268 170.562 40.0391 170.918 39.8359C171.29 39.6159 171.697 39.5059 172.137 39.5059C172.56 39.5059 172.924 39.6159 173.229 39.8359C173.55 40.0391 173.821 40.3268 174.041 40.6992C174.261 41.0716 174.43 41.5117 174.549 42.0195C174.684 42.5273 174.786 43.0859 174.854 43.6953H187.828C188.099 43.6953 188.327 43.7799 188.514 43.9492C188.7 44.1016 188.793 44.3132 188.793 44.584ZM169.674 60.4023C170.182 59.2852 170.639 58.0833 171.045 56.7969C171.468 55.4935 171.824 54.1816 172.111 52.8613C172.416 51.541 172.645 50.2461 172.797 48.9766C172.966 47.707 173.051 46.5391 173.051 45.4727H170.055C169.818 46.5221 169.623 47.8255 169.471 49.3828C169.335 50.9232 169.268 52.8021 169.268 55.0195C169.268 56.2552 169.301 57.2962 169.369 58.1426C169.437 58.972 169.538 59.7253 169.674 60.4023ZM172.035 41.4102C171.883 41.4102 171.663 41.5794 171.375 41.918C171.087 42.2396 170.799 42.832 170.512 43.6953H172.949C172.865 42.9844 172.738 42.4258 172.568 42.0195C172.416 41.6133 172.238 41.4102 172.035 41.4102ZM170.08 62.2305V62.2559V62.2305ZM197.654 67.7402C197.908 67.2324 198.23 66.6061 198.619 65.8613C199.025 65.0996 199.44 64.3379 199.863 63.5762C200.303 62.8145 200.727 62.0951 201.133 61.418C201.556 60.7409 201.911 60.2246 202.199 59.8691C202.69 59.2767 203.198 58.8535 203.723 58.5996C204.247 58.3457 204.73 58.2188 205.17 58.2188C205.61 58.2188 205.982 58.3118 206.287 58.498C206.609 58.6842 206.871 58.9382 207.074 59.2598C207.277 59.5645 207.43 59.9284 207.531 60.3516C207.633 60.7578 207.684 61.1979 207.684 61.6719C207.684 61.9427 207.667 62.2982 207.633 62.7383C207.616 63.1784 207.59 63.6523 207.557 64.1602C207.54 64.668 207.514 65.1927 207.48 65.7344C207.464 66.276 207.447 66.7839 207.43 67.2578C207.684 66.75 207.971 66.1914 208.293 65.582C208.615 64.9557 208.936 64.3379 209.258 63.7285C209.596 63.1191 209.918 62.5521 210.223 62.0273C210.527 61.4857 210.807 61.0456 211.061 60.707C211.788 59.7083 212.465 59.0397 213.092 58.7012C213.735 58.3626 214.302 58.1934 214.793 58.1934C215.368 58.1934 215.842 58.3034 216.215 58.5234C216.587 58.7266 216.875 58.9974 217.078 59.3359C217.298 59.6576 217.451 60.0215 217.535 60.4277C217.62 60.834 217.662 61.2233 217.662 61.5957C217.662 62.1712 217.62 62.7721 217.535 63.3984C217.451 64.0247 217.408 64.7695 217.408 65.6328C217.408 65.9883 217.425 66.3438 217.459 66.6992C217.493 67.0547 217.561 67.3678 217.662 67.6387C217.781 67.9095 217.958 68.1296 218.195 68.2988C218.432 68.4681 218.754 68.5527 219.16 68.5527C219.6 68.5527 220.032 68.4427 220.455 68.2227C220.878 67.9857 221.285 67.681 221.674 67.3086C222.063 66.9362 222.427 66.513 222.766 66.0391C223.121 65.5651 223.443 65.0911 223.73 64.6172C224.018 64.1432 224.272 63.6947 224.492 63.2715C224.712 62.8314 224.89 62.459 225.025 62.1543C225.11 61.9681 225.229 61.8242 225.381 61.7227C225.533 61.6211 225.702 61.5703 225.889 61.5703C226.176 61.5703 226.405 61.6803 226.574 61.9004C226.76 62.1035 226.854 62.3236 226.854 62.5605C226.854 62.679 226.828 62.7975 226.777 62.916C226.71 63.0514 226.574 63.3392 226.371 63.7793C226.168 64.2025 225.897 64.6934 225.559 65.252C225.22 65.7936 224.822 66.3691 224.365 66.9785C223.925 67.5879 223.434 68.1549 222.893 68.6797C222.351 69.1875 221.767 69.6107 221.141 69.9492C220.514 70.2708 219.854 70.4316 219.16 70.4316C218.415 70.4316 217.806 70.2962 217.332 70.0254C216.875 69.7715 216.503 69.4245 216.215 68.9844C215.944 68.5443 215.758 68.0365 215.656 67.4609C215.555 66.8854 215.504 66.2845 215.504 65.6582C215.504 64.8288 215.546 64.0671 215.631 63.373C215.715 62.6621 215.758 62.112 215.758 61.7227C215.758 61.2995 215.715 60.9779 215.631 60.7578C215.563 60.5378 215.47 60.3854 215.352 60.3008C215.25 60.1992 215.148 60.1484 215.047 60.1484C214.945 60.1315 214.869 60.123 214.818 60.123C214.412 60.123 213.98 60.3516 213.523 60.8086C213.083 61.2487 212.626 61.8411 212.152 62.5859C211.678 63.3307 211.188 64.1771 210.68 65.125C210.189 66.0729 209.689 67.0378 209.182 68.0195C208.894 68.5612 208.648 69.0098 208.445 69.3652C208.259 69.7207 208.073 70 207.887 70.2031C207.717 70.4062 207.548 70.5501 207.379 70.6348C207.21 70.7194 207.023 70.7617 206.82 70.7617C206.38 70.7617 206.042 70.6094 205.805 70.3047C205.585 70 205.475 69.6022 205.475 69.1113C205.475 68.8574 205.483 68.5189 205.5 68.0957C205.517 67.6725 205.534 67.207 205.551 66.6992C205.568 66.1914 205.593 65.6667 205.627 65.125C205.661 64.5833 205.686 64.0671 205.703 63.5762C205.72 63.0684 205.737 62.6198 205.754 62.2305C205.771 61.8411 205.779 61.5449 205.779 61.3418C205.779 60.9017 205.703 60.5885 205.551 60.4023C205.398 60.1992 205.221 60.0977 205.018 60.0977C204.831 60.0977 204.62 60.1654 204.383 60.3008C204.163 60.4362 203.9 60.6986 203.596 61.0879C203.359 61.3926 203.054 61.8411 202.682 62.4336C202.326 63.0091 201.945 63.6523 201.539 64.3633C201.133 65.0742 200.727 65.8021 200.32 66.5469C199.931 67.2917 199.592 67.9603 199.305 68.5527C198.949 69.2637 198.594 69.7461 198.238 70C197.883 70.2708 197.536 70.4062 197.197 70.4062C196.706 70.4062 196.342 70.2624 196.105 69.9746C195.868 69.6699 195.75 69.2721 195.75 68.7812C195.75 68.7305 195.758 68.4258 195.775 67.8672C195.809 67.3086 195.843 66.6315 195.877 65.8359C195.911 65.0234 195.945 64.1602 195.979 63.2461C196.029 62.332 196.072 61.4772 196.105 60.6816C196.122 60.2585 196.105 59.8691 196.055 59.5137C196.004 59.1582 195.936 58.9466 195.852 58.8789C195.716 58.9128 195.445 59.2259 195.039 59.8184C194.65 60.4108 194.15 61.4434 193.541 62.916C193.456 63.1022 193.329 63.2461 193.16 63.3477C192.991 63.4492 192.813 63.5 192.627 63.5C192.339 63.5 192.111 63.4069 191.941 63.2207C191.772 63.0176 191.688 62.7891 191.688 62.5352C191.688 62.4167 191.713 62.2897 191.764 62.1543C192.525 60.3431 193.253 59.0143 193.947 58.168C194.641 57.3047 195.318 56.873 195.979 56.873C196.368 56.873 196.689 56.9661 196.943 57.1523C197.214 57.3216 197.426 57.5501 197.578 57.8379C197.73 58.1087 197.84 58.4219 197.908 58.7773C197.976 59.1328 198.01 59.4798 198.01 59.8184C198.01 61.3249 197.967 62.7044 197.883 63.957C197.815 65.2096 197.739 66.4707 197.654 67.7402ZM228.098 67.207C228.453 67.6979 228.91 68.0957 229.469 68.4004C230.027 68.6882 230.713 68.832 231.525 68.832C232.355 68.832 233.108 68.6374 233.785 68.248C234.462 67.8418 235.08 67.3171 235.639 66.6738C236.197 66.0306 236.697 65.3112 237.137 64.5156C237.577 63.7201 237.975 62.9245 238.33 62.1289C238.415 61.9427 238.533 61.8073 238.686 61.7227C238.838 61.6211 239.007 61.5703 239.193 61.5703C239.481 61.5703 239.71 61.6719 239.879 61.875C240.065 62.0781 240.158 62.2982 240.158 62.5352C240.158 62.6198 240.15 62.696 240.133 62.7637C240.116 62.8145 240.09 62.8737 240.057 62.9414C238.889 65.5143 237.611 67.4525 236.223 68.7559C234.852 70.0592 233.294 70.7279 231.551 70.7617C230.434 70.7617 229.469 70.5417 228.656 70.1016C227.844 69.6784 227.175 69.1283 226.65 68.4512C226.126 67.7572 225.736 66.9785 225.482 66.1152C225.229 65.252 225.102 64.3887 225.102 63.5254C225.102 62.6621 225.203 61.8665 225.406 61.1387C225.626 60.4108 225.931 59.776 226.32 59.2344C226.727 58.6927 227.201 58.2695 227.742 57.9648C228.301 57.6602 228.91 57.5078 229.57 57.5078C229.96 57.5078 230.34 57.5924 230.713 57.7617C231.102 57.9141 231.449 58.1426 231.754 58.4473C232.059 58.735 232.304 59.0905 232.49 59.5137C232.676 59.9368 232.77 60.4193 232.77 60.9609C232.77 61.6549 232.651 62.3066 232.414 62.916C232.177 63.5254 231.847 64.0924 231.424 64.6172C231.018 65.1419 230.527 65.6243 229.951 66.0645C229.376 66.5046 228.758 66.8854 228.098 67.207ZM227.336 65.5566C227.861 65.3366 228.335 65.0573 228.758 64.7188C229.198 64.3802 229.57 64.0078 229.875 63.6016C230.18 63.1953 230.417 62.7721 230.586 62.332C230.755 61.875 230.84 61.418 230.84 60.9609C230.84 60.4531 230.713 60.0723 230.459 59.8184C230.205 59.5475 229.909 59.4121 229.57 59.4121C229.113 59.4121 228.724 59.5391 228.402 59.793C228.081 60.0469 227.818 60.377 227.615 60.7832C227.412 61.1895 227.26 61.6465 227.158 62.1543C227.074 62.6452 227.031 63.1361 227.031 63.627C227.031 63.9316 227.057 64.2533 227.107 64.5918C227.175 64.9303 227.251 65.252 227.336 65.5566Z" fill="#EEEEEE"/>
</svg>
