<svg width="306" height="98" viewBox="0 0 306 98" fill="none" xmlns="http://www.w3.org/2000/svg">
<rect width="274" height="67" fill="#FF6F61"/>
<rect x="26" y="28" width="280" height="64" fill="#D8AD39"/>
<path d="M98.8164 62.9668C98.7148 63.153 98.5371 63.4915 98.2832 63.9824C98.0462 64.4733 97.7161 65.0319 97.293 65.6582C96.8867 66.2676 96.3958 66.9023 95.8203 67.5625C95.2448 68.2227 94.5846 68.832 93.8398 69.3906C93.0951 69.9323 92.2572 70.3809 91.3262 70.7363C90.4121 71.0918 89.4134 71.2695 88.3301 71.2695C87.3652 71.2695 86.5104 71.0918 85.7656 70.7363C85.0208 70.3978 84.3861 69.9154 83.8613 69.2891C83.3366 68.6458 82.9388 67.8926 82.668 67.0293C82.3971 66.166 82.2617 65.2096 82.2617 64.1602C82.2617 63.1445 82.4056 62.1966 82.6934 61.3164C82.9811 60.4193 83.3704 59.6406 83.8613 58.9805C84.3691 58.3203 84.9531 57.804 85.6133 57.4316C86.2734 57.0423 86.9759 56.8477 87.7207 56.8477C88.2793 56.8477 88.7871 56.9492 89.2441 57.1523C89.7012 57.3385 90.082 57.5924 90.3867 57.9141C90.7083 58.2357 90.9538 58.5911 91.123 58.9805C91.3092 59.3698 91.4023 59.7591 91.4023 60.1484C91.4023 60.5208 91.3516 60.8678 91.25 61.1895C91.1654 61.5111 91.0469 61.7988 90.8945 62.0527C90.7591 62.2897 90.5983 62.4844 90.4121 62.6367C90.2259 62.7721 90.0397 62.8398 89.8535 62.8398C89.5658 62.8398 89.3288 62.7467 89.1426 62.5605C88.9733 62.3743 88.8887 62.1458 88.8887 61.875C88.8887 61.7396 88.9141 61.6211 88.9648 61.5195C89.0326 61.418 89.1003 61.3164 89.168 61.2148C89.2526 61.0964 89.3203 60.9609 89.3711 60.8086C89.4388 60.6393 89.4727 60.4277 89.4727 60.1738C89.4727 59.8184 89.3034 59.4967 88.9648 59.209C88.6432 58.9212 88.2285 58.7773 87.7207 58.7773C87.2467 58.7773 86.7897 58.9212 86.3496 59.209C85.9264 59.4967 85.554 59.8861 85.2324 60.377C84.9108 60.8509 84.6484 61.418 84.4453 62.0781C84.2591 62.7214 84.166 63.4069 84.166 64.1348C84.166 64.8288 84.2507 65.4889 84.4199 66.1152C84.5892 66.7415 84.8431 67.3001 85.1816 67.791C85.5202 68.265 85.9434 68.6458 86.4512 68.9336C86.9759 69.2214 87.5938 69.3652 88.3047 69.3652C89.2188 69.3652 90.0651 69.2044 90.8438 68.8828C91.6224 68.5443 92.3333 68.1211 92.9766 67.6133C93.6198 67.1055 94.1868 66.5553 94.6777 65.9629C95.1686 65.3535 95.5833 64.7865 95.9219 64.2617C96.2773 63.7201 96.5482 63.2546 96.7344 62.8652C96.9375 62.459 97.056 62.2051 97.0898 62.1035C97.1576 61.9342 97.2676 61.8073 97.4199 61.7227C97.5892 61.6211 97.7669 61.5703 97.9531 61.5703C98.2409 61.5703 98.4694 61.6719 98.6387 61.875C98.8249 62.0781 98.918 62.3066 98.918 62.5605C98.918 62.6621 98.8841 62.7975 98.8164 62.9668ZM108.795 67.207C108.372 67.207 107.999 67.1732 107.678 67.1055C107.424 67.6133 107.119 68.0872 106.764 68.5273C106.408 68.9505 105.993 69.3229 105.52 69.6445C105.062 69.9661 104.546 70.2201 103.971 70.4062C103.395 70.5924 102.769 70.6855 102.092 70.6855C101.296 70.6855 100.568 70.5417 99.9082 70.2539C99.248 69.9831 98.6725 69.6022 98.1816 69.1113C97.6908 68.6035 97.3099 68.0026 97.0391 67.3086C96.7682 66.5977 96.6328 65.819 96.6328 64.9727C96.6328 63.8893 96.8275 62.9499 97.2168 62.1543C97.6061 61.3418 98.0547 60.6732 98.5625 60.1484C99.0703 59.6068 99.5781 59.209 100.086 58.9551C100.594 58.6842 100.975 58.5488 101.229 58.5488C101.516 58.5488 101.728 58.625 101.863 58.7773C102.016 58.9297 102.092 59.1328 102.092 59.3867C102.092 59.6745 101.999 59.8945 101.812 60.0469C101.643 60.1823 101.423 60.3177 101.152 60.4531C100.882 60.5885 100.594 60.7832 100.289 61.0371C99.9844 61.2741 99.6966 61.5788 99.4258 61.9512C99.1719 62.3236 98.9603 62.7637 98.791 63.2715C98.6217 63.7793 98.5371 64.3464 98.5371 64.9727C98.5371 65.5312 98.6217 66.056 98.791 66.5469C98.9603 67.0208 99.2057 67.4355 99.5273 67.791C99.849 68.1296 100.23 68.4004 100.67 68.6035C101.11 68.7897 101.601 68.8828 102.143 68.8828C103.107 68.8828 103.903 68.6628 104.529 68.2227C105.173 67.7656 105.663 67.1901 106.002 66.4961C105.003 65.9714 104.182 65.2266 103.539 64.2617C102.896 63.2969 102.574 62.2135 102.574 61.0117C102.574 60.0469 102.803 59.2598 103.26 58.6504C103.734 58.041 104.352 57.7363 105.113 57.7363C105.57 57.7363 106.002 57.8464 106.408 58.0664C106.814 58.2865 107.17 58.6335 107.475 59.1074C107.796 59.5814 108.05 60.1908 108.236 60.9355C108.423 61.6803 108.516 62.569 108.516 63.6016C108.516 64.1432 108.448 64.7103 108.312 65.3027C108.414 65.3197 108.516 65.3281 108.617 65.3281C108.719 65.3281 108.829 65.3281 108.947 65.3281C109.523 65.3281 110.039 65.2604 110.496 65.125C110.953 64.9896 111.368 64.7865 111.74 64.5156C112.113 64.2448 112.443 63.8978 112.73 63.4746C113.035 63.0514 113.323 62.5605 113.594 62.002C113.645 61.9004 113.755 61.8073 113.924 61.7227C114.093 61.6211 114.262 61.5703 114.432 61.5703C114.652 61.5703 114.855 61.6634 115.041 61.8496C115.244 62.0189 115.346 62.2474 115.346 62.5352C115.346 62.6706 115.312 62.8229 115.244 62.9922C115.176 63.1445 115.109 63.2884 115.041 63.4238C114.753 63.9316 114.415 64.4225 114.025 64.8965C113.653 65.3535 113.204 65.7598 112.68 66.1152C112.172 66.4538 111.596 66.7246 110.953 66.9277C110.31 67.1309 109.59 67.224 108.795 67.207ZM104.453 60.8086C104.453 61.1302 104.495 61.4688 104.58 61.8242C104.665 62.1797 104.792 62.5352 104.961 62.8906C105.147 63.2292 105.367 63.5592 105.621 63.8809C105.892 64.1855 106.205 64.4479 106.561 64.668C106.611 64.3125 106.637 63.9655 106.637 63.627C106.637 63.1699 106.603 62.7044 106.535 62.2305C106.467 61.7565 106.366 61.3249 106.23 60.9355C106.112 60.5293 105.96 60.2077 105.773 59.9707C105.587 59.7168 105.367 59.5898 105.113 59.5898C105.012 59.5898 104.876 59.666 104.707 59.8184C104.538 59.9707 104.453 60.3008 104.453 60.8086ZM119.18 67.7148C119.451 67.1562 119.764 66.5469 120.119 65.8867C120.475 65.2096 120.855 64.5326 121.262 63.8555C121.668 63.1615 122.091 62.4759 122.531 61.7988C122.988 61.1217 123.462 60.4785 123.953 59.8691C124.444 59.2767 124.935 58.8535 125.426 58.5996C125.934 58.3288 126.408 58.1934 126.848 58.1934C127.728 58.1934 128.38 58.515 128.803 59.1582C129.226 59.8014 129.438 60.597 129.438 61.5449C129.438 61.765 129.421 62.0358 129.387 62.3574C129.37 62.6621 129.344 62.9922 129.311 63.3477C129.294 63.7031 129.268 64.0671 129.234 64.4395C129.217 64.7949 129.209 65.1335 129.209 65.4551C129.209 65.8613 129.226 66.2507 129.26 66.623C129.311 66.9954 129.395 67.3255 129.514 67.6133C129.632 67.8841 129.801 68.1042 130.021 68.2734C130.242 68.4258 130.529 68.502 130.885 68.502C131.528 68.502 132.154 68.2565 132.764 67.7656C133.373 67.2578 133.932 66.6654 134.439 65.9883C134.964 65.2943 135.413 64.5918 135.785 63.8809C136.174 63.1699 136.462 62.5944 136.648 62.1543C136.733 61.9681 136.852 61.8242 137.004 61.7227C137.173 61.6211 137.351 61.5703 137.537 61.5703C137.825 61.5703 138.053 61.6803 138.223 61.9004C138.409 62.1035 138.502 62.3236 138.502 62.5605C138.502 62.679 138.477 62.7975 138.426 62.916C138.358 63.0514 138.223 63.3307 138.02 63.7539C137.816 64.1771 137.546 64.668 137.207 65.2266C136.885 65.7682 136.505 66.3522 136.064 66.9785C135.624 67.5879 135.133 68.1465 134.592 68.6543C134.067 69.1621 133.492 69.5853 132.865 69.9238C132.256 70.2624 131.613 70.4316 130.936 70.4316C130.174 70.4316 129.556 70.2878 129.082 70C128.608 69.6953 128.236 69.306 127.965 68.832C127.694 68.3411 127.508 67.8079 127.406 67.2324C127.322 66.64 127.279 66.0475 127.279 65.4551C127.279 65.2012 127.288 64.9134 127.305 64.5918C127.339 64.2702 127.372 63.9316 127.406 63.5762C127.457 63.2207 127.491 62.8652 127.508 62.5098C127.542 62.1543 127.559 61.8158 127.559 61.4941C127.559 60.9525 127.474 60.5885 127.305 60.4023C127.135 60.1992 126.983 60.0977 126.848 60.0977C126.577 60.0977 126.264 60.2585 125.908 60.5801C125.57 60.8848 125.206 61.291 124.816 61.7988C124.444 62.3066 124.055 62.8822 123.648 63.5254C123.259 64.1517 122.887 64.778 122.531 65.4043C122.193 66.0306 121.871 66.6315 121.566 67.207C121.279 67.7656 121.05 68.2311 120.881 68.6035C120.542 69.3145 120.204 69.7884 119.865 70.0254C119.527 70.2793 119.18 70.4062 118.824 70.4062C118.333 70.4062 117.936 70.2624 117.631 69.9746C117.343 69.6699 117.199 69.2467 117.199 68.7051C117.199 68.5866 117.216 68.3581 117.25 68.0195C117.284 67.6641 117.326 67.2493 117.377 66.7754C117.428 66.2845 117.479 65.7598 117.529 65.2012C117.58 64.6426 117.631 64.0924 117.682 63.5508C117.732 62.9922 117.775 62.4759 117.809 62.002C117.842 61.528 117.859 61.1302 117.859 60.8086C117.859 60.3854 117.842 59.9792 117.809 59.5898C117.775 59.2005 117.707 58.9635 117.605 58.8789C117.453 58.9297 117.182 59.2513 116.793 59.8438C116.404 60.4193 115.904 61.4434 115.295 62.916C115.21 63.1022 115.083 63.2461 114.914 63.3477C114.745 63.4492 114.567 63.5 114.381 63.5C114.093 63.5 113.865 63.4069 113.695 63.2207C113.526 63.0176 113.441 62.7891 113.441 62.5352C113.441 62.4167 113.467 62.2897 113.518 62.1543C114.279 60.3431 114.99 59.0143 115.65 58.168C116.327 57.3047 116.996 56.873 117.656 56.873C118.046 56.873 118.376 56.9746 118.646 57.1777C118.917 57.3639 119.129 57.6178 119.281 57.9395C119.451 58.2611 119.569 58.6165 119.637 59.0059C119.721 59.3952 119.764 59.793 119.764 60.1992C119.764 60.5039 119.738 60.9779 119.688 61.6211C119.654 62.2643 119.603 62.9583 119.535 63.7031C119.467 64.431 119.4 65.1589 119.332 65.8867C119.281 66.6146 119.23 67.224 119.18 67.7148ZM157.266 44.584C157.266 44.8548 157.173 45.0749 156.986 45.2441C156.8 45.3965 156.572 45.4727 156.301 45.4727H143.428V45.752C143.428 46.7845 143.352 47.8848 143.199 49.0527C143.047 50.2207 142.835 51.3887 142.564 52.5566C142.311 53.7077 142.014 54.8333 141.676 55.9336C141.354 57.0339 141.016 58.0495 140.66 58.9805C140.322 59.9115 139.983 60.724 139.645 61.418C139.306 62.0951 139.001 62.6029 138.73 62.9414C138.951 63.7201 139.213 64.4479 139.518 65.125C139.822 65.7852 140.161 66.3691 140.533 66.877C140.923 67.3678 141.337 67.7572 141.777 68.0449C142.217 68.3327 142.691 68.4766 143.199 68.4766C143.792 68.4766 144.376 68.2311 144.951 67.7402C145.544 67.2324 146.085 66.64 146.576 65.9629C147.084 65.2689 147.524 64.5749 147.896 63.8809C148.286 63.1699 148.565 62.6029 148.734 62.1797C148.904 61.7734 149.2 61.5703 149.623 61.5703C149.911 61.5703 150.139 61.6719 150.309 61.875C150.495 62.0781 150.588 62.2982 150.588 62.5352C150.588 62.6536 150.562 62.7721 150.512 62.8906C150.461 63.0091 150.334 63.2799 150.131 63.7031C149.945 64.1263 149.691 64.6172 149.369 65.1758C149.064 65.7344 148.701 66.3268 148.277 66.9531C147.871 67.5625 147.406 68.1211 146.881 68.6289C146.373 69.1367 145.823 69.5599 145.23 69.8984C144.638 70.237 144.012 70.4062 143.352 70.4062C142.184 70.4062 141.134 70.0254 140.203 69.2637C139.272 68.502 138.477 67.4355 137.816 66.0645C137.173 64.6934 136.682 63.0684 136.344 61.1895C136.005 59.3105 135.836 57.2539 135.836 55.0195C135.836 54.4609 135.844 53.8092 135.861 53.0645C135.878 52.3027 135.912 51.5072 135.963 50.6777C136.014 49.8314 136.09 48.9681 136.191 48.0879C136.293 47.1908 136.428 46.319 136.598 45.4727H127.482C127.212 45.4727 126.983 45.3965 126.797 45.2441C126.611 45.0749 126.518 44.8548 126.518 44.584C126.518 44.3132 126.611 44.1016 126.797 43.9492C126.983 43.7799 127.212 43.6953 127.482 43.6953H137.029C137.199 43.0859 137.393 42.5273 137.613 42.0195C137.85 41.5117 138.113 41.0716 138.4 40.6992C138.705 40.3268 139.035 40.0391 139.391 39.8359C139.763 39.6159 140.169 39.5059 140.609 39.5059C141.033 39.5059 141.396 39.6159 141.701 39.8359C142.023 40.0391 142.294 40.3268 142.514 40.6992C142.734 41.0716 142.903 41.5117 143.021 42.0195C143.157 42.5273 143.258 43.0859 143.326 43.6953H156.301C156.572 43.6953 156.8 43.7799 156.986 43.9492C157.173 44.1016 157.266 44.3132 157.266 44.584ZM138.146 60.4023C138.654 59.2852 139.111 58.0833 139.518 56.7969C139.941 55.4935 140.296 54.1816 140.584 52.8613C140.889 51.541 141.117 50.2461 141.27 48.9766C141.439 47.707 141.523 46.5391 141.523 45.4727H138.527C138.29 46.5221 138.096 47.8255 137.943 49.3828C137.808 50.9232 137.74 52.8021 137.74 55.0195C137.74 56.2552 137.774 57.2962 137.842 58.1426C137.91 58.972 138.011 59.7253 138.146 60.4023ZM140.508 41.4102C140.355 41.4102 140.135 41.5794 139.848 41.918C139.56 42.2396 139.272 42.832 138.984 43.6953H141.422C141.337 42.9844 141.21 42.4258 141.041 42.0195C140.889 41.6133 140.711 41.4102 140.508 41.4102ZM138.553 62.2305V62.2559V62.2305ZM168.463 62.916C168.395 63.0514 168.251 63.3392 168.031 63.7793C167.828 64.2025 167.557 64.6934 167.219 65.252C166.897 65.8105 166.516 66.3945 166.076 67.0039C165.636 67.6133 165.145 68.1719 164.604 68.6797C164.062 69.1875 163.478 69.6107 162.852 69.9492C162.225 70.2708 161.565 70.4316 160.871 70.4316C159.889 70.4316 159.06 70.1185 158.383 69.4922C157.723 68.8659 157.24 68.0788 156.936 67.1309C156.36 68.0957 155.674 68.8659 154.879 69.4414C154.083 70 153.288 70.2793 152.492 70.2793C151.866 70.2793 151.299 70.1693 150.791 69.9492C150.283 69.7122 149.852 69.3906 149.496 68.9844C149.141 68.5612 148.861 68.0703 148.658 67.5117C148.472 66.9531 148.379 66.3438 148.379 65.6836C148.379 64.3633 148.599 63.2038 149.039 62.2051C149.496 61.1895 150.072 60.3431 150.766 59.666C151.46 58.9889 152.221 58.4811 153.051 58.1426C153.897 57.804 154.71 57.6348 155.488 57.6348C156.013 57.6348 156.495 57.7109 156.936 57.8633C157.376 57.9987 157.748 58.151 158.053 58.3203C158.374 58.4896 158.62 58.6504 158.789 58.8027C158.958 58.9382 159.051 59.0143 159.068 59.0312C159.255 59.2513 159.348 59.4798 159.348 59.7168C159.348 59.9707 159.255 60.1992 159.068 60.4023C158.882 60.5885 158.662 60.6816 158.408 60.6816C158.137 60.6816 157.909 60.5885 157.723 60.4023C157.689 60.3685 157.613 60.3092 157.494 60.2246C157.376 60.123 157.215 60.0215 157.012 59.9199C156.809 59.8184 156.563 59.7337 156.275 59.666C156.005 59.5814 155.691 59.5391 155.336 59.5391C154.811 59.5391 154.253 59.6576 153.66 59.8945C153.068 60.1315 152.526 60.5039 152.035 61.0117C151.544 61.5026 151.13 62.1289 150.791 62.8906C150.469 63.6354 150.309 64.5241 150.309 65.5566C150.309 65.8783 150.342 66.2083 150.41 66.5469C150.478 66.8685 150.596 67.1647 150.766 67.4355C150.935 67.7064 151.163 67.9264 151.451 68.0957C151.739 68.265 152.094 68.3496 152.518 68.3496C152.822 68.3496 153.169 68.248 153.559 68.0449C153.965 67.8418 154.346 67.5286 154.701 67.1055C155.074 66.6823 155.404 66.1491 155.691 65.5059C155.996 64.8626 156.208 64.1009 156.326 63.2207C156.36 62.9837 156.47 62.7891 156.656 62.6367C156.842 62.4674 157.062 62.3828 157.316 62.3828C157.553 62.3828 157.757 62.4759 157.926 62.6621C158.112 62.8483 158.214 63.0599 158.23 63.2969C158.247 63.6185 158.281 64.0755 158.332 64.668C158.383 65.2435 158.493 65.819 158.662 66.3945C158.848 66.9701 159.119 67.4694 159.475 67.8926C159.83 68.3158 160.321 68.5273 160.947 68.5273C161.354 68.5273 161.751 68.4173 162.141 68.1973C162.547 67.9772 162.936 67.6895 163.309 67.334C163.698 66.9616 164.062 66.5469 164.4 66.0898C164.756 65.6159 165.077 65.1419 165.365 64.668C165.653 64.194 165.907 63.737 166.127 63.2969C166.347 62.8568 166.533 62.4759 166.686 62.1543C166.77 61.9681 166.889 61.8242 167.041 61.7227C167.21 61.6211 167.388 61.5703 167.574 61.5703C167.862 61.5703 168.09 61.6803 168.26 61.9004C168.446 62.1035 168.539 62.3236 168.539 62.5605C168.539 62.679 168.514 62.7975 168.463 62.916ZM183.316 62.9668C183.215 63.153 183.037 63.4915 182.783 63.9824C182.546 64.4733 182.216 65.0319 181.793 65.6582C181.387 66.2676 180.896 66.9023 180.32 67.5625C179.745 68.2227 179.085 68.832 178.34 69.3906C177.595 69.9323 176.757 70.3809 175.826 70.7363C174.912 71.0918 173.913 71.2695 172.83 71.2695C171.865 71.2695 171.01 71.0918 170.266 70.7363C169.521 70.3978 168.886 69.9154 168.361 69.2891C167.837 68.6458 167.439 67.8926 167.168 67.0293C166.897 66.166 166.762 65.2096 166.762 64.1602C166.762 63.1445 166.906 62.1966 167.193 61.3164C167.481 60.4193 167.87 59.6406 168.361 58.9805C168.869 58.3203 169.453 57.804 170.113 57.4316C170.773 57.0423 171.476 56.8477 172.221 56.8477C172.779 56.8477 173.287 56.9492 173.744 57.1523C174.201 57.3385 174.582 57.5924 174.887 57.9141C175.208 58.2357 175.454 58.5911 175.623 58.9805C175.809 59.3698 175.902 59.7591 175.902 60.1484C175.902 60.5208 175.852 60.8678 175.75 61.1895C175.665 61.5111 175.547 61.7988 175.395 62.0527C175.259 62.2897 175.098 62.4844 174.912 62.6367C174.726 62.7721 174.54 62.8398 174.354 62.8398C174.066 62.8398 173.829 62.7467 173.643 62.5605C173.473 62.3743 173.389 62.1458 173.389 61.875C173.389 61.7396 173.414 61.6211 173.465 61.5195C173.533 61.418 173.6 61.3164 173.668 61.2148C173.753 61.0964 173.82 60.9609 173.871 60.8086C173.939 60.6393 173.973 60.4277 173.973 60.1738C173.973 59.8184 173.803 59.4967 173.465 59.209C173.143 58.9212 172.729 58.7773 172.221 58.7773C171.747 58.7773 171.29 58.9212 170.85 59.209C170.426 59.4967 170.054 59.8861 169.732 60.377C169.411 60.8509 169.148 61.418 168.945 62.0781C168.759 62.7214 168.666 63.4069 168.666 64.1348C168.666 64.8288 168.751 65.4889 168.92 66.1152C169.089 66.7415 169.343 67.3001 169.682 67.791C170.02 68.265 170.443 68.6458 170.951 68.9336C171.476 69.2214 172.094 69.3652 172.805 69.3652C173.719 69.3652 174.565 69.2044 175.344 68.8828C176.122 68.5443 176.833 68.1211 177.477 67.6133C178.12 67.1055 178.687 66.5553 179.178 65.9629C179.669 65.3535 180.083 64.7865 180.422 64.2617C180.777 63.7201 181.048 63.2546 181.234 62.8652C181.438 62.459 181.556 62.2051 181.59 62.1035C181.658 61.9342 181.768 61.8073 181.92 61.7227C182.089 61.6211 182.267 61.5703 182.453 61.5703C182.741 61.5703 182.969 61.6719 183.139 61.875C183.325 62.0781 183.418 62.3066 183.418 62.5605C183.418 62.6621 183.384 62.7975 183.316 62.9668ZM202.156 44.584C202.156 44.8548 202.063 45.0749 201.877 45.2441C201.691 45.3965 201.462 45.4727 201.191 45.4727H188.318V45.752C188.318 46.7845 188.242 47.8848 188.09 49.0527C187.938 50.2207 187.726 51.3887 187.455 52.5566C187.201 53.7077 186.905 54.8333 186.566 55.9336C186.245 57.0339 185.906 58.0495 185.551 58.9805C185.212 59.9115 184.874 60.724 184.535 61.418C184.197 62.0951 183.892 62.6029 183.621 62.9414C183.841 63.7201 184.104 64.4479 184.408 65.125C184.713 65.7852 185.051 66.3691 185.424 66.877C185.813 67.3678 186.228 67.7572 186.668 68.0449C187.108 68.3327 187.582 68.4766 188.09 68.4766C188.682 68.4766 189.266 68.2311 189.842 67.7402C190.434 67.2324 190.976 66.64 191.467 65.9629C191.975 65.2689 192.415 64.5749 192.787 63.8809C193.176 63.1699 193.456 62.6029 193.625 62.1797C193.794 61.7734 194.09 61.5703 194.514 61.5703C194.801 61.5703 195.03 61.6719 195.199 61.875C195.385 62.0781 195.479 62.2982 195.479 62.5352C195.479 62.6536 195.453 62.7721 195.402 62.8906C195.352 63.0091 195.225 63.2799 195.021 63.7031C194.835 64.1263 194.581 64.6172 194.26 65.1758C193.955 65.7344 193.591 66.3268 193.168 66.9531C192.762 67.5625 192.296 68.1211 191.771 68.6289C191.264 69.1367 190.714 69.5599 190.121 69.8984C189.529 70.237 188.902 70.4062 188.242 70.4062C187.074 70.4062 186.025 70.0254 185.094 69.2637C184.163 68.502 183.367 67.4355 182.707 66.0645C182.064 64.6934 181.573 63.0684 181.234 61.1895C180.896 59.3105 180.727 57.2539 180.727 55.0195C180.727 54.4609 180.735 53.8092 180.752 53.0645C180.769 52.3027 180.803 51.5072 180.854 50.6777C180.904 49.8314 180.98 48.9681 181.082 48.0879C181.184 47.1908 181.319 46.319 181.488 45.4727H172.373C172.102 45.4727 171.874 45.3965 171.688 45.2441C171.501 45.0749 171.408 44.8548 171.408 44.584C171.408 44.3132 171.501 44.1016 171.688 43.9492C171.874 43.7799 172.102 43.6953 172.373 43.6953H181.92C182.089 43.0859 182.284 42.5273 182.504 42.0195C182.741 41.5117 183.003 41.0716 183.291 40.6992C183.596 40.3268 183.926 40.0391 184.281 39.8359C184.654 39.6159 185.06 39.5059 185.5 39.5059C185.923 39.5059 186.287 39.6159 186.592 39.8359C186.913 40.0391 187.184 40.3268 187.404 40.6992C187.624 41.0716 187.794 41.5117 187.912 42.0195C188.048 42.5273 188.149 43.0859 188.217 43.6953H201.191C201.462 43.6953 201.691 43.7799 201.877 43.9492C202.063 44.1016 202.156 44.3132 202.156 44.584ZM183.037 60.4023C183.545 59.2852 184.002 58.0833 184.408 56.7969C184.831 55.4935 185.187 54.1816 185.475 52.8613C185.779 51.541 186.008 50.2461 186.16 48.9766C186.329 47.707 186.414 46.5391 186.414 45.4727H183.418C183.181 46.5221 182.986 47.8255 182.834 49.3828C182.699 50.9232 182.631 52.8021 182.631 55.0195C182.631 56.2552 182.665 57.2962 182.732 58.1426C182.8 58.972 182.902 59.7253 183.037 60.4023ZM185.398 41.4102C185.246 41.4102 185.026 41.5794 184.738 41.918C184.451 42.2396 184.163 42.832 183.875 43.6953H186.312C186.228 42.9844 186.101 42.4258 185.932 42.0195C185.779 41.6133 185.602 41.4102 185.398 41.4102ZM183.443 62.2305V62.2559V62.2305ZM211.018 67.7402C211.271 67.2324 211.593 66.6061 211.982 65.8613C212.389 65.0996 212.803 64.3379 213.227 63.5762C213.667 62.8145 214.09 62.0951 214.496 61.418C214.919 60.7409 215.275 60.2246 215.562 59.8691C216.053 59.2767 216.561 58.8535 217.086 58.5996C217.611 58.3457 218.093 58.2188 218.533 58.2188C218.973 58.2188 219.346 58.3118 219.65 58.498C219.972 58.6842 220.234 58.9382 220.438 59.2598C220.641 59.5645 220.793 59.9284 220.895 60.3516C220.996 60.7578 221.047 61.1979 221.047 61.6719C221.047 61.9427 221.03 62.2982 220.996 62.7383C220.979 63.1784 220.954 63.6523 220.92 64.1602C220.903 64.668 220.878 65.1927 220.844 65.7344C220.827 66.276 220.81 66.7839 220.793 67.2578C221.047 66.75 221.335 66.1914 221.656 65.582C221.978 64.9557 222.299 64.3379 222.621 63.7285C222.96 63.1191 223.281 62.5521 223.586 62.0273C223.891 61.4857 224.17 61.0456 224.424 60.707C225.152 59.7083 225.829 59.0397 226.455 58.7012C227.098 58.3626 227.665 58.1934 228.156 58.1934C228.732 58.1934 229.206 58.3034 229.578 58.5234C229.951 58.7266 230.238 58.9974 230.441 59.3359C230.661 59.6576 230.814 60.0215 230.898 60.4277C230.983 60.834 231.025 61.2233 231.025 61.5957C231.025 62.1712 230.983 62.7721 230.898 63.3984C230.814 64.0247 230.771 64.7695 230.771 65.6328C230.771 65.9883 230.788 66.3438 230.822 66.6992C230.856 67.0547 230.924 67.3678 231.025 67.6387C231.144 67.9095 231.322 68.1296 231.559 68.2988C231.796 68.4681 232.117 68.5527 232.523 68.5527C232.964 68.5527 233.395 68.4427 233.818 68.2227C234.242 67.9857 234.648 67.681 235.037 67.3086C235.426 66.9362 235.79 66.513 236.129 66.0391C236.484 65.5651 236.806 65.0911 237.094 64.6172C237.382 64.1432 237.635 63.6947 237.855 63.2715C238.076 62.8314 238.253 62.459 238.389 62.1543C238.473 61.9681 238.592 61.8242 238.744 61.7227C238.896 61.6211 239.066 61.5703 239.252 61.5703C239.54 61.5703 239.768 61.6803 239.938 61.9004C240.124 62.1035 240.217 62.3236 240.217 62.5605C240.217 62.679 240.191 62.7975 240.141 62.916C240.073 63.0514 239.938 63.3392 239.734 63.7793C239.531 64.2025 239.26 64.6934 238.922 65.252C238.583 65.7936 238.186 66.3691 237.729 66.9785C237.288 67.5879 236.798 68.1549 236.256 68.6797C235.714 69.1875 235.13 69.6107 234.504 69.9492C233.878 70.2708 233.217 70.4316 232.523 70.4316C231.779 70.4316 231.169 70.2962 230.695 70.0254C230.238 69.7715 229.866 69.4245 229.578 68.9844C229.307 68.5443 229.121 68.0365 229.02 67.4609C228.918 66.8854 228.867 66.2845 228.867 65.6582C228.867 64.8288 228.91 64.0671 228.994 63.373C229.079 62.6621 229.121 62.112 229.121 61.7227C229.121 61.2995 229.079 60.9779 228.994 60.7578C228.926 60.5378 228.833 60.3854 228.715 60.3008C228.613 60.1992 228.512 60.1484 228.41 60.1484C228.309 60.1315 228.232 60.123 228.182 60.123C227.775 60.123 227.344 60.3516 226.887 60.8086C226.447 61.2487 225.99 61.8411 225.516 62.5859C225.042 63.3307 224.551 64.1771 224.043 65.125C223.552 66.0729 223.053 67.0378 222.545 68.0195C222.257 68.5612 222.012 69.0098 221.809 69.3652C221.622 69.7207 221.436 70 221.25 70.2031C221.081 70.4062 220.911 70.5501 220.742 70.6348C220.573 70.7194 220.387 70.7617 220.184 70.7617C219.743 70.7617 219.405 70.6094 219.168 70.3047C218.948 70 218.838 69.6022 218.838 69.1113C218.838 68.8574 218.846 68.5189 218.863 68.0957C218.88 67.6725 218.897 67.207 218.914 66.6992C218.931 66.1914 218.956 65.6667 218.99 65.125C219.024 64.5833 219.049 64.0671 219.066 63.5762C219.083 63.0684 219.1 62.6198 219.117 62.2305C219.134 61.8411 219.143 61.5449 219.143 61.3418C219.143 60.9017 219.066 60.5885 218.914 60.4023C218.762 60.1992 218.584 60.0977 218.381 60.0977C218.195 60.0977 217.983 60.1654 217.746 60.3008C217.526 60.4362 217.264 60.6986 216.959 61.0879C216.722 61.3926 216.417 61.8411 216.045 62.4336C215.689 63.0091 215.309 63.6523 214.902 64.3633C214.496 65.0742 214.09 65.8021 213.684 66.5469C213.294 67.2917 212.956 67.9603 212.668 68.5527C212.312 69.2637 211.957 69.7461 211.602 70C211.246 70.2708 210.899 70.4062 210.561 70.4062C210.07 70.4062 209.706 70.2624 209.469 69.9746C209.232 69.6699 209.113 69.2721 209.113 68.7812C209.113 68.7305 209.122 68.4258 209.139 67.8672C209.173 67.3086 209.206 66.6315 209.24 65.8359C209.274 65.0234 209.308 64.1602 209.342 63.2461C209.393 62.332 209.435 61.4772 209.469 60.6816C209.486 60.2585 209.469 59.8691 209.418 59.5137C209.367 59.1582 209.299 58.9466 209.215 58.8789C209.079 58.9128 208.809 59.2259 208.402 59.8184C208.013 60.4108 207.514 61.4434 206.904 62.916C206.82 63.1022 206.693 63.2461 206.523 63.3477C206.354 63.4492 206.176 63.5 205.99 63.5C205.702 63.5 205.474 63.4069 205.305 63.2207C205.135 63.0176 205.051 62.7891 205.051 62.5352C205.051 62.4167 205.076 62.2897 205.127 62.1543C205.889 60.3431 206.617 59.0143 207.311 58.168C208.005 57.3047 208.682 56.873 209.342 56.873C209.731 56.873 210.053 56.9661 210.307 57.1523C210.577 57.3216 210.789 57.5501 210.941 57.8379C211.094 58.1087 211.204 58.4219 211.271 58.7773C211.339 59.1328 211.373 59.4798 211.373 59.8184C211.373 61.3249 211.331 62.7044 211.246 63.957C211.178 65.2096 211.102 66.4707 211.018 67.7402ZM241.461 67.207C241.816 67.6979 242.273 68.0957 242.832 68.4004C243.391 68.6882 244.076 68.832 244.889 68.832C245.718 68.832 246.471 68.6374 247.148 68.248C247.826 67.8418 248.443 67.3171 249.002 66.6738C249.561 66.0306 250.06 65.3112 250.5 64.5156C250.94 63.7201 251.338 62.9245 251.693 62.1289C251.778 61.9427 251.896 61.8073 252.049 61.7227C252.201 61.6211 252.37 61.5703 252.557 61.5703C252.844 61.5703 253.073 61.6719 253.242 61.875C253.428 62.0781 253.521 62.2982 253.521 62.5352C253.521 62.6198 253.513 62.696 253.496 62.7637C253.479 62.8145 253.454 62.8737 253.42 62.9414C252.252 65.5143 250.974 67.4525 249.586 68.7559C248.215 70.0592 246.658 70.7279 244.914 70.7617C243.797 70.7617 242.832 70.5417 242.02 70.1016C241.207 69.6784 240.538 69.1283 240.014 68.4512C239.489 67.7572 239.1 66.9785 238.846 66.1152C238.592 65.252 238.465 64.3887 238.465 63.5254C238.465 62.6621 238.566 61.8665 238.77 61.1387C238.99 60.4108 239.294 59.776 239.684 59.2344C240.09 58.6927 240.564 58.2695 241.105 57.9648C241.664 57.6602 242.273 57.5078 242.934 57.5078C243.323 57.5078 243.704 57.5924 244.076 57.7617C244.465 57.9141 244.812 58.1426 245.117 58.4473C245.422 58.735 245.667 59.0905 245.854 59.5137C246.04 59.9368 246.133 60.4193 246.133 60.9609C246.133 61.6549 246.014 62.3066 245.777 62.916C245.54 63.5254 245.21 64.0924 244.787 64.6172C244.381 65.1419 243.89 65.6243 243.314 66.0645C242.739 66.5046 242.121 66.8854 241.461 67.207ZM240.699 65.5566C241.224 65.3366 241.698 65.0573 242.121 64.7188C242.561 64.3802 242.934 64.0078 243.238 63.6016C243.543 63.1953 243.78 62.7721 243.949 62.332C244.118 61.875 244.203 61.418 244.203 60.9609C244.203 60.4531 244.076 60.0723 243.822 59.8184C243.568 59.5475 243.272 59.4121 242.934 59.4121C242.477 59.4121 242.087 59.5391 241.766 59.793C241.444 60.0469 241.182 60.377 240.979 60.7832C240.775 61.1895 240.623 61.6465 240.521 62.1543C240.437 62.6452 240.395 63.1361 240.395 63.627C240.395 63.9316 240.42 64.2533 240.471 64.5918C240.538 64.9303 240.615 65.252 240.699 65.5566Z" fill="#EEEEEE"/>
</svg>
