<svg width="357" height="104" viewBox="0 0 357 104" fill="none" xmlns="http://www.w3.org/2000/svg">
<rect x="0.728577" y="0.842102" width="319.014" height="70.5263" fill="#D8AD39"/>
<rect x="31" y="30.3158" width="326" height="67.3684" fill="#022F45"/>
<path d="M109.092 46.584C109.092 46.8548 108.998 47.0749 108.812 47.2441C108.626 47.3965 108.398 47.4727 108.127 47.4727H95.2537V47.752C95.2537 48.7845 95.1775 49.8848 95.0252 51.0527C94.8728 52.2207 94.6612 53.3887 94.3904 54.5566C94.1365 55.7077 93.8403 56.8333 93.5017 57.9336C93.1801 59.0339 92.8416 60.0495 92.4861 60.9805C92.1476 61.9115 91.809 62.724 91.4705 63.418C91.1319 64.0951 90.8272 64.6029 90.5564 64.9414C90.7765 65.7201 91.0388 66.4479 91.3435 67.125C91.6482 67.7852 91.9868 68.3691 92.3591 68.877C92.7485 69.3678 93.1632 69.7572 93.6033 70.0449C94.0434 70.3327 94.5173 70.4766 95.0252 70.4766C95.6176 70.4766 96.2016 70.2311 96.7771 69.7402C97.3696 69.2324 97.9112 68.64 98.4021 67.9629C98.9099 67.2689 99.35 66.5749 99.7224 65.8809C100.112 65.1699 100.391 64.6029 100.56 64.1797C100.73 63.7734 101.026 63.5703 101.449 63.5703C101.737 63.5703 101.965 63.6719 102.135 63.875C102.321 64.0781 102.414 64.2982 102.414 64.5352C102.414 64.6536 102.388 64.7721 102.338 64.8906C102.287 65.0091 102.16 65.2799 101.957 65.7031C101.771 66.1263 101.517 66.6172 101.195 67.1758C100.89 67.7344 100.526 68.3268 100.103 68.9531C99.697 69.5625 99.2315 70.1211 98.7068 70.6289C98.199 71.1367 97.6489 71.5599 97.0564 71.8984C96.464 72.237 95.8377 72.4062 95.1775 72.4062C94.0095 72.4062 92.9601 72.0254 92.0291 71.2637C91.0981 70.502 90.3025 69.4355 89.6423 68.0645C88.9991 66.6934 88.5082 65.0684 88.1697 63.1895C87.8312 61.3105 87.6619 59.2539 87.6619 57.0195C87.6619 56.4609 87.6703 55.8092 87.6873 55.0645C87.7042 54.3027 87.7381 53.5072 87.7888 52.6777C87.8396 51.8314 87.9158 50.9681 88.0173 50.0879C88.1189 49.1908 88.2543 48.319 88.4236 47.4727H79.3084C79.0375 47.4727 78.809 47.3965 78.6228 47.2441C78.4366 47.0749 78.3435 46.8548 78.3435 46.584C78.3435 46.3132 78.4366 46.1016 78.6228 45.9492C78.809 45.7799 79.0375 45.6953 79.3084 45.6953H88.8552C89.0245 45.0859 89.2192 44.5273 89.4392 44.0195C89.6762 43.5117 89.9386 43.0716 90.2263 42.6992C90.531 42.3268 90.8611 42.0391 91.2166 41.8359C91.589 41.6159 91.9952 41.5059 92.4353 41.5059C92.8585 41.5059 93.2224 41.6159 93.5271 41.8359C93.8487 42.0391 94.1196 42.3268 94.3396 42.6992C94.5597 43.0716 94.7289 43.5117 94.8474 44.0195C94.9828 44.5273 95.0844 45.0859 95.1521 45.6953H108.127C108.398 45.6953 108.626 45.7799 108.812 45.9492C108.998 46.1016 109.092 46.3132 109.092 46.584ZM89.9724 62.4023C90.4802 61.2852 90.9373 60.0833 91.3435 58.7969C91.7667 57.4935 92.1222 56.1816 92.4099 54.8613C92.7146 53.541 92.9431 52.2461 93.0955 50.9766C93.2647 49.707 93.3494 48.5391 93.3494 47.4727H90.3533C90.1163 48.5221 89.9216 49.8255 89.7693 51.3828C89.6339 52.9232 89.5662 54.8021 89.5662 57.0195C89.5662 58.2552 89.6 59.2962 89.6677 60.1426C89.7354 60.972 89.837 61.7253 89.9724 62.4023ZM92.3338 43.4102C92.1814 43.4102 91.9614 43.5794 91.6736 43.918C91.3858 44.2396 91.0981 44.832 90.8103 45.6953H93.2478C93.1632 44.9844 93.0362 44.4258 92.867 44.0195C92.7146 43.6133 92.5369 43.4102 92.3338 43.4102ZM90.3787 64.2305V64.2559V64.2305ZM103.709 69.207C104.064 69.6979 104.521 70.0957 105.08 70.4004C105.638 70.6882 106.324 70.832 107.136 70.832C107.966 70.832 108.719 70.6374 109.396 70.248C110.073 69.8418 110.691 69.3171 111.25 68.6738C111.808 68.0306 112.308 67.3112 112.748 66.5156C113.188 65.7201 113.586 64.9245 113.941 64.1289C114.026 63.9427 114.144 63.8073 114.297 63.7227C114.449 63.6211 114.618 63.5703 114.804 63.5703C115.092 63.5703 115.321 63.6719 115.49 63.875C115.676 64.0781 115.769 64.2982 115.769 64.5352C115.769 64.6198 115.761 64.696 115.744 64.7637C115.727 64.8145 115.702 64.8737 115.668 64.9414C114.5 67.5143 113.222 69.4525 111.834 70.7559C110.463 72.0592 108.905 72.7279 107.162 72.7617C106.045 72.7617 105.08 72.5417 104.267 72.1016C103.455 71.6784 102.786 71.1283 102.261 70.4512C101.737 69.7572 101.347 68.9785 101.094 68.1152C100.84 67.252 100.713 66.3887 100.713 65.5254C100.713 64.6621 100.814 63.8665 101.017 63.1387C101.237 62.4108 101.542 61.776 101.931 61.2344C102.338 60.6927 102.812 60.2695 103.353 59.9648C103.912 59.6602 104.521 59.5078 105.181 59.5078C105.571 59.5078 105.952 59.5924 106.324 59.7617C106.713 59.9141 107.06 60.1426 107.365 60.4473C107.67 60.735 107.915 61.0905 108.101 61.5137C108.288 61.9368 108.381 62.4193 108.381 62.9609C108.381 63.6549 108.262 64.3066 108.025 64.916C107.788 65.5254 107.458 66.0924 107.035 66.6172C106.629 67.1419 106.138 67.6243 105.562 68.0645C104.987 68.5046 104.369 68.8854 103.709 69.207ZM102.947 67.5566C103.472 67.3366 103.946 67.0573 104.369 66.7188C104.809 66.3802 105.181 66.0078 105.486 65.6016C105.791 65.1953 106.028 64.7721 106.197 64.332C106.366 63.875 106.451 63.418 106.451 62.9609C106.451 62.4531 106.324 62.0723 106.07 61.8184C105.816 61.5475 105.52 61.4121 105.181 61.4121C104.724 61.4121 104.335 61.5391 104.013 61.793C103.692 62.0469 103.429 62.377 103.226 62.7832C103.023 63.1895 102.871 63.6465 102.769 64.1543C102.685 64.6452 102.642 65.1361 102.642 65.627C102.642 65.9316 102.668 66.2533 102.719 66.5918C102.786 66.9303 102.862 67.252 102.947 67.5566ZM130.572 64.9668C130.47 65.153 130.293 65.4915 130.039 65.9824C129.802 66.4733 129.472 67.0319 129.049 67.6582C128.642 68.2676 128.151 68.9023 127.576 69.5625C127 70.2227 126.34 70.832 125.595 71.3906C124.851 71.9323 124.013 72.3809 123.082 72.7363C122.168 73.0918 121.169 73.2695 120.086 73.2695C119.121 73.2695 118.266 73.0918 117.521 72.7363C116.776 72.3978 116.142 71.9154 115.617 71.2891C115.092 70.6458 114.694 69.8926 114.424 69.0293C114.153 68.166 114.017 67.2096 114.017 66.1602C114.017 65.1445 114.161 64.1966 114.449 63.3164C114.737 62.4193 115.126 61.6406 115.617 60.9805C116.125 60.3203 116.709 59.804 117.369 59.4316C118.029 59.0423 118.732 58.8477 119.476 58.8477C120.035 58.8477 120.543 58.9492 121 59.1523C121.457 59.3385 121.838 59.5924 122.142 59.9141C122.464 60.2357 122.709 60.5911 122.879 60.9805C123.065 61.3698 123.158 61.7591 123.158 62.1484C123.158 62.5208 123.107 62.8678 123.006 63.1895C122.921 63.5111 122.803 63.7988 122.65 64.0527C122.515 64.2897 122.354 64.4844 122.168 64.6367C121.982 64.7721 121.795 64.8398 121.609 64.8398C121.321 64.8398 121.084 64.7467 120.898 64.5605C120.729 64.3743 120.644 64.1458 120.644 63.875C120.644 63.7396 120.67 63.6211 120.72 63.5195C120.788 63.418 120.856 63.3164 120.924 63.2148C121.008 63.0964 121.076 62.9609 121.127 62.8086C121.194 62.6393 121.228 62.4277 121.228 62.1738C121.228 61.8184 121.059 61.4967 120.72 61.209C120.399 60.9212 119.984 60.7773 119.476 60.7773C119.002 60.7773 118.545 60.9212 118.105 61.209C117.682 61.4967 117.31 61.8861 116.988 62.377C116.666 62.8509 116.404 63.418 116.201 64.0781C116.015 64.7214 115.922 65.4069 115.922 66.1348C115.922 66.8288 116.006 67.4889 116.176 68.1152C116.345 68.7415 116.599 69.3001 116.937 69.791C117.276 70.265 117.699 70.6458 118.207 70.9336C118.732 71.2214 119.349 71.3652 120.06 71.3652C120.974 71.3652 121.821 71.2044 122.599 70.8828C123.378 70.5443 124.089 70.1211 124.732 69.6133C125.375 69.1055 125.942 68.5553 126.433 67.9629C126.924 67.3535 127.339 66.7865 127.678 66.2617C128.033 65.7201 128.304 65.2546 128.49 64.8652C128.693 64.459 128.812 64.2051 128.845 64.1035C128.913 63.9342 129.023 63.8073 129.176 63.7227C129.345 63.6211 129.523 63.5703 129.709 63.5703C129.997 63.5703 130.225 63.6719 130.394 63.875C130.581 64.0781 130.674 64.3066 130.674 64.5605C130.674 64.6621 130.64 64.7975 130.572 64.9668ZM130.851 69.8418C131.122 69.2663 131.435 68.6484 131.791 67.9883C132.146 67.3112 132.527 66.6257 132.933 65.9316C133.34 65.2207 133.771 64.5182 134.228 63.8242C134.685 63.1302 135.159 62.4785 135.65 61.8691C136.141 61.2767 136.632 60.8535 137.123 60.5996C137.631 60.3288 138.105 60.1934 138.545 60.1934C138.985 60.1934 139.366 60.2865 139.687 60.4727C140.026 60.6419 140.297 60.8789 140.5 61.1836C140.72 61.4883 140.881 61.8438 140.982 62.25C141.101 62.6562 141.16 63.0964 141.16 63.5703C141.16 63.9596 141.118 64.4844 141.033 65.1445C140.965 65.7878 140.931 66.4648 140.931 67.1758C140.931 67.582 140.948 67.9883 140.982 68.3945C141.033 68.7839 141.109 69.1393 141.211 69.4609C141.329 69.7656 141.498 70.0195 141.719 70.2227C141.939 70.4089 142.226 70.502 142.582 70.502C142.988 70.502 143.394 70.3919 143.801 70.1719C144.207 69.9349 144.605 69.6302 144.994 69.2578C145.383 68.8685 145.756 68.4453 146.111 67.9883C146.467 67.5143 146.788 67.0488 147.076 66.5918C147.364 66.1178 147.618 65.6693 147.838 65.2461C148.058 64.806 148.235 64.4421 148.371 64.1543C148.54 63.765 148.836 63.5703 149.26 63.5703C149.547 63.5703 149.776 63.6719 149.945 63.875C150.114 64.0781 150.199 64.2982 150.199 64.5352C150.199 64.6706 150.174 64.7975 150.123 64.916C150.055 65.0514 149.92 65.3307 149.717 65.7539C149.53 66.1771 149.268 66.668 148.929 67.2266C148.608 67.7852 148.227 68.3691 147.787 68.9785C147.347 69.5879 146.856 70.1549 146.314 70.6797C145.789 71.1875 145.214 71.6107 144.588 71.9492C143.978 72.2708 143.335 72.4316 142.658 72.4316C141.879 72.4316 141.253 72.2708 140.779 71.9492C140.305 71.6107 139.933 71.1875 139.662 70.6797C139.408 70.1719 139.23 69.6048 139.129 68.9785C139.044 68.3522 139.002 67.7428 139.002 67.1504C139.002 66.8457 139.01 66.5241 139.027 66.1855C139.061 65.8301 139.095 65.4831 139.129 65.1445C139.163 64.806 139.188 64.4928 139.205 64.2051C139.239 63.9004 139.256 63.6465 139.256 63.4434C139.256 62.9186 139.179 62.5632 139.027 62.377C138.892 62.1908 138.731 62.0977 138.545 62.0977C138.274 62.0977 137.961 62.2585 137.605 62.5801C137.267 62.8848 136.903 63.291 136.513 63.7988C136.141 64.3066 135.76 64.8822 135.371 65.5254C134.998 66.1517 134.635 66.778 134.279 67.4043C133.924 68.0306 133.602 68.6315 133.314 69.207C133.026 69.7656 132.789 70.2311 132.603 70.6035C132.248 71.3145 131.884 71.7884 131.511 72.0254C131.156 72.2793 130.834 72.4062 130.547 72.4062C130.022 72.4062 129.616 72.2031 129.328 71.7969C129.057 71.3737 128.922 70.8659 128.922 70.2734V68.6738C128.922 65.4746 128.922 62.4277 128.922 59.5332C128.939 56.6217 128.981 53.9219 129.049 51.4336C129.133 48.9284 129.26 46.6686 129.429 44.6543C129.616 42.623 129.886 40.8965 130.242 39.4746C130.597 38.0358 131.046 36.9271 131.588 36.1484C132.146 35.3698 132.84 34.9805 133.67 34.9805C134.381 34.9805 134.982 35.1751 135.472 35.5645C135.963 35.9538 136.361 36.487 136.666 37.1641C136.97 37.8242 137.191 38.6029 137.326 39.5C137.461 40.3802 137.529 41.3112 137.529 42.293C137.529 44.2904 137.343 46.2539 136.97 48.1836C136.615 50.0964 136.133 51.9668 135.523 53.7949C134.914 55.623 134.203 57.4089 133.39 59.1523C132.578 60.8789 131.723 62.5632 130.826 64.2051C130.826 64.5098 130.826 64.8737 130.826 65.2969C130.826 65.7201 130.826 66.1432 130.826 66.5664C130.826 66.9896 130.826 67.3874 130.826 67.7598C130.826 68.1322 130.826 68.4284 130.826 68.6484L130.851 69.8418ZM130.851 60.4727C131.562 58.9154 132.206 57.4004 132.781 55.9277C133.373 54.4382 133.873 52.957 134.279 51.4844C134.702 50.0117 135.032 48.5221 135.269 47.0156C135.506 45.4922 135.625 43.9095 135.625 42.2676C135.625 41.9967 135.608 41.5651 135.574 40.9727C135.557 40.3802 135.481 39.7793 135.345 39.1699C135.227 38.5605 135.032 38.0273 134.761 37.5703C134.508 37.1133 134.144 36.8848 133.67 36.8848C133.297 36.8848 132.976 37.1387 132.705 37.6465C132.434 38.1374 132.197 38.8145 131.994 39.6777C131.791 40.5241 131.622 41.5143 131.486 42.6484C131.351 43.7826 131.241 44.9844 131.156 46.2539C131.071 47.5234 131.004 48.8268 130.953 50.1641C130.919 51.5013 130.894 52.8047 130.877 54.0742C130.86 55.3268 130.851 56.5033 130.851 57.6035C130.851 58.7038 130.851 59.6602 130.851 60.4727ZM154.033 69.7148C154.304 69.1562 154.617 68.5469 154.972 67.8867C155.328 67.2096 155.709 66.5326 156.115 65.8555C156.521 65.1615 156.944 64.4759 157.385 63.7988C157.842 63.1217 158.316 62.4785 158.806 61.8691C159.297 61.2767 159.788 60.8535 160.279 60.5996C160.787 60.3288 161.261 60.1934 161.701 60.1934C162.581 60.1934 163.233 60.515 163.656 61.1582C164.079 61.8014 164.291 62.597 164.291 63.5449C164.291 63.765 164.274 64.0358 164.24 64.3574C164.223 64.6621 164.198 64.9922 164.164 65.3477C164.147 65.7031 164.122 66.0671 164.088 66.4395C164.071 66.7949 164.062 67.1335 164.062 67.4551C164.062 67.8613 164.079 68.2507 164.113 68.623C164.164 68.9954 164.248 69.3255 164.367 69.6133C164.485 69.8841 164.655 70.1042 164.875 70.2734C165.095 70.4258 165.383 70.502 165.738 70.502C166.381 70.502 167.008 70.2565 167.617 69.7656C168.226 69.2578 168.785 68.6654 169.293 67.9883C169.817 67.2943 170.266 66.5918 170.638 65.8809C171.028 65.1699 171.316 64.5944 171.502 64.1543C171.586 63.9681 171.705 63.8242 171.857 63.7227C172.026 63.6211 172.204 63.5703 172.39 63.5703C172.678 63.5703 172.907 63.6803 173.076 63.9004C173.262 64.1035 173.355 64.3236 173.355 64.5605C173.355 64.679 173.33 64.7975 173.279 64.916C173.211 65.0514 173.076 65.3307 172.873 65.7539C172.67 66.1771 172.399 66.668 172.06 67.2266C171.739 67.7682 171.358 68.3522 170.918 68.9785C170.478 69.5879 169.987 70.1465 169.445 70.6543C168.92 71.1621 168.345 71.5853 167.719 71.9238C167.109 72.2624 166.466 72.4316 165.789 72.4316C165.027 72.4316 164.409 72.2878 163.935 72C163.461 71.6953 163.089 71.306 162.818 70.832C162.547 70.3411 162.361 69.8079 162.26 69.2324C162.175 68.64 162.133 68.0475 162.133 67.4551C162.133 67.2012 162.141 66.9134 162.158 66.5918C162.192 66.2702 162.226 65.9316 162.26 65.5762C162.31 65.2207 162.344 64.8652 162.361 64.5098C162.395 64.1543 162.412 63.8158 162.412 63.4941C162.412 62.9525 162.327 62.5885 162.158 62.4023C161.989 62.1992 161.836 62.0977 161.701 62.0977C161.43 62.0977 161.117 62.2585 160.761 62.5801C160.423 62.8848 160.059 63.291 159.67 63.7988C159.297 64.3066 158.908 64.8822 158.502 65.5254C158.112 66.1517 157.74 66.778 157.385 67.4043C157.046 68.0306 156.724 68.6315 156.42 69.207C156.132 69.7656 155.903 70.2311 155.734 70.6035C155.396 71.3145 155.057 71.7884 154.719 72.0254C154.38 72.2793 154.033 72.4062 153.678 72.4062C153.187 72.4062 152.789 72.2624 152.484 71.9746C152.196 71.6699 152.053 71.2467 152.053 70.7051C152.053 70.5866 152.069 70.3581 152.103 70.0195C152.137 69.6641 152.179 69.2493 152.23 68.7754C152.281 68.2845 152.332 67.7598 152.383 67.2012C152.433 66.6426 152.484 66.0924 152.535 65.5508C152.586 64.9922 152.628 64.4759 152.662 64.002C152.696 63.528 152.713 63.1302 152.713 62.8086C152.713 62.3854 152.696 61.9792 152.662 61.5898C152.628 61.2005 152.56 60.9635 152.459 60.8789C152.306 60.9297 152.036 61.2513 151.646 61.8438C151.257 62.4193 150.758 63.4434 150.148 64.916C150.064 65.1022 149.937 65.2461 149.767 65.3477C149.598 65.4492 149.42 65.5 149.234 65.5C148.946 65.5 148.718 65.4069 148.549 65.2207C148.379 65.0176 148.295 64.7891 148.295 64.5352C148.295 64.4167 148.32 64.2897 148.371 64.1543C149.133 62.3431 149.844 61.0143 150.504 60.168C151.181 59.3047 151.849 58.873 152.51 58.873C152.899 58.873 153.229 58.9746 153.5 59.1777C153.771 59.3639 153.982 59.6178 154.135 59.9395C154.304 60.2611 154.422 60.6165 154.49 61.0059C154.575 61.3952 154.617 61.793 154.617 62.1992C154.617 62.5039 154.592 62.9779 154.541 63.6211C154.507 64.2643 154.456 64.9583 154.388 65.7031C154.321 66.431 154.253 67.1589 154.185 67.8867C154.135 68.6146 154.084 69.224 154.033 69.7148ZM175.691 52.0684C175.691 52.7116 175.463 53.2617 175.006 53.7188C174.566 54.1589 174.024 54.3789 173.381 54.3789C172.737 54.3789 172.187 54.1589 171.73 53.7188C171.29 53.2617 171.07 52.7116 171.07 52.0684C171.07 51.7467 171.129 51.4505 171.248 51.1797C171.366 50.8919 171.527 50.6465 171.73 50.4434C171.95 50.2233 172.196 50.054 172.467 49.9355C172.754 49.8171 173.059 49.7578 173.381 49.7578C173.702 49.7578 173.998 49.8171 174.269 49.9355C174.557 50.054 174.803 50.2233 175.006 50.4434C175.226 50.6465 175.395 50.8919 175.513 51.1797C175.632 51.4505 175.691 51.7467 175.691 52.0684ZM171.578 66.9473C171.578 64.5098 171.73 62.0807 172.035 59.6602C172.069 59.4232 172.17 59.2201 172.34 59.0508C172.526 58.8646 172.763 58.7715 173.051 58.7715C173.304 58.7715 173.516 58.873 173.685 59.0762C173.855 59.2624 173.939 59.4824 173.939 59.7363C173.939 59.8379 173.914 60.1426 173.863 60.6504C173.829 61.1582 173.778 61.7676 173.711 62.4785C173.66 63.1725 173.609 63.9173 173.558 64.7129C173.525 65.4915 173.508 66.2109 173.508 66.8711C173.508 67.7682 173.592 68.4961 173.761 69.0547C173.948 69.5964 174.176 70.0195 174.447 70.3242C174.735 70.6289 175.031 70.832 175.336 70.9336C175.657 71.0352 175.962 71.0859 176.25 71.0859C176.724 71.0859 177.215 70.9167 177.722 70.5781C178.23 70.2396 178.747 69.7656 179.271 69.1562C179.813 68.5469 180.355 67.819 180.896 66.9727C181.438 66.1094 181.971 65.153 182.496 64.1035C182.581 63.9342 182.699 63.8073 182.851 63.7227C183.004 63.6211 183.173 63.5703 183.359 63.5703C183.63 63.5703 183.85 63.6719 184.019 63.875C184.206 64.0781 184.299 64.2982 184.299 64.5352C184.299 64.7044 184.265 64.8483 184.197 64.9668C183.994 65.3561 183.74 65.8301 183.435 66.3887C183.131 66.9473 182.784 67.5228 182.394 68.1152C182.005 68.7077 181.573 69.3001 181.099 69.8926C180.642 70.4681 180.151 70.9928 179.627 71.4668C179.102 71.9238 178.552 72.2962 177.976 72.584C177.401 72.8717 176.817 73.0156 176.224 73.0156C175.463 73.0156 174.794 72.8548 174.219 72.5332C173.643 72.2116 173.152 71.7799 172.746 71.2383C172.357 70.6966 172.06 70.0618 171.857 69.334C171.671 68.5892 171.578 67.7936 171.578 66.9473ZM174.269 52.0684C174.269 51.8314 174.176 51.6283 173.99 51.459C173.821 51.2728 173.618 51.1797 173.381 51.1797C173.144 51.1797 172.941 51.2728 172.771 51.459C172.602 51.6283 172.517 51.8314 172.517 52.0684C172.517 52.3053 172.602 52.5085 172.771 52.6777C172.941 52.847 173.144 52.9316 173.381 52.9316C173.618 52.9316 173.821 52.847 173.99 52.6777C174.176 52.5085 174.269 52.3053 174.269 52.0684ZM199.076 64.9668C198.974 65.153 198.797 65.4915 198.543 65.9824C198.306 66.4733 197.976 67.0319 197.553 67.6582C197.146 68.2676 196.655 68.9023 196.08 69.5625C195.504 70.2227 194.844 70.832 194.099 71.3906C193.355 71.9323 192.517 72.3809 191.586 72.7363C190.672 73.0918 189.673 73.2695 188.59 73.2695C187.625 73.2695 186.77 73.0918 186.025 72.7363C185.28 72.3978 184.646 71.9154 184.121 71.2891C183.596 70.6458 183.198 69.8926 182.928 69.0293C182.657 68.166 182.521 67.2096 182.521 66.1602C182.521 65.1445 182.665 64.1966 182.953 63.3164C183.241 62.4193 183.63 61.6406 184.121 60.9805C184.629 60.3203 185.213 59.804 185.873 59.4316C186.533 59.0423 187.235 58.8477 187.98 58.8477C188.539 58.8477 189.047 58.9492 189.504 59.1523C189.961 59.3385 190.342 59.5924 190.646 59.9141C190.968 60.2357 191.213 60.5911 191.383 60.9805C191.569 61.3698 191.662 61.7591 191.662 62.1484C191.662 62.5208 191.611 62.8678 191.51 63.1895C191.425 63.5111 191.306 63.7988 191.154 64.0527C191.019 64.2897 190.858 64.4844 190.672 64.6367C190.485 64.7721 190.299 64.8398 190.113 64.8398C189.825 64.8398 189.588 64.7467 189.402 64.5605C189.233 64.3743 189.148 64.1458 189.148 63.875C189.148 63.7396 189.174 63.6211 189.224 63.5195C189.292 63.418 189.36 63.3164 189.428 63.2148C189.512 63.0964 189.58 62.9609 189.631 62.8086C189.698 62.6393 189.732 62.4277 189.732 62.1738C189.732 61.8184 189.563 61.4967 189.224 61.209C188.903 60.9212 188.488 60.7773 187.98 60.7773C187.506 60.7773 187.049 60.9212 186.609 61.209C186.186 61.4967 185.814 61.8861 185.492 62.377C185.17 62.8509 184.908 63.418 184.705 64.0781C184.519 64.7214 184.426 65.4069 184.426 66.1348C184.426 66.8288 184.51 67.4889 184.679 68.1152C184.849 68.7415 185.103 69.3001 185.441 69.791C185.78 70.265 186.203 70.6458 186.711 70.9336C187.235 71.2214 187.853 71.3652 188.564 71.3652C189.478 71.3652 190.325 71.2044 191.103 70.8828C191.882 70.5443 192.593 70.1211 193.236 69.6133C193.879 69.1055 194.446 68.5553 194.937 67.9629C195.428 67.3535 195.843 66.7865 196.181 66.2617C196.537 65.7201 196.808 65.2546 196.994 64.8652C197.197 64.459 197.316 64.2051 197.349 64.1035C197.417 63.9342 197.527 63.8073 197.679 63.7227C197.849 63.6211 198.026 63.5703 198.213 63.5703C198.5 63.5703 198.729 63.6719 198.898 63.875C199.084 64.0781 199.178 64.3066 199.178 64.5605C199.178 64.6621 199.144 64.7975 199.076 64.9668ZM216.976 64.916C216.909 65.0514 216.765 65.3392 216.545 65.7793C216.342 66.2025 216.071 66.6934 215.732 67.252C215.411 67.8105 215.03 68.3945 214.59 69.0039C214.15 69.6133 213.659 70.1719 213.117 70.6797C212.575 71.1875 211.991 71.6107 211.365 71.9492C210.739 72.2708 210.079 72.4316 209.385 72.4316C208.403 72.4316 207.573 72.1185 206.896 71.4922C206.236 70.8659 205.754 70.0788 205.449 69.1309C204.873 70.0957 204.188 70.8659 203.392 71.4414C202.597 72 201.801 72.2793 201.006 72.2793C200.379 72.2793 199.812 72.1693 199.304 71.9492C198.797 71.7122 198.365 71.3906 198.01 70.9844C197.654 70.5612 197.375 70.0703 197.172 69.5117C196.985 68.9531 196.892 68.3438 196.892 67.6836C196.892 66.3633 197.112 65.2038 197.553 64.2051C198.01 63.1895 198.585 62.3431 199.279 61.666C199.973 60.9889 200.735 60.4811 201.564 60.1426C202.411 59.804 203.223 59.6348 204.002 59.6348C204.526 59.6348 205.009 59.7109 205.449 59.8633C205.889 59.9987 206.261 60.151 206.566 60.3203C206.888 60.4896 207.133 60.6504 207.303 60.8027C207.472 60.9382 207.565 61.0143 207.582 61.0312C207.768 61.2513 207.861 61.4798 207.861 61.7168C207.861 61.9707 207.768 62.1992 207.582 62.4023C207.396 62.5885 207.176 62.6816 206.922 62.6816C206.651 62.6816 206.422 62.5885 206.236 62.4023C206.202 62.3685 206.126 62.3092 206.008 62.2246C205.889 62.123 205.728 62.0215 205.525 61.9199C205.322 61.8184 205.077 61.7337 204.789 61.666C204.518 61.5814 204.205 61.5391 203.849 61.5391C203.325 61.5391 202.766 61.6576 202.174 61.8945C201.581 62.1315 201.039 62.5039 200.549 63.0117C200.058 63.5026 199.643 64.1289 199.304 64.8906C198.983 65.6354 198.822 66.5241 198.822 67.5566C198.822 67.8783 198.856 68.2083 198.924 68.5469C198.991 68.8685 199.11 69.1647 199.279 69.4355C199.448 69.7064 199.677 69.9264 199.965 70.0957C200.252 70.265 200.608 70.3496 201.031 70.3496C201.336 70.3496 201.683 70.248 202.072 70.0449C202.478 69.8418 202.859 69.5286 203.215 69.1055C203.587 68.6823 203.917 68.1491 204.205 67.5059C204.51 66.8626 204.721 66.1009 204.84 65.2207C204.873 64.9837 204.983 64.7891 205.17 64.6367C205.356 64.4674 205.576 64.3828 205.83 64.3828C206.067 64.3828 206.27 64.4759 206.439 64.6621C206.625 64.8483 206.727 65.0599 206.744 65.2969C206.761 65.6185 206.795 66.0755 206.845 66.668C206.896 67.2435 207.006 67.819 207.176 68.3945C207.362 68.9701 207.633 69.4694 207.988 69.8926C208.344 70.3158 208.834 70.5273 209.461 70.5273C209.867 70.5273 210.265 70.4173 210.654 70.1973C211.06 69.9772 211.45 69.6895 211.822 69.334C212.211 68.9616 212.575 68.5469 212.914 68.0898C213.269 67.6159 213.591 67.1419 213.879 66.668C214.166 66.194 214.42 65.737 214.64 65.2969C214.86 64.8568 215.047 64.4759 215.199 64.1543C215.284 63.9681 215.402 63.8242 215.554 63.7227C215.724 63.6211 215.901 63.5703 216.088 63.5703C216.375 63.5703 216.604 63.6803 216.773 63.9004C216.959 64.1035 217.053 64.3236 217.053 64.5605C217.053 64.679 217.027 64.7975 216.976 64.916ZM229.672 64.9668C229.485 65.3561 229.248 65.8216 228.961 66.3633C228.69 66.888 228.377 67.4382 228.021 68.0137C227.666 68.5892 227.268 69.1647 226.828 69.7402C226.388 70.2988 225.905 70.8066 225.381 71.2637C224.873 71.7038 224.323 72.0592 223.73 72.3301C223.155 72.6178 222.537 72.7617 221.877 72.7617C220.861 72.7617 219.989 72.4486 219.261 71.8223C218.534 71.196 217.916 70.375 217.408 69.3594C216.9 68.3438 216.485 67.1927 216.164 65.9062C215.859 64.6029 215.622 63.2826 215.453 61.9453C215.284 60.5911 215.165 59.2793 215.097 58.0098C215.047 56.7402 215.021 55.6146 215.021 54.6328C215.021 53.2109 215.064 51.7383 215.148 50.2148C215.25 48.6914 215.402 47.2018 215.605 45.7461C215.808 44.2904 216.062 42.9108 216.367 41.6074C216.689 40.304 217.061 39.1615 217.484 38.1797C217.924 37.1979 218.424 36.4193 218.982 35.8438C219.541 35.2682 220.176 34.9805 220.886 34.9805C221.445 34.9805 221.944 35.1159 222.385 35.3867C222.842 35.6406 223.222 36.0638 223.527 36.6562C223.832 37.2487 224.069 38.0189 224.238 38.9668C224.407 39.9147 224.492 41.0742 224.492 42.4453C224.492 44.138 224.314 45.89 223.959 47.7012C223.603 49.4954 223.121 51.3066 222.511 53.1348C221.902 54.9629 221.183 56.791 220.353 58.6191C219.524 60.4303 218.635 62.1992 217.687 63.9258C218.11 66.0755 218.678 67.7682 219.388 69.0039C220.099 70.2227 220.954 70.832 221.953 70.832C222.63 70.832 223.282 70.5697 223.908 70.0449C224.534 69.5033 225.11 68.8685 225.635 68.1406C226.159 67.4128 226.616 66.6764 227.006 65.9316C227.412 65.1699 227.725 64.5605 227.945 64.1035C228.03 63.9342 228.148 63.8073 228.301 63.7227C228.453 63.6211 228.622 63.5703 228.808 63.5703C229.096 63.5703 229.325 63.6719 229.494 63.875C229.68 64.0781 229.773 64.3066 229.773 64.5605C229.773 64.6621 229.739 64.7975 229.672 64.9668ZM216.951 54.7598C216.951 55.8431 216.976 56.8841 217.027 57.8828C217.078 58.8815 217.146 59.8379 217.23 60.752C217.941 59.3809 218.618 57.9251 219.261 56.3848C219.905 54.8275 220.472 53.2617 220.963 51.6875C221.454 50.0964 221.843 48.5221 222.131 46.9648C222.435 45.3906 222.588 43.8926 222.588 42.4707C222.588 40.4733 222.427 39.043 222.105 38.1797C221.784 37.3164 221.352 36.8848 220.81 36.8848C220.455 36.8848 220.108 37.1302 219.769 37.6211C219.448 38.112 219.143 38.7806 218.855 39.627C218.567 40.4733 218.305 41.472 218.068 42.623C217.831 43.7741 217.628 45.0098 217.459 46.3301C217.306 47.6504 217.179 49.0299 217.078 50.4688C216.993 51.9076 216.951 53.3379 216.951 54.7598ZM248.588 74.5898C249.299 73.6589 249.984 72.7279 250.644 71.7969C251.304 70.8659 251.914 69.9518 252.472 69.0547C253.048 68.1576 253.564 67.2943 254.021 66.4648C254.495 65.6354 254.893 64.8652 255.215 64.1543C255.299 63.9681 255.409 63.8327 255.545 63.748C255.697 63.6465 255.866 63.5957 256.053 63.5957C256.34 63.5957 256.577 63.6973 256.763 63.9004C256.95 64.0866 257.043 64.3066 257.043 64.5605C257.043 64.679 257.017 64.7975 256.967 64.916C256.594 65.7454 256.137 66.6426 255.595 67.6074C255.054 68.5553 254.444 69.5456 253.767 70.5781C253.107 71.6107 252.388 72.6602 251.609 73.7266C250.847 74.793 250.052 75.8424 249.222 76.875C249.95 77.7214 250.627 78.7708 251.254 80.0234C251.897 81.276 252.447 82.6217 252.904 84.0605C253.361 85.4993 253.717 86.9635 253.97 88.4531C254.241 89.9427 254.377 91.3392 254.377 92.6426C254.377 94.1152 254.233 95.2917 253.945 96.1719C253.657 97.0521 253.31 97.7292 252.904 98.2031C252.498 98.6771 252.075 98.9818 251.635 99.1172C251.194 99.2695 250.822 99.3457 250.517 99.3457C249.586 99.3457 248.85 99.0495 248.308 98.457C247.784 97.8815 247.377 97.0267 247.09 95.8926C246.819 94.7754 246.641 93.3874 246.556 91.7285C246.489 90.0697 246.455 88.1569 246.455 85.9902C246.455 84.5684 246.463 83.1296 246.48 81.6738C246.514 80.2181 246.556 78.7878 246.607 77.3828C246.658 75.9779 246.717 74.6237 246.785 73.3203C246.853 72.0339 246.929 70.8405 247.013 69.7402C246.472 70.5527 245.862 71.179 245.185 71.6191C244.525 72.0592 243.789 72.2793 242.976 72.2793C242.367 72.2793 241.808 72.1608 241.301 71.9238C240.81 71.6868 240.386 71.3652 240.031 70.959C239.676 70.5358 239.405 70.0449 239.219 69.4863C239.032 68.9277 238.939 68.3268 238.939 67.6836C238.939 66.3633 239.159 65.2038 239.599 64.2051C240.056 63.1895 240.632 62.3431 241.326 61.666C242.02 60.9889 242.782 60.4811 243.611 60.1426C244.457 59.804 245.27 59.6348 246.049 59.6348C246.573 59.6348 247.056 59.7109 247.496 59.8633C247.936 59.9987 248.308 60.151 248.613 60.3203C248.918 60.4896 249.155 60.6504 249.324 60.8027C249.51 60.9382 249.612 61.0143 249.629 61.0312C249.815 61.2005 249.908 61.429 249.908 61.7168C249.908 61.9707 249.815 62.1992 249.629 62.4023C249.459 62.5885 249.231 62.6816 248.943 62.6816C248.791 62.6816 248.664 62.6562 248.562 62.6055C248.478 62.5547 248.385 62.487 248.283 62.4023C248.114 62.2669 247.86 62.0892 247.521 61.8691C247.2 61.6491 246.717 61.5391 246.074 61.5391C245.566 61.5391 245.008 61.6576 244.398 61.8945C243.789 62.1146 243.222 62.4701 242.697 62.9609C242.172 63.4518 241.732 64.0866 241.377 64.8652C241.021 65.627 240.844 66.5495 240.844 67.6328C240.844 68.4115 241.013 69.0632 241.351 69.5879C241.707 70.0957 242.265 70.3496 243.027 70.3496C243.4 70.3496 243.806 70.2311 244.246 69.9941C244.703 69.7402 245.135 69.3678 245.541 68.877C245.964 68.3861 246.336 67.7767 246.658 67.0488C246.997 66.321 247.233 65.4746 247.369 64.5098C247.403 64.2728 247.513 64.0781 247.699 63.9258C247.885 63.7565 248.097 63.6719 248.334 63.6719C248.605 63.6719 248.825 63.7734 248.994 63.9766C249.18 64.1628 249.273 64.3828 249.273 64.6367C249.273 64.6706 249.248 64.9668 249.197 65.5254C249.163 66.0671 249.112 66.7949 249.045 67.709C248.977 68.6061 248.901 69.6471 248.816 70.832C248.732 72.0169 248.655 73.2695 248.588 74.5898ZM248.41 78.9062C248.393 79.431 248.376 79.9388 248.359 80.4297C248.359 80.9206 248.359 81.403 248.359 81.877C248.359 84.0605 248.368 86.0918 248.385 87.9707C248.401 89.8665 248.469 91.5085 248.588 92.8965C248.723 94.3014 248.935 95.4017 249.222 96.1973C249.527 97.0098 249.95 97.416 250.492 97.416C250.932 97.416 251.279 97.2214 251.533 96.832C251.804 96.4596 252.007 96.0111 252.142 95.4863C252.278 94.9616 252.362 94.4199 252.396 93.8613C252.447 93.3197 252.472 92.8796 252.472 92.541C252.472 91.4069 252.362 90.2051 252.142 88.9355C251.939 87.666 251.651 86.4134 251.279 85.1777C250.924 83.9421 250.492 82.7741 249.984 81.6738C249.493 80.5905 248.969 79.668 248.41 78.9062ZM263.67 69.1562C263.077 70.1211 262.383 70.8828 261.588 71.4414C260.809 72 260.022 72.2793 259.226 72.2793C258.583 72.2793 258.008 72.1608 257.5 71.9238C256.992 71.6868 256.552 71.3568 256.179 70.9336C255.807 70.4935 255.519 69.9688 255.316 69.3594C255.13 68.75 255.037 68.0645 255.037 67.3027C255.037 66.1178 255.147 65.0684 255.367 64.1543C255.604 63.2402 255.858 62.4785 256.129 61.8691C256.4 61.2428 256.653 60.7689 256.89 60.4473C257.127 60.1257 257.246 59.9648 257.246 59.9648C257.331 59.8633 257.432 59.7871 257.551 59.7363C257.686 59.6855 257.821 59.6602 257.957 59.6602C258.228 59.6602 258.448 59.7617 258.617 59.9648C258.803 60.151 258.896 60.3711 258.896 60.625C258.896 60.7266 258.871 60.8281 258.82 60.9297C258.786 61.0312 258.744 61.1328 258.693 61.2344C258.608 61.3867 258.473 61.6237 258.287 61.9453C258.101 62.25 257.906 62.6562 257.703 63.1641C257.5 63.6719 257.322 64.2728 257.17 64.9668C257.017 65.6439 256.941 66.4225 256.941 67.3027C256.941 68.3014 257.136 69.0632 257.525 69.5879C257.931 70.0957 258.498 70.3496 259.226 70.3496C259.531 70.3496 259.878 70.2565 260.267 70.0703C260.674 69.8672 261.063 69.5625 261.435 69.1562C261.825 68.75 262.163 68.2337 262.451 67.6074C262.739 66.9811 262.925 66.2448 263.01 65.3984L263.39 61.0312C263.424 60.7773 263.534 60.5658 263.72 60.3965C263.907 60.2272 264.127 60.1426 264.381 60.1426C264.668 60.1426 264.897 60.2526 265.066 60.4727C265.235 60.6758 265.32 60.9128 265.32 61.1836L264.99 65.3984C264.956 65.7539 264.965 66.2194 265.015 66.7949C265.083 67.3704 265.21 67.9375 265.396 68.4961C265.582 69.0547 265.862 69.5371 266.234 69.9434C266.607 70.3327 267.097 70.5273 267.707 70.5273C268.147 70.5273 268.579 70.4173 269.002 70.1973C269.425 69.9603 269.831 69.6556 270.22 69.2832C270.61 68.9108 270.965 68.4961 271.287 68.0391C271.625 67.5651 271.93 67.0911 272.201 66.6172C272.489 66.1432 272.734 65.6947 272.937 65.2715C273.14 64.8314 273.31 64.459 273.445 64.1543C273.53 63.9681 273.648 63.8242 273.801 63.7227C273.953 63.6211 274.122 63.5703 274.308 63.5703C274.613 63.5703 274.85 63.6719 275.019 63.875C275.189 64.0781 275.273 64.2982 275.273 64.5352C275.273 64.6706 275.248 64.7975 275.197 64.916C275.129 65.0514 274.994 65.3392 274.791 65.7793C274.605 66.2025 274.351 66.6934 274.029 67.252C273.724 67.7936 273.352 68.3691 272.912 68.9785C272.472 69.5879 271.981 70.1549 271.439 70.6797C270.898 71.1875 270.305 71.6107 269.662 71.9492C269.036 72.2708 268.358 72.4316 267.631 72.4316C266.632 72.4316 265.803 72.1523 265.142 71.5938C264.482 71.0182 263.991 70.2057 263.67 69.1562ZM277.609 52.0684C277.609 52.7116 277.381 53.2617 276.924 53.7188C276.483 54.1589 275.942 54.3789 275.299 54.3789C274.655 54.3789 274.105 54.1589 273.648 53.7188C273.208 53.2617 272.988 52.7116 272.988 52.0684C272.988 51.7467 273.047 51.4505 273.166 51.1797C273.284 50.8919 273.445 50.6465 273.648 50.4434C273.868 50.2233 274.114 50.054 274.385 49.9355C274.672 49.8171 274.977 49.7578 275.299 49.7578C275.62 49.7578 275.916 49.8171 276.187 49.9355C276.475 50.054 276.72 50.2233 276.924 50.4434C277.144 50.6465 277.313 50.8919 277.431 51.1797C277.55 51.4505 277.609 51.7467 277.609 52.0684ZM273.496 66.9473C273.496 64.5098 273.648 62.0807 273.953 59.6602C273.987 59.4232 274.088 59.2201 274.258 59.0508C274.444 58.8646 274.681 58.7715 274.969 58.7715C275.222 58.7715 275.434 58.873 275.603 59.0762C275.773 59.2624 275.857 59.4824 275.857 59.7363C275.857 59.8379 275.832 60.1426 275.781 60.6504C275.747 61.1582 275.696 61.7676 275.629 62.4785C275.578 63.1725 275.527 63.9173 275.476 64.7129C275.442 65.4915 275.426 66.2109 275.426 66.8711C275.426 67.7682 275.51 68.4961 275.679 69.0547C275.866 69.5964 276.094 70.0195 276.365 70.3242C276.653 70.6289 276.949 70.832 277.254 70.9336C277.575 71.0352 277.88 71.0859 278.168 71.0859C278.642 71.0859 279.133 70.9167 279.64 70.5781C280.148 70.2396 280.664 69.7656 281.189 69.1562C281.731 68.5469 282.273 67.819 282.814 66.9727C283.356 66.1094 283.889 65.153 284.414 64.1035C284.498 63.9342 284.617 63.8073 284.769 63.7227C284.922 63.6211 285.091 63.5703 285.277 63.5703C285.548 63.5703 285.768 63.6719 285.937 63.875C286.123 64.0781 286.217 64.2982 286.217 64.5352C286.217 64.7044 286.183 64.8483 286.115 64.9668C285.912 65.3561 285.658 65.8301 285.353 66.3887C285.049 66.9473 284.702 67.5228 284.312 68.1152C283.923 68.7077 283.491 69.3001 283.017 69.8926C282.56 70.4681 282.069 70.9928 281.545 71.4668C281.02 71.9238 280.47 72.2962 279.894 72.584C279.319 72.8717 278.735 73.0156 278.142 73.0156C277.381 73.0156 276.712 72.8548 276.136 72.5332C275.561 72.2116 275.07 71.7799 274.664 71.2383C274.275 70.6966 273.978 70.0618 273.775 69.334C273.589 68.5892 273.496 67.7936 273.496 66.9473ZM276.187 52.0684C276.187 51.8314 276.094 51.6283 275.908 51.459C275.739 51.2728 275.536 51.1797 275.299 51.1797C275.062 51.1797 274.858 51.2728 274.689 51.459C274.52 51.6283 274.435 51.8314 274.435 52.0684C274.435 52.3053 274.52 52.5085 274.689 52.6777C274.858 52.847 275.062 52.9316 275.299 52.9316C275.536 52.9316 275.739 52.847 275.908 52.6777C276.094 52.5085 276.187 52.3053 276.187 52.0684ZM296.297 75.7578C296.398 77.1289 296.449 78.7708 296.449 80.6836C296.449 82.7318 296.322 84.6107 296.068 86.3203C295.814 88.0469 295.442 89.528 294.951 90.7637C294.46 92.0163 293.851 92.9896 293.123 93.6836C292.395 94.3776 291.557 94.7246 290.609 94.7246C290.135 94.7246 289.687 94.6146 289.263 94.3945C288.84 94.1745 288.468 93.8613 288.146 93.4551C287.842 93.0488 287.596 92.5664 287.41 92.0078C287.241 91.4492 287.156 90.8229 287.156 90.1289C287.156 89.0964 287.275 88.0046 287.511 86.8535C287.765 85.7025 288.172 84.5007 288.73 83.248C289.289 81.9954 290.025 80.6836 290.939 79.3125C291.853 77.9583 292.979 76.5449 294.316 75.0723C294.248 74.3444 294.155 73.6673 294.037 73.041C293.935 72.4147 293.8 71.873 293.631 71.416C293.461 70.959 293.258 70.6035 293.021 70.3496C292.801 70.0957 292.53 69.9688 292.209 69.9688C292.107 69.9688 291.989 69.9857 291.853 70.0195C291.464 70.4766 291.108 70.832 290.787 71.0859C290.482 71.3398 290.203 71.5345 289.949 71.6699C289.695 71.8053 289.475 71.89 289.289 71.9238C289.12 71.9577 288.993 71.9746 288.908 71.9746C288.62 71.9746 288.341 71.8984 288.07 71.7461C287.816 71.5768 287.689 71.2721 287.689 70.832C287.689 70.6797 287.74 70.485 287.842 70.248C287.96 70.0111 288.146 69.7656 288.4 69.5117C288.654 69.2409 288.984 68.9954 289.39 68.7754C289.814 68.5384 290.321 68.3607 290.914 68.2422C292.031 67.0404 292.903 65.9401 293.529 64.9414C294.155 63.9258 294.469 62.9779 294.469 62.0977C294.469 61.3359 294.232 60.7266 293.758 60.2695C293.284 59.8125 292.683 59.584 291.955 59.584C290.939 59.584 289.924 60.0579 288.908 61.0059C287.892 61.9538 286.978 63.2656 286.166 64.9414C285.98 65.3138 285.683 65.5 285.277 65.5C284.989 65.5 284.761 65.3984 284.592 65.1953C284.422 64.9922 284.338 64.7721 284.338 64.5352C284.338 64.3828 284.372 64.2474 284.439 64.1289C285.438 62.0807 286.589 60.4896 287.892 59.3555C289.196 58.2214 290.558 57.6543 291.98 57.6543C292.556 57.6543 293.106 57.7559 293.631 57.959C294.172 58.1621 294.646 58.4583 295.053 58.8477C295.459 59.2201 295.78 59.6855 296.017 60.2441C296.254 60.7858 296.373 61.4121 296.373 62.123C296.373 62.7155 296.288 63.291 296.119 63.8496C295.967 64.3913 295.755 64.9245 295.484 65.4492C295.213 65.957 294.9 66.4479 294.545 66.9219C294.189 67.3958 293.825 67.8529 293.453 68.293C293.91 68.4961 294.282 68.7839 294.57 69.1562C294.875 69.5286 295.12 69.9434 295.306 70.4004C295.51 70.8574 295.662 71.3314 295.763 71.8223C295.865 72.3132 295.95 72.7871 296.017 73.2441C296.661 72.5501 297.329 71.8138 298.023 71.0352C298.717 70.2565 299.386 69.4694 300.029 68.6738C300.672 67.8783 301.256 67.0996 301.781 66.3379C302.323 65.5592 302.746 64.8314 303.051 64.1543C303.135 63.9681 303.254 63.8327 303.406 63.748C303.558 63.6465 303.728 63.5957 303.914 63.5957C304.202 63.5957 304.43 63.6973 304.599 63.9004C304.786 64.0866 304.879 64.2982 304.879 64.5352C304.879 64.6706 304.853 64.7975 304.803 64.916C304.43 65.7624 303.905 66.6764 303.228 67.6582C302.551 68.623 301.815 69.5964 301.019 70.5781C300.224 71.543 299.411 72.474 298.582 73.3711C297.752 74.2682 296.991 75.0638 296.297 75.7578ZM294.494 77.7891C293.428 79.0924 292.547 80.3197 291.853 81.4707C291.159 82.6217 290.601 83.7051 290.178 84.7207C289.771 85.7363 289.483 86.6758 289.314 87.5391C289.145 88.4193 289.06 89.2233 289.06 89.9512C289.06 90.8145 289.213 91.5085 289.517 92.0332C289.822 92.5579 290.194 92.8203 290.635 92.8203C291.227 92.8203 291.76 92.5156 292.234 91.9062C292.725 91.2969 293.14 90.459 293.478 89.3926C293.817 88.3431 294.079 87.099 294.265 85.6602C294.452 84.2214 294.545 82.6725 294.545 81.0137C294.545 80.5736 294.536 80.0742 294.519 79.5156C294.519 78.974 294.511 78.3984 294.494 77.7891Z" fill="#EEEEEE"/>
</svg>
