<svg width="357" height="104" viewBox="0 0 357 104" fill="none" xmlns="http://www.w3.org/2000/svg">
<rect x="0.728577" y="0.842102" width="319.014" height="70.5263" fill="#D8AD39"/>
<rect x="31" y="30.3158" width="326" height="67.3684" fill="#022F45"/>
<path d="M125.646 74.4883C128.829 70.3411 131.038 66.8965 132.273 64.1543C132.358 63.9681 132.468 63.8327 132.603 63.748C132.756 63.6465 132.925 63.5957 133.111 63.5957C133.399 63.5957 133.636 63.6973 133.822 63.9004C134.008 64.0866 134.101 64.3066 134.101 64.5605C134.101 64.679 134.076 64.7975 134.025 64.916C133.28 66.6087 132.222 68.4961 130.851 70.5781C129.48 72.6602 127.745 75.013 125.646 77.6367C125.646 78.7031 125.655 79.7695 125.672 80.8359C125.689 81.9023 125.697 83.0703 125.697 84.3398C125.697 85.6094 125.663 86.862 125.595 88.0977C125.545 89.3503 125.443 90.5352 125.291 91.6523C125.138 92.7865 124.927 93.8275 124.656 94.7754C124.402 95.7402 124.064 96.5697 123.64 97.2637C123.234 97.9746 122.735 98.5247 122.142 98.9141C121.567 99.3203 120.881 99.5234 120.086 99.5234C118.952 99.5234 118.08 99.0918 117.47 98.2285C116.861 97.3652 116.556 96.138 116.556 94.5469C116.556 93.7005 116.633 92.778 116.785 91.7793C116.954 90.7975 117.191 89.7819 117.496 88.7324C117.801 87.6829 118.164 86.6165 118.588 85.5332C119.028 84.4668 119.51 83.4258 120.035 82.4102C120.56 81.3945 121.127 80.4212 121.736 79.4902C122.362 78.5592 123.023 77.7129 123.717 76.9512C123.733 75.7663 123.742 74.5898 123.742 73.4219C123.759 72.2539 123.784 71.179 123.818 70.1973C123.31 70.8405 122.701 71.3483 121.99 71.7207C121.296 72.0931 120.602 72.2793 119.908 72.2793C119.316 72.2793 118.774 72.1693 118.283 71.9492C117.809 71.7122 117.403 71.3906 117.064 70.9844C116.726 70.5612 116.463 70.0703 116.277 69.5117C116.091 68.9531 115.998 68.3438 115.998 67.6836C115.998 66.3633 116.218 65.2038 116.658 64.2051C117.115 63.1895 117.691 62.3431 118.385 61.666C119.079 60.9889 119.84 60.4811 120.67 60.1426C121.516 59.804 122.329 59.6348 123.107 59.6348C123.632 59.6348 124.114 59.7025 124.554 59.8379C124.995 59.9733 125.367 60.1257 125.672 60.2949C125.993 60.4642 126.239 60.625 126.408 60.7773C126.577 60.9297 126.67 61.0143 126.687 61.0312C126.873 61.2344 126.967 61.4629 126.967 61.7168C126.967 61.9707 126.873 62.1992 126.687 62.4023C126.501 62.5885 126.281 62.6816 126.027 62.6816C125.79 62.6816 125.562 62.5885 125.342 62.4023C125.274 62.3516 125.181 62.2839 125.062 62.1992C124.961 62.0977 124.817 61.9961 124.631 61.8945C124.461 61.793 124.25 61.7083 123.996 61.6406C123.759 61.5729 123.471 61.5391 123.133 61.5391C122.625 61.5391 122.066 61.6576 121.457 61.8945C120.847 62.1146 120.28 62.4701 119.756 62.9609C119.231 63.4518 118.791 64.0866 118.435 64.8652C118.08 65.627 117.902 66.5495 117.902 67.6328C117.902 68.4453 118.08 69.1055 118.435 69.6133C118.791 70.1042 119.341 70.3496 120.086 70.3496C120.441 70.3496 120.814 70.248 121.203 70.0449C121.609 69.8418 121.998 69.5286 122.371 69.1055C122.743 68.6823 123.065 68.1491 123.336 67.5059C123.623 66.8626 123.827 66.1009 123.945 65.2207C123.979 64.9837 124.089 64.7891 124.275 64.6367C124.461 64.4674 124.681 64.3828 124.935 64.3828C125.223 64.3828 125.443 64.4844 125.595 64.6875C125.765 64.8906 125.849 65.1191 125.849 65.373C125.849 65.39 125.841 65.6523 125.824 66.1602C125.807 66.651 125.79 67.3112 125.773 68.1406C125.756 68.9701 125.731 69.9349 125.697 71.0352C125.68 72.1185 125.663 73.2695 125.646 74.4883ZM123.717 80.0488C122.921 81.1491 122.202 82.3424 121.558 83.6289C120.915 84.9323 120.365 86.2441 119.908 87.5645C119.451 88.8848 119.095 90.1628 118.842 91.3984C118.605 92.651 118.486 93.7682 118.486 94.75C118.486 95.3763 118.537 95.8757 118.638 96.248C118.757 96.6204 118.892 96.9082 119.045 97.1113C119.214 97.3145 119.392 97.4499 119.578 97.5176C119.781 97.5853 119.967 97.6191 120.136 97.6191C120.661 97.6191 121.118 97.4076 121.508 96.9844C121.897 96.5612 122.227 95.9941 122.498 95.2832C122.769 94.5892 122.989 93.7852 123.158 92.8711C123.327 91.957 123.454 91.0091 123.539 90.0273C123.623 89.0625 123.683 88.0977 123.717 87.1328C123.75 86.168 123.767 85.2793 123.767 84.4668C123.767 83.7389 123.767 83.0111 123.767 82.2832C123.767 81.5553 123.75 80.8105 123.717 80.0488ZM136.437 52.0684C136.437 52.7116 136.209 53.2617 135.752 53.7188C135.312 54.1589 134.77 54.3789 134.127 54.3789C133.483 54.3789 132.933 54.1589 132.476 53.7188C132.036 53.2617 131.816 52.7116 131.816 52.0684C131.816 51.7467 131.875 51.4505 131.994 51.1797C132.112 50.8919 132.273 50.6465 132.476 50.4434C132.696 50.2233 132.942 50.054 133.213 49.9355C133.5 49.8171 133.805 49.7578 134.127 49.7578C134.448 49.7578 134.745 49.8171 135.015 49.9355C135.303 50.054 135.549 50.2233 135.752 50.4434C135.972 50.6465 136.141 50.8919 136.26 51.1797C136.378 51.4505 136.437 51.7467 136.437 52.0684ZM132.324 66.9473C132.324 64.5098 132.476 62.0807 132.781 59.6602C132.815 59.4232 132.916 59.2201 133.086 59.0508C133.272 58.8646 133.509 58.7715 133.797 58.7715C134.051 58.7715 134.262 58.873 134.431 59.0762C134.601 59.2624 134.685 59.4824 134.685 59.7363C134.685 59.8379 134.66 60.1426 134.609 60.6504C134.575 61.1582 134.525 61.7676 134.457 62.4785C134.406 63.1725 134.355 63.9173 134.304 64.7129C134.271 65.4915 134.254 66.2109 134.254 66.8711C134.254 67.7682 134.338 68.4961 134.508 69.0547C134.694 69.5964 134.922 70.0195 135.193 70.3242C135.481 70.6289 135.777 70.832 136.082 70.9336C136.403 71.0352 136.708 71.0859 136.996 71.0859C137.47 71.0859 137.961 70.9167 138.469 70.5781C138.976 70.2396 139.493 69.7656 140.017 69.1562C140.559 68.5469 141.101 67.819 141.642 66.9727C142.184 66.1094 142.717 65.153 143.242 64.1035C143.327 63.9342 143.445 63.8073 143.597 63.7227C143.75 63.6211 143.919 63.5703 144.105 63.5703C144.376 63.5703 144.596 63.6719 144.765 63.875C144.952 64.0781 145.045 64.2982 145.045 64.5352C145.045 64.7044 145.011 64.8483 144.943 64.9668C144.74 65.3561 144.486 65.8301 144.181 66.3887C143.877 66.9473 143.53 67.5228 143.14 68.1152C142.751 68.7077 142.319 69.3001 141.845 69.8926C141.388 70.4681 140.898 70.9928 140.373 71.4668C139.848 71.9238 139.298 72.2962 138.722 72.584C138.147 72.8717 137.563 73.0156 136.97 73.0156C136.209 73.0156 135.54 72.8548 134.965 72.5332C134.389 72.2116 133.898 71.7799 133.492 71.2383C133.103 70.6966 132.806 70.0618 132.603 69.334C132.417 68.5892 132.324 67.7936 132.324 66.9473ZM135.015 52.0684C135.015 51.8314 134.922 51.6283 134.736 51.459C134.567 51.2728 134.364 51.1797 134.127 51.1797C133.89 51.1797 133.687 51.2728 133.517 51.459C133.348 51.6283 133.263 51.8314 133.263 52.0684C133.263 52.3053 133.348 52.5085 133.517 52.6777C133.687 52.847 133.89 52.9316 134.127 52.9316C134.364 52.9316 134.567 52.847 134.736 52.6777C134.922 52.5085 135.015 52.3053 135.015 52.0684ZM163.783 46.584C163.783 46.8548 163.69 47.0749 163.504 47.2441C163.317 47.3965 163.089 47.4727 162.818 47.4727H149.945V47.752C149.945 48.7845 149.869 49.8848 149.717 51.0527C149.564 52.2207 149.353 53.3887 149.082 54.5566C148.828 55.7077 148.532 56.8333 148.193 57.9336C147.872 59.0339 147.533 60.0495 147.178 60.9805C146.839 61.9115 146.5 62.724 146.162 63.418C145.823 64.0951 145.519 64.6029 145.248 64.9414C145.468 65.7201 145.73 66.4479 146.035 67.125C146.34 67.7852 146.678 68.3691 147.051 68.877C147.44 69.3678 147.855 69.7572 148.295 70.0449C148.735 70.3327 149.209 70.4766 149.717 70.4766C150.309 70.4766 150.893 70.2311 151.469 69.7402C152.061 69.2324 152.603 68.64 153.094 67.9629C153.601 67.2689 154.041 66.5749 154.414 65.8809C154.803 65.1699 155.082 64.6029 155.252 64.1797C155.421 63.7734 155.717 63.5703 156.14 63.5703C156.428 63.5703 156.657 63.6719 156.826 63.875C157.012 64.0781 157.105 64.2982 157.105 64.5352C157.105 64.6536 157.08 64.7721 157.029 64.8906C156.978 65.0091 156.851 65.2799 156.648 65.7031C156.462 66.1263 156.208 66.6172 155.886 67.1758C155.582 67.7344 155.218 68.3268 154.795 68.9531C154.388 69.5625 153.923 70.1211 153.398 70.6289C152.89 71.1367 152.34 71.5599 151.748 71.8984C151.155 72.237 150.529 72.4062 149.869 72.4062C148.701 72.4062 147.651 72.0254 146.72 71.2637C145.789 70.502 144.994 69.4355 144.334 68.0645C143.691 66.6934 143.2 65.0684 142.861 63.1895C142.523 61.3105 142.353 59.2539 142.353 57.0195C142.353 56.4609 142.362 55.8092 142.379 55.0645C142.396 54.3027 142.429 53.5072 142.48 52.6777C142.531 51.8314 142.607 50.9681 142.709 50.0879C142.81 49.1908 142.946 48.319 143.115 47.4727H134C133.729 47.4727 133.5 47.3965 133.314 47.2441C133.128 47.0749 133.035 46.8548 133.035 46.584C133.035 46.3132 133.128 46.1016 133.314 45.9492C133.5 45.7799 133.729 45.6953 134 45.6953H143.547C143.716 45.0859 143.911 44.5273 144.131 44.0195C144.368 43.5117 144.63 43.0716 144.918 42.6992C145.222 42.3268 145.553 42.0391 145.908 41.8359C146.28 41.6159 146.687 41.5059 147.127 41.5059C147.55 41.5059 147.914 41.6159 148.219 41.8359C148.54 42.0391 148.811 42.3268 149.031 42.6992C149.251 43.0716 149.42 43.5117 149.539 44.0195C149.674 44.5273 149.776 45.0859 149.844 45.6953H162.818C163.089 45.6953 163.317 45.7799 163.504 45.9492C163.69 46.1016 163.783 46.3132 163.783 46.584ZM144.664 62.4023C145.172 61.2852 145.629 60.0833 146.035 58.7969C146.458 57.4935 146.814 56.1816 147.101 54.8613C147.406 53.541 147.635 52.2461 147.787 50.9766C147.956 49.707 148.041 48.5391 148.041 47.4727H145.045C144.808 48.5221 144.613 49.8255 144.461 51.3828C144.325 52.9232 144.258 54.8021 144.258 57.0195C144.258 58.2552 144.291 59.2962 144.359 60.1426C144.427 60.972 144.528 61.7253 144.664 62.4023ZM147.025 43.4102C146.873 43.4102 146.653 43.5794 146.365 43.918C146.077 44.2396 145.789 44.832 145.502 45.6953H147.939C147.855 44.9844 147.728 44.4258 147.558 44.0195C147.406 43.6133 147.228 43.4102 147.025 43.4102ZM145.07 64.2305V64.2559V64.2305ZM183.385 64.9668C183.283 65.153 183.105 65.4915 182.851 65.9824C182.614 66.4733 182.284 67.0319 181.861 67.6582C181.455 68.2676 180.964 68.9023 180.388 69.5625C179.813 70.2227 179.153 70.832 178.408 71.3906C177.663 71.9323 176.825 72.3809 175.894 72.7363C174.98 73.0918 173.982 73.2695 172.898 73.2695C171.933 73.2695 171.079 73.0918 170.334 72.7363C169.589 72.3978 168.954 71.9154 168.429 71.2891C167.905 70.6458 167.507 69.8926 167.236 69.0293C166.965 68.166 166.83 67.2096 166.83 66.1602C166.83 65.1445 166.974 64.1966 167.261 63.3164C167.549 62.4193 167.939 61.6406 168.429 60.9805C168.937 60.3203 169.521 59.804 170.181 59.4316C170.842 59.0423 171.544 58.8477 172.289 58.8477C172.847 58.8477 173.355 58.9492 173.812 59.1523C174.269 59.3385 174.65 59.5924 174.955 59.9141C175.276 60.2357 175.522 60.5911 175.691 60.9805C175.877 61.3698 175.97 61.7591 175.97 62.1484C175.97 62.5208 175.92 62.8678 175.818 63.1895C175.733 63.5111 175.615 63.7988 175.463 64.0527C175.327 64.2897 175.166 64.4844 174.98 64.6367C174.794 64.7721 174.608 64.8398 174.422 64.8398C174.134 64.8398 173.897 64.7467 173.711 64.5605C173.541 64.3743 173.457 64.1458 173.457 63.875C173.457 63.7396 173.482 63.6211 173.533 63.5195C173.601 63.418 173.668 63.3164 173.736 63.2148C173.821 63.0964 173.888 62.9609 173.939 62.8086C174.007 62.6393 174.041 62.4277 174.041 62.1738C174.041 61.8184 173.872 61.4967 173.533 61.209C173.211 60.9212 172.797 60.7773 172.289 60.7773C171.815 60.7773 171.358 60.9212 170.918 61.209C170.495 61.4967 170.122 61.8861 169.801 62.377C169.479 62.8509 169.217 63.418 169.013 64.0781C168.827 64.7214 168.734 65.4069 168.734 66.1348C168.734 66.8288 168.819 67.4889 168.988 68.1152C169.157 68.7415 169.411 69.3001 169.75 69.791C170.088 70.265 170.511 70.6458 171.019 70.9336C171.544 71.2214 172.162 71.3652 172.873 71.3652C173.787 71.3652 174.633 71.2044 175.412 70.8828C176.191 70.5443 176.901 70.1211 177.545 69.6133C178.188 69.1055 178.755 68.5553 179.246 67.9629C179.737 67.3535 180.151 66.7865 180.49 66.2617C180.845 65.7201 181.116 65.2546 181.303 64.8652C181.506 64.459 181.624 64.2051 181.658 64.1035C181.726 63.9342 181.836 63.8073 181.988 63.7227C182.157 63.6211 182.335 63.5703 182.521 63.5703C182.809 63.5703 183.038 63.6719 183.207 63.875C183.393 64.0781 183.486 64.3066 183.486 64.5605C183.486 64.6621 183.452 64.7975 183.385 64.9668ZM193.363 69.207C192.94 69.207 192.567 69.1732 192.246 69.1055C191.992 69.6133 191.687 70.0872 191.332 70.5273C190.976 70.9505 190.562 71.3229 190.088 71.6445C189.631 71.9661 189.114 72.2201 188.539 72.4062C187.963 72.5924 187.337 72.6855 186.66 72.6855C185.864 72.6855 185.136 72.5417 184.476 72.2539C183.816 71.9831 183.241 71.6022 182.75 71.1113C182.259 70.6035 181.878 70.0026 181.607 69.3086C181.336 68.5977 181.201 67.819 181.201 66.9727C181.201 65.8893 181.396 64.9499 181.785 64.1543C182.174 63.3418 182.623 62.6732 183.131 62.1484C183.638 61.6068 184.146 61.209 184.654 60.9551C185.162 60.6842 185.543 60.5488 185.797 60.5488C186.084 60.5488 186.296 60.625 186.431 60.7773C186.584 60.9297 186.66 61.1328 186.66 61.3867C186.66 61.6745 186.567 61.8945 186.381 62.0469C186.211 62.1823 185.991 62.3177 185.72 62.4531C185.45 62.5885 185.162 62.7832 184.857 63.0371C184.553 63.2741 184.265 63.5788 183.994 63.9512C183.74 64.3236 183.528 64.7637 183.359 65.2715C183.19 65.7793 183.105 66.3464 183.105 66.9727C183.105 67.5312 183.19 68.056 183.359 68.5469C183.528 69.0208 183.774 69.4355 184.095 69.791C184.417 70.1296 184.798 70.4004 185.238 70.6035C185.678 70.7897 186.169 70.8828 186.711 70.8828C187.676 70.8828 188.471 70.6628 189.097 70.2227C189.741 69.7656 190.232 69.1901 190.57 68.4961C189.571 67.9714 188.75 67.2266 188.107 66.2617C187.464 65.2969 187.142 64.2135 187.142 63.0117C187.142 62.0469 187.371 61.2598 187.828 60.6504C188.302 60.041 188.92 59.7363 189.681 59.7363C190.138 59.7363 190.57 59.8464 190.976 60.0664C191.383 60.2865 191.738 60.6335 192.043 61.1074C192.364 61.5814 192.618 62.1908 192.804 62.9355C192.991 63.6803 193.084 64.569 193.084 65.6016C193.084 66.1432 193.016 66.7103 192.881 67.3027C192.982 67.3197 193.084 67.3281 193.185 67.3281C193.287 67.3281 193.397 67.3281 193.515 67.3281C194.091 67.3281 194.607 67.2604 195.064 67.125C195.521 66.9896 195.936 66.7865 196.308 66.5156C196.681 66.2448 197.011 65.8978 197.299 65.4746C197.603 65.0514 197.891 64.5605 198.162 64.002C198.213 63.9004 198.323 63.8073 198.492 63.7227C198.661 63.6211 198.831 63.5703 199 63.5703C199.22 63.5703 199.423 63.6634 199.609 63.8496C199.812 64.0189 199.914 64.2474 199.914 64.5352C199.914 64.6706 199.88 64.8229 199.812 64.9922C199.745 65.1445 199.677 65.2884 199.609 65.4238C199.321 65.9316 198.983 66.4225 198.594 66.8965C198.221 67.3535 197.773 67.7598 197.248 68.1152C196.74 68.4538 196.164 68.7246 195.521 68.9277C194.878 69.1309 194.159 69.224 193.363 69.207ZM189.021 62.8086C189.021 63.1302 189.064 63.4688 189.148 63.8242C189.233 64.1797 189.36 64.5352 189.529 64.8906C189.715 65.2292 189.935 65.5592 190.189 65.8809C190.46 66.1855 190.773 66.4479 191.129 66.668C191.179 66.3125 191.205 65.9655 191.205 65.627C191.205 65.1699 191.171 64.7044 191.103 64.2305C191.036 63.7565 190.934 63.3249 190.799 62.9355C190.68 62.5293 190.528 62.2077 190.342 61.9707C190.155 61.7168 189.935 61.5898 189.681 61.5898C189.58 61.5898 189.444 61.666 189.275 61.8184C189.106 61.9707 189.021 62.3008 189.021 62.8086ZM209.816 69.207C209.393 69.207 209.021 69.1732 208.699 69.1055C208.445 69.6133 208.14 70.0872 207.785 70.5273C207.429 70.9505 207.015 71.3229 206.541 71.6445C206.084 71.9661 205.567 72.2201 204.992 72.4062C204.416 72.5924 203.79 72.6855 203.113 72.6855C202.317 72.6855 201.59 72.5417 200.929 72.2539C200.269 71.9831 199.694 71.6022 199.203 71.1113C198.712 70.6035 198.331 70.0026 198.06 69.3086C197.789 68.5977 197.654 67.819 197.654 66.9727C197.654 65.8893 197.849 64.9499 198.238 64.1543C198.627 63.3418 199.076 62.6732 199.584 62.1484C200.092 61.6068 200.599 61.209 201.107 60.9551C201.615 60.6842 201.996 60.5488 202.25 60.5488C202.538 60.5488 202.749 60.625 202.885 60.7773C203.037 60.9297 203.113 61.1328 203.113 61.3867C203.113 61.6745 203.02 61.8945 202.834 62.0469C202.664 62.1823 202.444 62.3177 202.174 62.4531C201.903 62.5885 201.615 62.7832 201.31 63.0371C201.006 63.2741 200.718 63.5788 200.447 63.9512C200.193 64.3236 199.982 64.7637 199.812 65.2715C199.643 65.7793 199.558 66.3464 199.558 66.9727C199.558 67.5312 199.643 68.056 199.812 68.5469C199.982 69.0208 200.227 69.4355 200.549 69.791C200.87 70.1296 201.251 70.4004 201.691 70.6035C202.131 70.7897 202.622 70.8828 203.164 70.8828C204.129 70.8828 204.924 70.6628 205.551 70.2227C206.194 69.7656 206.685 69.1901 207.023 68.4961C206.025 67.9714 205.204 67.2266 204.56 66.2617C203.917 65.2969 203.595 64.2135 203.595 63.0117C203.595 62.0469 203.824 61.2598 204.281 60.6504C204.755 60.041 205.373 59.7363 206.135 59.7363C206.592 59.7363 207.023 59.8464 207.429 60.0664C207.836 60.2865 208.191 60.6335 208.496 61.1074C208.817 61.5814 209.071 62.1908 209.258 62.9355C209.444 63.6803 209.537 64.569 209.537 65.6016C209.537 66.1432 209.469 66.7103 209.334 67.3027C209.435 67.3197 209.537 67.3281 209.638 67.3281C209.74 67.3281 209.85 67.3281 209.969 67.3281C210.544 67.3281 211.06 67.2604 211.517 67.125C211.974 66.9896 212.389 66.7865 212.761 66.5156C213.134 66.2448 213.464 65.8978 213.752 65.4746C214.056 65.0514 214.344 64.5605 214.615 64.002C214.666 63.9004 214.776 63.8073 214.945 63.7227C215.114 63.6211 215.284 63.5703 215.453 63.5703C215.673 63.5703 215.876 63.6634 216.062 63.8496C216.265 64.0189 216.367 64.2474 216.367 64.5352C216.367 64.6706 216.333 64.8229 216.265 64.9922C216.198 65.1445 216.13 65.2884 216.062 65.4238C215.775 65.9316 215.436 66.4225 215.047 66.8965C214.674 67.3535 214.226 67.7598 213.701 68.1152C213.193 68.4538 212.618 68.7246 211.974 68.9277C211.331 69.1309 210.612 69.224 209.816 69.207ZM205.474 62.8086C205.474 63.1302 205.517 63.4688 205.601 63.8242C205.686 64.1797 205.813 64.5352 205.982 64.8906C206.168 65.2292 206.388 65.5592 206.642 65.8809C206.913 66.1855 207.226 66.4479 207.582 66.668C207.633 66.3125 207.658 65.9655 207.658 65.627C207.658 65.1699 207.624 64.7044 207.556 64.2305C207.489 63.7565 207.387 63.3249 207.252 62.9355C207.133 62.5293 206.981 62.2077 206.795 61.9707C206.608 61.7168 206.388 61.5898 206.135 61.5898C206.033 61.5898 205.898 61.666 205.728 61.8184C205.559 61.9707 205.474 62.3008 205.474 62.8086ZM220.963 68.877C221.25 69.5202 221.724 70.0365 222.385 70.4258C223.045 70.7982 223.789 70.9844 224.619 70.9844C224.873 70.9844 225.288 70.9505 225.863 70.8828C226.439 70.7982 227.099 70.5443 227.844 70.1211C228.605 69.681 229.409 68.9954 230.256 68.0645C231.102 67.1335 231.923 65.8216 232.719 64.1289C232.803 63.9427 232.922 63.8073 233.074 63.7227C233.226 63.6211 233.396 63.5703 233.582 63.5703C233.87 63.5703 234.098 63.6719 234.267 63.875C234.454 64.0781 234.547 64.2982 234.547 64.5352C234.547 64.6367 234.513 64.7721 234.445 64.9414C233.853 66.1771 233.192 67.2858 232.465 68.2676C231.737 69.2324 230.95 70.0618 230.103 70.7559C229.257 71.4329 228.368 71.9492 227.437 72.3047C226.523 72.6771 225.584 72.8633 224.619 72.8633C223.857 72.8633 223.138 72.7448 222.461 72.5078C221.801 72.2708 221.225 71.9577 220.734 71.5684C220.26 71.1621 219.879 70.7135 219.592 70.2227C219.321 69.7148 219.185 69.1986 219.185 68.6738C219.185 68.6061 219.194 68.513 219.211 68.3945C219.228 68.276 219.27 68.1491 219.338 68.0137C219.422 67.8613 219.532 67.7259 219.668 67.6074C219.82 67.472 220.023 67.362 220.277 67.2773C220.971 67.0742 221.606 66.8288 222.181 66.541C222.774 66.2363 223.282 65.8978 223.705 65.5254C224.128 65.153 224.458 64.7467 224.695 64.3066C224.932 63.8496 225.051 63.3587 225.051 62.834C225.051 62.377 224.898 62.0046 224.594 61.7168C224.289 61.429 223.916 61.2852 223.476 61.2852C223.019 61.2852 222.571 61.446 222.131 61.7676C221.691 62.0723 221.259 62.487 220.836 63.0117C220.429 63.5195 220.04 64.112 219.668 64.7891C219.295 65.4492 218.948 66.1432 218.627 66.8711C218.322 67.599 218.051 68.3268 217.814 69.0547C217.577 69.7656 217.383 70.4258 217.23 71.0352C217.179 71.2214 217.12 71.4245 217.053 71.6445C217.002 71.8646 216.917 72.0677 216.799 72.2539C216.68 72.457 216.536 72.6178 216.367 72.7363C216.198 72.8717 215.978 72.9395 215.707 72.9395C215.453 72.9395 215.207 72.8294 214.97 72.6094C214.733 72.4062 214.615 72.0508 214.615 71.543C214.615 71.4414 214.615 71.0521 214.615 70.375C214.632 69.6979 214.649 68.8177 214.666 67.7344C214.683 66.6341 214.7 65.3815 214.717 63.9766C214.75 62.5547 214.776 61.0566 214.793 59.4824C214.81 57.8913 214.835 56.2578 214.869 54.582C214.903 52.9062 214.928 51.2728 214.945 49.6816C214.962 48.0905 214.979 46.584 214.996 45.1621C215.03 43.7233 215.055 42.4538 215.072 41.3535C215.089 40.2363 215.097 39.3307 215.097 38.6367C215.114 37.9258 215.123 37.5026 215.123 37.3672C215.123 37.0964 215.224 36.8763 215.428 36.707C215.631 36.5208 215.851 36.4277 216.088 36.4277C216.358 36.4277 216.587 36.5208 216.773 36.707C216.959 36.8763 217.053 37.1048 217.053 37.3926C217.053 37.4264 217.044 37.765 217.027 38.4082C217.027 39.0345 217.019 39.8809 217.002 40.9473C216.985 42.0137 216.959 43.2578 216.926 44.6797C216.909 46.1016 216.883 47.6165 216.849 49.2246C216.832 50.8158 216.807 52.4577 216.773 54.1504C216.756 55.8431 216.731 57.4935 216.697 59.1016C216.68 60.7096 216.663 62.2415 216.646 63.6973C216.629 65.153 216.612 66.4395 216.595 67.5566C216.866 66.6934 217.213 65.7878 217.636 64.8398C218.06 63.875 218.559 62.9863 219.135 62.1738C219.71 61.3613 220.353 60.6927 221.064 60.168C221.792 59.6432 222.596 59.3809 223.476 59.3809C223.967 59.3809 224.424 59.474 224.847 59.6602C225.271 59.8294 225.635 60.0749 225.939 60.3965C226.261 60.7012 226.506 61.0651 226.676 61.4883C226.862 61.9115 226.955 62.3685 226.955 62.8594C226.955 63.6211 226.786 64.3236 226.447 64.9668C226.108 65.5931 225.66 66.1602 225.101 66.668C224.543 67.1589 223.9 67.5905 223.172 67.9629C222.461 68.3353 221.724 68.64 220.963 68.877ZM236.883 52.0684C236.883 52.7116 236.654 53.2617 236.197 53.7188C235.757 54.1589 235.215 54.3789 234.572 54.3789C233.929 54.3789 233.379 54.1589 232.922 53.7188C232.482 53.2617 232.261 52.7116 232.261 52.0684C232.261 51.7467 232.321 51.4505 232.439 51.1797C232.558 50.8919 232.719 50.6465 232.922 50.4434C233.142 50.2233 233.387 50.054 233.658 49.9355C233.946 49.8171 234.25 49.7578 234.572 49.7578C234.894 49.7578 235.19 49.8171 235.461 49.9355C235.748 50.054 235.994 50.2233 236.197 50.4434C236.417 50.6465 236.586 50.8919 236.705 51.1797C236.823 51.4505 236.883 51.7467 236.883 52.0684ZM232.769 66.9473C232.769 64.5098 232.922 62.0807 233.226 59.6602C233.26 59.4232 233.362 59.2201 233.531 59.0508C233.717 58.8646 233.954 58.7715 234.242 58.7715C234.496 58.7715 234.707 58.873 234.877 59.0762C235.046 59.2624 235.131 59.4824 235.131 59.7363C235.131 59.8379 235.105 60.1426 235.054 60.6504C235.021 61.1582 234.97 61.7676 234.902 62.4785C234.851 63.1725 234.801 63.9173 234.75 64.7129C234.716 65.4915 234.699 66.2109 234.699 66.8711C234.699 67.7682 234.784 68.4961 234.953 69.0547C235.139 69.5964 235.368 70.0195 235.638 70.3242C235.926 70.6289 236.222 70.832 236.527 70.9336C236.849 71.0352 237.153 71.0859 237.441 71.0859C237.915 71.0859 238.406 70.9167 238.914 70.5781C239.422 70.2396 239.938 69.7656 240.463 69.1562C241.004 68.5469 241.546 67.819 242.088 66.9727C242.629 66.1094 243.163 65.153 243.687 64.1035C243.772 63.9342 243.89 63.8073 244.043 63.7227C244.195 63.6211 244.364 63.5703 244.551 63.5703C244.821 63.5703 245.041 63.6719 245.211 63.875C245.397 64.0781 245.49 64.2982 245.49 64.5352C245.49 64.7044 245.456 64.8483 245.388 64.9668C245.185 65.3561 244.931 65.8301 244.627 66.3887C244.322 66.9473 243.975 67.5228 243.586 68.1152C243.196 68.7077 242.765 69.3001 242.291 69.8926C241.834 70.4681 241.343 70.9928 240.818 71.4668C240.293 71.9238 239.743 72.2962 239.168 72.584C238.592 72.8717 238.008 73.0156 237.416 73.0156C236.654 73.0156 235.985 72.8548 235.41 72.5332C234.834 72.2116 234.344 71.7799 233.937 71.2383C233.548 70.6966 233.252 70.0618 233.049 69.334C232.862 68.5892 232.769 67.7936 232.769 66.9473ZM235.461 52.0684C235.461 51.8314 235.368 51.6283 235.181 51.459C235.012 51.2728 234.809 51.1797 234.572 51.1797C234.335 51.1797 234.132 51.2728 233.963 51.459C233.793 51.6283 233.709 51.8314 233.709 52.0684C233.709 52.3053 233.793 52.5085 233.963 52.6777C234.132 52.847 234.335 52.9316 234.572 52.9316C234.809 52.9316 235.012 52.847 235.181 52.6777C235.368 52.5085 235.461 52.3053 235.461 52.0684ZM249.299 69.7148C249.569 69.1562 249.883 68.5469 250.238 67.8867C250.594 67.2096 250.974 66.5326 251.381 65.8555C251.787 65.1615 252.21 64.4759 252.65 63.7988C253.107 63.1217 253.581 62.4785 254.072 61.8691C254.563 61.2767 255.054 60.8535 255.545 60.5996C256.053 60.3288 256.526 60.1934 256.967 60.1934C257.847 60.1934 258.498 60.515 258.922 61.1582C259.345 61.8014 259.556 62.597 259.556 63.5449C259.556 63.765 259.539 64.0358 259.506 64.3574C259.489 64.6621 259.463 64.9922 259.429 65.3477C259.413 65.7031 259.387 66.0671 259.353 66.4395C259.336 66.7949 259.328 67.1335 259.328 67.4551C259.328 67.8613 259.345 68.2507 259.379 68.623C259.429 68.9954 259.514 69.3255 259.633 69.6133C259.751 69.8841 259.92 70.1042 260.14 70.2734C260.36 70.4258 260.648 70.502 261.004 70.502C261.647 70.502 262.273 70.2565 262.883 69.7656C263.492 69.2578 264.051 68.6654 264.558 67.9883C265.083 67.2943 265.532 66.5918 265.904 65.8809C266.293 65.1699 266.581 64.5944 266.767 64.1543C266.852 63.9681 266.97 63.8242 267.123 63.7227C267.292 63.6211 267.47 63.5703 267.656 63.5703C267.944 63.5703 268.172 63.6803 268.342 63.9004C268.528 64.1035 268.621 64.3236 268.621 64.5605C268.621 64.679 268.595 64.7975 268.545 64.916C268.477 65.0514 268.342 65.3307 268.138 65.7539C267.935 66.1771 267.664 66.668 267.326 67.2266C267.004 67.7682 266.623 68.3522 266.183 68.9785C265.743 69.5879 265.252 70.1465 264.711 70.6543C264.186 71.1621 263.61 71.5853 262.984 71.9238C262.375 72.2624 261.732 72.4316 261.054 72.4316C260.293 72.4316 259.675 72.2878 259.201 72C258.727 71.6953 258.355 71.306 258.084 70.832C257.813 70.3411 257.627 69.8079 257.525 69.2324C257.441 68.64 257.398 68.0475 257.398 67.4551C257.398 67.2012 257.407 66.9134 257.424 66.5918C257.457 66.2702 257.491 65.9316 257.525 65.5762C257.576 65.2207 257.61 64.8652 257.627 64.5098C257.661 64.1543 257.678 63.8158 257.678 63.4941C257.678 62.9525 257.593 62.5885 257.424 62.4023C257.254 62.1992 257.102 62.0977 256.967 62.0977C256.696 62.0977 256.383 62.2585 256.027 62.5801C255.689 62.8848 255.325 63.291 254.935 63.7988C254.563 64.3066 254.174 64.8822 253.767 65.5254C253.378 66.1517 253.006 66.778 252.65 67.4043C252.312 68.0306 251.99 68.6315 251.685 69.207C251.398 69.7656 251.169 70.2311 251 70.6035C250.661 71.3145 250.323 71.7884 249.984 72.0254C249.646 72.2793 249.299 72.4062 248.943 72.4062C248.452 72.4062 248.054 72.2624 247.75 71.9746C247.462 71.6699 247.318 71.2467 247.318 70.7051C247.318 70.5866 247.335 70.3581 247.369 70.0195C247.403 69.6641 247.445 69.2493 247.496 68.7754C247.547 68.2845 247.597 67.7598 247.648 67.2012C247.699 66.6426 247.75 66.0924 247.801 65.5508C247.851 64.9922 247.894 64.4759 247.928 64.002C247.961 63.528 247.978 63.1302 247.978 62.8086C247.978 62.3854 247.961 61.9792 247.928 61.5898C247.894 61.2005 247.826 60.9635 247.724 60.8789C247.572 60.9297 247.301 61.2513 246.912 61.8438C246.523 62.4193 246.023 63.4434 245.414 64.916C245.329 65.1022 245.202 65.2461 245.033 65.3477C244.864 65.4492 244.686 65.5 244.5 65.5C244.212 65.5 243.983 65.4069 243.814 65.2207C243.645 65.0176 243.56 64.7891 243.56 64.5352C243.56 64.4167 243.586 64.2897 243.636 64.1543C244.398 62.3431 245.109 61.0143 245.769 60.168C246.446 59.3047 247.115 58.873 247.775 58.873C248.164 58.873 248.495 58.9746 248.765 59.1777C249.036 59.3639 249.248 59.6178 249.4 59.9395C249.569 60.2611 249.688 60.6165 249.756 61.0059C249.84 61.3952 249.883 61.793 249.883 62.1992C249.883 62.5039 249.857 62.9779 249.806 63.6211C249.773 64.2643 249.722 64.9583 249.654 65.7031C249.586 66.431 249.519 67.1589 249.451 67.8867C249.4 68.6146 249.349 69.224 249.299 69.7148ZM272.099 37.3672C272.201 39.957 271.355 42.166 269.56 43.9941C269.34 44.1803 269.112 44.2734 268.875 44.2734C268.604 44.2734 268.375 44.1803 268.189 43.9941C268.003 43.8079 267.91 43.5879 267.91 43.334C267.91 43.0632 268.003 42.8346 268.189 42.6484C269.594 41.2096 270.263 39.4746 270.195 37.4434C270.178 37.1725 270.254 36.944 270.424 36.7578C270.61 36.5547 270.838 36.4531 271.109 36.4531C271.363 36.4531 271.583 36.5378 271.769 36.707C271.972 36.8763 272.082 37.0964 272.099 37.3672Z" fill="#EEEEEE"/>
</svg>
