<svg width="357" height="104" viewBox="0 0 357 104" fill="none" xmlns="http://www.w3.org/2000/svg">
<rect x="0.728577" y="0.842102" width="319.014" height="70.5263" fill="#D8AD39"/>
<rect x="31" y="30.3158" width="326" height="67.3684" fill="#022F45"/>
<path d="M74.1795 64.9414C74.1287 65.8216 74.0102 66.7103 73.824 67.6074C73.6378 68.4876 73.3416 69.2832 72.9353 69.9941C72.546 70.7051 72.0297 71.2891 71.3865 71.7461C70.7433 72.1862 69.9477 72.4062 68.9998 72.4062C68.4073 72.4062 67.8826 72.3132 67.4256 72.127C66.9854 71.9577 66.5961 71.7292 66.2576 71.4414C65.936 71.1367 65.6651 70.7982 65.4451 70.4258C65.225 70.0365 65.0388 69.6302 64.8865 69.207C64.294 70.1888 63.5916 70.9505 62.7791 71.4922C61.9835 72.0169 61.1879 72.2793 60.3923 72.2793C59.7491 72.2793 59.1651 72.1608 58.6404 71.9238C58.1326 71.6868 57.6925 71.3568 57.3201 70.9336C56.9646 70.4935 56.6853 69.9688 56.4822 69.3594C56.2791 68.75 56.1775 68.0645 56.1775 67.3027C56.1775 66.0332 56.2875 64.9414 56.5076 64.0273C56.7446 63.0964 56.9985 62.3346 57.2693 61.7422C57.5571 61.1497 57.8194 60.7096 58.0564 60.4219C58.2934 60.1172 58.4119 59.9648 58.4119 59.9648C58.4965 59.8633 58.5981 59.7871 58.7166 59.7363C58.852 59.6855 58.9874 59.6602 59.1228 59.6602C59.3937 59.6602 59.6137 59.7617 59.783 59.9648C59.9692 60.151 60.0623 60.3711 60.0623 60.625C60.0623 60.8112 59.9946 61.0143 59.8591 61.2344C59.7914 61.3359 59.656 61.5306 59.4529 61.8184C59.2667 62.1061 59.072 62.4954 58.8689 62.9863C58.6658 63.4772 58.4796 64.0781 58.3103 64.7891C58.158 65.5 58.0818 66.3379 58.0818 67.3027C58.0818 68.3014 58.2849 69.0632 58.6912 69.5879C59.0974 70.0957 59.6645 70.3496 60.3923 70.3496C60.7478 70.3496 61.1371 70.2565 61.5603 70.0703C61.9835 69.8672 62.3813 69.5625 62.7537 69.1562C63.1261 68.75 63.4477 68.2337 63.7185 67.6074C63.9894 66.9811 64.1586 66.2448 64.2263 65.3984L64.5564 61.0312C64.5733 60.7773 64.6749 60.5658 64.8611 60.3965C65.0642 60.2272 65.2927 60.1426 65.5466 60.1426C65.8344 60.1426 66.0629 60.2526 66.2322 60.4727C66.4015 60.6758 66.4861 60.9128 66.4861 61.1836L66.2068 65.373C66.156 66.2702 66.1814 67.0404 66.283 67.6836C66.4015 68.3268 66.5877 68.86 66.8416 69.2832C67.0955 69.6895 67.4086 69.9941 67.781 70.1973C68.1534 70.3835 68.5681 70.4766 69.0252 70.4766C69.6345 70.4766 70.1508 70.2988 70.574 69.9434C70.9972 69.5879 71.3357 69.1055 71.5896 68.4961C71.8435 67.8867 72.0213 67.1842 72.1228 66.3887C72.2413 65.5762 72.3006 64.7214 72.3006 63.8242C72.3006 62.7578 72.2413 61.8691 72.1228 61.1582C72.0043 60.4473 71.9451 59.9733 71.9451 59.7363C71.9451 59.4824 72.0382 59.2624 72.2244 59.0762C72.4106 58.873 72.6391 58.7715 72.9099 58.7715C73.1469 58.7715 73.35 58.8477 73.5193 59C73.6886 59.1354 73.7986 59.3216 73.8494 59.5586C73.8663 59.6263 73.9171 59.821 74.0017 60.1426C74.0864 60.4642 74.2048 60.8535 74.3572 61.3105C74.5095 61.7507 74.7042 62.2246 74.9412 62.7324C75.1951 63.2233 75.4913 63.6803 75.8298 64.1035C76.1853 64.5267 76.5831 64.8822 77.0232 65.1699C77.4802 65.4408 77.9965 65.5762 78.572 65.5762C78.8937 65.5762 79.1645 65.5169 79.3845 65.3984C79.6215 65.263 79.8162 65.1107 79.9685 64.9414C80.1209 64.7721 80.2309 64.6113 80.2986 64.459C80.3832 64.3066 80.434 64.2135 80.4509 64.1797C80.5356 63.9935 80.6541 63.8496 80.8064 63.748C80.9757 63.6296 81.1534 63.5703 81.3396 63.5703C81.6274 63.5703 81.8559 63.6803 82.0252 63.9004C82.2114 64.1035 82.3045 64.3236 82.3045 64.5605C82.3045 64.7637 82.2114 65.0345 82.0252 65.373C81.8559 65.7116 81.6104 66.0417 81.2888 66.3633C80.9672 66.668 80.5694 66.9388 80.0955 67.1758C79.6384 67.3958 79.1306 67.5059 78.572 67.5059C78.0812 67.5059 77.6241 67.4382 77.2009 67.3027C76.7778 67.1504 76.38 66.9557 76.0076 66.7188C75.6521 66.4818 75.322 66.2109 75.0173 65.9062C74.7127 65.6016 74.4334 65.2799 74.1795 64.9414ZM92.2068 69.207C91.7836 69.207 91.4112 69.1732 91.0896 69.1055C90.8357 69.6133 90.531 70.0872 90.1756 70.5273C89.8201 70.9505 89.4054 71.3229 88.9314 71.6445C88.4744 71.9661 87.9581 72.2201 87.3826 72.4062C86.8071 72.5924 86.1808 72.6855 85.5037 72.6855C84.7081 72.6855 83.9802 72.5417 83.3201 72.2539C82.6599 71.9831 82.0844 71.6022 81.5935 71.1113C81.1026 70.6035 80.7218 70.0026 80.4509 69.3086C80.1801 68.5977 80.0447 67.819 80.0447 66.9727C80.0447 65.8893 80.2394 64.9499 80.6287 64.1543C81.018 63.3418 81.4666 62.6732 81.9744 62.1484C82.4822 61.6068 82.99 61.209 83.4978 60.9551C84.0056 60.6842 84.3865 60.5488 84.6404 60.5488C84.9282 60.5488 85.1397 60.625 85.2752 60.7773C85.4275 60.9297 85.5037 61.1328 85.5037 61.3867C85.5037 61.6745 85.4106 61.8945 85.2244 62.0469C85.0551 62.1823 84.8351 62.3177 84.5642 62.4531C84.2934 62.5885 84.0056 62.7832 83.7009 63.0371C83.3963 63.2741 83.1085 63.5788 82.8377 63.9512C82.5838 64.3236 82.3722 64.7637 82.2029 65.2715C82.0336 65.7793 81.949 66.3464 81.949 66.9727C81.949 67.5312 82.0336 68.056 82.2029 68.5469C82.3722 69.0208 82.6176 69.4355 82.9392 69.791C83.2608 70.1296 83.6417 70.4004 84.0818 70.6035C84.5219 70.7897 85.0128 70.8828 85.5545 70.8828C86.5193 70.8828 87.3149 70.6628 87.9412 70.2227C88.5844 69.7656 89.0753 69.1901 89.4138 68.4961C88.4151 67.9714 87.5942 67.2266 86.9509 66.2617C86.3077 65.2969 85.9861 64.2135 85.9861 63.0117C85.9861 62.0469 86.2146 61.2598 86.6716 60.6504C87.1456 60.041 87.7634 59.7363 88.5252 59.7363C88.9822 59.7363 89.4138 59.8464 89.8201 60.0664C90.2263 60.2865 90.5818 60.6335 90.8865 61.1074C91.2081 61.5814 91.462 62.1908 91.6482 62.9355C91.8344 63.6803 91.9275 64.569 91.9275 65.6016C91.9275 66.1432 91.8598 66.7103 91.7244 67.3027C91.8259 67.3197 91.9275 67.3281 92.0291 67.3281C92.1306 67.3281 92.2407 67.3281 92.3591 67.3281C92.9347 67.3281 93.4509 67.2604 93.908 67.125C94.365 66.9896 94.7797 66.7865 95.1521 66.5156C95.5245 66.2448 95.8546 65.8978 96.1423 65.4746C96.447 65.0514 96.7348 64.5605 97.0056 64.002C97.0564 63.9004 97.1664 63.8073 97.3357 63.7227C97.505 63.6211 97.6743 63.5703 97.8435 63.5703C98.0636 63.5703 98.2667 63.6634 98.4529 63.8496C98.656 64.0189 98.7576 64.2474 98.7576 64.5352C98.7576 64.6706 98.7237 64.8229 98.656 64.9922C98.5883 65.1445 98.5206 65.2884 98.4529 65.4238C98.1651 65.9316 97.8266 66.4225 97.4373 66.8965C97.0649 67.3535 96.6163 67.7598 96.0916 68.1152C95.5838 68.4538 95.0082 68.7246 94.365 68.9277C93.7218 69.1309 93.0024 69.224 92.2068 69.207ZM87.865 62.8086C87.865 63.1302 87.9073 63.4688 87.992 63.8242C88.0766 64.1797 88.2035 64.5352 88.3728 64.8906C88.559 65.2292 88.7791 65.5592 89.033 65.8809C89.3038 66.1855 89.617 66.4479 89.9724 66.668C90.0232 66.3125 90.0486 65.9655 90.0486 65.627C90.0486 65.1699 90.0147 64.7044 89.947 64.2305C89.8793 63.7565 89.7778 63.3249 89.6423 62.9355C89.5239 62.5293 89.3715 62.2077 89.1853 61.9707C88.9991 61.7168 88.7791 61.5898 88.5252 61.5898C88.4236 61.5898 88.2882 61.666 88.1189 61.8184C87.9496 61.9707 87.865 62.3008 87.865 62.8086ZM99.6209 61.5645C99.5532 62.0215 99.4685 62.4531 99.367 62.8594C99.2654 63.2487 99.1638 63.5957 99.0623 63.9004C98.9776 64.1882 98.9015 64.4251 98.8338 64.6113C98.766 64.7975 98.7237 64.8991 98.7068 64.916C98.5375 65.3053 98.2413 65.5 97.8181 65.5C97.5812 65.5 97.3611 65.4154 97.158 65.2461C96.9548 65.0599 96.8533 64.8314 96.8533 64.5605C96.8533 64.459 96.8702 64.3828 96.9041 64.332C96.9379 64.2812 96.9887 64.1797 97.0564 64.0273C97.1241 63.875 97.2088 63.6211 97.3103 63.2656C97.4119 62.9102 97.5388 62.36 97.6912 61.6152C97.4034 61.6152 97.1072 61.6068 96.8025 61.5898C96.4978 61.5729 96.2185 61.5137 95.9646 61.4121C95.6938 61.3105 95.4737 61.1497 95.3045 60.9297C95.1352 60.7096 95.0506 60.4049 95.0506 60.0156C95.0506 59.7279 95.1352 59.3385 95.3045 58.8477C95.4568 58.3568 95.6684 57.8743 95.9392 57.4004C96.2101 56.9264 96.5147 56.5202 96.8533 56.1816C97.1918 55.8262 97.5304 55.6484 97.8689 55.6484C98.2582 55.6484 98.5714 55.7923 98.8084 56.0801C99.0623 56.3678 99.2569 56.7233 99.3923 57.1465C99.5278 57.5527 99.6209 57.9844 99.6716 58.4414C99.7394 58.8984 99.7732 59.2962 99.7732 59.6348C100.061 59.6348 100.34 59.6348 100.611 59.6348C100.899 59.6178 101.17 59.6094 101.424 59.6094C102.388 59.6094 103.125 59.821 103.633 60.2441C104.14 60.6673 104.394 61.3613 104.394 62.3262C104.394 62.7155 104.369 63.1217 104.318 63.5449C104.267 63.9681 104.208 64.4082 104.14 64.8652C104.073 65.3053 104.013 65.7454 103.963 66.1855C103.912 66.6257 103.886 67.0573 103.886 67.4805C103.886 68.0898 103.971 68.5977 104.14 69.0039C104.31 69.3932 104.521 69.7064 104.775 69.9434C105.029 70.1803 105.3 70.3496 105.588 70.4512C105.875 70.5358 106.138 70.5781 106.375 70.5781C107.103 70.5781 107.788 70.3411 108.431 69.8672C109.075 69.3932 109.667 68.8262 110.209 68.166C110.75 67.4889 111.233 66.778 111.656 66.0332C112.096 65.2884 112.46 64.6367 112.748 64.0781C112.832 63.9258 112.951 63.8073 113.103 63.7227C113.256 63.638 113.416 63.5957 113.586 63.5957C113.89 63.5957 114.127 63.6973 114.297 63.9004C114.466 64.0866 114.551 64.2982 114.551 64.5352C114.551 64.7044 114.517 64.8568 114.449 64.9922C114.06 65.6862 113.603 66.4733 113.078 67.3535C112.57 68.2168 111.986 69.0293 111.326 69.791C110.666 70.5527 109.921 71.196 109.092 71.7207C108.279 72.2454 107.382 72.5078 106.4 72.5078C105.791 72.5078 105.215 72.3893 104.674 72.1523C104.132 71.9323 103.658 71.6107 103.252 71.1875C102.862 70.7474 102.549 70.2142 102.312 69.5879C102.075 68.9447 101.957 68.2253 101.957 67.4297C101.957 66.5833 102.041 65.7454 102.211 64.916C102.38 64.0697 102.465 63.2656 102.465 62.5039C102.465 62.1823 102.388 61.9453 102.236 61.793C102.101 61.6237 101.788 61.5391 101.297 61.5391C101.06 61.5391 100.797 61.5391 100.51 61.5391C100.239 61.5391 99.9425 61.5475 99.6209 61.5645ZM97.9197 59.6855C97.9197 59.5671 97.9112 59.4147 97.8943 59.2285C97.8943 59.0254 97.8774 58.8307 97.8435 58.6445C97.8266 58.4583 97.7927 58.2975 97.742 58.1621C97.7081 58.0267 97.6658 57.959 97.615 57.959C97.5642 57.959 97.4965 58.0267 97.4119 58.1621C97.3442 58.2806 97.268 58.4329 97.1834 58.6191C97.0987 58.7884 97.0226 58.9746 96.9548 59.1777C96.8871 59.3809 96.8364 59.5501 96.8025 59.6855H97.9197ZM119.146 68.877C119.434 69.5202 119.908 70.0365 120.568 70.4258C121.228 70.7982 121.973 70.9844 122.803 70.9844C123.056 70.9844 123.471 70.9505 124.047 70.8828C124.622 70.7982 125.282 70.5443 126.027 70.1211C126.789 69.681 127.593 68.9954 128.439 68.0645C129.286 67.1335 130.107 65.8216 130.902 64.1289C130.987 63.9427 131.105 63.8073 131.258 63.7227C131.41 63.6211 131.579 63.5703 131.765 63.5703C132.053 63.5703 132.282 63.6719 132.451 63.875C132.637 64.0781 132.73 64.2982 132.73 64.5352C132.73 64.6367 132.696 64.7721 132.629 64.9414C132.036 66.1771 131.376 67.2858 130.648 68.2676C129.92 69.2324 129.133 70.0618 128.287 70.7559C127.441 71.4329 126.552 71.9492 125.621 72.3047C124.707 72.6771 123.767 72.8633 122.803 72.8633C122.041 72.8633 121.321 72.7448 120.644 72.5078C119.984 72.2708 119.409 71.9577 118.918 71.5684C118.444 71.1621 118.063 70.7135 117.775 70.2227C117.504 69.7148 117.369 69.1986 117.369 68.6738C117.369 68.6061 117.377 68.513 117.394 68.3945C117.411 68.276 117.454 68.1491 117.521 68.0137C117.606 67.8613 117.716 67.7259 117.851 67.6074C118.004 67.472 118.207 67.362 118.461 67.2773C119.155 67.0742 119.789 66.8288 120.365 66.541C120.957 66.2363 121.465 65.8978 121.888 65.5254C122.312 65.153 122.642 64.7467 122.879 64.3066C123.116 63.8496 123.234 63.3587 123.234 62.834C123.234 62.377 123.082 62.0046 122.777 61.7168C122.472 61.429 122.1 61.2852 121.66 61.2852C121.203 61.2852 120.754 61.446 120.314 61.7676C119.874 62.0723 119.442 62.487 119.019 63.0117C118.613 63.5195 118.224 64.112 117.851 64.7891C117.479 65.4492 117.132 66.1432 116.81 66.8711C116.506 67.599 116.235 68.3268 115.998 69.0547C115.761 69.7656 115.566 70.4258 115.414 71.0352C115.363 71.2214 115.304 71.4245 115.236 71.6445C115.185 71.8646 115.101 72.0677 114.982 72.2539C114.864 72.457 114.72 72.6178 114.551 72.7363C114.381 72.8717 114.161 72.9395 113.89 72.9395C113.636 72.9395 113.391 72.8294 113.154 72.6094C112.917 72.4062 112.799 72.0508 112.799 71.543C112.799 71.4414 112.799 71.0521 112.799 70.375C112.816 69.6979 112.832 68.8177 112.849 67.7344C112.866 66.6341 112.883 65.3815 112.9 63.9766C112.934 62.5547 112.959 61.0566 112.976 59.4824C112.993 57.8913 113.019 56.2578 113.053 54.582C113.086 52.9062 113.112 51.2728 113.129 49.6816C113.146 48.0905 113.163 46.584 113.179 45.1621C113.213 43.7233 113.239 42.4538 113.256 41.3535C113.273 40.2363 113.281 39.3307 113.281 38.6367C113.298 37.9258 113.306 37.5026 113.306 37.3672C113.306 37.0964 113.408 36.8763 113.611 36.707C113.814 36.5208 114.034 36.4277 114.271 36.4277C114.542 36.4277 114.771 36.5208 114.957 36.707C115.143 36.8763 115.236 37.1048 115.236 37.3926C115.236 37.4264 115.228 37.765 115.211 38.4082C115.211 39.0345 115.202 39.8809 115.185 40.9473C115.168 42.0137 115.143 43.2578 115.109 44.6797C115.092 46.1016 115.067 47.6165 115.033 49.2246C115.016 50.8158 114.991 52.4577 114.957 54.1504C114.94 55.8431 114.914 57.4935 114.881 59.1016C114.864 60.7096 114.847 62.2415 114.83 63.6973C114.813 65.153 114.796 66.4395 114.779 67.5566C115.05 66.6934 115.397 65.7878 115.82 64.8398C116.243 63.875 116.743 62.9863 117.318 62.1738C117.894 61.3613 118.537 60.6927 119.248 60.168C119.976 59.6432 120.78 59.3809 121.66 59.3809C122.151 59.3809 122.608 59.474 123.031 59.6602C123.454 59.8294 123.818 60.0749 124.123 60.3965C124.444 60.7012 124.69 61.0651 124.859 61.4883C125.045 61.9115 125.138 62.3685 125.138 62.8594C125.138 63.6211 124.969 64.3236 124.631 64.9668C124.292 65.5931 123.844 66.1602 123.285 66.668C122.726 67.1589 122.083 67.5905 121.355 67.9629C120.644 68.3353 119.908 68.64 119.146 68.877ZM140.779 64.6113C141.608 68.5215 142.81 70.4766 144.385 70.4766C144.994 70.4766 145.578 70.2565 146.136 69.8164C146.695 69.3594 147.211 68.8092 147.685 68.166C148.176 67.5059 148.608 66.8118 148.98 66.084C149.353 65.3561 149.657 64.7214 149.894 64.1797C150.064 63.7734 150.36 63.5703 150.783 63.5703C151.054 63.5703 151.282 63.6719 151.469 63.875C151.655 64.0781 151.748 64.2982 151.748 64.5352C151.748 64.6706 151.722 64.7891 151.672 64.8906C151.553 65.1784 151.375 65.5677 151.138 66.0586C150.918 66.5326 150.639 67.0488 150.301 67.6074C149.979 68.1491 149.615 68.7077 149.209 69.2832C148.803 69.8587 148.354 70.375 147.863 70.832C147.372 71.2891 146.847 71.6699 146.289 71.9746C145.747 72.2624 145.172 72.4062 144.562 72.4062C143.428 72.4062 142.455 72.0169 141.642 71.2383C140.83 70.4427 140.127 69.1393 139.535 67.3281C138.722 69.0547 137.901 70.3073 137.072 71.0859C136.243 71.8646 135.345 72.2539 134.381 72.2539C133.873 72.2539 133.382 72.1693 132.908 72C132.434 71.8477 132.019 71.5853 131.664 71.2129C131.308 70.8405 131.021 70.3665 130.801 69.791C130.581 69.1986 130.47 68.4792 130.47 67.6328C130.47 66.4648 130.674 65.39 131.08 64.4082C131.486 63.4264 132.011 62.5885 132.654 61.8945C133.297 61.1836 134.008 60.6335 134.787 60.2441C135.582 59.8548 136.37 59.6602 137.148 59.6602C137.402 59.6602 137.622 59.7533 137.808 59.9395C137.995 60.1087 138.088 60.3288 138.088 60.5996C138.088 60.8366 138.011 61.0482 137.859 61.2344C137.707 61.4206 137.504 61.5306 137.25 61.5645C136.742 61.6322 136.2 61.793 135.625 62.0469C135.049 62.3008 134.516 62.6732 134.025 63.1641C133.551 63.638 133.153 64.2474 132.832 64.9922C132.527 65.737 132.375 66.6257 132.375 67.6582C132.375 68.5046 132.544 69.1647 132.883 69.6387C133.238 70.1126 133.746 70.3496 134.406 70.3496C134.677 70.3496 134.965 70.2819 135.269 70.1465C135.574 69.9941 135.896 69.7064 136.234 69.2832C136.59 68.86 136.97 68.2591 137.377 67.4805C137.8 66.7018 138.265 65.6777 138.773 64.4082C138.485 62.9186 138.223 61.2005 137.986 59.2539C137.749 57.3073 137.631 55.1322 137.631 52.7285C137.631 51.679 137.664 50.5872 137.732 49.4531C137.8 48.3021 137.91 47.1849 138.062 46.1016C138.215 45.0013 138.418 43.9603 138.672 42.9785C138.926 41.9967 139.23 41.1335 139.586 40.3887C139.958 39.6439 140.39 39.0599 140.881 38.6367C141.372 38.1966 141.93 37.9766 142.556 37.9766C143.115 37.9766 143.589 38.1289 143.978 38.4336C144.368 38.7383 144.681 39.1615 144.918 39.7031C145.172 40.2448 145.358 40.8965 145.476 41.6582C145.595 42.4199 145.654 43.2578 145.654 44.1719C145.654 46.1354 145.485 48.099 145.146 50.0625C144.808 52.026 144.385 53.9049 143.877 55.6992C143.386 57.4935 142.861 59.1523 142.303 60.6758C141.744 62.1992 141.236 63.5111 140.779 64.6113ZM143.75 44.1465C143.75 43.7233 143.733 43.2663 143.699 42.7754C143.682 42.2845 143.623 41.8275 143.521 41.4043C143.437 40.9642 143.318 40.6003 143.166 40.3125C143.013 40.0247 142.81 39.8809 142.556 39.8809C142.133 39.8809 141.735 40.2533 141.363 40.998C141.008 41.7428 140.694 42.7246 140.424 43.9434C140.153 45.1452 139.933 46.5163 139.763 48.0566C139.611 49.5801 139.535 51.1204 139.535 52.6777C139.535 54.1673 139.594 55.6569 139.713 57.1465C139.831 58.6361 139.967 59.9648 140.119 61.1328C140.61 59.8294 141.075 58.4922 141.515 57.1211C141.956 55.7331 142.336 54.3197 142.658 52.8809C142.997 51.4421 143.259 49.9948 143.445 48.5391C143.648 47.0664 143.75 45.6022 143.75 44.1465ZM169.547 64.916C169.479 65.0514 169.335 65.3392 169.115 65.7793C168.912 66.2025 168.641 66.6934 168.303 67.252C167.981 67.8105 167.6 68.3945 167.16 69.0039C166.72 69.6133 166.229 70.1719 165.687 70.6797C165.146 71.1875 164.562 71.6107 163.935 71.9492C163.309 72.2708 162.649 72.4316 161.955 72.4316C160.973 72.4316 160.144 72.1185 159.467 71.4922C158.806 70.8659 158.324 70.0788 158.019 69.1309C157.444 70.0957 156.758 70.8659 155.963 71.4414C155.167 72 154.372 72.2793 153.576 72.2793C152.95 72.2793 152.383 72.1693 151.875 71.9492C151.367 71.7122 150.935 71.3906 150.58 70.9844C150.224 70.5612 149.945 70.0703 149.742 69.5117C149.556 68.9531 149.463 68.3438 149.463 67.6836C149.463 66.3633 149.683 65.2038 150.123 64.2051C150.58 63.1895 151.155 62.3431 151.849 61.666C152.543 60.9889 153.305 60.4811 154.135 60.1426C154.981 59.804 155.793 59.6348 156.572 59.6348C157.097 59.6348 157.579 59.7109 158.019 59.8633C158.459 59.9987 158.832 60.151 159.136 60.3203C159.458 60.4896 159.704 60.6504 159.873 60.8027C160.042 60.9382 160.135 61.0143 160.152 61.0312C160.338 61.2513 160.431 61.4798 160.431 61.7168C160.431 61.9707 160.338 62.1992 160.152 62.4023C159.966 62.5885 159.746 62.6816 159.492 62.6816C159.221 62.6816 158.993 62.5885 158.806 62.4023C158.773 62.3685 158.696 62.3092 158.578 62.2246C158.459 62.123 158.299 62.0215 158.095 61.9199C157.892 61.8184 157.647 61.7337 157.359 61.666C157.088 61.5814 156.775 61.5391 156.42 61.5391C155.895 61.5391 155.336 61.6576 154.744 61.8945C154.151 62.1315 153.61 62.5039 153.119 63.0117C152.628 63.5026 152.213 64.1289 151.875 64.8906C151.553 65.6354 151.392 66.5241 151.392 67.5566C151.392 67.8783 151.426 68.2083 151.494 68.5469C151.562 68.8685 151.68 69.1647 151.849 69.4355C152.019 69.7064 152.247 69.9264 152.535 70.0957C152.823 70.265 153.178 70.3496 153.601 70.3496C153.906 70.3496 154.253 70.248 154.642 70.0449C155.049 69.8418 155.429 69.5286 155.785 69.1055C156.157 68.6823 156.487 68.1491 156.775 67.5059C157.08 66.8626 157.291 66.1009 157.41 65.2207C157.444 64.9837 157.554 64.7891 157.74 64.6367C157.926 64.4674 158.146 64.3828 158.4 64.3828C158.637 64.3828 158.84 64.4759 159.01 64.6621C159.196 64.8483 159.297 65.0599 159.314 65.2969C159.331 65.6185 159.365 66.0755 159.416 66.668C159.467 67.2435 159.577 67.819 159.746 68.3945C159.932 68.9701 160.203 69.4694 160.558 69.8926C160.914 70.3158 161.405 70.5273 162.031 70.5273C162.437 70.5273 162.835 70.4173 163.224 70.1973C163.631 69.9772 164.02 69.6895 164.392 69.334C164.782 68.9616 165.146 68.5469 165.484 68.0898C165.84 67.6159 166.161 67.1419 166.449 66.668C166.737 66.194 166.991 65.737 167.211 65.2969C167.431 64.8568 167.617 64.4759 167.769 64.1543C167.854 63.9681 167.972 63.8242 168.125 63.7227C168.294 63.6211 168.472 63.5703 168.658 63.5703C168.946 63.5703 169.174 63.6803 169.344 63.9004C169.53 64.1035 169.623 64.3236 169.623 64.5605C169.623 64.679 169.597 64.7975 169.547 64.916ZM177.24 72.3555C177.832 71.763 178.433 71.1621 179.043 70.5527C179.652 69.9264 180.245 69.2747 180.82 68.5977C181.396 67.9206 181.929 67.2181 182.42 66.4902C182.928 65.7454 183.376 64.9583 183.765 64.1289C183.85 63.9427 183.969 63.8073 184.121 63.7227C184.273 63.6211 184.442 63.5703 184.629 63.5703C184.916 63.5703 185.145 63.6719 185.314 63.875C185.5 64.0781 185.594 64.3066 185.594 64.5605C185.594 64.696 185.568 64.8229 185.517 64.9414C184.993 66.0417 184.392 67.0488 183.715 67.9629C183.038 68.877 182.327 69.7487 181.582 70.5781C180.837 71.3906 180.084 72.1777 179.322 72.9395C178.56 73.7181 177.832 74.4967 177.138 75.2754C177.071 76.4434 177.071 77.6113 177.138 78.7793C177.206 79.9642 177.24 81.2168 177.24 82.5371C177.24 83.6204 177.206 84.7038 177.138 85.7871C177.071 86.8704 176.961 87.903 176.808 88.8848C176.656 89.8835 176.444 90.8145 176.174 91.6777C175.92 92.541 175.59 93.2858 175.183 93.9121C174.777 94.5553 174.303 95.0547 173.761 95.4102C173.22 95.7826 172.585 95.9688 171.857 95.9688C170.655 95.9688 169.733 95.554 169.09 94.7246C168.446 93.8952 168.125 92.7357 168.125 91.2461C168.125 90.4336 168.209 89.5618 168.379 88.6309C168.565 87.6999 168.819 86.735 169.14 85.7363C169.462 84.7546 169.843 83.7559 170.283 82.7402C170.74 81.7246 171.231 80.7344 171.756 79.7695C172.28 78.8047 172.839 77.8822 173.431 77.002C174.024 76.1387 174.625 75.3516 175.234 74.6406C175.268 73.8281 175.302 72.9818 175.336 72.1016C175.386 71.2383 175.437 70.4342 175.488 69.6895C175.048 70.4681 174.498 71.0944 173.838 71.5684C173.194 72.0423 172.483 72.2793 171.705 72.2793C170.418 72.2793 169.411 71.8477 168.683 70.9844C167.956 70.1211 167.592 68.9362 167.592 67.4297C167.592 66.3294 167.693 65.3307 167.896 64.4336C168.116 63.5195 168.345 62.7409 168.582 62.0977C168.836 61.4375 169.064 60.9382 169.267 60.5996C169.47 60.2441 169.572 60.0749 169.572 60.0918C169.758 59.804 170.021 59.6602 170.359 59.6602C170.647 59.6602 170.875 59.7617 171.045 59.9648C171.231 60.151 171.324 60.3711 171.324 60.625C171.324 60.8112 171.273 60.9805 171.172 61.1328C171.189 61.1159 171.104 61.2598 170.918 61.5645C170.748 61.8522 170.554 62.2754 170.334 62.834C170.131 63.3926 169.936 64.0612 169.75 64.8398C169.581 65.6185 169.496 66.4733 169.496 67.4043C169.496 68.3353 169.665 69.0632 170.004 69.5879C170.342 70.1126 170.892 70.375 171.654 70.375C172.619 70.375 173.491 69.6641 174.269 68.2422C175.048 66.8034 175.708 64.7214 176.25 61.9961C176.284 61.776 176.385 61.5983 176.554 61.4629C176.724 61.3105 176.927 61.2344 177.164 61.2344C177.435 61.2344 177.663 61.3275 177.849 61.5137C178.036 61.6999 178.129 61.9284 178.129 62.1992C178.129 62.25 178.095 62.5547 178.027 63.1133C177.959 63.6549 177.875 64.3828 177.773 65.2969C177.689 66.2109 177.595 67.2773 177.494 68.4961C177.392 69.6979 177.308 70.9844 177.24 72.3555ZM175.209 77.7383C174.447 78.8385 173.745 79.998 173.101 81.2168C172.475 82.4355 171.933 83.6458 171.476 84.8477C171.019 86.0495 170.664 87.2005 170.41 88.3008C170.156 89.401 170.029 90.3828 170.029 91.2461C170.029 92.1263 170.173 92.8118 170.461 93.3027C170.748 93.8105 171.206 94.0645 171.832 94.0645C172.39 94.0645 172.881 93.7852 173.304 93.2266C173.745 92.6849 174.108 91.9062 174.396 90.8906C174.701 89.875 174.929 88.6393 175.082 87.1836C175.234 85.7448 175.31 84.1283 175.31 82.334C175.31 81.6061 175.293 80.8698 175.26 80.125C175.243 79.3802 175.226 78.5846 175.209 77.7383ZM198.035 62.6055C197.933 62.8763 197.806 63.181 197.654 63.5195C197.519 63.8581 197.358 64.2135 197.172 64.5859C197.019 64.8737 196.858 65.1022 196.689 65.2715C196.537 65.4238 196.334 65.5 196.08 65.5C195.792 65.5 195.564 65.4154 195.394 65.2461C195.225 65.0599 195.14 64.8483 195.14 64.6113C195.14 64.5267 195.149 64.459 195.166 64.4082C195.183 64.3405 195.225 64.2389 195.293 64.1035C195.733 63.2572 196.054 62.5208 196.258 61.8945C196.478 61.2513 196.655 60.5827 196.791 59.8887C196.672 59.4993 196.588 59.1693 196.537 58.8984C196.486 58.6276 196.461 58.3483 196.461 58.0605C196.461 57.502 196.579 57.0534 196.816 56.7148C197.053 56.3594 197.383 56.1816 197.806 56.1816C198.196 56.1816 198.5 56.3509 198.72 56.6895C198.957 57.028 199.076 57.4427 199.076 57.9336C199.076 58.2044 199.051 58.4753 199 58.7461C198.949 59.0169 198.881 59.3555 198.797 59.7617C199.186 60.7266 199.575 61.5814 199.965 62.3262C200.354 63.071 200.701 63.7565 201.006 64.3828C201.31 64.9922 201.556 65.5677 201.742 66.1094C201.945 66.651 202.047 67.1927 202.047 67.7344C202.047 68.4453 201.903 69.1224 201.615 69.7656C201.327 70.4089 200.853 70.9505 200.193 71.3906C200.278 71.4076 200.362 71.416 200.447 71.416C200.532 71.416 200.616 71.416 200.701 71.416C201.666 71.416 202.554 71.196 203.367 70.7559C204.179 70.3158 204.907 69.7487 205.551 69.0547C206.211 68.3438 206.795 67.5651 207.303 66.7188C207.81 65.8555 208.25 65.0007 208.623 64.1543C208.792 63.765 209.029 63.5703 209.334 63.5703C209.622 63.5703 209.842 63.6719 209.994 63.875C210.163 64.0781 210.248 64.2982 210.248 64.5352C210.248 64.6706 210.222 64.7975 210.172 64.916C209.985 65.373 209.74 65.8978 209.435 66.4902C209.148 67.0658 208.792 67.6667 208.369 68.293C207.963 68.9023 207.489 69.5033 206.947 70.0957C206.405 70.6882 205.796 71.2214 205.119 71.6953C204.459 72.1523 203.731 72.5163 202.935 72.7871C202.14 73.0749 201.268 73.2188 200.32 73.2188C199.186 73.2188 198.128 73.0156 197.146 72.6094C196.181 72.2201 195.394 71.5684 194.785 70.6543C194.683 70.502 194.633 70.3411 194.633 70.1719C194.633 69.918 194.726 69.6979 194.912 69.5117C195.115 69.3086 195.344 69.207 195.597 69.207C195.868 69.207 196.097 69.3001 196.283 69.4863C196.3 69.5202 196.359 69.5794 196.461 69.6641C196.562 69.7318 196.681 69.8164 196.816 69.918C196.969 70.0026 197.138 70.0788 197.324 70.1465C197.527 70.2142 197.73 70.248 197.933 70.248C198.34 70.248 198.678 70.1634 198.949 69.9941C199.237 69.8249 199.465 69.6217 199.635 69.3848C199.804 69.1309 199.922 68.8685 199.99 68.5977C200.075 68.3099 200.117 68.0645 200.117 67.8613C200.117 67.4382 200.049 67.015 199.914 66.5918C199.778 66.1686 199.601 65.7454 199.381 65.3223C199.178 64.8991 198.949 64.4674 198.695 64.0273C198.458 63.5703 198.238 63.0964 198.035 62.6055ZM225.025 64.9668C224.924 65.153 224.746 65.4915 224.492 65.9824C224.255 66.4733 223.925 67.0319 223.502 67.6582C223.095 68.2676 222.605 68.9023 222.029 69.5625C221.454 70.2227 220.793 70.832 220.049 71.3906C219.304 71.9323 218.466 72.3809 217.535 72.7363C216.621 73.0918 215.622 73.2695 214.539 73.2695C213.574 73.2695 212.719 73.0918 211.974 72.7363C211.23 72.3978 210.595 71.9154 210.07 71.2891C209.545 70.6458 209.148 69.8926 208.877 69.0293C208.606 68.166 208.47 67.2096 208.47 66.1602C208.47 65.1445 208.614 64.1966 208.902 63.3164C209.19 62.4193 209.579 61.6406 210.07 60.9805C210.578 60.3203 211.162 59.804 211.822 59.4316C212.482 59.0423 213.185 58.8477 213.929 58.8477C214.488 58.8477 214.996 58.9492 215.453 59.1523C215.91 59.3385 216.291 59.5924 216.595 59.9141C216.917 60.2357 217.163 60.5911 217.332 60.9805C217.518 61.3698 217.611 61.7591 217.611 62.1484C217.611 62.5208 217.56 62.8678 217.459 63.1895C217.374 63.5111 217.256 63.7988 217.103 64.0527C216.968 64.2897 216.807 64.4844 216.621 64.6367C216.435 64.7721 216.248 64.8398 216.062 64.8398C215.775 64.8398 215.538 64.7467 215.351 64.5605C215.182 64.3743 215.097 64.1458 215.097 63.875C215.097 63.7396 215.123 63.6211 215.174 63.5195C215.241 63.418 215.309 63.3164 215.377 63.2148C215.461 63.0964 215.529 62.9609 215.58 62.8086C215.648 62.6393 215.681 62.4277 215.681 62.1738C215.681 61.8184 215.512 61.4967 215.174 61.209C214.852 60.9212 214.437 60.7773 213.929 60.7773C213.456 60.7773 212.998 60.9212 212.558 61.209C212.135 61.4967 211.763 61.8861 211.441 62.377C211.12 62.8509 210.857 63.418 210.654 64.0781C210.468 64.7214 210.375 65.4069 210.375 66.1348C210.375 66.8288 210.459 67.4889 210.629 68.1152C210.798 68.7415 211.052 69.3001 211.39 69.791C211.729 70.265 212.152 70.6458 212.66 70.9336C213.185 71.2214 213.803 71.3652 214.513 71.3652C215.428 71.3652 216.274 71.2044 217.053 70.8828C217.831 70.5443 218.542 70.1211 219.185 69.6133C219.829 69.1055 220.396 68.5553 220.886 67.9629C221.377 67.3535 221.792 66.7865 222.131 66.2617C222.486 65.7201 222.757 65.2546 222.943 64.8652C223.146 64.459 223.265 64.2051 223.299 64.1035C223.366 63.9342 223.476 63.8073 223.629 63.7227C223.798 63.6211 223.976 63.5703 224.162 63.5703C224.45 63.5703 224.678 63.6719 224.847 63.875C225.034 64.0781 225.127 64.3066 225.127 64.5605C225.127 64.6621 225.093 64.7975 225.025 64.9668ZM225.304 69.8418C225.575 69.2663 225.888 68.6484 226.244 67.9883C226.599 67.3112 226.98 66.6257 227.386 65.9316C227.793 65.2207 228.224 64.5182 228.681 63.8242C229.138 63.1302 229.612 62.4785 230.103 61.8691C230.594 61.2767 231.085 60.8535 231.576 60.5996C232.084 60.3288 232.558 60.1934 232.998 60.1934C233.438 60.1934 233.819 60.2865 234.14 60.4727C234.479 60.6419 234.75 60.8789 234.953 61.1836C235.173 61.4883 235.334 61.8438 235.435 62.25C235.554 62.6562 235.613 63.0964 235.613 63.5703C235.613 63.9596 235.571 64.4844 235.486 65.1445C235.418 65.7878 235.385 66.4648 235.385 67.1758C235.385 67.582 235.401 67.9883 235.435 68.3945C235.486 68.7839 235.562 69.1393 235.664 69.4609C235.782 69.7656 235.952 70.0195 236.172 70.2227C236.392 70.4089 236.679 70.502 237.035 70.502C237.441 70.502 237.847 70.3919 238.254 70.1719C238.66 69.9349 239.058 69.6302 239.447 69.2578C239.836 68.8685 240.209 68.4453 240.564 67.9883C240.92 67.5143 241.241 67.0488 241.529 66.5918C241.817 66.1178 242.071 65.6693 242.291 65.2461C242.511 64.806 242.689 64.4421 242.824 64.1543C242.993 63.765 243.289 63.5703 243.713 63.5703C244 63.5703 244.229 63.6719 244.398 63.875C244.567 64.0781 244.652 64.2982 244.652 64.5352C244.652 64.6706 244.627 64.7975 244.576 64.916C244.508 65.0514 244.373 65.3307 244.17 65.7539C243.983 66.1771 243.721 66.668 243.383 67.2266C243.061 67.7852 242.68 68.3691 242.24 68.9785C241.8 69.5879 241.309 70.1549 240.767 70.6797C240.243 71.1875 239.667 71.6107 239.041 71.9492C238.431 72.2708 237.788 72.4316 237.111 72.4316C236.332 72.4316 235.706 72.2708 235.232 71.9492C234.758 71.6107 234.386 71.1875 234.115 70.6797C233.861 70.1719 233.683 69.6048 233.582 68.9785C233.497 68.3522 233.455 67.7428 233.455 67.1504C233.455 66.8457 233.463 66.5241 233.48 66.1855C233.514 65.8301 233.548 65.4831 233.582 65.1445C233.616 64.806 233.641 64.4928 233.658 64.2051C233.692 63.9004 233.709 63.6465 233.709 63.4434C233.709 62.9186 233.633 62.5632 233.48 62.377C233.345 62.1908 233.184 62.0977 232.998 62.0977C232.727 62.0977 232.414 62.2585 232.058 62.5801C231.72 62.8848 231.356 63.291 230.967 63.7988C230.594 64.3066 230.213 64.8822 229.824 65.5254C229.452 66.1517 229.088 66.778 228.732 67.4043C228.377 68.0306 228.055 68.6315 227.767 69.207C227.48 69.7656 227.243 70.2311 227.056 70.6035C226.701 71.3145 226.337 71.7884 225.965 72.0254C225.609 72.2793 225.288 72.4062 225 72.4062C224.475 72.4062 224.069 72.2031 223.781 71.7969C223.51 71.3737 223.375 70.8659 223.375 70.2734V68.6738C223.375 65.4746 223.375 62.4277 223.375 59.5332C223.392 56.6217 223.434 53.9219 223.502 51.4336C223.586 48.9284 223.713 46.6686 223.883 44.6543C224.069 42.623 224.34 40.8965 224.695 39.4746C225.051 38.0358 225.499 36.9271 226.041 36.1484C226.599 35.3698 227.293 34.9805 228.123 34.9805C228.834 34.9805 229.435 35.1751 229.926 35.5645C230.416 35.9538 230.814 36.487 231.119 37.1641C231.424 37.8242 231.644 38.6029 231.779 39.5C231.914 40.3802 231.982 41.3112 231.982 42.293C231.982 44.2904 231.796 46.2539 231.424 48.1836C231.068 50.0964 230.586 51.9668 229.976 53.7949C229.367 55.623 228.656 57.4089 227.844 59.1523C227.031 60.8789 226.176 62.5632 225.279 64.2051C225.279 64.5098 225.279 64.8737 225.279 65.2969C225.279 65.7201 225.279 66.1432 225.279 66.5664C225.279 66.9896 225.279 67.3874 225.279 67.7598C225.279 68.1322 225.279 68.4284 225.279 68.6484L225.304 69.8418ZM225.304 60.4727C226.015 58.9154 226.659 57.4004 227.234 55.9277C227.827 54.4382 228.326 52.957 228.732 51.4844C229.155 50.0117 229.485 48.5221 229.722 47.0156C229.959 45.4922 230.078 43.9095 230.078 42.2676C230.078 41.9967 230.061 41.5651 230.027 40.9727C230.01 40.3802 229.934 39.7793 229.799 39.1699C229.68 38.5605 229.485 38.0273 229.215 37.5703C228.961 37.1133 228.597 36.8848 228.123 36.8848C227.75 36.8848 227.429 37.1387 227.158 37.6465C226.887 38.1374 226.65 38.8145 226.447 39.6777C226.244 40.5241 226.075 41.5143 225.939 42.6484C225.804 43.7826 225.694 44.9844 225.609 46.2539C225.525 47.5234 225.457 48.8268 225.406 50.1641C225.372 51.5013 225.347 52.8047 225.33 54.0742C225.313 55.3268 225.304 56.5033 225.304 57.6035C225.304 58.7038 225.304 59.6602 225.304 60.4727ZM245.896 69.207C246.252 69.6979 246.709 70.0957 247.267 70.4004C247.826 70.6882 248.511 70.832 249.324 70.832C250.153 70.832 250.907 70.6374 251.584 70.248C252.261 69.8418 252.879 69.3171 253.437 68.6738C253.996 68.0306 254.495 67.3112 254.935 66.5156C255.375 65.7201 255.773 64.9245 256.129 64.1289C256.213 63.9427 256.332 63.8073 256.484 63.7227C256.636 63.6211 256.806 63.5703 256.992 63.5703C257.28 63.5703 257.508 63.6719 257.678 63.875C257.864 64.0781 257.957 64.2982 257.957 64.5352C257.957 64.6198 257.948 64.696 257.931 64.7637C257.914 64.8145 257.889 64.8737 257.855 64.9414C256.687 67.5143 255.409 69.4525 254.021 70.7559C252.65 72.0592 251.093 72.7279 249.349 72.7617C248.232 72.7617 247.267 72.5417 246.455 72.1016C245.642 71.6784 244.974 71.1283 244.449 70.4512C243.924 69.7572 243.535 68.9785 243.281 68.1152C243.027 67.252 242.9 66.3887 242.9 65.5254C242.9 64.6621 243.002 63.8665 243.205 63.1387C243.425 62.4108 243.73 61.776 244.119 61.2344C244.525 60.6927 244.999 60.2695 245.541 59.9648C246.099 59.6602 246.709 59.5078 247.369 59.5078C247.758 59.5078 248.139 59.5924 248.511 59.7617C248.901 59.9141 249.248 60.1426 249.553 60.4473C249.857 60.735 250.103 61.0905 250.289 61.5137C250.475 61.9368 250.568 62.4193 250.568 62.9609C250.568 63.6549 250.45 64.3066 250.213 64.916C249.976 65.5254 249.646 66.0924 249.222 66.6172C248.816 67.1419 248.325 67.6243 247.75 68.0645C247.174 68.5046 246.556 68.8854 245.896 69.207ZM245.135 67.5566C245.659 67.3366 246.133 67.0573 246.556 66.7188C246.997 66.3802 247.369 66.0078 247.674 65.6016C247.978 65.1953 248.215 64.7721 248.385 64.332C248.554 63.875 248.638 63.418 248.638 62.9609C248.638 62.4531 248.511 62.0723 248.258 61.8184C248.004 61.5475 247.707 61.4121 247.369 61.4121C246.912 61.4121 246.523 61.5391 246.201 61.793C245.879 62.0469 245.617 62.377 245.414 62.7832C245.211 63.1895 245.058 63.6465 244.957 64.1543C244.872 64.6452 244.83 65.1361 244.83 65.627C244.83 65.9316 244.855 66.2533 244.906 66.5918C244.974 66.9303 245.05 67.252 245.135 67.5566ZM266.006 64.6113C266.835 68.5215 268.037 70.4766 269.611 70.4766C270.22 70.4766 270.804 70.2565 271.363 69.8164C271.922 69.3594 272.438 68.8092 272.912 68.166C273.403 67.5059 273.834 66.8118 274.207 66.084C274.579 65.3561 274.884 64.7214 275.121 64.1797C275.29 63.7734 275.586 63.5703 276.01 63.5703C276.28 63.5703 276.509 63.6719 276.695 63.875C276.881 64.0781 276.974 64.2982 276.974 64.5352C276.974 64.6706 276.949 64.7891 276.898 64.8906C276.78 65.1784 276.602 65.5677 276.365 66.0586C276.145 66.5326 275.866 67.0488 275.527 67.6074C275.206 68.1491 274.842 68.7077 274.435 69.2832C274.029 69.8587 273.581 70.375 273.09 70.832C272.599 71.2891 272.074 71.6699 271.515 71.9746C270.974 72.2624 270.398 72.4062 269.789 72.4062C268.655 72.4062 267.681 72.0169 266.869 71.2383C266.056 70.4427 265.354 69.1393 264.761 67.3281C263.949 69.0547 263.128 70.3073 262.299 71.0859C261.469 71.8646 260.572 72.2539 259.607 72.2539C259.099 72.2539 258.608 72.1693 258.135 72C257.661 71.8477 257.246 71.5853 256.89 71.2129C256.535 70.8405 256.247 70.3665 256.027 69.791C255.807 69.1986 255.697 68.4792 255.697 67.6328C255.697 66.4648 255.9 65.39 256.306 64.4082C256.713 63.4264 257.237 62.5885 257.881 61.8945C258.524 61.1836 259.235 60.6335 260.013 60.2441C260.809 59.8548 261.596 59.6602 262.375 59.6602C262.629 59.6602 262.849 59.7533 263.035 59.9395C263.221 60.1087 263.314 60.3288 263.314 60.5996C263.314 60.8366 263.238 61.0482 263.086 61.2344C262.933 61.4206 262.73 61.5306 262.476 61.5645C261.969 61.6322 261.427 61.793 260.851 62.0469C260.276 62.3008 259.743 62.6732 259.252 63.1641C258.778 63.638 258.38 64.2474 258.058 64.9922C257.754 65.737 257.601 66.6257 257.601 67.6582C257.601 68.5046 257.771 69.1647 258.109 69.6387C258.465 70.1126 258.972 70.3496 259.633 70.3496C259.903 70.3496 260.191 70.2819 260.496 70.1465C260.801 69.9941 261.122 69.7064 261.461 69.2832C261.816 68.86 262.197 68.2591 262.603 67.4805C263.026 66.7018 263.492 65.6777 264 64.4082C263.712 62.9186 263.45 61.2005 263.213 59.2539C262.976 57.3073 262.857 55.1322 262.857 52.7285C262.857 51.679 262.891 50.5872 262.959 49.4531C263.026 48.3021 263.136 47.1849 263.289 46.1016C263.441 45.0013 263.644 43.9603 263.898 42.9785C264.152 41.9967 264.457 41.1335 264.812 40.3887C265.185 39.6439 265.616 39.0599 266.107 38.6367C266.598 38.1966 267.157 37.9766 267.783 37.9766C268.342 37.9766 268.816 38.1289 269.205 38.4336C269.594 38.7383 269.907 39.1615 270.144 39.7031C270.398 40.2448 270.584 40.8965 270.703 41.6582C270.821 42.4199 270.881 43.2578 270.881 44.1719C270.881 46.1354 270.711 48.099 270.373 50.0625C270.034 52.026 269.611 53.9049 269.103 55.6992C268.612 57.4935 268.088 59.1523 267.529 60.6758C266.97 62.1992 266.463 63.5111 266.006 64.6113ZM268.976 44.1465C268.976 43.7233 268.959 43.2663 268.926 42.7754C268.909 42.2845 268.849 41.8275 268.748 41.4043C268.663 40.9642 268.545 40.6003 268.392 40.3125C268.24 40.0247 268.037 39.8809 267.783 39.8809C267.36 39.8809 266.962 40.2533 266.59 40.998C266.234 41.7428 265.921 42.7246 265.65 43.9434C265.379 45.1452 265.159 46.5163 264.99 48.0566C264.838 49.5801 264.761 51.1204 264.761 52.6777C264.761 54.1673 264.821 55.6569 264.939 57.1465C265.058 58.6361 265.193 59.9648 265.345 61.1328C265.836 59.8294 266.302 58.4922 266.742 57.1211C267.182 55.7331 267.563 54.3197 267.885 52.8809C268.223 51.4421 268.485 49.9948 268.672 48.5391C268.875 47.0664 268.976 45.6022 268.976 44.1465ZM283.576 69.1562C282.983 70.1211 282.289 70.8828 281.494 71.4414C280.715 72 279.928 72.2793 279.133 72.2793C278.489 72.2793 277.914 72.1608 277.406 71.9238C276.898 71.6868 276.458 71.3568 276.086 70.9336C275.713 70.4935 275.426 69.9688 275.222 69.3594C275.036 68.75 274.943 68.0645 274.943 67.3027C274.943 66.1178 275.053 65.0684 275.273 64.1543C275.51 63.2402 275.764 62.4785 276.035 61.8691C276.306 61.2428 276.56 60.7689 276.797 60.4473C277.034 60.1257 277.152 59.9648 277.152 59.9648C277.237 59.8633 277.338 59.7871 277.457 59.7363C277.592 59.6855 277.728 59.6602 277.863 59.6602C278.134 59.6602 278.354 59.7617 278.523 59.9648C278.709 60.151 278.803 60.3711 278.803 60.625C278.803 60.7266 278.777 60.8281 278.726 60.9297C278.692 61.0312 278.65 61.1328 278.599 61.2344C278.515 61.3867 278.379 61.6237 278.193 61.9453C278.007 62.25 277.812 62.6562 277.609 63.1641C277.406 63.6719 277.228 64.2728 277.076 64.9668C276.924 65.6439 276.847 66.4225 276.847 67.3027C276.847 68.3014 277.042 69.0632 277.431 69.5879C277.838 70.0957 278.405 70.3496 279.133 70.3496C279.437 70.3496 279.784 70.2565 280.174 70.0703C280.58 69.8672 280.969 69.5625 281.342 69.1562C281.731 68.75 282.069 68.2337 282.357 67.6074C282.645 66.9811 282.831 66.2448 282.916 65.3984L283.297 61.0312C283.331 60.7773 283.441 60.5658 283.627 60.3965C283.813 60.2272 284.033 60.1426 284.287 60.1426C284.575 60.1426 284.803 60.2526 284.972 60.4727C285.142 60.6758 285.226 60.9128 285.226 61.1836L284.896 65.3984C284.862 65.7539 284.871 66.2194 284.922 66.7949C284.989 67.3704 285.116 67.9375 285.303 68.4961C285.489 69.0547 285.768 69.5371 286.14 69.9434C286.513 70.3327 287.004 70.5273 287.613 70.5273C288.053 70.5273 288.485 70.4173 288.908 70.1973C289.331 69.9603 289.737 69.6556 290.127 69.2832C290.516 68.9108 290.872 68.4961 291.193 68.0391C291.532 67.5651 291.836 67.0911 292.107 66.6172C292.395 66.1432 292.64 65.6947 292.844 65.2715C293.047 64.8314 293.216 64.459 293.351 64.1543C293.436 63.9681 293.554 63.8242 293.707 63.7227C293.859 63.6211 294.028 63.5703 294.215 63.5703C294.519 63.5703 294.756 63.6719 294.926 63.875C295.095 64.0781 295.179 64.2982 295.179 64.5352C295.179 64.6706 295.154 64.7975 295.103 64.916C295.036 65.0514 294.9 65.3392 294.697 65.7793C294.511 66.2025 294.257 66.6934 293.935 67.252C293.631 67.7936 293.258 68.3691 292.818 68.9785C292.378 69.5879 291.887 70.1549 291.345 70.6797C290.804 71.1875 290.211 71.6107 289.568 71.9492C288.942 72.2708 288.265 72.4316 287.537 72.4316C286.538 72.4316 285.709 72.1523 285.049 71.5938C284.388 71.0182 283.898 70.2057 283.576 69.1562ZM307.824 64.9668C307.638 65.3561 307.401 65.8216 307.113 66.3633C306.842 66.888 306.529 67.4382 306.174 68.0137C305.818 68.5892 305.42 69.1647 304.98 69.7402C304.54 70.2988 304.058 70.8066 303.533 71.2637C303.025 71.7038 302.475 72.0592 301.883 72.3301C301.307 72.6178 300.689 72.7617 300.029 72.7617C299.013 72.7617 298.142 72.4486 297.414 71.8223C296.686 71.196 296.068 70.375 295.56 69.3594C295.053 68.3438 294.638 67.1927 294.316 65.9062C294.011 64.6029 293.775 63.2826 293.605 61.9453C293.436 60.5911 293.317 59.2793 293.25 58.0098C293.199 56.7402 293.174 55.6146 293.174 54.6328C293.174 53.2109 293.216 51.7383 293.301 50.2148C293.402 48.6914 293.554 47.2018 293.758 45.7461C293.961 44.2904 294.215 42.9108 294.519 41.6074C294.841 40.304 295.213 39.1615 295.636 38.1797C296.077 37.1979 296.576 36.4193 297.135 35.8438C297.693 35.2682 298.328 34.9805 299.039 34.9805C299.597 34.9805 300.097 35.1159 300.537 35.3867C300.994 35.6406 301.375 36.0638 301.679 36.6562C301.984 37.2487 302.221 38.0189 302.39 38.9668C302.56 39.9147 302.644 41.0742 302.644 42.4453C302.644 44.138 302.467 45.89 302.111 47.7012C301.756 49.4954 301.273 51.3066 300.664 53.1348C300.054 54.9629 299.335 56.791 298.506 58.6191C297.676 60.4303 296.788 62.1992 295.84 63.9258C296.263 66.0755 296.83 67.7682 297.541 69.0039C298.252 70.2227 299.107 70.832 300.105 70.832C300.782 70.832 301.434 70.5697 302.06 70.0449C302.687 69.5033 303.262 68.8685 303.787 68.1406C304.312 67.4128 304.769 66.6764 305.158 65.9316C305.564 65.1699 305.877 64.5605 306.097 64.1035C306.182 63.9342 306.301 63.8073 306.453 63.7227C306.605 63.6211 306.775 63.5703 306.961 63.5703C307.248 63.5703 307.477 63.6719 307.646 63.875C307.832 64.0781 307.926 64.3066 307.926 64.5605C307.926 64.6621 307.892 64.7975 307.824 64.9668ZM295.103 54.7598C295.103 55.8431 295.129 56.8841 295.179 57.8828C295.23 58.8815 295.298 59.8379 295.383 60.752C296.094 59.3809 296.771 57.9251 297.414 56.3848C298.057 54.8275 298.624 53.2617 299.115 51.6875C299.606 50.0964 299.995 48.5221 300.283 46.9648C300.588 45.3906 300.74 43.8926 300.74 42.4707C300.74 40.4733 300.579 39.043 300.258 38.1797C299.936 37.3164 299.504 36.8848 298.963 36.8848C298.607 36.8848 298.26 37.1302 297.922 37.6211C297.6 38.112 297.295 38.7806 297.008 39.627C296.72 40.4733 296.457 41.472 296.22 42.623C295.983 43.7741 295.78 45.0098 295.611 46.3301C295.459 47.6504 295.332 49.0299 295.23 50.4688C295.146 51.9076 295.103 53.3379 295.103 54.7598ZM309.17 69.207C309.525 69.6979 309.982 70.0957 310.541 70.4004C311.099 70.6882 311.785 70.832 312.597 70.832C313.427 70.832 314.18 70.6374 314.857 70.248C315.534 69.8418 316.152 69.3171 316.711 68.6738C317.269 68.0306 317.769 67.3112 318.209 66.5156C318.649 65.7201 319.047 64.9245 319.402 64.1289C319.487 63.9427 319.605 63.8073 319.758 63.7227C319.91 63.6211 320.079 63.5703 320.265 63.5703C320.553 63.5703 320.782 63.6719 320.951 63.875C321.137 64.0781 321.23 64.2982 321.23 64.5352C321.23 64.6198 321.222 64.696 321.205 64.7637C321.188 64.8145 321.163 64.8737 321.129 64.9414C319.961 67.5143 318.683 69.4525 317.295 70.7559C315.924 72.0592 314.366 72.7279 312.623 72.7617C311.506 72.7617 310.541 72.5417 309.728 72.1016C308.916 71.6784 308.247 71.1283 307.722 70.4512C307.198 69.7572 306.808 68.9785 306.554 68.1152C306.301 67.252 306.174 66.3887 306.174 65.5254C306.174 64.6621 306.275 63.8665 306.478 63.1387C306.698 62.4108 307.003 61.776 307.392 61.2344C307.799 60.6927 308.273 60.2695 308.814 59.9648C309.373 59.6602 309.982 59.5078 310.642 59.5078C311.032 59.5078 311.413 59.5924 311.785 59.7617C312.174 59.9141 312.521 60.1426 312.826 60.4473C313.131 60.735 313.376 61.0905 313.562 61.5137C313.748 61.9368 313.842 62.4193 313.842 62.9609C313.842 63.6549 313.723 64.3066 313.486 64.916C313.249 65.5254 312.919 66.0924 312.496 66.6172C312.09 67.1419 311.599 67.6243 311.023 68.0645C310.448 68.5046 309.83 68.8854 309.17 69.207ZM308.408 67.5566C308.933 67.3366 309.407 67.0573 309.83 66.7188C310.27 66.3802 310.642 66.0078 310.947 65.6016C311.252 65.1953 311.489 64.7721 311.658 64.332C311.827 63.875 311.912 63.418 311.912 62.9609C311.912 62.4531 311.785 62.0723 311.531 61.8184C311.277 61.5475 310.981 61.4121 310.642 61.4121C310.185 61.4121 309.796 61.5391 309.474 61.793C309.153 62.0469 308.89 62.377 308.687 62.7832C308.484 63.1895 308.332 63.6465 308.23 64.1543C308.146 64.6452 308.103 65.1361 308.103 65.627C308.103 65.9316 308.129 66.2533 308.179 66.5918C308.247 66.9303 308.323 67.252 308.408 67.5566ZM322.094 61.5645C322.026 62.0215 321.941 62.4531 321.84 62.8594C321.738 63.2487 321.636 63.5957 321.535 63.9004C321.45 64.1882 321.374 64.4251 321.306 64.6113C321.239 64.7975 321.196 64.8991 321.179 64.916C321.01 65.3053 320.714 65.5 320.291 65.5C320.054 65.5 319.834 65.4154 319.631 65.2461C319.428 65.0599 319.326 64.8314 319.326 64.5605C319.326 64.459 319.343 64.3828 319.377 64.332C319.411 64.2812 319.461 64.1797 319.529 64.0273C319.597 63.875 319.681 63.6211 319.783 63.2656C319.885 62.9102 320.011 62.36 320.164 61.6152C319.876 61.6152 319.58 61.6068 319.275 61.5898C318.97 61.5729 318.691 61.5137 318.437 61.4121C318.166 61.3105 317.946 61.1497 317.777 60.9297C317.608 60.7096 317.523 60.4049 317.523 60.0156C317.523 59.7279 317.608 59.3385 317.777 58.8477C317.929 58.3568 318.141 57.8743 318.412 57.4004C318.683 56.9264 318.987 56.5202 319.326 56.1816C319.664 55.8262 320.003 55.6484 320.342 55.6484C320.731 55.6484 321.044 55.7923 321.281 56.0801C321.535 56.3678 321.73 56.7233 321.865 57.1465C322 57.5527 322.094 57.9844 322.144 58.4414C322.212 58.8984 322.246 59.2962 322.246 59.6348C322.534 59.6348 322.813 59.6348 323.084 59.6348C323.372 59.6178 323.642 59.6094 323.896 59.6094C324.861 59.6094 325.597 59.821 326.105 60.2441C326.613 60.6673 326.867 61.3613 326.867 62.3262C326.867 62.7155 326.842 63.1217 326.791 63.5449C326.74 63.9681 326.681 64.4082 326.613 64.8652C326.545 65.3053 326.486 65.7454 326.435 66.1855C326.385 66.6257 326.359 67.0573 326.359 67.4805C326.359 68.0898 326.444 68.5977 326.613 69.0039C326.782 69.3932 326.994 69.7064 327.248 69.9434C327.502 70.1803 327.773 70.3496 328.06 70.4512C328.348 70.5358 328.61 70.5781 328.847 70.5781C329.575 70.5781 330.261 70.3411 330.904 69.8672C331.547 69.3932 332.14 68.8262 332.681 68.166C333.223 67.4889 333.706 66.778 334.129 66.0332C334.569 65.2884 334.933 64.6367 335.22 64.0781C335.305 63.9258 335.424 63.8073 335.576 63.7227C335.728 63.638 335.889 63.5957 336.058 63.5957C336.363 63.5957 336.6 63.6973 336.769 63.9004C336.939 64.0866 337.023 64.2982 337.023 64.5352C337.023 64.7044 336.989 64.8568 336.922 64.9922C336.532 65.6862 336.075 66.4733 335.551 67.3535C335.043 68.2168 334.459 69.0293 333.799 69.791C333.138 70.5527 332.394 71.196 331.564 71.7207C330.752 72.2454 329.855 72.5078 328.873 72.5078C328.263 72.5078 327.688 72.3893 327.146 72.1523C326.605 71.9323 326.131 71.6107 325.724 71.1875C325.335 70.7474 325.022 70.2142 324.785 69.5879C324.548 68.9447 324.429 68.2253 324.429 67.4297C324.429 66.5833 324.514 65.7454 324.683 64.916C324.853 64.0697 324.937 63.2656 324.937 62.5039C324.937 62.1823 324.861 61.9453 324.709 61.793C324.573 61.6237 324.26 61.5391 323.769 61.5391C323.532 61.5391 323.27 61.5391 322.982 61.5391C322.711 61.5391 322.415 61.5475 322.094 61.5645ZM320.392 59.6855C320.392 59.5671 320.384 59.4147 320.367 59.2285C320.367 59.0254 320.35 58.8307 320.316 58.6445C320.299 58.4583 320.265 58.2975 320.215 58.1621C320.181 58.0267 320.138 57.959 320.088 57.959C320.037 57.959 319.969 58.0267 319.885 58.1621C319.817 58.2806 319.741 58.4329 319.656 58.6191C319.571 58.7884 319.495 58.9746 319.428 59.1777C319.36 59.3809 319.309 59.5501 319.275 59.6855H320.392Z" fill="#EEEEEE"/>
</svg>
