<svg width="357" height="104" viewBox="0 0 357 104" fill="none" xmlns="http://www.w3.org/2000/svg">
<rect x="0.728577" y="0.842102" width="319.014" height="70.5263" fill="#D8AD39"/>
<rect x="31" y="30.3158" width="326" height="67.3684" fill="#022F45"/>
<path d="M74.4841 69.207C74.061 69.207 73.6886 69.1732 73.367 69.1055C73.1131 69.6133 72.8084 70.0872 72.4529 70.5273C72.0974 70.9505 71.6827 71.3229 71.2088 71.6445C70.7517 71.9661 70.2354 72.2201 69.6599 72.4062C69.0844 72.5924 68.4581 72.6855 67.781 72.6855C66.9854 72.6855 66.2576 72.5417 65.5974 72.2539C64.9373 71.9831 64.3618 71.6022 63.8709 71.1113C63.38 70.6035 62.9991 70.0026 62.7283 69.3086C62.4575 68.5977 62.322 67.819 62.322 66.9727C62.322 65.8893 62.5167 64.9499 62.906 64.1543C63.2953 63.3418 63.7439 62.6732 64.2517 62.1484C64.7595 61.6068 65.2673 61.209 65.7752 60.9551C66.283 60.6842 66.6638 60.5488 66.9177 60.5488C67.2055 60.5488 67.4171 60.625 67.5525 60.7773C67.7048 60.9297 67.781 61.1328 67.781 61.3867C67.781 61.6745 67.6879 61.8945 67.5017 62.0469C67.3325 62.1823 67.1124 62.3177 66.8416 62.4531C66.5707 62.5885 66.283 62.7832 65.9783 63.0371C65.6736 63.2741 65.3858 63.5788 65.115 63.9512C64.8611 64.3236 64.6495 64.7637 64.4802 65.2715C64.311 65.7793 64.2263 66.3464 64.2263 66.9727C64.2263 67.5312 64.311 68.056 64.4802 68.5469C64.6495 69.0208 64.895 69.4355 65.2166 69.791C65.5382 70.1296 65.919 70.4004 66.3591 70.6035C66.7993 70.7897 67.2901 70.8828 67.8318 70.8828C68.7966 70.8828 69.5922 70.6628 70.2185 70.2227C70.8618 69.7656 71.3526 69.1901 71.6912 68.4961C70.6925 67.9714 69.8715 67.2266 69.2283 66.2617C68.5851 65.2969 68.2634 64.2135 68.2634 63.0117C68.2634 62.0469 68.492 61.2598 68.949 60.6504C69.4229 60.041 70.0408 59.7363 70.8025 59.7363C71.2595 59.7363 71.6912 59.8464 72.0974 60.0664C72.5037 60.2865 72.8591 60.6335 73.1638 61.1074C73.4854 61.5814 73.7394 62.1908 73.9256 62.9355C74.1118 63.6803 74.2048 64.569 74.2048 65.6016C74.2048 66.1432 74.1371 66.7103 74.0017 67.3027C74.1033 67.3197 74.2048 67.3281 74.3064 67.3281C74.408 67.3281 74.518 67.3281 74.6365 67.3281C75.212 67.3281 75.7283 67.2604 76.1853 67.125C76.6423 66.9896 77.0571 66.7865 77.4295 66.5156C77.8019 66.2448 78.1319 65.8978 78.4197 65.4746C78.7244 65.0514 79.0121 64.5605 79.283 64.002C79.3338 63.9004 79.4438 63.8073 79.6131 63.7227C79.7823 63.6211 79.9516 63.5703 80.1209 63.5703C80.3409 63.5703 80.544 63.6634 80.7302 63.8496C80.9334 64.0189 81.0349 64.2474 81.0349 64.5352C81.0349 64.6706 81.0011 64.8229 80.9334 64.9922C80.8657 65.1445 80.7979 65.2884 80.7302 65.4238C80.4425 65.9316 80.1039 66.4225 79.7146 66.8965C79.3422 67.3535 78.8937 67.7598 78.3689 68.1152C77.8611 68.4538 77.2856 68.7246 76.6423 68.9277C75.9991 69.1309 75.2797 69.224 74.4841 69.207ZM70.1423 62.8086C70.1423 63.1302 70.1847 63.4688 70.2693 63.8242C70.3539 64.1797 70.4809 64.5352 70.6502 64.8906C70.8364 65.2292 71.0564 65.5592 71.3103 65.8809C71.5812 66.1855 71.8943 66.4479 72.2498 66.668C72.3006 66.3125 72.3259 65.9655 72.3259 65.627C72.3259 65.1699 72.2921 64.7044 72.2244 64.2305C72.1567 63.7565 72.0551 63.3249 71.9197 62.9355C71.8012 62.5293 71.6489 62.2077 71.4627 61.9707C71.2765 61.7168 71.0564 61.5898 70.8025 61.5898C70.7009 61.5898 70.5655 61.666 70.3963 61.8184C70.227 61.9707 70.1423 62.3008 70.1423 62.8086ZM81.8982 61.5645C81.8305 62.0215 81.7459 62.4531 81.6443 62.8594C81.5427 63.2487 81.4412 63.5957 81.3396 63.9004C81.255 64.1882 81.1788 64.4251 81.1111 64.6113C81.0434 64.7975 81.0011 64.8991 80.9841 64.916C80.8149 65.3053 80.5187 65.5 80.0955 65.5C79.8585 65.5 79.6384 65.4154 79.4353 65.2461C79.2322 65.0599 79.1306 64.8314 79.1306 64.5605C79.1306 64.459 79.1476 64.3828 79.1814 64.332C79.2153 64.2812 79.266 64.1797 79.3338 64.0273C79.4015 63.875 79.4861 63.6211 79.5877 63.2656C79.6892 62.9102 79.8162 62.36 79.9685 61.6152C79.6808 61.6152 79.3845 61.6068 79.0798 61.5898C78.7752 61.5729 78.4959 61.5137 78.242 61.4121C77.9711 61.3105 77.7511 61.1497 77.5818 60.9297C77.4125 60.7096 77.3279 60.4049 77.3279 60.0156C77.3279 59.7279 77.4125 59.3385 77.5818 58.8477C77.7341 58.3568 77.9457 57.8743 78.2166 57.4004C78.4874 56.9264 78.7921 56.5202 79.1306 56.1816C79.4692 55.8262 79.8077 55.6484 80.1463 55.6484C80.5356 55.6484 80.8487 55.7923 81.0857 56.0801C81.3396 56.3678 81.5343 56.7233 81.6697 57.1465C81.8051 57.5527 81.8982 57.9844 81.949 58.4414C82.0167 58.8984 82.0506 59.2962 82.0506 59.6348C82.3383 59.6348 82.6176 59.6348 82.8884 59.6348C83.1762 59.6178 83.447 59.6094 83.7009 59.6094C84.6658 59.6094 85.4021 59.821 85.9099 60.2441C86.4177 60.6673 86.6716 61.3613 86.6716 62.3262C86.6716 62.7155 86.6463 63.1217 86.5955 63.5449C86.5447 63.9681 86.4854 64.4082 86.4177 64.8652C86.35 65.3053 86.2908 65.7454 86.24 66.1855C86.1892 66.6257 86.1638 67.0573 86.1638 67.4805C86.1638 68.0898 86.2485 68.5977 86.4177 69.0039C86.587 69.3932 86.7986 69.7064 87.0525 69.9434C87.3064 70.1803 87.5772 70.3496 87.865 70.4512C88.1528 70.5358 88.4151 70.5781 88.6521 70.5781C89.38 70.5781 90.0655 70.3411 90.7088 69.8672C91.352 69.3932 91.9444 68.8262 92.4861 68.166C93.0278 67.4889 93.5102 66.778 93.9334 66.0332C94.3735 65.2884 94.7374 64.6367 95.0252 64.0781C95.1098 63.9258 95.2283 63.8073 95.3806 63.7227C95.533 63.638 95.6938 63.5957 95.8631 63.5957C96.1677 63.5957 96.4047 63.6973 96.574 63.9004C96.7433 64.0866 96.8279 64.2982 96.8279 64.5352C96.8279 64.7044 96.794 64.8568 96.7263 64.9922C96.337 65.6862 95.88 66.4733 95.3552 67.3535C94.8474 68.2168 94.2634 69.0293 93.6033 69.791C92.9431 70.5527 92.1983 71.196 91.3689 71.7207C90.5564 72.2454 89.6593 72.5078 88.6775 72.5078C88.0681 72.5078 87.4926 72.3893 86.9509 72.1523C86.4093 71.9323 85.9353 71.6107 85.5291 71.1875C85.1397 70.7474 84.8266 70.2142 84.5896 69.5879C84.3526 68.9447 84.2341 68.2253 84.2341 67.4297C84.2341 66.5833 84.3188 65.7454 84.4881 64.916C84.6573 64.0697 84.742 63.2656 84.742 62.5039C84.742 62.1823 84.6658 61.9453 84.5134 61.793C84.378 61.6237 84.0649 61.5391 83.574 61.5391C83.337 61.5391 83.0746 61.5391 82.7869 61.5391C82.516 61.5391 82.2198 61.5475 81.8982 61.5645ZM80.197 59.6855C80.197 59.5671 80.1886 59.4147 80.1716 59.2285C80.1716 59.0254 80.1547 58.8307 80.1209 58.6445C80.1039 58.4583 80.0701 58.2975 80.0193 58.1621C79.9854 58.0267 79.9431 57.959 79.8923 57.959C79.8416 57.959 79.7739 58.0267 79.6892 58.1621C79.6215 58.2806 79.5453 58.4329 79.4607 58.6191C79.3761 58.7884 79.2999 58.9746 79.2322 59.1777C79.1645 59.3809 79.1137 59.5501 79.0798 59.6855H80.197ZM99.1638 52.0684C99.1638 52.7116 98.9353 53.2617 98.4783 53.7188C98.0382 54.1589 97.4965 54.3789 96.8533 54.3789C96.2101 54.3789 95.6599 54.1589 95.2029 53.7188C94.7628 53.2617 94.5427 52.7116 94.5427 52.0684C94.5427 51.7467 94.602 51.4505 94.7205 51.1797C94.839 50.8919 94.9998 50.6465 95.2029 50.4434C95.4229 50.2233 95.6684 50.054 95.9392 49.9355C96.227 49.8171 96.5317 49.7578 96.8533 49.7578C97.1749 49.7578 97.4711 49.8171 97.742 49.9355C98.0297 50.054 98.2752 50.2233 98.4783 50.4434C98.6983 50.6465 98.8676 50.8919 98.9861 51.1797C99.1046 51.4505 99.1638 51.7467 99.1638 52.0684ZM95.0506 66.9473C95.0506 64.5098 95.2029 62.0807 95.5076 59.6602C95.5414 59.4232 95.643 59.2201 95.8123 59.0508C95.9985 58.8646 96.2354 58.7715 96.5232 58.7715C96.7771 58.7715 96.9887 58.873 97.158 59.0762C97.3272 59.2624 97.4119 59.4824 97.4119 59.7363C97.4119 59.8379 97.3865 60.1426 97.3357 60.6504C97.3019 61.1582 97.2511 61.7676 97.1834 62.4785C97.1326 63.1725 97.0818 63.9173 97.031 64.7129C96.9972 65.4915 96.9802 66.2109 96.9802 66.8711C96.9802 67.7682 97.0649 68.4961 97.2341 69.0547C97.4203 69.5964 97.6489 70.0195 97.9197 70.3242C98.2075 70.6289 98.5037 70.832 98.8084 70.9336C99.13 71.0352 99.4347 71.0859 99.7224 71.0859C100.196 71.0859 100.687 70.9167 101.195 70.5781C101.703 70.2396 102.219 69.7656 102.744 69.1562C103.286 68.5469 103.827 67.819 104.369 66.9727C104.911 66.1094 105.444 65.153 105.969 64.1035C106.053 63.9342 106.172 63.8073 106.324 63.7227C106.476 63.6211 106.646 63.5703 106.832 63.5703C107.103 63.5703 107.323 63.6719 107.492 63.875C107.678 64.0781 107.771 64.2982 107.771 64.5352C107.771 64.7044 107.737 64.8483 107.67 64.9668C107.467 65.3561 107.213 65.8301 106.908 66.3887C106.603 66.9473 106.256 67.5228 105.867 68.1152C105.478 68.7077 105.046 69.3001 104.572 69.8926C104.115 70.4681 103.624 70.9928 103.099 71.4668C102.575 71.9238 102.025 72.2962 101.449 72.584C100.873 72.8717 100.289 73.0156 99.697 73.0156C98.9353 73.0156 98.2667 72.8548 97.6912 72.5332C97.1157 72.2116 96.6248 71.7799 96.2185 71.2383C95.8292 70.6966 95.533 70.0618 95.3298 69.334C95.1437 68.5892 95.0506 67.7936 95.0506 66.9473ZM97.742 52.0684C97.742 51.8314 97.6489 51.6283 97.4627 51.459C97.2934 51.2728 97.0903 51.1797 96.8533 51.1797C96.6163 51.1797 96.4132 51.2728 96.2439 51.459C96.0746 51.6283 95.99 51.8314 95.99 52.0684C95.99 52.3053 96.0746 52.5085 96.2439 52.6777C96.4132 52.847 96.6163 52.9316 96.8533 52.9316C97.0903 52.9316 97.2934 52.847 97.4627 52.6777C97.6489 52.5085 97.742 52.3053 97.742 52.0684ZM115.135 74.4883C118.317 70.3411 120.526 66.8965 121.761 64.1543C121.846 63.9681 121.956 63.8327 122.092 63.748C122.244 63.6465 122.413 63.5957 122.599 63.5957C122.887 63.5957 123.124 63.6973 123.31 63.9004C123.497 64.0866 123.59 64.3066 123.59 64.5605C123.59 64.679 123.564 64.7975 123.513 64.916C122.769 66.6087 121.711 68.4961 120.34 70.5781C118.969 72.6602 117.233 75.013 115.135 77.6367C115.135 78.7031 115.143 79.7695 115.16 80.8359C115.177 81.9023 115.185 83.0703 115.185 84.3398C115.185 85.6094 115.151 86.862 115.084 88.0977C115.033 89.3503 114.931 90.5352 114.779 91.6523C114.627 92.7865 114.415 93.8275 114.144 94.7754C113.89 95.7402 113.552 96.5697 113.129 97.2637C112.722 97.9746 112.223 98.5247 111.631 98.9141C111.055 99.3203 110.37 99.5234 109.574 99.5234C108.44 99.5234 107.568 99.0918 106.959 98.2285C106.349 97.3652 106.045 96.138 106.045 94.5469C106.045 93.7005 106.121 92.778 106.273 91.7793C106.442 90.7975 106.679 89.7819 106.984 88.7324C107.289 87.6829 107.653 86.6165 108.076 85.5332C108.516 84.4668 108.998 83.4258 109.523 82.4102C110.048 81.3945 110.615 80.4212 111.224 79.4902C111.851 78.5592 112.511 77.7129 113.205 76.9512C113.222 75.7663 113.23 74.5898 113.23 73.4219C113.247 72.2539 113.273 71.179 113.306 70.1973C112.799 70.8405 112.189 71.3483 111.478 71.7207C110.784 72.0931 110.09 72.2793 109.396 72.2793C108.804 72.2793 108.262 72.1693 107.771 71.9492C107.297 71.7122 106.891 71.3906 106.553 70.9844C106.214 70.5612 105.952 70.0703 105.765 69.5117C105.579 68.9531 105.486 68.3438 105.486 67.6836C105.486 66.3633 105.706 65.2038 106.146 64.2051C106.603 63.1895 107.179 62.3431 107.873 61.666C108.567 60.9889 109.329 60.4811 110.158 60.1426C111.004 59.804 111.817 59.6348 112.595 59.6348C113.12 59.6348 113.603 59.7025 114.043 59.8379C114.483 59.9733 114.855 60.1257 115.16 60.2949C115.482 60.4642 115.727 60.625 115.896 60.7773C116.066 60.9297 116.159 61.0143 116.176 61.0312C116.362 61.2344 116.455 61.4629 116.455 61.7168C116.455 61.9707 116.362 62.1992 116.176 62.4023C115.989 62.5885 115.769 62.6816 115.515 62.6816C115.278 62.6816 115.05 62.5885 114.83 62.4023C114.762 62.3516 114.669 62.2839 114.551 62.1992C114.449 62.0977 114.305 61.9961 114.119 61.8945C113.95 61.793 113.738 61.7083 113.484 61.6406C113.247 61.5729 112.959 61.5391 112.621 61.5391C112.113 61.5391 111.554 61.6576 110.945 61.8945C110.336 62.1146 109.769 62.4701 109.244 62.9609C108.719 63.4518 108.279 64.0866 107.924 64.8652C107.568 65.627 107.39 66.5495 107.39 67.6328C107.39 68.4453 107.568 69.1055 107.924 69.6133C108.279 70.1042 108.829 70.3496 109.574 70.3496C109.929 70.3496 110.302 70.248 110.691 70.0449C111.097 69.8418 111.487 69.5286 111.859 69.1055C112.232 68.6823 112.553 68.1491 112.824 67.5059C113.112 66.8626 113.315 66.1009 113.433 65.2207C113.467 64.9837 113.577 64.7891 113.763 64.6367C113.95 64.4674 114.17 64.3828 114.424 64.3828C114.711 64.3828 114.931 64.4844 115.084 64.6875C115.253 64.8906 115.338 65.1191 115.338 65.373C115.338 65.39 115.329 65.6523 115.312 66.1602C115.295 66.651 115.278 67.3112 115.261 68.1406C115.245 68.9701 115.219 69.9349 115.185 71.0352C115.168 72.1185 115.151 73.2695 115.135 74.4883ZM113.205 80.0488C112.409 81.1491 111.69 82.3424 111.047 83.6289C110.403 84.9323 109.853 86.2441 109.396 87.5645C108.939 88.8848 108.584 90.1628 108.33 91.3984C108.093 92.651 107.974 93.7682 107.974 94.75C107.974 95.3763 108.025 95.8757 108.127 96.248C108.245 96.6204 108.381 96.9082 108.533 97.1113C108.702 97.3145 108.88 97.4499 109.066 97.5176C109.269 97.5853 109.456 97.6191 109.625 97.6191C110.15 97.6191 110.607 97.4076 110.996 96.9844C111.385 96.5612 111.715 95.9941 111.986 95.2832C112.257 94.5892 112.477 93.7852 112.646 92.8711C112.816 91.957 112.942 91.0091 113.027 90.0273C113.112 89.0625 113.171 88.0977 113.205 87.1328C113.239 86.168 113.256 85.2793 113.256 84.4668C113.256 83.7389 113.256 83.0111 113.256 82.2832C113.256 81.5553 113.239 80.8105 113.205 80.0488ZM125.926 52.0684C125.926 52.7116 125.697 53.2617 125.24 53.7188C124.8 54.1589 124.258 54.3789 123.615 54.3789C122.972 54.3789 122.422 54.1589 121.965 53.7188C121.525 53.2617 121.304 52.7116 121.304 52.0684C121.304 51.7467 121.364 51.4505 121.482 51.1797C121.601 50.8919 121.761 50.6465 121.965 50.4434C122.185 50.2233 122.43 50.054 122.701 49.9355C122.989 49.8171 123.293 49.7578 123.615 49.7578C123.937 49.7578 124.233 49.8171 124.504 49.9355C124.791 50.054 125.037 50.2233 125.24 50.4434C125.46 50.6465 125.629 50.8919 125.748 51.1797C125.866 51.4505 125.926 51.7467 125.926 52.0684ZM121.812 66.9473C121.812 64.5098 121.965 62.0807 122.269 59.6602C122.303 59.4232 122.405 59.2201 122.574 59.0508C122.76 58.8646 122.997 58.7715 123.285 58.7715C123.539 58.7715 123.75 58.873 123.92 59.0762C124.089 59.2624 124.174 59.4824 124.174 59.7363C124.174 59.8379 124.148 60.1426 124.097 60.6504C124.064 61.1582 124.013 61.7676 123.945 62.4785C123.894 63.1725 123.844 63.9173 123.793 64.7129C123.759 65.4915 123.742 66.2109 123.742 66.8711C123.742 67.7682 123.827 68.4961 123.996 69.0547C124.182 69.5964 124.411 70.0195 124.681 70.3242C124.969 70.6289 125.265 70.832 125.57 70.9336C125.892 71.0352 126.196 71.0859 126.484 71.0859C126.958 71.0859 127.449 70.9167 127.957 70.5781C128.465 70.2396 128.981 69.7656 129.506 69.1562C130.047 68.5469 130.589 67.819 131.131 66.9727C131.672 66.1094 132.206 65.153 132.73 64.1035C132.815 63.9342 132.933 63.8073 133.086 63.7227C133.238 63.6211 133.407 63.5703 133.594 63.5703C133.864 63.5703 134.084 63.6719 134.254 63.875C134.44 64.0781 134.533 64.2982 134.533 64.5352C134.533 64.7044 134.499 64.8483 134.431 64.9668C134.228 65.3561 133.974 65.8301 133.67 66.3887C133.365 66.9473 133.018 67.5228 132.629 68.1152C132.239 68.7077 131.808 69.3001 131.334 69.8926C130.877 70.4681 130.386 70.9928 129.861 71.4668C129.336 71.9238 128.786 72.2962 128.211 72.584C127.635 72.8717 127.051 73.0156 126.459 73.0156C125.697 73.0156 125.028 72.8548 124.453 72.5332C123.877 72.2116 123.386 71.7799 122.98 71.2383C122.591 70.6966 122.295 70.0618 122.092 69.334C121.905 68.5892 121.812 67.7936 121.812 66.9473ZM124.504 52.0684C124.504 51.8314 124.411 51.6283 124.224 51.459C124.055 51.2728 123.852 51.1797 123.615 51.1797C123.378 51.1797 123.175 51.2728 123.006 51.459C122.836 51.6283 122.752 51.8314 122.752 52.0684C122.752 52.3053 122.836 52.5085 123.006 52.6777C123.175 52.847 123.378 52.9316 123.615 52.9316C123.852 52.9316 124.055 52.847 124.224 52.6777C124.411 52.5085 124.504 52.3053 124.504 52.0684ZM138.342 69.7148C138.612 69.1562 138.926 68.5469 139.281 67.8867C139.636 67.2096 140.017 66.5326 140.424 65.8555C140.83 65.1615 141.253 64.4759 141.693 63.7988C142.15 63.1217 142.624 62.4785 143.115 61.8691C143.606 61.2767 144.097 60.8535 144.588 60.5996C145.095 60.3288 145.569 60.1934 146.01 60.1934C146.89 60.1934 147.541 60.515 147.965 61.1582C148.388 61.8014 148.599 62.597 148.599 63.5449C148.599 63.765 148.582 64.0358 148.549 64.3574C148.532 64.6621 148.506 64.9922 148.472 65.3477C148.456 65.7031 148.43 66.0671 148.396 66.4395C148.379 66.7949 148.371 67.1335 148.371 67.4551C148.371 67.8613 148.388 68.2507 148.422 68.623C148.472 68.9954 148.557 69.3255 148.676 69.6133C148.794 69.8841 148.963 70.1042 149.183 70.2734C149.403 70.4258 149.691 70.502 150.047 70.502C150.69 70.502 151.316 70.2565 151.926 69.7656C152.535 69.2578 153.094 68.6654 153.601 67.9883C154.126 67.2943 154.575 66.5918 154.947 65.8809C155.336 65.1699 155.624 64.5944 155.81 64.1543C155.895 63.9681 156.013 63.8242 156.166 63.7227C156.335 63.6211 156.513 63.5703 156.699 63.5703C156.987 63.5703 157.215 63.6803 157.385 63.9004C157.571 64.1035 157.664 64.3236 157.664 64.5605C157.664 64.679 157.638 64.7975 157.588 64.916C157.52 65.0514 157.385 65.3307 157.181 65.7539C156.978 66.1771 156.707 66.668 156.369 67.2266C156.047 67.7682 155.666 68.3522 155.226 68.9785C154.786 69.5879 154.295 70.1465 153.754 70.6543C153.229 71.1621 152.653 71.5853 152.027 71.9238C151.418 72.2624 150.775 72.4316 150.097 72.4316C149.336 72.4316 148.718 72.2878 148.244 72C147.77 71.6953 147.398 71.306 147.127 70.832C146.856 70.3411 146.67 69.8079 146.568 69.2324C146.483 68.64 146.441 68.0475 146.441 67.4551C146.441 67.2012 146.45 66.9134 146.467 66.5918C146.5 66.2702 146.534 65.9316 146.568 65.5762C146.619 65.2207 146.653 64.8652 146.67 64.5098C146.704 64.1543 146.72 63.8158 146.72 63.4941C146.72 62.9525 146.636 62.5885 146.467 62.4023C146.297 62.1992 146.145 62.0977 146.01 62.0977C145.739 62.0977 145.426 62.2585 145.07 62.5801C144.732 62.8848 144.368 63.291 143.978 63.7988C143.606 64.3066 143.217 64.8822 142.81 65.5254C142.421 66.1517 142.049 66.778 141.693 67.4043C141.355 68.0306 141.033 68.6315 140.728 69.207C140.441 69.7656 140.212 70.2311 140.043 70.6035C139.704 71.3145 139.366 71.7884 139.027 72.0254C138.689 72.2793 138.342 72.4062 137.986 72.4062C137.495 72.4062 137.097 72.2624 136.793 71.9746C136.505 71.6699 136.361 71.2467 136.361 70.7051C136.361 70.5866 136.378 70.3581 136.412 70.0195C136.446 69.6641 136.488 69.2493 136.539 68.7754C136.59 68.2845 136.64 67.7598 136.691 67.2012C136.742 66.6426 136.793 66.0924 136.844 65.5508C136.894 64.9922 136.937 64.4759 136.97 64.002C137.004 63.528 137.021 63.1302 137.021 62.8086C137.021 62.3854 137.004 61.9792 136.97 61.5898C136.937 61.2005 136.869 60.9635 136.767 60.8789C136.615 60.9297 136.344 61.2513 135.955 61.8438C135.566 62.4193 135.066 63.4434 134.457 64.916C134.372 65.1022 134.245 65.2461 134.076 65.3477C133.907 65.4492 133.729 65.5 133.543 65.5C133.255 65.5 133.026 65.4069 132.857 65.2207C132.688 65.0176 132.603 64.7891 132.603 64.5352C132.603 64.4167 132.629 64.2897 132.679 64.1543C133.441 62.3431 134.152 61.0143 134.812 60.168C135.489 59.3047 136.158 58.873 136.818 58.873C137.207 58.873 137.538 58.9746 137.808 59.1777C138.079 59.3639 138.291 59.6178 138.443 59.9395C138.612 60.2611 138.731 60.6165 138.799 61.0059C138.883 61.3952 138.926 61.793 138.926 62.1992C138.926 62.5039 138.9 62.9779 138.849 63.6211C138.816 64.2643 138.765 64.9583 138.697 65.7031C138.629 66.431 138.562 67.1589 138.494 67.8867C138.443 68.6146 138.392 69.224 138.342 69.7148ZM175.488 64.916C175.42 65.0514 175.276 65.3392 175.056 65.7793C174.853 66.2025 174.582 66.6934 174.244 67.252C173.922 67.8105 173.541 68.3945 173.101 69.0039C172.661 69.6133 172.17 70.1719 171.629 70.6797C171.087 71.1875 170.503 71.6107 169.877 71.9492C169.25 72.2708 168.59 72.4316 167.896 72.4316C166.914 72.4316 166.085 72.1185 165.408 71.4922C164.748 70.8659 164.265 70.0788 163.961 69.1309C163.385 70.0957 162.7 70.8659 161.904 71.4414C161.108 72 160.313 72.2793 159.517 72.2793C158.891 72.2793 158.324 72.1693 157.816 71.9492C157.308 71.7122 156.877 71.3906 156.521 70.9844C156.166 70.5612 155.886 70.0703 155.683 69.5117C155.497 68.9531 155.404 68.3438 155.404 67.6836C155.404 66.3633 155.624 65.2038 156.064 64.2051C156.521 63.1895 157.097 62.3431 157.791 61.666C158.485 60.9889 159.247 60.4811 160.076 60.1426C160.922 59.804 161.735 59.6348 162.513 59.6348C163.038 59.6348 163.521 59.7109 163.961 59.8633C164.401 59.9987 164.773 60.151 165.078 60.3203C165.4 60.4896 165.645 60.6504 165.814 60.8027C165.983 60.9382 166.077 61.0143 166.094 61.0312C166.28 61.2513 166.373 61.4798 166.373 61.7168C166.373 61.9707 166.28 62.1992 166.094 62.4023C165.907 62.5885 165.687 62.6816 165.433 62.6816C165.163 62.6816 164.934 62.5885 164.748 62.4023C164.714 62.3685 164.638 62.3092 164.519 62.2246C164.401 62.123 164.24 62.0215 164.037 61.9199C163.834 61.8184 163.588 61.7337 163.301 61.666C163.03 61.5814 162.717 61.5391 162.361 61.5391C161.836 61.5391 161.278 61.6576 160.685 61.8945C160.093 62.1315 159.551 62.5039 159.06 63.0117C158.569 63.5026 158.155 64.1289 157.816 64.8906C157.495 65.6354 157.334 66.5241 157.334 67.5566C157.334 67.8783 157.368 68.2083 157.435 68.5469C157.503 68.8685 157.622 69.1647 157.791 69.4355C157.96 69.7064 158.189 69.9264 158.476 70.0957C158.764 70.265 159.12 70.3496 159.543 70.3496C159.847 70.3496 160.194 70.248 160.584 70.0449C160.99 69.8418 161.371 69.5286 161.726 69.1055C162.099 68.6823 162.429 68.1491 162.717 67.5059C163.021 66.8626 163.233 66.1009 163.351 65.2207C163.385 64.9837 163.495 64.7891 163.681 64.6367C163.868 64.4674 164.088 64.3828 164.342 64.3828C164.579 64.3828 164.782 64.4759 164.951 64.6621C165.137 64.8483 165.239 65.0599 165.256 65.2969C165.273 65.6185 165.306 66.0755 165.357 66.668C165.408 67.2435 165.518 67.819 165.687 68.3945C165.873 68.9701 166.144 69.4694 166.5 69.8926C166.855 70.3158 167.346 70.5273 167.972 70.5273C168.379 70.5273 168.776 70.4173 169.166 70.1973C169.572 69.9772 169.961 69.6895 170.334 69.334C170.723 68.9616 171.087 68.5469 171.426 68.0898C171.781 67.6159 172.103 67.1419 172.39 66.668C172.678 66.194 172.932 65.737 173.152 65.2969C173.372 64.8568 173.558 64.4759 173.711 64.1543C173.795 63.9681 173.914 63.8242 174.066 63.7227C174.235 63.6211 174.413 63.5703 174.599 63.5703C174.887 63.5703 175.116 63.6803 175.285 63.9004C175.471 64.1035 175.564 64.3236 175.564 64.5605C175.564 64.679 175.539 64.7975 175.488 64.916ZM188.183 64.9668C187.997 65.3561 187.76 65.8216 187.472 66.3633C187.202 66.888 186.888 67.4382 186.533 68.0137C186.178 68.5892 185.78 69.1647 185.34 69.7402C184.9 70.2988 184.417 70.8066 183.892 71.2637C183.385 71.7038 182.834 72.0592 182.242 72.3301C181.666 72.6178 181.049 72.7617 180.388 72.7617C179.373 72.7617 178.501 72.4486 177.773 71.8223C177.045 71.196 176.428 70.375 175.92 69.3594C175.412 68.3438 174.997 67.1927 174.676 65.9062C174.371 64.6029 174.134 63.2826 173.965 61.9453C173.795 60.5911 173.677 59.2793 173.609 58.0098C173.558 56.7402 173.533 55.6146 173.533 54.6328C173.533 53.2109 173.575 51.7383 173.66 50.2148C173.761 48.6914 173.914 47.2018 174.117 45.7461C174.32 44.2904 174.574 42.9108 174.879 41.6074C175.2 40.304 175.573 39.1615 175.996 38.1797C176.436 37.1979 176.935 36.4193 177.494 35.8438C178.053 35.2682 178.687 34.9805 179.398 34.9805C179.957 34.9805 180.456 35.1159 180.896 35.3867C181.353 35.6406 181.734 36.0638 182.039 36.6562C182.344 37.2487 182.581 38.0189 182.75 38.9668C182.919 39.9147 183.004 41.0742 183.004 42.4453C183.004 44.138 182.826 45.89 182.47 47.7012C182.115 49.4954 181.633 51.3066 181.023 53.1348C180.414 54.9629 179.694 56.791 178.865 58.6191C178.036 60.4303 177.147 62.1992 176.199 63.9258C176.622 66.0755 177.189 67.7682 177.9 69.0039C178.611 70.2227 179.466 70.832 180.465 70.832C181.142 70.832 181.793 70.5697 182.42 70.0449C183.046 69.5033 183.622 68.8685 184.146 68.1406C184.671 67.4128 185.128 66.6764 185.517 65.9316C185.924 65.1699 186.237 64.5605 186.457 64.1035C186.541 63.9342 186.66 63.8073 186.812 63.7227C186.965 63.6211 187.134 63.5703 187.32 63.5703C187.608 63.5703 187.836 63.6719 188.006 63.875C188.192 64.0781 188.285 64.3066 188.285 64.5605C188.285 64.6621 188.251 64.7975 188.183 64.9668ZM175.463 54.7598C175.463 55.8431 175.488 56.8841 175.539 57.8828C175.59 58.8815 175.657 59.8379 175.742 60.752C176.453 59.3809 177.13 57.9251 177.773 56.3848C178.416 54.8275 178.983 53.2617 179.474 51.6875C179.965 50.0964 180.355 48.5221 180.642 46.9648C180.947 45.3906 181.099 43.8926 181.099 42.4707C181.099 40.4733 180.939 39.043 180.617 38.1797C180.295 37.3164 179.864 36.8848 179.322 36.8848C178.967 36.8848 178.62 37.1302 178.281 37.6211C177.959 38.112 177.655 38.7806 177.367 39.627C177.079 40.4733 176.817 41.472 176.58 42.623C176.343 43.7741 176.14 45.0098 175.97 46.3301C175.818 47.6504 175.691 49.0299 175.59 50.4688C175.505 51.9076 175.463 53.3379 175.463 54.7598ZM210.933 64.916C210.933 66.4733 210.654 67.8021 210.095 68.9023C209.537 70.0026 208.851 70.8405 208.039 71.416H208.14C209.139 71.416 210.045 71.196 210.857 70.7559C211.687 70.2988 212.431 69.7233 213.092 69.0293C213.752 68.3184 214.344 67.5312 214.869 66.668C215.394 65.8047 215.859 64.9668 216.265 64.1543C216.35 63.9681 216.469 63.8242 216.621 63.7227C216.79 63.6211 216.968 63.5703 217.154 63.5703C217.442 63.5703 217.67 63.6719 217.84 63.875C218.009 64.0781 218.094 64.2982 218.094 64.5352C218.094 64.6706 218.068 64.7975 218.017 64.916C217.577 65.8978 217.053 66.888 216.443 67.8867C215.834 68.8685 215.123 69.7572 214.31 70.5527C213.498 71.3483 212.584 71.9915 211.568 72.4824C210.553 72.9902 209.427 73.2441 208.191 73.2441C207.294 73.2441 206.422 73.1003 205.576 72.8125C204.73 72.5417 203.985 72.11 203.342 71.5176C203.105 71.3314 202.901 71.1367 202.732 70.9336C202.563 70.7135 202.428 70.5104 202.326 70.3242C202.292 70.2904 202.275 70.2565 202.275 70.2227C202.174 70.0703 202.123 69.9095 202.123 69.7402C202.123 69.5202 202.199 69.3171 202.351 69.1309C202.368 69.097 202.385 69.0801 202.402 69.0801C202.419 69.0632 202.436 69.0462 202.453 69.0293C202.622 68.877 202.808 68.7923 203.011 68.7754H203.088C203.172 68.7754 203.232 68.7839 203.265 68.8008C203.282 68.8008 203.291 68.8092 203.291 68.8262C203.308 68.8262 203.325 68.8262 203.342 68.8262C203.392 68.8262 203.452 68.8431 203.519 68.877C203.536 68.8939 203.553 68.9023 203.57 68.9023C203.722 69.0039 203.849 69.1309 203.951 69.2832C204.069 69.4863 204.205 69.6725 204.357 69.8418C204.493 69.9772 204.653 70.1042 204.84 70.2227C205.026 70.3242 205.237 70.375 205.474 70.375C205.898 70.375 206.321 70.248 206.744 69.9941C207.167 69.7402 207.548 69.3763 207.886 68.9023C208.225 68.4284 208.496 67.8529 208.699 67.1758C208.919 66.4987 209.029 65.7454 209.029 64.916C209.029 64.3066 208.961 63.7904 208.826 63.3672C208.707 62.9271 208.547 62.5716 208.344 62.3008C208.157 62.0299 207.954 61.8353 207.734 61.7168C207.514 61.5814 207.303 61.5137 207.099 61.5137C206.642 61.5137 206.177 61.7507 205.703 62.2246C205.246 62.6986 204.789 63.2995 204.332 64.0273C203.875 64.7552 203.418 65.5592 202.961 66.4395C202.521 67.3197 202.072 68.1745 201.615 69.0039C201.581 71.7461 201.53 74.3613 201.463 76.8496C201.412 79.3379 201.31 81.6484 201.158 83.7812C201.023 85.9141 200.828 87.8438 200.574 89.5703C200.32 91.2969 199.973 92.7695 199.533 93.9883C199.093 95.224 198.551 96.1719 197.908 96.832C197.265 97.4922 196.478 97.8223 195.547 97.8223C195.259 97.8223 194.929 97.763 194.556 97.6445C194.184 97.526 193.837 97.2806 193.515 96.9082C193.194 96.5527 192.923 96.0365 192.703 95.3594C192.483 94.6823 192.373 93.7767 192.373 92.6426C192.373 91.2038 192.551 89.5365 192.906 87.6406C193.261 85.7448 193.769 83.7305 194.429 81.5977C195.073 79.4818 195.843 77.3066 196.74 75.0723C197.637 72.8379 198.627 70.6628 199.711 68.5469C199.711 67.9544 199.711 67.3704 199.711 66.7949C199.728 66.2194 199.736 65.6608 199.736 65.1191C199.516 65.373 199.254 65.5 198.949 65.5C198.661 65.5 198.433 65.3984 198.263 65.1953C198.094 64.9922 198.01 64.7721 198.01 64.5352C198.01 64.4167 198.035 64.2897 198.086 64.1543C198.492 63.2233 198.805 62.3431 199.025 61.5137C199.245 60.6673 199.406 59.931 199.508 59.3047C199.626 58.6615 199.694 58.1536 199.711 57.7812C199.728 57.4089 199.736 57.2142 199.736 57.1973C199.736 56.9434 199.829 56.7233 200.015 56.5371C200.202 56.3509 200.43 56.2578 200.701 56.2578C200.955 56.2578 201.175 56.3509 201.361 56.5371C201.547 56.7064 201.64 56.9264 201.64 57.1973V64.9922C202.03 64.332 202.419 63.6803 202.808 63.0371C203.198 62.3939 203.604 61.8184 204.027 61.3105C204.467 60.8027 204.933 60.3965 205.424 60.0918C205.931 59.7702 206.49 59.6094 207.099 59.6094C207.675 59.6094 208.2 59.7448 208.674 60.0156C209.148 60.2865 209.554 60.6589 209.892 61.1328C210.231 61.6068 210.485 62.1738 210.654 62.834C210.84 63.4772 210.933 64.1712 210.933 64.916ZM199.66 73.0664C198.831 74.9284 198.077 76.7988 197.4 78.6777C196.74 80.5566 196.181 82.3678 195.724 84.1113C195.25 85.8548 194.886 87.4883 194.633 89.0117C194.379 90.5352 194.252 91.8724 194.252 93.0234C194.252 93.3112 194.269 93.6243 194.303 93.9629C194.336 94.3014 194.404 94.6146 194.506 94.9023C194.607 95.1901 194.751 95.4271 194.937 95.6133C195.123 95.8164 195.369 95.918 195.674 95.918C196.232 95.918 196.715 95.5625 197.121 94.8516C197.527 94.1576 197.866 93.2096 198.136 92.0078C198.424 90.8229 198.661 89.4518 198.847 87.8945C199.034 86.3542 199.178 84.7376 199.279 83.0449C199.398 81.3522 199.482 79.6426 199.533 77.916C199.584 76.2064 199.626 74.5898 199.66 73.0664ZM227.996 69.207C227.573 69.207 227.2 69.1732 226.879 69.1055C226.625 69.6133 226.32 70.0872 225.965 70.5273C225.609 70.9505 225.194 71.3229 224.72 71.6445C224.263 71.9661 223.747 72.2201 223.172 72.4062C222.596 72.5924 221.97 72.6855 221.293 72.6855C220.497 72.6855 219.769 72.5417 219.109 72.2539C218.449 71.9831 217.873 71.6022 217.383 71.1113C216.892 70.6035 216.511 70.0026 216.24 69.3086C215.969 68.5977 215.834 67.819 215.834 66.9727C215.834 65.8893 216.028 64.9499 216.418 64.1543C216.807 63.3418 217.256 62.6732 217.763 62.1484C218.271 61.6068 218.779 61.209 219.287 60.9551C219.795 60.6842 220.176 60.5488 220.429 60.5488C220.717 60.5488 220.929 60.625 221.064 60.7773C221.217 60.9297 221.293 61.1328 221.293 61.3867C221.293 61.6745 221.2 61.8945 221.013 62.0469C220.844 62.1823 220.624 62.3177 220.353 62.4531C220.082 62.5885 219.795 62.7832 219.49 63.0371C219.185 63.2741 218.898 63.5788 218.627 63.9512C218.373 64.3236 218.161 64.7637 217.992 65.2715C217.823 65.7793 217.738 66.3464 217.738 66.9727C217.738 67.5312 217.823 68.056 217.992 68.5469C218.161 69.0208 218.407 69.4355 218.728 69.791C219.05 70.1296 219.431 70.4004 219.871 70.6035C220.311 70.7897 220.802 70.8828 221.344 70.8828C222.308 70.8828 223.104 70.6628 223.73 70.2227C224.373 69.7656 224.864 69.1901 225.203 68.4961C224.204 67.9714 223.383 67.2266 222.74 66.2617C222.097 65.2969 221.775 64.2135 221.775 63.0117C221.775 62.0469 222.004 61.2598 222.461 60.6504C222.935 60.041 223.553 59.7363 224.314 59.7363C224.771 59.7363 225.203 59.8464 225.609 60.0664C226.015 60.2865 226.371 60.6335 226.676 61.1074C226.997 61.5814 227.251 62.1908 227.437 62.9355C227.623 63.6803 227.717 64.569 227.717 65.6016C227.717 66.1432 227.649 66.7103 227.513 67.3027C227.615 67.3197 227.717 67.3281 227.818 67.3281C227.92 67.3281 228.03 67.3281 228.148 67.3281C228.724 67.3281 229.24 67.2604 229.697 67.125C230.154 66.9896 230.569 66.7865 230.941 66.5156C231.314 66.2448 231.644 65.8978 231.931 65.4746C232.236 65.0514 232.524 64.5605 232.795 64.002C232.845 63.9004 232.956 63.8073 233.125 63.7227C233.294 63.6211 233.463 63.5703 233.633 63.5703C233.853 63.5703 234.056 63.6634 234.242 63.8496C234.445 64.0189 234.547 64.2474 234.547 64.5352C234.547 64.6706 234.513 64.8229 234.445 64.9922C234.377 65.1445 234.31 65.2884 234.242 65.4238C233.954 65.9316 233.616 66.4225 233.226 66.8965C232.854 67.3535 232.405 67.7598 231.881 68.1152C231.373 68.4538 230.797 68.7246 230.154 68.9277C229.511 69.1309 228.791 69.224 227.996 69.207ZM223.654 62.8086C223.654 63.1302 223.696 63.4688 223.781 63.8242C223.866 64.1797 223.993 64.5352 224.162 64.8906C224.348 65.2292 224.568 65.5592 224.822 65.8809C225.093 66.1855 225.406 66.4479 225.761 66.668C225.812 66.3125 225.838 65.9655 225.838 65.627C225.838 65.1699 225.804 64.7044 225.736 64.2305C225.668 63.7565 225.567 63.3249 225.431 62.9355C225.313 62.5293 225.161 62.2077 224.974 61.9707C224.788 61.7168 224.568 61.5898 224.314 61.5898C224.213 61.5898 224.077 61.666 223.908 61.8184C223.739 61.9707 223.654 62.3008 223.654 62.8086ZM235.41 61.5645C235.342 62.0215 235.258 62.4531 235.156 62.8594C235.054 63.2487 234.953 63.5957 234.851 63.9004C234.767 64.1882 234.691 64.4251 234.623 64.6113C234.555 64.7975 234.513 64.8991 234.496 64.916C234.327 65.3053 234.03 65.5 233.607 65.5C233.37 65.5 233.15 65.4154 232.947 65.2461C232.744 65.0599 232.642 64.8314 232.642 64.5605C232.642 64.459 232.659 64.3828 232.693 64.332C232.727 64.2812 232.778 64.1797 232.845 64.0273C232.913 63.875 232.998 63.6211 233.099 63.2656C233.201 62.9102 233.328 62.36 233.48 61.6152C233.192 61.6152 232.896 61.6068 232.592 61.5898C232.287 61.5729 232.008 61.5137 231.754 61.4121C231.483 61.3105 231.263 61.1497 231.094 60.9297C230.924 60.7096 230.84 60.4049 230.84 60.0156C230.84 59.7279 230.924 59.3385 231.094 58.8477C231.246 58.3568 231.457 57.8743 231.728 57.4004C231.999 56.9264 232.304 56.5202 232.642 56.1816C232.981 55.8262 233.319 55.6484 233.658 55.6484C234.047 55.6484 234.36 55.7923 234.597 56.0801C234.851 56.3678 235.046 56.7233 235.181 57.1465C235.317 57.5527 235.41 57.9844 235.461 58.4414C235.528 58.8984 235.562 59.2962 235.562 59.6348C235.85 59.6348 236.129 59.6348 236.4 59.6348C236.688 59.6178 236.959 59.6094 237.213 59.6094C238.178 59.6094 238.914 59.821 239.422 60.2441C239.929 60.6673 240.183 61.3613 240.183 62.3262C240.183 62.7155 240.158 63.1217 240.107 63.5449C240.056 63.9681 239.997 64.4082 239.929 64.8652C239.862 65.3053 239.803 65.7454 239.752 66.1855C239.701 66.6257 239.676 67.0573 239.676 67.4805C239.676 68.0898 239.76 68.5977 239.929 69.0039C240.099 69.3932 240.31 69.7064 240.564 69.9434C240.818 70.1803 241.089 70.3496 241.377 70.4512C241.664 70.5358 241.927 70.5781 242.164 70.5781C242.892 70.5781 243.577 70.3411 244.22 69.8672C244.864 69.3932 245.456 68.8262 245.998 68.166C246.539 67.4889 247.022 66.778 247.445 66.0332C247.885 65.2884 248.249 64.6367 248.537 64.0781C248.622 63.9258 248.74 63.8073 248.892 63.7227C249.045 63.638 249.206 63.5957 249.375 63.5957C249.679 63.5957 249.916 63.6973 250.086 63.9004C250.255 64.0866 250.34 64.2982 250.34 64.5352C250.34 64.7044 250.306 64.8568 250.238 64.9922C249.849 65.6862 249.392 66.4733 248.867 67.3535C248.359 68.2168 247.775 69.0293 247.115 69.791C246.455 70.5527 245.71 71.196 244.881 71.7207C244.068 72.2454 243.171 72.5078 242.189 72.5078C241.58 72.5078 241.004 72.3893 240.463 72.1523C239.921 71.9323 239.447 71.6107 239.041 71.1875C238.651 70.7474 238.338 70.2142 238.101 69.5879C237.864 68.9447 237.746 68.2253 237.746 67.4297C237.746 66.5833 237.831 65.7454 238 64.916C238.169 64.0697 238.254 63.2656 238.254 62.5039C238.254 62.1823 238.178 61.9453 238.025 61.793C237.89 61.6237 237.577 61.5391 237.086 61.5391C236.849 61.5391 236.586 61.5391 236.299 61.5391C236.028 61.5391 235.732 61.5475 235.41 61.5645ZM233.709 59.6855C233.709 59.5671 233.7 59.4147 233.683 59.2285C233.683 59.0254 233.666 58.8307 233.633 58.6445C233.616 58.4583 233.582 58.2975 233.531 58.1621C233.497 58.0267 233.455 57.959 233.404 57.959C233.353 57.959 233.286 58.0267 233.201 58.1621C233.133 58.2806 233.057 58.4329 232.972 58.6191C232.888 58.7884 232.812 58.9746 232.744 59.1777C232.676 59.3809 232.625 59.5501 232.592 59.6855H233.709ZM269.103 46.584C269.103 46.8548 269.01 47.0749 268.824 47.2441C268.638 47.3965 268.409 47.4727 268.138 47.4727H255.265V47.752C255.265 48.7845 255.189 49.8848 255.037 51.0527C254.885 52.2207 254.673 53.3887 254.402 54.5566C254.148 55.7077 253.852 56.8333 253.513 57.9336C253.192 59.0339 252.853 60.0495 252.498 60.9805C252.159 61.9115 251.821 62.724 251.482 63.418C251.144 64.0951 250.839 64.6029 250.568 64.9414C250.788 65.7201 251.051 66.4479 251.355 67.125C251.66 67.7852 251.998 68.3691 252.371 68.877C252.76 69.3678 253.175 69.7572 253.615 70.0449C254.055 70.3327 254.529 70.4766 255.037 70.4766C255.629 70.4766 256.213 70.2311 256.789 69.7402C257.381 69.2324 257.923 68.64 258.414 67.9629C258.922 67.2689 259.362 66.5749 259.734 65.8809C260.123 65.1699 260.403 64.6029 260.572 64.1797C260.741 63.7734 261.038 63.5703 261.461 63.5703C261.748 63.5703 261.977 63.6719 262.146 63.875C262.332 64.0781 262.426 64.2982 262.426 64.5352C262.426 64.6536 262.4 64.7721 262.349 64.8906C262.299 65.0091 262.172 65.2799 261.969 65.7031C261.782 66.1263 261.528 66.6172 261.207 67.1758C260.902 67.7344 260.538 68.3268 260.115 68.9531C259.709 69.5625 259.243 70.1211 258.719 70.6289C258.211 71.1367 257.661 71.5599 257.068 71.8984C256.476 72.237 255.849 72.4062 255.189 72.4062C254.021 72.4062 252.972 72.0254 252.041 71.2637C251.11 70.502 250.314 69.4355 249.654 68.0645C249.011 66.6934 248.52 65.0684 248.181 63.1895C247.843 61.3105 247.674 59.2539 247.674 57.0195C247.674 56.4609 247.682 55.8092 247.699 55.0645C247.716 54.3027 247.75 53.5072 247.801 52.6777C247.851 51.8314 247.928 50.9681 248.029 50.0879C248.131 49.1908 248.266 48.319 248.435 47.4727H239.32C239.049 47.4727 238.821 47.3965 238.635 47.2441C238.448 47.0749 238.355 46.8548 238.355 46.584C238.355 46.3132 238.448 46.1016 238.635 45.9492C238.821 45.7799 239.049 45.6953 239.32 45.6953H248.867C249.036 45.0859 249.231 44.5273 249.451 44.0195C249.688 43.5117 249.95 43.0716 250.238 42.6992C250.543 42.3268 250.873 42.0391 251.228 41.8359C251.601 41.6159 252.007 41.5059 252.447 41.5059C252.87 41.5059 253.234 41.6159 253.539 41.8359C253.86 42.0391 254.131 42.3268 254.351 42.6992C254.571 43.0716 254.741 43.5117 254.859 44.0195C254.995 44.5273 255.096 45.0859 255.164 45.6953H268.138C268.409 45.6953 268.638 45.7799 268.824 45.9492C269.01 46.1016 269.103 46.3132 269.103 46.584ZM249.984 62.4023C250.492 61.2852 250.949 60.0833 251.355 58.7969C251.778 57.4935 252.134 56.1816 252.422 54.8613C252.726 53.541 252.955 52.2461 253.107 50.9766C253.276 49.707 253.361 48.5391 253.361 47.4727H250.365C250.128 48.5221 249.933 49.8255 249.781 51.3828C249.646 52.9232 249.578 54.8021 249.578 57.0195C249.578 58.2552 249.612 59.2962 249.679 60.1426C249.747 60.972 249.849 61.7253 249.984 62.4023ZM252.345 43.4102C252.193 43.4102 251.973 43.5794 251.685 43.918C251.398 44.2396 251.11 44.832 250.822 45.6953H253.26C253.175 44.9844 253.048 44.4258 252.879 44.0195C252.726 43.6133 252.549 43.4102 252.345 43.4102ZM250.39 64.2305V64.2559V64.2305ZM262.654 73.2441C263.907 72.6855 265.041 72.0423 266.056 71.3145C267.089 70.5866 268.003 69.8249 268.799 69.0293C269.611 68.2168 270.297 67.3958 270.855 66.5664C271.431 65.7201 271.888 64.916 272.226 64.1543C272.379 63.7819 272.666 63.5957 273.09 63.5957C273.377 63.5957 273.606 63.6973 273.775 63.9004C273.961 64.0866 274.054 64.2982 274.054 64.5352C274.054 64.6706 274.029 64.7975 273.978 64.916C273.606 65.7454 273.132 66.6087 272.556 67.5059C271.981 68.3861 271.278 69.2578 270.449 70.1211C269.636 70.9674 268.68 71.7884 267.58 72.584C266.48 73.3796 265.219 74.1074 263.797 74.7676C264.711 75.7155 265.506 76.765 266.183 77.916C266.86 79.084 267.419 80.2943 267.859 81.5469C268.316 82.7995 268.655 84.0605 268.875 85.3301C269.112 86.6165 269.23 87.8438 269.23 89.0117C269.23 90.0781 269.129 91.0768 268.926 92.0078C268.739 92.9557 268.452 93.7767 268.062 94.4707C267.69 95.1647 267.233 95.7064 266.691 96.0957C266.15 96.502 265.532 96.7051 264.838 96.7051C263.822 96.7051 263.035 96.3242 262.476 95.5625C261.918 94.8177 261.503 93.7767 261.232 92.4395C260.978 91.1191 260.826 89.5534 260.775 87.7422C260.741 85.9479 260.724 83.9928 260.724 81.877C260.724 80.8275 260.724 79.6003 260.724 78.1953C260.724 76.8073 260.724 75.3092 260.724 73.7012C260.741 72.11 260.75 70.4427 260.75 68.6992C260.767 66.9388 260.784 65.1784 260.801 63.418C260.817 61.6576 260.834 59.931 260.851 58.2383C260.868 56.5286 260.894 54.9121 260.928 53.3887C260.978 50.4772 261.08 47.8789 261.232 45.5938C261.385 43.3086 261.63 41.3789 261.969 39.8047C262.307 38.2305 262.764 37.0371 263.34 36.2246C263.932 35.3952 264.677 34.9805 265.574 34.9805C266.285 34.9805 266.886 35.1836 267.377 35.5898C267.868 35.9792 268.265 36.5124 268.57 37.1895C268.875 37.8496 269.095 38.6283 269.23 39.5254C269.366 40.4225 269.433 41.362 269.433 42.3438C269.433 44.4089 269.256 46.4062 268.9 48.3359C268.545 50.2656 268.062 52.1361 267.453 53.9473C266.844 55.7585 266.124 57.5273 265.295 59.2539C264.482 60.9805 263.61 62.6816 262.679 64.3574C262.679 65.0514 262.679 65.8047 262.679 66.6172C262.679 67.4128 262.679 68.2168 262.679 69.0293C262.679 69.8249 262.671 70.5951 262.654 71.3398C262.654 72.0677 262.654 72.7025 262.654 73.2441ZM262.73 60.4473C263.424 59.1439 264.059 57.7728 264.635 56.334C265.227 54.8783 265.735 53.3802 266.158 51.8398C266.581 50.2995 266.911 48.7253 267.148 47.1172C267.385 45.5091 267.504 43.8926 267.504 42.2676C267.504 41.4551 267.461 40.7188 267.377 40.0586C267.309 39.3984 267.191 38.8398 267.021 38.3828C266.869 37.9089 266.666 37.5449 266.412 37.291C266.175 37.0202 265.896 36.8848 265.574 36.8848C265.235 36.8848 264.939 37.0879 264.685 37.4941C264.431 37.9004 264.211 38.4421 264.025 39.1191C263.839 39.7962 263.678 40.5749 263.543 41.4551C263.424 42.3353 263.323 43.2578 263.238 44.2227C263.153 45.1706 263.086 46.127 263.035 47.0918C262.984 48.0397 262.942 48.9368 262.908 49.7832C262.891 50.6126 262.874 51.349 262.857 51.9922C262.857 52.6354 262.857 53.1178 262.857 53.4395C262.84 54.1165 262.823 54.7174 262.806 55.2422C262.806 55.7669 262.798 56.2832 262.781 56.791C262.764 57.2988 262.747 57.8405 262.73 58.416C262.73 58.9915 262.73 59.6686 262.73 60.4473ZM262.654 76.3672C262.654 77.4336 262.646 78.4238 262.629 79.3379C262.629 80.2689 262.629 81.1152 262.629 81.877C262.629 83.4512 262.637 85.0085 262.654 86.5488C262.671 88.0892 262.747 89.4688 262.883 90.6875C263.035 91.9232 263.255 92.9134 263.543 93.6582C263.847 94.4199 264.279 94.8008 264.838 94.8008C265.345 94.8008 265.76 94.5723 266.082 94.1152C266.403 93.6582 266.649 93.1165 266.818 92.4902C267.004 91.8639 267.131 91.2207 267.199 90.5605C267.267 89.9173 267.301 89.3926 267.301 88.9863C267.301 87.9538 267.199 86.8704 266.996 85.7363C266.81 84.6022 266.513 83.4766 266.107 82.3594C265.718 81.2591 265.235 80.1927 264.66 79.1602C264.084 78.1276 263.416 77.1966 262.654 76.3672ZM283.957 69.207C283.534 69.207 283.161 69.1732 282.84 69.1055C282.586 69.6133 282.281 70.0872 281.926 70.5273C281.57 70.9505 281.155 71.3229 280.681 71.6445C280.224 71.9661 279.708 72.2201 279.133 72.4062C278.557 72.5924 277.931 72.6855 277.254 72.6855C276.458 72.6855 275.73 72.5417 275.07 72.2539C274.41 71.9831 273.834 71.6022 273.344 71.1113C272.853 70.6035 272.472 70.0026 272.201 69.3086C271.93 68.5977 271.795 67.819 271.795 66.9727C271.795 65.8893 271.989 64.9499 272.379 64.1543C272.768 63.3418 273.217 62.6732 273.724 62.1484C274.232 61.6068 274.74 61.209 275.248 60.9551C275.756 60.6842 276.136 60.5488 276.39 60.5488C276.678 60.5488 276.89 60.625 277.025 60.7773C277.178 60.9297 277.254 61.1328 277.254 61.3867C277.254 61.6745 277.161 61.8945 276.974 62.0469C276.805 62.1823 276.585 62.3177 276.314 62.4531C276.043 62.5885 275.756 62.7832 275.451 63.0371C275.146 63.2741 274.858 63.5788 274.588 63.9512C274.334 64.3236 274.122 64.7637 273.953 65.2715C273.784 65.7793 273.699 66.3464 273.699 66.9727C273.699 67.5312 273.784 68.056 273.953 68.5469C274.122 69.0208 274.368 69.4355 274.689 69.791C275.011 70.1296 275.392 70.4004 275.832 70.6035C276.272 70.7897 276.763 70.8828 277.304 70.8828C278.269 70.8828 279.065 70.6628 279.691 70.2227C280.334 69.7656 280.825 69.1901 281.164 68.4961C280.165 67.9714 279.344 67.2266 278.701 66.2617C278.058 65.2969 277.736 64.2135 277.736 63.0117C277.736 62.0469 277.965 61.2598 278.422 60.6504C278.896 60.041 279.513 59.7363 280.275 59.7363C280.732 59.7363 281.164 59.8464 281.57 60.0664C281.976 60.2865 282.332 60.6335 282.636 61.1074C282.958 61.5814 283.212 62.1908 283.398 62.9355C283.584 63.6803 283.678 64.569 283.678 65.6016C283.678 66.1432 283.61 66.7103 283.474 67.3027C283.576 67.3197 283.678 67.3281 283.779 67.3281C283.881 67.3281 283.991 67.3281 284.109 67.3281C284.685 67.3281 285.201 67.2604 285.658 67.125C286.115 66.9896 286.53 66.7865 286.902 66.5156C287.275 66.2448 287.605 65.8978 287.892 65.4746C288.197 65.0514 288.485 64.5605 288.756 64.002C288.806 63.9004 288.916 63.8073 289.086 63.7227C289.255 63.6211 289.424 63.5703 289.594 63.5703C289.814 63.5703 290.017 63.6634 290.203 63.8496C290.406 64.0189 290.508 64.2474 290.508 64.5352C290.508 64.6706 290.474 64.8229 290.406 64.9922C290.338 65.1445 290.271 65.2884 290.203 65.4238C289.915 65.9316 289.577 66.4225 289.187 66.8965C288.815 67.3535 288.366 67.7598 287.842 68.1152C287.334 68.4538 286.758 68.7246 286.115 68.9277C285.472 69.1309 284.752 69.224 283.957 69.207ZM279.615 62.8086C279.615 63.1302 279.657 63.4688 279.742 63.8242C279.827 64.1797 279.954 64.5352 280.123 64.8906C280.309 65.2292 280.529 65.5592 280.783 65.8809C281.054 66.1855 281.367 66.4479 281.722 66.668C281.773 66.3125 281.799 65.9655 281.799 65.627C281.799 65.1699 281.765 64.7044 281.697 64.2305C281.629 63.7565 281.528 63.3249 281.392 62.9355C281.274 62.5293 281.122 62.2077 280.935 61.9707C280.749 61.7168 280.529 61.5898 280.275 61.5898C280.174 61.5898 280.038 61.666 279.869 61.8184C279.7 61.9707 279.615 62.3008 279.615 62.8086ZM303.152 64.9668C302.966 65.3561 302.729 65.8216 302.441 66.3633C302.17 66.888 301.857 67.4382 301.502 68.0137C301.146 68.5892 300.748 69.1647 300.308 69.7402C299.868 70.2988 299.386 70.8066 298.861 71.2637C298.353 71.7038 297.803 72.0592 297.211 72.3301C296.635 72.6178 296.017 72.7617 295.357 72.7617C294.342 72.7617 293.47 72.4486 292.742 71.8223C292.014 71.196 291.396 70.375 290.888 69.3594C290.381 68.3438 289.966 67.1927 289.644 65.9062C289.34 64.6029 289.103 63.2826 288.933 61.9453C288.764 60.5911 288.646 59.2793 288.578 58.0098C288.527 56.7402 288.502 55.6146 288.502 54.6328C288.502 53.2109 288.544 51.7383 288.629 50.2148C288.73 48.6914 288.883 47.2018 289.086 45.7461C289.289 44.2904 289.543 42.9108 289.847 41.6074C290.169 40.304 290.541 39.1615 290.965 38.1797C291.405 37.1979 291.904 36.4193 292.463 35.8438C293.021 35.2682 293.656 34.9805 294.367 34.9805C294.926 34.9805 295.425 35.1159 295.865 35.3867C296.322 35.6406 296.703 36.0638 297.008 36.6562C297.312 37.2487 297.549 38.0189 297.719 38.9668C297.888 39.9147 297.972 41.0742 297.972 42.4453C297.972 44.138 297.795 45.89 297.439 47.7012C297.084 49.4954 296.601 51.3066 295.992 53.1348C295.383 54.9629 294.663 56.791 293.834 58.6191C293.004 60.4303 292.116 62.1992 291.168 63.9258C291.591 66.0755 292.158 67.7682 292.869 69.0039C293.58 70.2227 294.435 70.832 295.433 70.832C296.11 70.832 296.762 70.5697 297.388 70.0449C298.015 69.5033 298.59 68.8685 299.115 68.1406C299.64 67.4128 300.097 66.6764 300.486 65.9316C300.892 65.1699 301.206 64.5605 301.426 64.1035C301.51 63.9342 301.629 63.8073 301.781 63.7227C301.933 63.6211 302.103 63.5703 302.289 63.5703C302.577 63.5703 302.805 63.6719 302.974 63.875C303.161 64.0781 303.254 64.3066 303.254 64.5605C303.254 64.6621 303.22 64.7975 303.152 64.9668ZM290.431 54.7598C290.431 55.8431 290.457 56.8841 290.508 57.8828C290.558 58.8815 290.626 59.8379 290.711 60.752C291.422 59.3809 292.099 57.9251 292.742 56.3848C293.385 54.8275 293.952 53.2617 294.443 51.6875C294.934 50.0964 295.323 48.5221 295.611 46.9648C295.916 45.3906 296.068 43.8926 296.068 42.4707C296.068 40.4733 295.907 39.043 295.586 38.1797C295.264 37.3164 294.832 36.8848 294.291 36.8848C293.935 36.8848 293.588 37.1302 293.25 37.6211C292.928 38.112 292.623 38.7806 292.336 39.627C292.048 40.4733 291.786 41.472 291.549 42.623C291.312 43.7741 291.108 45.0098 290.939 46.3301C290.787 47.6504 290.66 49.0299 290.558 50.4688C290.474 51.9076 290.431 53.3379 290.431 54.7598ZM305.59 52.0684C305.59 52.7116 305.361 53.2617 304.904 53.7188C304.464 54.1589 303.922 54.3789 303.279 54.3789C302.636 54.3789 302.086 54.1589 301.629 53.7188C301.189 53.2617 300.969 52.7116 300.969 52.0684C300.969 51.7467 301.028 51.4505 301.146 51.1797C301.265 50.8919 301.426 50.6465 301.629 50.4434C301.849 50.2233 302.094 50.054 302.365 49.9355C302.653 49.8171 302.957 49.7578 303.279 49.7578C303.601 49.7578 303.897 49.8171 304.168 49.9355C304.456 50.054 304.701 50.2233 304.904 50.4434C305.124 50.6465 305.293 50.8919 305.412 51.1797C305.53 51.4505 305.59 51.7467 305.59 52.0684ZM301.476 66.9473C301.476 64.5098 301.629 62.0807 301.933 59.6602C301.967 59.4232 302.069 59.2201 302.238 59.0508C302.424 58.8646 302.661 58.7715 302.949 58.7715C303.203 58.7715 303.414 58.873 303.584 59.0762C303.753 59.2624 303.838 59.4824 303.838 59.7363C303.838 59.8379 303.812 60.1426 303.761 60.6504C303.728 61.1582 303.677 61.7676 303.609 62.4785C303.558 63.1725 303.508 63.9173 303.457 64.7129C303.423 65.4915 303.406 66.2109 303.406 66.8711C303.406 67.7682 303.491 68.4961 303.66 69.0547C303.846 69.5964 304.075 70.0195 304.345 70.3242C304.633 70.6289 304.929 70.832 305.234 70.9336C305.556 71.0352 305.86 71.0859 306.148 71.0859C306.622 71.0859 307.113 70.9167 307.621 70.5781C308.129 70.2396 308.645 69.7656 309.17 69.1562C309.711 68.5469 310.253 67.819 310.795 66.9727C311.336 66.1094 311.87 65.153 312.394 64.1035C312.479 63.9342 312.597 63.8073 312.75 63.7227C312.902 63.6211 313.071 63.5703 313.258 63.5703C313.528 63.5703 313.748 63.6719 313.918 63.875C314.104 64.0781 314.197 64.2982 314.197 64.5352C314.197 64.7044 314.163 64.8483 314.095 64.9668C313.892 65.3561 313.638 65.8301 313.334 66.3887C313.029 66.9473 312.682 67.5228 312.293 68.1152C311.903 68.7077 311.472 69.3001 310.998 69.8926C310.541 70.4681 310.05 70.9928 309.525 71.4668C309 71.9238 308.45 72.2962 307.875 72.584C307.299 72.8717 306.715 73.0156 306.123 73.0156C305.361 73.0156 304.692 72.8548 304.117 72.5332C303.541 72.2116 303.051 71.7799 302.644 71.2383C302.255 70.6966 301.959 70.0618 301.756 69.334C301.569 68.5892 301.476 67.7936 301.476 66.9473ZM304.168 52.0684C304.168 51.8314 304.075 51.6283 303.888 51.459C303.719 51.2728 303.516 51.1797 303.279 51.1797C303.042 51.1797 302.839 51.2728 302.67 51.459C302.5 51.6283 302.416 51.8314 302.416 52.0684C302.416 52.3053 302.5 52.5085 302.67 52.6777C302.839 52.847 303.042 52.9316 303.279 52.9316C303.516 52.9316 303.719 52.847 303.888 52.6777C304.075 52.5085 304.168 52.3053 304.168 52.0684ZM324.074 69.207C323.651 69.207 323.278 69.1732 322.957 69.1055C322.703 69.6133 322.398 70.0872 322.043 70.5273C321.687 70.9505 321.273 71.3229 320.799 71.6445C320.342 71.9661 319.825 72.2201 319.25 72.4062C318.674 72.5924 318.048 72.6855 317.371 72.6855C316.575 72.6855 315.847 72.5417 315.187 72.2539C314.527 71.9831 313.952 71.6022 313.461 71.1113C312.97 70.6035 312.589 70.0026 312.318 69.3086C312.047 68.5977 311.912 67.819 311.912 66.9727C311.912 65.8893 312.107 64.9499 312.496 64.1543C312.885 63.3418 313.334 62.6732 313.842 62.1484C314.349 61.6068 314.857 61.209 315.365 60.9551C315.873 60.6842 316.254 60.5488 316.508 60.5488C316.795 60.5488 317.007 60.625 317.142 60.7773C317.295 60.9297 317.371 61.1328 317.371 61.3867C317.371 61.6745 317.278 61.8945 317.092 62.0469C316.922 62.1823 316.702 62.3177 316.431 62.4531C316.161 62.5885 315.873 62.7832 315.568 63.0371C315.263 63.2741 314.976 63.5788 314.705 63.9512C314.451 64.3236 314.239 64.7637 314.07 65.2715C313.901 65.7793 313.816 66.3464 313.816 66.9727C313.816 67.5312 313.901 68.056 314.07 68.5469C314.239 69.0208 314.485 69.4355 314.806 69.791C315.128 70.1296 315.509 70.4004 315.949 70.6035C316.389 70.7897 316.88 70.8828 317.422 70.8828C318.386 70.8828 319.182 70.6628 319.808 70.2227C320.452 69.7656 320.942 69.1901 321.281 68.4961C320.282 67.9714 319.461 67.2266 318.818 66.2617C318.175 65.2969 317.853 64.2135 317.853 63.0117C317.853 62.0469 318.082 61.2598 318.539 60.6504C319.013 60.041 319.631 59.7363 320.392 59.7363C320.849 59.7363 321.281 59.8464 321.687 60.0664C322.094 60.2865 322.449 60.6335 322.754 61.1074C323.075 61.5814 323.329 62.1908 323.515 62.9355C323.702 63.6803 323.795 64.569 323.795 65.6016C323.795 66.1432 323.727 66.7103 323.592 67.3027C323.693 67.3197 323.795 67.3281 323.896 67.3281C323.998 67.3281 324.108 67.3281 324.226 67.3281C324.802 67.3281 325.318 67.2604 325.775 67.125C326.232 66.9896 326.647 66.7865 327.019 66.5156C327.392 66.2448 327.722 65.8978 328.01 65.4746C328.314 65.0514 328.602 64.5605 328.873 64.002C328.924 63.9004 329.034 63.8073 329.203 63.7227C329.372 63.6211 329.541 63.5703 329.711 63.5703C329.931 63.5703 330.134 63.6634 330.32 63.8496C330.523 64.0189 330.625 64.2474 330.625 64.5352C330.625 64.6706 330.591 64.8229 330.523 64.9922C330.456 65.1445 330.388 65.2884 330.32 65.4238C330.032 65.9316 329.694 66.4225 329.304 66.8965C328.932 67.3535 328.483 67.7598 327.959 68.1152C327.451 68.4538 326.875 68.7246 326.232 68.9277C325.589 69.1309 324.87 69.224 324.074 69.207ZM319.732 62.8086C319.732 63.1302 319.775 63.4688 319.859 63.8242C319.944 64.1797 320.071 64.5352 320.24 64.8906C320.426 65.2292 320.646 65.5592 320.9 65.8809C321.171 66.1855 321.484 66.4479 321.84 66.668C321.89 66.3125 321.916 65.9655 321.916 65.627C321.916 65.1699 321.882 64.7044 321.814 64.2305C321.747 63.7565 321.645 63.3249 321.51 62.9355C321.391 62.5293 321.239 62.2077 321.053 61.9707C320.866 61.7168 320.646 61.5898 320.392 61.5898C320.291 61.5898 320.155 61.666 319.986 61.8184C319.817 61.9707 319.732 62.3008 319.732 62.8086Z" fill="#EEEEEE"/>
</svg>
