<svg width="357" height="104" viewBox="0 0 357 104" fill="none" xmlns="http://www.w3.org/2000/svg">
<rect x="0.728577" y="0.842102" width="319.014" height="70.5263" fill="#D8AD39"/>
<rect x="31" y="30.3158" width="326" height="67.3684" fill="#022F45"/>
<path d="M63.2361 64.9668C63.1345 65.153 62.9568 65.4915 62.7029 65.9824C62.4659 66.4733 62.1358 67.0319 61.7126 67.6582C61.3064 68.2676 60.8155 68.9023 60.24 69.5625C59.6645 70.2227 59.0043 70.832 58.2595 71.3906C57.5147 71.9323 56.6768 72.3809 55.7458 72.7363C54.8318 73.0918 53.8331 73.2695 52.7498 73.2695C51.7849 73.2695 50.9301 73.0918 50.1853 72.7363C49.4405 72.3978 48.8057 71.9154 48.281 71.2891C47.7563 70.6458 47.3585 69.8926 47.0876 69.0293C46.8168 68.166 46.6814 67.2096 46.6814 66.1602C46.6814 65.1445 46.8253 64.1966 47.113 63.3164C47.4008 62.4193 47.7901 61.6406 48.281 60.9805C48.7888 60.3203 49.3728 59.804 50.033 59.4316C50.6931 59.0423 51.3956 58.8477 52.1404 58.8477C52.699 58.8477 53.2068 58.9492 53.6638 59.1523C54.1208 59.3385 54.5017 59.5924 54.8064 59.9141C55.128 60.2357 55.3735 60.5911 55.5427 60.9805C55.7289 61.3698 55.822 61.7591 55.822 62.1484C55.822 62.5208 55.7712 62.8678 55.6697 63.1895C55.585 63.5111 55.4666 63.7988 55.3142 64.0527C55.1788 64.2897 55.018 64.4844 54.8318 64.6367C54.6456 64.7721 54.4594 64.8398 54.2732 64.8398C53.9854 64.8398 53.7485 64.7467 53.5623 64.5605C53.393 64.3743 53.3083 64.1458 53.3083 63.875C53.3083 63.7396 53.3337 63.6211 53.3845 63.5195C53.4522 63.418 53.5199 63.3164 53.5876 63.2148C53.6723 63.0964 53.74 62.9609 53.7908 62.8086C53.8585 62.6393 53.8923 62.4277 53.8923 62.1738C53.8923 61.8184 53.7231 61.4967 53.3845 61.209C53.0629 60.9212 52.6482 60.7773 52.1404 60.7773C51.6664 60.7773 51.2094 60.9212 50.7693 61.209C50.3461 61.4967 49.9737 61.8861 49.6521 62.377C49.3305 62.8509 49.0681 63.418 48.865 64.0781C48.6788 64.7214 48.5857 65.4069 48.5857 66.1348C48.5857 66.8288 48.6703 67.4889 48.8396 68.1152C49.0089 68.7415 49.2628 69.3001 49.6013 69.791C49.9399 70.265 50.363 70.6458 50.8708 70.9336C51.3956 71.2214 52.0134 71.3652 52.7244 71.3652C53.6384 71.3652 54.4848 71.2044 55.2634 70.8828C56.0421 70.5443 56.753 70.1211 57.3962 69.6133C58.0395 69.1055 58.6065 68.5553 59.0974 67.9629C59.5883 67.3535 60.003 66.7865 60.3416 66.2617C60.697 65.7201 60.9679 65.2546 61.1541 64.8652C61.3572 64.459 61.4757 64.2051 61.5095 64.1035C61.5772 63.9342 61.6873 63.8073 61.8396 63.7227C62.0089 63.6211 62.1866 63.5703 62.3728 63.5703C62.6606 63.5703 62.8891 63.6719 63.0583 63.875C63.2445 64.0781 63.3376 64.3066 63.3376 64.5605C63.3376 64.6621 63.3038 64.7975 63.2361 64.9668ZM73.2146 69.207C72.7914 69.207 72.419 69.1732 72.0974 69.1055C71.8435 69.6133 71.5388 70.0872 71.1833 70.5273C70.8279 70.9505 70.4132 71.3229 69.9392 71.6445C69.4822 71.9661 68.9659 72.2201 68.3904 72.4062C67.8149 72.5924 67.1886 72.6855 66.5115 72.6855C65.7159 72.6855 64.988 72.5417 64.3279 72.2539C63.6677 71.9831 63.0922 71.6022 62.6013 71.1113C62.1104 70.6035 61.7296 70.0026 61.4587 69.3086C61.1879 68.5977 61.0525 67.819 61.0525 66.9727C61.0525 65.8893 61.2472 64.9499 61.6365 64.1543C62.0258 63.3418 62.4744 62.6732 62.9822 62.1484C63.49 61.6068 63.9978 61.209 64.5056 60.9551C65.0134 60.6842 65.3943 60.5488 65.6482 60.5488C65.936 60.5488 66.1475 60.625 66.283 60.7773C66.4353 60.9297 66.5115 61.1328 66.5115 61.3867C66.5115 61.6745 66.4184 61.8945 66.2322 62.0469C66.0629 62.1823 65.8429 62.3177 65.572 62.4531C65.3012 62.5885 65.0134 62.7832 64.7087 63.0371C64.4041 63.2741 64.1163 63.5788 63.8455 63.9512C63.5916 64.3236 63.38 64.7637 63.2107 65.2715C63.0414 65.7793 62.9568 66.3464 62.9568 66.9727C62.9568 67.5312 63.0414 68.056 63.2107 68.5469C63.38 69.0208 63.6254 69.4355 63.947 69.791C64.2686 70.1296 64.6495 70.4004 65.0896 70.6035C65.5297 70.7897 66.0206 70.8828 66.5623 70.8828C67.5271 70.8828 68.3227 70.6628 68.949 70.2227C69.5922 69.7656 70.0831 69.1901 70.4216 68.4961C69.4229 67.9714 68.602 67.2266 67.9587 66.2617C67.3155 65.2969 66.9939 64.2135 66.9939 63.0117C66.9939 62.0469 67.2224 61.2598 67.6794 60.6504C68.1534 60.041 68.7712 59.7363 69.533 59.7363C69.99 59.7363 70.4216 59.8464 70.8279 60.0664C71.2341 60.2865 71.5896 60.6335 71.8943 61.1074C72.2159 61.5814 72.4698 62.1908 72.656 62.9355C72.8422 63.6803 72.9353 64.569 72.9353 65.6016C72.9353 66.1432 72.8676 66.7103 72.7322 67.3027C72.8337 67.3197 72.9353 67.3281 73.0369 67.3281C73.1384 67.3281 73.2485 67.3281 73.3669 67.3281C73.9425 67.3281 74.4587 67.2604 74.9158 67.125C75.3728 66.9896 75.7875 66.7865 76.1599 66.5156C76.5323 66.2448 76.8624 65.8978 77.1501 65.4746C77.4548 65.0514 77.7426 64.5605 78.0134 64.002C78.0642 63.9004 78.1742 63.8073 78.3435 63.7227C78.5128 63.6211 78.682 63.5703 78.8513 63.5703C79.0714 63.5703 79.2745 63.6634 79.4607 63.8496C79.6638 64.0189 79.7654 64.2474 79.7654 64.5352C79.7654 64.6706 79.7315 64.8229 79.6638 64.9922C79.5961 65.1445 79.5284 65.2884 79.4607 65.4238C79.1729 65.9316 78.8344 66.4225 78.4451 66.8965C78.0727 67.3535 77.6241 67.7598 77.0994 68.1152C76.5916 68.4538 76.016 68.7246 75.3728 68.9277C74.7296 69.1309 74.0102 69.224 73.2146 69.207ZM68.8728 62.8086C68.8728 63.1302 68.9151 63.4688 68.9998 63.8242C69.0844 64.1797 69.2113 64.5352 69.3806 64.8906C69.5668 65.2292 69.7869 65.5592 70.0408 65.8809C70.3116 66.1855 70.6248 66.4479 70.9802 66.668C71.031 66.3125 71.0564 65.9655 71.0564 65.627C71.0564 65.1699 71.0225 64.7044 70.9548 64.2305C70.8871 63.7565 70.7856 63.3249 70.6501 62.9355C70.5317 62.5293 70.3793 62.2077 70.1931 61.9707C70.0069 61.7168 69.7869 61.5898 69.533 61.5898C69.4314 61.5898 69.296 61.666 69.1267 61.8184C68.9574 61.9707 68.8728 62.3008 68.8728 62.8086ZM88.2458 64.002C87.9919 65.1868 87.628 66.2956 87.1541 67.3281C86.6801 68.3438 86.1723 69.2324 85.6306 69.9941C85.1059 70.7559 84.5727 71.3568 84.031 71.7969C83.4893 72.237 83.0238 72.474 82.6345 72.5078C82.1944 72.5078 81.7035 72.2878 81.1619 71.8477C80.6371 71.4076 80.1293 70.7982 79.6384 70.0195C79.1645 69.224 78.7667 68.2845 78.4451 67.2012C78.1235 66.1178 77.9626 64.9414 77.9626 63.6719C77.9626 62.5547 78.0557 61.7083 78.2419 61.1328C78.4451 60.5573 78.572 60.2272 78.6228 60.1426C78.7074 59.9902 78.8175 59.8717 78.9529 59.7871C79.1052 59.7025 79.2745 59.6602 79.4607 59.6602C79.7485 59.6602 79.977 59.7617 80.1462 59.9648C80.3155 60.151 80.4001 60.3626 80.4001 60.5996C80.4001 60.7689 80.3663 60.9128 80.2986 61.0312C80.2817 61.0651 80.2055 61.2936 80.0701 61.7168C79.9347 62.14 79.8669 62.7747 79.8669 63.6211C79.8669 64.6198 79.9685 65.5423 80.1716 66.3887C80.3748 67.235 80.6202 67.9629 80.908 68.5723C81.1957 69.1816 81.4919 69.6641 81.7966 70.0195C82.1182 70.3581 82.3806 70.5273 82.5837 70.5273C82.7192 70.5273 82.9138 70.4004 83.1677 70.1465C83.4386 69.8926 83.7179 69.5456 84.0056 69.1055C84.3103 68.6654 84.615 68.1406 84.9197 67.5312C85.2413 66.9219 85.5291 66.2617 85.783 65.5508C86.0538 64.8229 86.2654 64.0612 86.4177 63.2656C86.587 62.4531 86.6716 61.6322 86.6716 60.8027C86.6716 60.6335 86.6632 60.4727 86.6462 60.3203C86.6462 60.151 86.6462 59.9818 86.6462 59.8125C86.6462 59.5247 86.7309 59.2878 86.9001 59.1016C87.0863 58.8984 87.3233 58.7969 87.6111 58.7969C87.8311 58.7969 88.0258 58.8646 88.1951 59C88.3813 59.1354 88.4998 59.3216 88.5505 59.5586C88.5505 59.5417 88.5844 59.6771 88.6521 59.9648C88.7198 60.2526 88.8298 60.625 88.9822 61.082C89.1514 61.5221 89.3546 62.0046 89.5916 62.5293C89.8455 63.054 90.1417 63.5449 90.4802 64.002C90.8357 64.4421 91.2419 64.8145 91.699 65.1191C92.156 65.4238 92.6807 65.5762 93.2732 65.5762C93.5948 65.5762 93.8741 65.5085 94.1111 65.373C94.3481 65.2376 94.5427 65.0853 94.6951 64.916C94.8474 64.7467 94.9574 64.5859 95.0251 64.4336C95.1098 64.2812 95.1521 64.1966 95.1521 64.1797C95.2198 63.9935 95.3298 63.8496 95.4822 63.748C95.6514 63.6296 95.8376 63.5703 96.0408 63.5703C96.3116 63.5703 96.5401 63.6719 96.7263 63.875C96.9125 64.0612 97.0056 64.2812 97.0056 64.5352C97.0056 64.6536 96.9802 64.7721 96.9294 64.8906C96.8279 65.1276 96.6755 65.3984 96.4724 65.7031C96.2862 66.0078 96.0408 66.2956 95.7361 66.5664C95.4314 66.8372 95.0675 67.0658 94.6443 67.252C94.238 67.4212 93.781 67.5059 93.2732 67.5059C92.6807 67.5059 92.1306 67.4043 91.6228 67.2012C91.115 66.9811 90.6495 66.7103 90.2263 66.3887C89.8201 66.0501 89.4477 65.6777 89.1091 65.2715C88.7706 64.8483 88.4828 64.4251 88.2458 64.002ZM99.3162 52.0684C99.3162 52.7116 99.0876 53.2617 98.6306 53.7188C98.1905 54.1589 97.6488 54.3789 97.0056 54.3789C96.3624 54.3789 95.8123 54.1589 95.3552 53.7188C94.9151 53.2617 94.6951 52.7116 94.6951 52.0684C94.6951 51.7467 94.7543 51.4505 94.8728 51.1797C94.9913 50.8919 95.1521 50.6465 95.3552 50.4434C95.5753 50.2233 95.8207 50.054 96.0916 49.9355C96.3793 49.8171 96.684 49.7578 97.0056 49.7578C97.3272 49.7578 97.6235 49.8171 97.8943 49.9355C98.182 50.054 98.4275 50.2233 98.6306 50.4434C98.8507 50.6465 99.0199 50.8919 99.1384 51.1797C99.2569 51.4505 99.3162 51.7467 99.3162 52.0684ZM95.2029 66.9473C95.2029 64.5098 95.3552 62.0807 95.6599 59.6602C95.6938 59.4232 95.7953 59.2201 95.9646 59.0508C96.1508 58.8646 96.3878 58.7715 96.6755 58.7715C96.9294 58.7715 97.141 58.873 97.3103 59.0762C97.4796 59.2624 97.5642 59.4824 97.5642 59.7363C97.5642 59.8379 97.5388 60.1426 97.488 60.6504C97.4542 61.1582 97.4034 61.7676 97.3357 62.4785C97.2849 63.1725 97.2341 63.9173 97.1833 64.7129C97.1495 65.4915 97.1326 66.2109 97.1326 66.8711C97.1326 67.7682 97.2172 68.4961 97.3865 69.0547C97.5727 69.5964 97.8012 70.0195 98.072 70.3242C98.3598 70.6289 98.656 70.832 98.9607 70.9336C99.2823 71.0352 99.587 71.0859 99.8748 71.0859C100.349 71.0859 100.84 70.9167 101.347 70.5781C101.855 70.2396 102.372 69.7656 102.896 69.1562C103.438 68.5469 103.98 67.819 104.521 66.9727C105.063 66.1094 105.596 65.153 106.121 64.1035C106.205 63.9342 106.324 63.8073 106.476 63.7227C106.629 63.6211 106.798 63.5703 106.984 63.5703C107.255 63.5703 107.475 63.6719 107.644 63.875C107.83 64.0781 107.924 64.2982 107.924 64.5352C107.924 64.7044 107.89 64.8483 107.822 64.9668C107.619 65.3561 107.365 65.8301 107.06 66.3887C106.756 66.9473 106.409 67.5228 106.019 68.1152C105.63 68.7077 105.198 69.3001 104.724 69.8926C104.267 70.4681 103.776 70.9928 103.252 71.4668C102.727 71.9238 102.177 72.2962 101.601 72.584C101.026 72.8717 100.442 73.0156 99.8494 73.0156C99.0876 73.0156 98.419 72.8548 97.8435 72.5332C97.268 72.2116 96.7771 71.7799 96.3708 71.2383C95.9815 70.6966 95.6853 70.0618 95.4822 69.334C95.296 68.5892 95.2029 67.7936 95.2029 66.9473ZM97.8943 52.0684C97.8943 51.8314 97.8012 51.6283 97.615 51.459C97.4457 51.2728 97.2426 51.1797 97.0056 51.1797C96.7686 51.1797 96.5655 51.2728 96.3962 51.459C96.227 51.6283 96.1423 51.8314 96.1423 52.0684C96.1423 52.3053 96.227 52.5085 96.3962 52.6777C96.5655 52.847 96.7686 52.9316 97.0056 52.9316C97.2426 52.9316 97.4457 52.847 97.615 52.6777C97.8012 52.5085 97.8943 52.3053 97.8943 52.0684ZM115.947 64.6113C116.776 68.5215 117.978 70.4766 119.552 70.4766C120.162 70.4766 120.746 70.2565 121.304 69.8164C121.863 69.3594 122.379 68.8092 122.853 68.166C123.344 67.5059 123.776 66.8118 124.148 66.084C124.521 65.3561 124.825 64.7214 125.062 64.1797C125.232 63.7734 125.528 63.5703 125.951 63.5703C126.222 63.5703 126.45 63.6719 126.636 63.875C126.823 64.0781 126.916 64.2982 126.916 64.5352C126.916 64.6706 126.89 64.7891 126.84 64.8906C126.721 65.1784 126.543 65.5677 126.306 66.0586C126.086 66.5326 125.807 67.0488 125.469 67.6074C125.147 68.1491 124.783 68.7077 124.377 69.2832C123.97 69.8587 123.522 70.375 123.031 70.832C122.54 71.2891 122.015 71.6699 121.457 71.9746C120.915 72.2624 120.34 72.4062 119.73 72.4062C118.596 72.4062 117.623 72.0169 116.81 71.2383C115.998 70.4427 115.295 69.1393 114.703 67.3281C113.89 69.0547 113.069 70.3073 112.24 71.0859C111.411 71.8646 110.513 72.2539 109.549 72.2539C109.041 72.2539 108.55 72.1693 108.076 72C107.602 71.8477 107.187 71.5853 106.832 71.2129C106.476 70.8405 106.189 70.3665 105.969 69.791C105.748 69.1986 105.638 68.4792 105.638 67.6328C105.638 66.4648 105.842 65.39 106.248 64.4082C106.654 63.4264 107.179 62.5885 107.822 61.8945C108.465 61.1836 109.176 60.6335 109.955 60.2441C110.75 59.8548 111.538 59.6602 112.316 59.6602C112.57 59.6602 112.79 59.7533 112.976 59.9395C113.163 60.1087 113.256 60.3288 113.256 60.5996C113.256 60.8366 113.179 61.0482 113.027 61.2344C112.875 61.4206 112.672 61.5306 112.418 61.5645C111.91 61.6322 111.368 61.793 110.793 62.0469C110.217 62.3008 109.684 62.6732 109.193 63.1641C108.719 63.638 108.321 64.2474 108 64.9922C107.695 65.737 107.543 66.6257 107.543 67.6582C107.543 68.5046 107.712 69.1647 108.051 69.6387C108.406 70.1126 108.914 70.3496 109.574 70.3496C109.845 70.3496 110.133 70.2819 110.437 70.1465C110.742 69.9941 111.064 69.7064 111.402 69.2832C111.758 68.86 112.138 68.2591 112.545 67.4805C112.968 66.7018 113.433 65.6777 113.941 64.4082C113.653 62.9186 113.391 61.2005 113.154 59.2539C112.917 57.3073 112.799 55.1322 112.799 52.7285C112.799 51.679 112.832 50.5872 112.9 49.4531C112.968 48.3021 113.078 47.1849 113.23 46.1016C113.383 45.0013 113.586 43.9603 113.84 42.9785C114.094 41.9967 114.398 41.1335 114.754 40.3887C115.126 39.6439 115.558 39.0599 116.049 38.6367C116.539 38.1966 117.098 37.9766 117.724 37.9766C118.283 37.9766 118.757 38.1289 119.146 38.4336C119.536 38.7383 119.849 39.1615 120.086 39.7031C120.34 40.2448 120.526 40.8965 120.644 41.6582C120.763 42.4199 120.822 43.2578 120.822 44.1719C120.822 46.1354 120.653 48.099 120.314 50.0625C119.976 52.026 119.552 53.9049 119.045 55.6992C118.554 57.4935 118.029 59.1523 117.47 60.6758C116.912 62.1992 116.404 63.5111 115.947 64.6113ZM118.918 44.1465C118.918 43.7233 118.901 43.2663 118.867 42.7754C118.85 42.2845 118.791 41.8275 118.689 41.4043C118.605 40.9642 118.486 40.6003 118.334 40.3125C118.181 40.0247 117.978 39.8809 117.724 39.8809C117.301 39.8809 116.903 40.2533 116.531 40.998C116.176 41.7428 115.862 42.7246 115.592 43.9434C115.321 45.1452 115.101 46.5163 114.931 48.0566C114.779 49.5801 114.703 51.1204 114.703 52.6777C114.703 54.1673 114.762 55.6569 114.881 57.1465C114.999 58.6361 115.135 59.9648 115.287 61.1328C115.778 59.8294 116.243 58.4922 116.683 57.1211C117.123 55.7331 117.504 54.3197 117.826 52.8809C118.164 51.4421 118.427 49.9948 118.613 48.5391C118.816 47.0664 118.918 45.6022 118.918 44.1465ZM157.08 46.584C157.08 46.8548 156.987 47.0749 156.801 47.2441C156.614 47.3965 156.386 47.4727 156.115 47.4727H143.242V47.752C143.242 48.7845 143.166 49.8848 143.013 51.0527C142.861 52.2207 142.649 53.3887 142.379 54.5566C142.125 55.7077 141.829 56.8333 141.49 57.9336C141.168 59.0339 140.83 60.0495 140.474 60.9805C140.136 61.9115 139.797 62.724 139.459 63.418C139.12 64.0951 138.816 64.6029 138.545 64.9414C138.765 65.7201 139.027 66.4479 139.332 67.125C139.636 67.7852 139.975 68.3691 140.347 68.877C140.737 69.3678 141.151 69.7572 141.592 70.0449C142.032 70.3327 142.506 70.4766 143.013 70.4766C143.606 70.4766 144.19 70.2311 144.765 69.7402C145.358 69.2324 145.899 68.64 146.39 67.9629C146.898 67.2689 147.338 66.5749 147.711 65.8809C148.1 65.1699 148.379 64.6029 148.549 64.1797C148.718 63.7734 149.014 63.5703 149.437 63.5703C149.725 63.5703 149.954 63.6719 150.123 63.875C150.309 64.0781 150.402 64.2982 150.402 64.5352C150.402 64.6536 150.377 64.7721 150.326 64.8906C150.275 65.0091 150.148 65.2799 149.945 65.7031C149.759 66.1263 149.505 66.6172 149.183 67.1758C148.879 67.7344 148.515 68.3268 148.092 68.9531C147.685 69.5625 147.22 70.1211 146.695 70.6289C146.187 71.1367 145.637 71.5599 145.045 71.8984C144.452 72.237 143.826 72.4062 143.166 72.4062C141.998 72.4062 140.948 72.0254 140.017 71.2637C139.086 70.502 138.291 69.4355 137.631 68.0645C136.987 66.6934 136.497 65.0684 136.158 63.1895C135.819 61.3105 135.65 59.2539 135.65 57.0195C135.65 56.4609 135.659 55.8092 135.676 55.0645C135.692 54.3027 135.726 53.5072 135.777 52.6777C135.828 51.8314 135.904 50.9681 136.006 50.0879C136.107 49.1908 136.243 48.319 136.412 47.4727H127.297C127.026 47.4727 126.797 47.3965 126.611 47.2441C126.425 47.0749 126.332 46.8548 126.332 46.584C126.332 46.3132 126.425 46.1016 126.611 45.9492C126.797 45.7799 127.026 45.6953 127.297 45.6953H136.844C137.013 45.0859 137.207 44.5273 137.427 44.0195C137.664 43.5117 137.927 43.0716 138.215 42.6992C138.519 42.3268 138.849 42.0391 139.205 41.8359C139.577 41.6159 139.983 41.5059 140.424 41.5059C140.847 41.5059 141.211 41.6159 141.515 41.8359C141.837 42.0391 142.108 42.3268 142.328 42.6992C142.548 43.0716 142.717 43.5117 142.836 44.0195C142.971 44.5273 143.073 45.0859 143.14 45.6953H156.115C156.386 45.6953 156.614 45.7799 156.801 45.9492C156.987 46.1016 157.08 46.3132 157.08 46.584ZM137.961 62.4023C138.469 61.2852 138.926 60.0833 139.332 58.7969C139.755 57.4935 140.11 56.1816 140.398 54.8613C140.703 53.541 140.931 52.2461 141.084 50.9766C141.253 49.707 141.338 48.5391 141.338 47.4727H138.342C138.105 48.5221 137.91 49.8255 137.758 51.3828C137.622 52.9232 137.554 54.8021 137.554 57.0195C137.554 58.2552 137.588 59.2962 137.656 60.1426C137.724 60.972 137.825 61.7253 137.961 62.4023ZM140.322 43.4102C140.17 43.4102 139.95 43.5794 139.662 43.918C139.374 44.2396 139.086 44.832 138.799 45.6953H141.236C141.151 44.9844 141.024 44.4258 140.855 44.0195C140.703 43.6133 140.525 43.4102 140.322 43.4102ZM138.367 64.2305V64.2559V64.2305ZM151.316 61.5645C151.248 62.0215 151.164 62.4531 151.062 62.8594C150.961 63.2487 150.859 63.5957 150.758 63.9004C150.673 64.1882 150.597 64.4251 150.529 64.6113C150.461 64.7975 150.419 64.8991 150.402 64.916C150.233 65.3053 149.937 65.5 149.513 65.5C149.276 65.5 149.056 65.4154 148.853 65.2461C148.65 65.0599 148.549 64.8314 148.549 64.5605C148.549 64.459 148.566 64.3828 148.599 64.332C148.633 64.2812 148.684 64.1797 148.752 64.0273C148.819 63.875 148.904 63.6211 149.006 63.2656C149.107 62.9102 149.234 62.36 149.386 61.6152C149.099 61.6152 148.802 61.6068 148.498 61.5898C148.193 61.5729 147.914 61.5137 147.66 61.4121C147.389 61.3105 147.169 61.1497 147 60.9297C146.83 60.7096 146.746 60.4049 146.746 60.0156C146.746 59.7279 146.83 59.3385 147 58.8477C147.152 58.3568 147.364 57.8743 147.635 57.4004C147.905 56.9264 148.21 56.5202 148.549 56.1816C148.887 55.8262 149.226 55.6484 149.564 55.6484C149.954 55.6484 150.267 55.7923 150.504 56.0801C150.758 56.3678 150.952 56.7233 151.088 57.1465C151.223 57.5527 151.316 57.9844 151.367 58.4414C151.435 58.8984 151.469 59.2962 151.469 59.6348C151.756 59.6348 152.036 59.6348 152.306 59.6348C152.594 59.6178 152.865 59.6094 153.119 59.6094C154.084 59.6094 154.82 59.821 155.328 60.2441C155.836 60.6673 156.09 61.3613 156.09 62.3262C156.09 62.7155 156.064 63.1217 156.013 63.5449C155.963 63.9681 155.903 64.4082 155.836 64.8652C155.768 65.3053 155.709 65.7454 155.658 66.1855C155.607 66.6257 155.582 67.0573 155.582 67.4805C155.582 68.0898 155.666 68.5977 155.836 69.0039C156.005 69.3932 156.217 69.7064 156.47 69.9434C156.724 70.1803 156.995 70.3496 157.283 70.4512C157.571 70.5358 157.833 70.5781 158.07 70.5781C158.798 70.5781 159.483 70.3411 160.127 69.8672C160.77 69.3932 161.362 68.8262 161.904 68.166C162.446 67.4889 162.928 66.778 163.351 66.0332C163.791 65.2884 164.155 64.6367 164.443 64.0781C164.528 63.9258 164.646 63.8073 164.799 63.7227C164.951 63.638 165.112 63.5957 165.281 63.5957C165.586 63.5957 165.823 63.6973 165.992 63.9004C166.161 64.0866 166.246 64.2982 166.246 64.5352C166.246 64.7044 166.212 64.8568 166.144 64.9922C165.755 65.6862 165.298 66.4733 164.773 67.3535C164.265 68.2168 163.681 69.0293 163.021 69.791C162.361 70.5527 161.616 71.196 160.787 71.7207C159.974 72.2454 159.077 72.5078 158.095 72.5078C157.486 72.5078 156.911 72.3893 156.369 72.1523C155.827 71.9323 155.353 71.6107 154.947 71.1875C154.558 70.7474 154.245 70.2142 154.008 69.5879C153.771 68.9447 153.652 68.2253 153.652 67.4297C153.652 66.5833 153.737 65.7454 153.906 64.916C154.075 64.0697 154.16 63.2656 154.16 62.5039C154.16 62.1823 154.084 61.9453 153.931 61.793C153.796 61.6237 153.483 61.5391 152.992 61.5391C152.755 61.5391 152.493 61.5391 152.205 61.5391C151.934 61.5391 151.638 61.5475 151.316 61.5645ZM149.615 59.6855C149.615 59.5671 149.607 59.4147 149.59 59.2285C149.59 59.0254 149.573 58.8307 149.539 58.6445C149.522 58.4583 149.488 58.2975 149.437 58.1621C149.403 58.0267 149.361 57.959 149.31 57.959C149.26 57.959 149.192 58.0267 149.107 58.1621C149.039 58.2806 148.963 58.4329 148.879 58.6191C148.794 58.7884 148.718 58.9746 148.65 59.1777C148.582 59.3809 148.532 59.5501 148.498 59.6855H149.615ZM184.07 64.916C184.002 65.0514 183.858 65.3392 183.638 65.7793C183.435 66.2025 183.164 66.6934 182.826 67.252C182.504 67.8105 182.123 68.3945 181.683 69.0039C181.243 69.6133 180.752 70.1719 180.211 70.6797C179.669 71.1875 179.085 71.6107 178.459 71.9492C177.832 72.2708 177.172 72.4316 176.478 72.4316C175.497 72.4316 174.667 72.1185 173.99 71.4922C173.33 70.8659 172.847 70.0788 172.543 69.1309C171.967 70.0957 171.282 70.8659 170.486 71.4414C169.691 72 168.895 72.2793 168.099 72.2793C167.473 72.2793 166.906 72.1693 166.398 71.9492C165.89 71.7122 165.459 71.3906 165.103 70.9844C164.748 70.5612 164.469 70.0703 164.265 69.5117C164.079 68.9531 163.986 68.3438 163.986 67.6836C163.986 66.3633 164.206 65.2038 164.646 64.2051C165.103 63.1895 165.679 62.3431 166.373 61.666C167.067 60.9889 167.829 60.4811 168.658 60.1426C169.504 59.804 170.317 59.6348 171.095 59.6348C171.62 59.6348 172.103 59.7109 172.543 59.8633C172.983 59.9987 173.355 60.151 173.66 60.3203C173.982 60.4896 174.227 60.6504 174.396 60.8027C174.566 60.9382 174.659 61.0143 174.676 61.0312C174.862 61.2513 174.955 61.4798 174.955 61.7168C174.955 61.9707 174.862 62.1992 174.676 62.4023C174.489 62.5885 174.269 62.6816 174.015 62.6816C173.745 62.6816 173.516 62.5885 173.33 62.4023C173.296 62.3685 173.22 62.3092 173.101 62.2246C172.983 62.123 172.822 62.0215 172.619 61.9199C172.416 61.8184 172.17 61.7337 171.883 61.666C171.612 61.5814 171.299 61.5391 170.943 61.5391C170.418 61.5391 169.86 61.6576 169.267 61.8945C168.675 62.1315 168.133 62.5039 167.642 63.0117C167.151 63.5026 166.737 64.1289 166.398 64.8906C166.077 65.6354 165.916 66.5241 165.916 67.5566C165.916 67.8783 165.95 68.2083 166.017 68.5469C166.085 68.8685 166.204 69.1647 166.373 69.4355C166.542 69.7064 166.771 69.9264 167.058 70.0957C167.346 70.265 167.702 70.3496 168.125 70.3496C168.429 70.3496 168.776 70.248 169.166 70.0449C169.572 69.8418 169.953 69.5286 170.308 69.1055C170.681 68.6823 171.011 68.1491 171.299 67.5059C171.603 66.8626 171.815 66.1009 171.933 65.2207C171.967 64.9837 172.077 64.7891 172.263 64.6367C172.45 64.4674 172.67 64.3828 172.924 64.3828C173.161 64.3828 173.364 64.4759 173.533 64.6621C173.719 64.8483 173.821 65.0599 173.838 65.2969C173.855 65.6185 173.888 66.0755 173.939 66.668C173.99 67.2435 174.1 67.819 174.269 68.3945C174.455 68.9701 174.726 69.4694 175.082 69.8926C175.437 70.3158 175.928 70.5273 176.554 70.5273C176.961 70.5273 177.358 70.4173 177.748 70.1973C178.154 69.9772 178.543 69.6895 178.916 69.334C179.305 68.9616 179.669 68.5469 180.008 68.0898C180.363 67.6159 180.685 67.1419 180.972 66.668C181.26 66.194 181.514 65.737 181.734 65.2969C181.954 64.8568 182.14 64.4759 182.293 64.1543C182.377 63.9681 182.496 63.8242 182.648 63.7227C182.817 63.6211 182.995 63.5703 183.181 63.5703C183.469 63.5703 183.698 63.6803 183.867 63.9004C184.053 64.1035 184.146 64.3236 184.146 64.5605C184.146 64.679 184.121 64.7975 184.07 64.916ZM192.601 64.002C192.347 65.1868 191.983 66.2956 191.51 67.3281C191.036 68.3438 190.528 69.2324 189.986 69.9941C189.461 70.7559 188.928 71.3568 188.386 71.7969C187.845 72.237 187.379 72.474 186.99 72.5078C186.55 72.5078 186.059 72.2878 185.517 71.8477C184.993 71.4076 184.485 70.7982 183.994 70.0195C183.52 69.224 183.122 68.2845 182.801 67.2012C182.479 66.1178 182.318 64.9414 182.318 63.6719C182.318 62.5547 182.411 61.7083 182.597 61.1328C182.801 60.5573 182.927 60.2272 182.978 60.1426C183.063 59.9902 183.173 59.8717 183.308 59.7871C183.461 59.7025 183.63 59.6602 183.816 59.6602C184.104 59.6602 184.332 59.7617 184.502 59.9648C184.671 60.151 184.756 60.3626 184.756 60.5996C184.756 60.7689 184.722 60.9128 184.654 61.0312C184.637 61.0651 184.561 61.2936 184.426 61.7168C184.29 62.14 184.222 62.7747 184.222 63.6211C184.222 64.6198 184.324 65.5423 184.527 66.3887C184.73 67.235 184.976 67.9629 185.263 68.5723C185.551 69.1816 185.847 69.6641 186.152 70.0195C186.474 70.3581 186.736 70.5273 186.939 70.5273C187.075 70.5273 187.269 70.4004 187.523 70.1465C187.794 69.8926 188.073 69.5456 188.361 69.1055C188.666 68.6654 188.97 68.1406 189.275 67.5312C189.597 66.9219 189.885 66.2617 190.138 65.5508C190.409 64.8229 190.621 64.0612 190.773 63.2656C190.942 62.4531 191.027 61.6322 191.027 60.8027C191.027 60.6335 191.019 60.4727 191.002 60.3203C191.002 60.151 191.002 59.9818 191.002 59.8125C191.002 59.5247 191.086 59.2878 191.256 59.1016C191.442 58.8984 191.679 58.7969 191.967 58.7969C192.187 58.7969 192.381 58.8646 192.551 59C192.737 59.1354 192.855 59.3216 192.906 59.5586C192.906 59.5417 192.94 59.6771 193.008 59.9648C193.075 60.2526 193.185 60.625 193.338 61.082C193.507 61.5221 193.71 62.0046 193.947 62.5293C194.201 63.054 194.497 63.5449 194.836 64.002C195.191 64.4421 195.597 64.8145 196.054 65.1191C196.511 65.4238 197.036 65.5762 197.629 65.5762C197.95 65.5762 198.23 65.5085 198.467 65.373C198.704 65.2376 198.898 65.0853 199.051 64.916C199.203 64.7467 199.313 64.5859 199.381 64.4336C199.465 64.2812 199.508 64.1966 199.508 64.1797C199.575 63.9935 199.685 63.8496 199.838 63.748C200.007 63.6296 200.193 63.5703 200.396 63.5703C200.667 63.5703 200.896 63.6719 201.082 63.875C201.268 64.0612 201.361 64.2812 201.361 64.5352C201.361 64.6536 201.336 64.7721 201.285 64.8906C201.183 65.1276 201.031 65.3984 200.828 65.7031C200.642 66.0078 200.396 66.2956 200.092 66.5664C199.787 66.8372 199.423 67.0658 199 67.252C198.594 67.4212 198.136 67.5059 197.629 67.5059C197.036 67.5059 196.486 67.4043 195.978 67.2012C195.47 66.9811 195.005 66.7103 194.582 66.3887C194.176 66.0501 193.803 65.6777 193.465 65.2715C193.126 64.8483 192.838 64.4251 192.601 64.002ZM202.58 69.207C202.935 69.6979 203.392 70.0957 203.951 70.4004C204.51 70.6882 205.195 70.832 206.008 70.832C206.837 70.832 207.59 70.6374 208.267 70.248C208.944 69.8418 209.562 69.3171 210.121 68.6738C210.679 68.0306 211.179 67.3112 211.619 66.5156C212.059 65.7201 212.457 64.9245 212.812 64.1289C212.897 63.9427 213.015 63.8073 213.168 63.7227C213.32 63.6211 213.489 63.5703 213.676 63.5703C213.963 63.5703 214.192 63.6719 214.361 63.875C214.547 64.0781 214.64 64.2982 214.64 64.5352C214.64 64.6198 214.632 64.696 214.615 64.7637C214.598 64.8145 214.573 64.8737 214.539 64.9414C213.371 67.5143 212.093 69.4525 210.705 70.7559C209.334 72.0592 207.776 72.7279 206.033 72.7617C204.916 72.7617 203.951 72.5417 203.138 72.1016C202.326 71.6784 201.657 71.1283 201.133 70.4512C200.608 69.7572 200.219 68.9785 199.965 68.1152C199.711 67.252 199.584 66.3887 199.584 65.5254C199.584 64.6621 199.685 63.8665 199.888 63.1387C200.108 62.4108 200.413 61.776 200.802 61.2344C201.209 60.6927 201.683 60.2695 202.224 59.9648C202.783 59.6602 203.392 59.5078 204.052 59.5078C204.442 59.5078 204.823 59.5924 205.195 59.7617C205.584 59.9141 205.931 60.1426 206.236 60.4473C206.541 60.735 206.786 61.0905 206.972 61.5137C207.159 61.9368 207.252 62.4193 207.252 62.9609C207.252 63.6549 207.133 64.3066 206.896 64.916C206.659 65.5254 206.329 66.0924 205.906 66.6172C205.5 67.1419 205.009 67.6243 204.433 68.0645C203.858 68.5046 203.24 68.8854 202.58 69.207ZM201.818 67.5566C202.343 67.3366 202.817 67.0573 203.24 66.7188C203.68 66.3802 204.052 66.0078 204.357 65.6016C204.662 65.1953 204.899 64.7721 205.068 64.332C205.237 63.875 205.322 63.418 205.322 62.9609C205.322 62.4531 205.195 62.0723 204.941 61.8184C204.687 61.5475 204.391 61.4121 204.052 61.4121C203.595 61.4121 203.206 61.5391 202.885 61.793C202.563 62.0469 202.301 62.377 202.097 62.7832C201.894 63.1895 201.742 63.6465 201.64 64.1543C201.556 64.6452 201.513 65.1361 201.513 65.627C201.513 65.9316 201.539 66.2533 201.59 66.5918C201.657 66.9303 201.733 67.252 201.818 67.5566ZM227.285 64.9668C227.099 65.3561 226.862 65.8216 226.574 66.3633C226.303 66.888 225.99 67.4382 225.635 68.0137C225.279 68.5892 224.881 69.1647 224.441 69.7402C224.001 70.2988 223.519 70.8066 222.994 71.2637C222.486 71.7038 221.936 72.0592 221.344 72.3301C220.768 72.6178 220.15 72.7617 219.49 72.7617C218.474 72.7617 217.603 72.4486 216.875 71.8223C216.147 71.196 215.529 70.375 215.021 69.3594C214.513 68.3438 214.099 67.1927 213.777 65.9062C213.472 64.6029 213.235 63.2826 213.066 61.9453C212.897 60.5911 212.778 59.2793 212.711 58.0098C212.66 56.7402 212.635 55.6146 212.635 54.6328C212.635 53.2109 212.677 51.7383 212.761 50.2148C212.863 48.6914 213.015 47.2018 213.219 45.7461C213.422 44.2904 213.676 42.9108 213.98 41.6074C214.302 40.304 214.674 39.1615 215.097 38.1797C215.538 37.1979 216.037 36.4193 216.595 35.8438C217.154 35.2682 217.789 34.9805 218.5 34.9805C219.058 34.9805 219.558 35.1159 219.998 35.3867C220.455 35.6406 220.836 36.0638 221.14 36.6562C221.445 37.2487 221.682 38.0189 221.851 38.9668C222.021 39.9147 222.105 41.0742 222.105 42.4453C222.105 44.138 221.927 45.89 221.572 47.7012C221.217 49.4954 220.734 51.3066 220.125 53.1348C219.515 54.9629 218.796 56.791 217.967 58.6191C217.137 60.4303 216.248 62.1992 215.301 63.9258C215.724 66.0755 216.291 67.7682 217.002 69.0039C217.713 70.2227 218.567 70.832 219.566 70.832C220.243 70.832 220.895 70.5697 221.521 70.0449C222.148 69.5033 222.723 68.8685 223.248 68.1406C223.773 67.4128 224.23 66.6764 224.619 65.9316C225.025 65.1699 225.338 64.5605 225.558 64.1035C225.643 63.9342 225.761 63.8073 225.914 63.7227C226.066 63.6211 226.235 63.5703 226.422 63.5703C226.709 63.5703 226.938 63.6719 227.107 63.875C227.293 64.0781 227.386 64.3066 227.386 64.5605C227.386 64.6621 227.353 64.7975 227.285 64.9668ZM214.564 54.7598C214.564 55.8431 214.59 56.8841 214.64 57.8828C214.691 58.8815 214.759 59.8379 214.844 60.752C215.554 59.3809 216.232 57.9251 216.875 56.3848C217.518 54.8275 218.085 53.2617 218.576 51.6875C219.067 50.0964 219.456 48.5221 219.744 46.9648C220.049 45.3906 220.201 43.8926 220.201 42.4707C220.201 40.4733 220.04 39.043 219.719 38.1797C219.397 37.3164 218.965 36.8848 218.424 36.8848C218.068 36.8848 217.721 37.1302 217.383 37.6211C217.061 38.112 216.756 38.7806 216.469 39.627C216.181 40.4733 215.918 41.472 215.681 42.623C215.444 43.7741 215.241 45.0098 215.072 46.3301C214.92 47.6504 214.793 49.0299 214.691 50.4688C214.607 51.9076 214.564 53.3379 214.564 54.7598ZM257.576 46.584C257.576 46.8548 257.483 47.0749 257.297 47.2441C257.11 47.3965 256.882 47.4727 256.611 47.4727H243.738V47.752C243.738 48.7845 243.662 49.8848 243.51 51.0527C243.357 52.2207 243.146 53.3887 242.875 54.5566C242.621 55.7077 242.325 56.8333 241.986 57.9336C241.664 59.0339 241.326 60.0495 240.97 60.9805C240.632 61.9115 240.293 62.724 239.955 63.418C239.616 64.0951 239.312 64.6029 239.041 64.9414C239.261 65.7201 239.523 66.4479 239.828 67.125C240.133 67.7852 240.471 68.3691 240.844 68.877C241.233 69.3678 241.648 69.7572 242.088 70.0449C242.528 70.3327 243.002 70.4766 243.51 70.4766C244.102 70.4766 244.686 70.2311 245.261 69.7402C245.854 69.2324 246.396 68.64 246.886 67.9629C247.394 67.2689 247.834 66.5749 248.207 65.8809C248.596 65.1699 248.875 64.6029 249.045 64.1797C249.214 63.7734 249.51 63.5703 249.933 63.5703C250.221 63.5703 250.45 63.6719 250.619 63.875C250.805 64.0781 250.898 64.2982 250.898 64.5352C250.898 64.6536 250.873 64.7721 250.822 64.8906C250.771 65.0091 250.644 65.2799 250.441 65.7031C250.255 66.1263 250.001 66.6172 249.679 67.1758C249.375 67.7344 249.011 68.3268 248.588 68.9531C248.181 69.5625 247.716 70.1211 247.191 70.6289C246.683 71.1367 246.133 71.5599 245.541 71.8984C244.948 72.237 244.322 72.4062 243.662 72.4062C242.494 72.4062 241.444 72.0254 240.513 71.2637C239.582 70.502 238.787 69.4355 238.127 68.0645C237.483 66.6934 236.993 65.0684 236.654 63.1895C236.316 61.3105 236.146 59.2539 236.146 57.0195C236.146 56.4609 236.155 55.8092 236.172 55.0645C236.189 54.3027 236.222 53.5072 236.273 52.6777C236.324 51.8314 236.4 50.9681 236.502 50.0879C236.603 49.1908 236.739 48.319 236.908 47.4727H227.793C227.522 47.4727 227.293 47.3965 227.107 47.2441C226.921 47.0749 226.828 46.8548 226.828 46.584C226.828 46.3132 226.921 46.1016 227.107 45.9492C227.293 45.7799 227.522 45.6953 227.793 45.6953H237.34C237.509 45.0859 237.704 44.5273 237.924 44.0195C238.161 43.5117 238.423 43.0716 238.711 42.6992C239.015 42.3268 239.345 42.0391 239.701 41.8359C240.073 41.6159 240.48 41.5059 240.92 41.5059C241.343 41.5059 241.707 41.6159 242.011 41.8359C242.333 42.0391 242.604 42.3268 242.824 42.6992C243.044 43.0716 243.213 43.5117 243.332 44.0195C243.467 44.5273 243.569 45.0859 243.636 45.6953H256.611C256.882 45.6953 257.11 45.7799 257.297 45.9492C257.483 46.1016 257.576 46.3132 257.576 46.584ZM238.457 62.4023C238.965 61.2852 239.422 60.0833 239.828 58.7969C240.251 57.4935 240.607 56.1816 240.894 54.8613C241.199 53.541 241.427 52.2461 241.58 50.9766C241.749 49.707 241.834 48.5391 241.834 47.4727H238.838C238.601 48.5221 238.406 49.8255 238.254 51.3828C238.118 52.9232 238.051 54.8021 238.051 57.0195C238.051 58.2552 238.084 59.2962 238.152 60.1426C238.22 60.972 238.321 61.7253 238.457 62.4023ZM240.818 43.4102C240.666 43.4102 240.446 43.5794 240.158 43.918C239.87 44.2396 239.582 44.832 239.295 45.6953H241.732C241.648 44.9844 241.521 44.4258 241.351 44.0195C241.199 43.6133 241.021 43.4102 240.818 43.4102ZM238.863 64.2305V64.2559V64.2305ZM251.812 61.5645C251.745 62.0215 251.66 62.4531 251.558 62.8594C251.457 63.2487 251.355 63.5957 251.254 63.9004C251.169 64.1882 251.093 64.4251 251.025 64.6113C250.957 64.7975 250.915 64.8991 250.898 64.916C250.729 65.3053 250.433 65.5 250.01 65.5C249.773 65.5 249.552 65.4154 249.349 65.2461C249.146 65.0599 249.045 64.8314 249.045 64.5605C249.045 64.459 249.062 64.3828 249.095 64.332C249.129 64.2812 249.18 64.1797 249.248 64.0273C249.316 63.875 249.4 63.6211 249.502 63.2656C249.603 62.9102 249.73 62.36 249.883 61.6152C249.595 61.6152 249.299 61.6068 248.994 61.5898C248.689 61.5729 248.41 61.5137 248.156 61.4121C247.885 61.3105 247.665 61.1497 247.496 60.9297C247.327 60.7096 247.242 60.4049 247.242 60.0156C247.242 59.7279 247.327 59.3385 247.496 58.8477C247.648 58.3568 247.86 57.8743 248.131 57.4004C248.401 56.9264 248.706 56.5202 249.045 56.1816C249.383 55.8262 249.722 55.6484 250.06 55.6484C250.45 55.6484 250.763 55.7923 251 56.0801C251.254 56.3678 251.448 56.7233 251.584 57.1465C251.719 57.5527 251.812 57.9844 251.863 58.4414C251.931 58.8984 251.965 59.2962 251.965 59.6348C252.252 59.6348 252.532 59.6348 252.802 59.6348C253.09 59.6178 253.361 59.6094 253.615 59.6094C254.58 59.6094 255.316 59.821 255.824 60.2441C256.332 60.6673 256.586 61.3613 256.586 62.3262C256.586 62.7155 256.56 63.1217 256.51 63.5449C256.459 63.9681 256.399 64.4082 256.332 64.8652C256.264 65.3053 256.205 65.7454 256.154 66.1855C256.103 66.6257 256.078 67.0573 256.078 67.4805C256.078 68.0898 256.163 68.5977 256.332 69.0039C256.501 69.3932 256.713 69.7064 256.967 69.9434C257.22 70.1803 257.491 70.3496 257.779 70.4512C258.067 70.5358 258.329 70.5781 258.566 70.5781C259.294 70.5781 259.98 70.3411 260.623 69.8672C261.266 69.3932 261.858 68.8262 262.4 68.166C262.942 67.4889 263.424 66.778 263.847 66.0332C264.288 65.2884 264.651 64.6367 264.939 64.0781C265.024 63.9258 265.142 63.8073 265.295 63.7227C265.447 63.638 265.608 63.5957 265.777 63.5957C266.082 63.5957 266.319 63.6973 266.488 63.9004C266.657 64.0866 266.742 64.2982 266.742 64.5352C266.742 64.7044 266.708 64.8568 266.64 64.9922C266.251 65.6862 265.794 66.4733 265.269 67.3535C264.761 68.2168 264.177 69.0293 263.517 69.791C262.857 70.5527 262.112 71.196 261.283 71.7207C260.47 72.2454 259.573 72.5078 258.592 72.5078C257.982 72.5078 257.407 72.3893 256.865 72.1523C256.323 71.9323 255.849 71.6107 255.443 71.1875C255.054 70.7474 254.741 70.2142 254.504 69.5879C254.267 68.9447 254.148 68.2253 254.148 67.4297C254.148 66.5833 254.233 65.7454 254.402 64.916C254.571 64.0697 254.656 63.2656 254.656 62.5039C254.656 62.1823 254.58 61.9453 254.427 61.793C254.292 61.6237 253.979 61.5391 253.488 61.5391C253.251 61.5391 252.989 61.5391 252.701 61.5391C252.43 61.5391 252.134 61.5475 251.812 61.5645ZM250.111 59.6855C250.111 59.5671 250.103 59.4147 250.086 59.2285C250.086 59.0254 250.069 58.8307 250.035 58.6445C250.018 58.4583 249.984 58.2975 249.933 58.1621C249.899 58.0267 249.857 57.959 249.806 57.959C249.756 57.959 249.688 58.0267 249.603 58.1621C249.536 58.2806 249.459 58.4329 249.375 58.6191C249.29 58.7884 249.214 58.9746 249.146 59.1777C249.079 59.3809 249.028 59.5501 248.994 59.6855H250.111ZM284.566 64.916C284.498 65.0514 284.355 65.3392 284.135 65.7793C283.931 66.2025 283.661 66.6934 283.322 67.252C283 67.8105 282.62 68.3945 282.179 69.0039C281.739 69.6133 281.248 70.1719 280.707 70.6797C280.165 71.1875 279.581 71.6107 278.955 71.9492C278.329 72.2708 277.668 72.4316 276.974 72.4316C275.993 72.4316 275.163 72.1185 274.486 71.4922C273.826 70.8659 273.344 70.0788 273.039 69.1309C272.463 70.0957 271.778 70.8659 270.982 71.4414C270.187 72 269.391 72.2793 268.595 72.2793C267.969 72.2793 267.402 72.1693 266.894 71.9492C266.386 71.7122 265.955 71.3906 265.599 70.9844C265.244 70.5612 264.965 70.0703 264.761 69.5117C264.575 68.9531 264.482 68.3438 264.482 67.6836C264.482 66.3633 264.702 65.2038 265.142 64.2051C265.599 63.1895 266.175 62.3431 266.869 61.666C267.563 60.9889 268.325 60.4811 269.154 60.1426C270 59.804 270.813 59.6348 271.592 59.6348C272.116 59.6348 272.599 59.7109 273.039 59.8633C273.479 59.9987 273.851 60.151 274.156 60.3203C274.478 60.4896 274.723 60.6504 274.892 60.8027C275.062 60.9382 275.155 61.0143 275.172 61.0312C275.358 61.2513 275.451 61.4798 275.451 61.7168C275.451 61.9707 275.358 62.1992 275.172 62.4023C274.985 62.5885 274.765 62.6816 274.511 62.6816C274.241 62.6816 274.012 62.5885 273.826 62.4023C273.792 62.3685 273.716 62.3092 273.597 62.2246C273.479 62.123 273.318 62.0215 273.115 61.9199C272.912 61.8184 272.666 61.7337 272.379 61.666C272.108 61.5814 271.795 61.5391 271.439 61.5391C270.914 61.5391 270.356 61.6576 269.763 61.8945C269.171 62.1315 268.629 62.5039 268.138 63.0117C267.648 63.5026 267.233 64.1289 266.894 64.8906C266.573 65.6354 266.412 66.5241 266.412 67.5566C266.412 67.8783 266.446 68.2083 266.513 68.5469C266.581 68.8685 266.7 69.1647 266.869 69.4355C267.038 69.7064 267.267 69.9264 267.554 70.0957C267.842 70.265 268.198 70.3496 268.621 70.3496C268.926 70.3496 269.273 70.248 269.662 70.0449C270.068 69.8418 270.449 69.5286 270.804 69.1055C271.177 68.6823 271.507 68.1491 271.795 67.5059C272.099 66.8626 272.311 66.1009 272.429 65.2207C272.463 64.9837 272.573 64.7891 272.76 64.6367C272.946 64.4674 273.166 64.3828 273.42 64.3828C273.657 64.3828 273.86 64.4759 274.029 64.6621C274.215 64.8483 274.317 65.0599 274.334 65.2969C274.351 65.6185 274.385 66.0755 274.435 66.668C274.486 67.2435 274.596 67.819 274.765 68.3945C274.952 68.9701 275.222 69.4694 275.578 69.8926C275.933 70.3158 276.424 70.5273 277.051 70.5273C277.457 70.5273 277.855 70.4173 278.244 70.1973C278.65 69.9772 279.039 69.6895 279.412 69.334C279.801 68.9616 280.165 68.5469 280.504 68.0898C280.859 67.6159 281.181 67.1419 281.469 66.668C281.756 66.194 282.01 65.737 282.23 65.2969C282.45 64.8568 282.636 64.4759 282.789 64.1543C282.873 63.9681 282.992 63.8242 283.144 63.7227C283.314 63.6211 283.491 63.5703 283.677 63.5703C283.965 63.5703 284.194 63.6803 284.363 63.9004C284.549 64.1035 284.642 64.3236 284.642 64.5605C284.642 64.679 284.617 64.7975 284.566 64.916ZM299.42 64.9668C299.318 65.153 299.14 65.4915 298.886 65.9824C298.649 66.4733 298.319 67.0319 297.896 67.6582C297.49 68.2676 296.999 68.9023 296.424 69.5625C295.848 70.2227 295.188 70.832 294.443 71.3906C293.698 71.9323 292.86 72.3809 291.929 72.7363C291.015 73.0918 290.017 73.2695 288.933 73.2695C287.969 73.2695 287.114 73.0918 286.369 72.7363C285.624 72.3978 284.989 71.9154 284.465 71.2891C283.94 70.6458 283.542 69.8926 283.271 69.0293C283 68.166 282.865 67.2096 282.865 66.1602C282.865 65.1445 283.009 64.1966 283.297 63.3164C283.584 62.4193 283.974 61.6406 284.465 60.9805C284.972 60.3203 285.556 59.804 286.217 59.4316C286.877 59.0423 287.579 58.8477 288.324 58.8477C288.883 58.8477 289.39 58.9492 289.847 59.1523C290.304 59.3385 290.685 59.5924 290.99 59.9141C291.312 60.2357 291.557 60.5911 291.726 60.9805C291.913 61.3698 292.006 61.7591 292.006 62.1484C292.006 62.5208 291.955 62.8678 291.853 63.1895C291.769 63.5111 291.65 63.7988 291.498 64.0527C291.362 64.2897 291.202 64.4844 291.015 64.6367C290.829 64.7721 290.643 64.8398 290.457 64.8398C290.169 64.8398 289.932 64.7467 289.746 64.5605C289.577 64.3743 289.492 64.1458 289.492 63.875C289.492 63.7396 289.517 63.6211 289.568 63.5195C289.636 63.418 289.704 63.3164 289.771 63.2148C289.856 63.0964 289.924 62.9609 289.974 62.8086C290.042 62.6393 290.076 62.4277 290.076 62.1738C290.076 61.8184 289.907 61.4967 289.568 61.209C289.247 60.9212 288.832 60.7773 288.324 60.7773C287.85 60.7773 287.393 60.9212 286.953 61.209C286.53 61.4967 286.157 61.8861 285.836 62.377C285.514 62.8509 285.252 63.418 285.049 64.0781C284.862 64.7214 284.769 65.4069 284.769 66.1348C284.769 66.8288 284.854 67.4889 285.023 68.1152C285.192 68.7415 285.446 69.3001 285.785 69.791C286.123 70.265 286.547 70.6458 287.054 70.9336C287.579 71.2214 288.197 71.3652 288.908 71.3652C289.822 71.3652 290.668 71.2044 291.447 70.8828C292.226 70.5443 292.937 70.1211 293.58 69.6133C294.223 69.1055 294.79 68.5553 295.281 67.9629C295.772 67.3535 296.187 66.7865 296.525 66.2617C296.881 65.7201 297.151 65.2546 297.338 64.8652C297.541 64.459 297.659 64.2051 297.693 64.1035C297.761 63.9342 297.871 63.8073 298.023 63.7227C298.192 63.6211 298.37 63.5703 298.556 63.5703C298.844 63.5703 299.073 63.6719 299.242 63.875C299.428 64.0781 299.521 64.3066 299.521 64.5605C299.521 64.6621 299.487 64.7975 299.42 64.9668ZM304.092 68.877C304.379 69.5202 304.853 70.0365 305.513 70.4258C306.174 70.7982 306.918 70.9844 307.748 70.9844C308.002 70.9844 308.416 70.9505 308.992 70.8828C309.567 70.7982 310.228 70.5443 310.972 70.1211C311.734 69.681 312.538 68.9954 313.385 68.0645C314.231 67.1335 315.052 65.8216 315.847 64.1289C315.932 63.9427 316.051 63.8073 316.203 63.7227C316.355 63.6211 316.524 63.5703 316.711 63.5703C316.998 63.5703 317.227 63.6719 317.396 63.875C317.582 64.0781 317.676 64.2982 317.676 64.5352C317.676 64.6367 317.642 64.7721 317.574 64.9414C316.982 66.1771 316.321 67.2858 315.594 68.2676C314.866 69.2324 314.079 70.0618 313.232 70.7559C312.386 71.4329 311.497 71.9492 310.566 72.3047C309.652 72.6771 308.713 72.8633 307.748 72.8633C306.986 72.8633 306.267 72.7448 305.59 72.5078C304.929 72.2708 304.354 71.9577 303.863 71.5684C303.389 71.1621 303.008 70.7135 302.72 70.2227C302.45 69.7148 302.314 69.1986 302.314 68.6738C302.314 68.6061 302.323 68.513 302.34 68.3945C302.357 68.276 302.399 68.1491 302.467 68.0137C302.551 67.8613 302.661 67.7259 302.797 67.6074C302.949 67.472 303.152 67.362 303.406 67.2773C304.1 67.0742 304.735 66.8288 305.31 66.541C305.903 66.2363 306.411 65.8978 306.834 65.5254C307.257 65.153 307.587 64.7467 307.824 64.3066C308.061 63.8496 308.179 63.3587 308.179 62.834C308.179 62.377 308.027 62.0046 307.722 61.7168C307.418 61.429 307.045 61.2852 306.605 61.2852C306.148 61.2852 305.7 61.446 305.26 61.7676C304.819 62.0723 304.388 62.487 303.965 63.0117C303.558 63.5195 303.169 64.112 302.797 64.7891C302.424 65.4492 302.077 66.1432 301.756 66.8711C301.451 67.599 301.18 68.3268 300.943 69.0547C300.706 69.7656 300.511 70.4258 300.359 71.0352C300.308 71.2214 300.249 71.4245 300.181 71.6445C300.131 71.8646 300.046 72.0677 299.927 72.2539C299.809 72.457 299.665 72.6178 299.496 72.7363C299.327 72.8717 299.107 72.9395 298.836 72.9395C298.582 72.9395 298.336 72.8294 298.099 72.6094C297.862 72.4062 297.744 72.0508 297.744 71.543C297.744 71.4414 297.744 71.0521 297.744 70.375C297.761 69.6979 297.778 68.8177 297.795 67.7344C297.812 66.6341 297.829 65.3815 297.845 63.9766C297.879 62.5547 297.905 61.0566 297.922 59.4824C297.939 57.8913 297.964 56.2578 297.998 54.582C298.032 52.9062 298.057 51.2728 298.074 49.6816C298.091 48.0905 298.108 46.584 298.125 45.1621C298.159 43.7233 298.184 42.4538 298.201 41.3535C298.218 40.2363 298.226 39.3307 298.226 38.6367C298.243 37.9258 298.252 37.5026 298.252 37.3672C298.252 37.0964 298.353 36.8763 298.556 36.707C298.76 36.5208 298.98 36.4277 299.217 36.4277C299.487 36.4277 299.716 36.5208 299.902 36.707C300.088 36.8763 300.181 37.1048 300.181 37.3926C300.181 37.4264 300.173 37.765 300.156 38.4082C300.156 39.0345 300.148 39.8809 300.131 40.9473C300.114 42.0137 300.088 43.2578 300.054 44.6797C300.038 46.1016 300.012 47.6165 299.978 49.2246C299.961 50.8158 299.936 52.4577 299.902 54.1504C299.885 55.8431 299.86 57.4935 299.826 59.1016C299.809 60.7096 299.792 62.2415 299.775 63.6973C299.758 65.153 299.741 66.4395 299.724 67.5566C299.995 66.6934 300.342 65.7878 300.765 64.8398C301.189 63.875 301.688 62.9863 302.263 62.1738C302.839 61.3613 303.482 60.6927 304.193 60.168C304.921 59.6432 305.725 59.3809 306.605 59.3809C307.096 59.3809 307.553 59.474 307.976 59.6602C308.399 59.8294 308.763 60.0749 309.068 60.3965C309.39 60.7012 309.635 61.0651 309.804 61.4883C309.991 61.9115 310.084 62.3685 310.084 62.8594C310.084 63.6211 309.914 64.3236 309.576 64.9668C309.237 65.5931 308.789 66.1602 308.23 66.668C307.672 67.1589 307.028 67.5905 306.301 67.9629C305.59 68.3353 304.853 68.64 304.092 68.877ZM318.92 69.207C319.275 69.6979 319.732 70.0957 320.291 70.4004C320.849 70.6882 321.535 70.832 322.347 70.832C323.177 70.832 323.93 70.6374 324.607 70.248C325.284 69.8418 325.902 69.3171 326.461 68.6738C327.019 68.0306 327.519 67.3112 327.959 66.5156C328.399 65.7201 328.797 64.9245 329.152 64.1289C329.237 63.9427 329.355 63.8073 329.508 63.7227C329.66 63.6211 329.829 63.5703 330.015 63.5703C330.303 63.5703 330.532 63.6719 330.701 63.875C330.887 64.0781 330.98 64.2982 330.98 64.5352C330.98 64.6198 330.972 64.696 330.955 64.7637C330.938 64.8145 330.913 64.8737 330.879 64.9414C329.711 67.5143 328.433 69.4525 327.045 70.7559C325.674 72.0592 324.116 72.7279 322.373 72.7617C321.256 72.7617 320.291 72.5417 319.478 72.1016C318.666 71.6784 317.997 71.1283 317.472 70.4512C316.948 69.7572 316.558 68.9785 316.304 68.1152C316.051 67.252 315.924 66.3887 315.924 65.5254C315.924 64.6621 316.025 63.8665 316.228 63.1387C316.448 62.4108 316.753 61.776 317.142 61.2344C317.549 60.6927 318.023 60.2695 318.564 59.9648C319.123 59.6602 319.732 59.5078 320.392 59.5078C320.782 59.5078 321.163 59.5924 321.535 59.7617C321.924 59.9141 322.271 60.1426 322.576 60.4473C322.881 60.735 323.126 61.0905 323.312 61.5137C323.498 61.9368 323.592 62.4193 323.592 62.9609C323.592 63.6549 323.473 64.3066 323.236 64.916C322.999 65.5254 322.669 66.0924 322.246 66.6172C321.84 67.1419 321.349 67.6243 320.773 68.0645C320.198 68.5046 319.58 68.8854 318.92 69.207ZM318.158 67.5566C318.683 67.3366 319.157 67.0573 319.58 66.7188C320.02 66.3802 320.392 66.0078 320.697 65.6016C321.002 65.1953 321.239 64.7721 321.408 64.332C321.577 63.875 321.662 63.418 321.662 62.9609C321.662 62.4531 321.535 62.0723 321.281 61.8184C321.027 61.5475 320.731 61.4121 320.392 61.4121C319.935 61.4121 319.546 61.5391 319.224 61.793C318.903 62.0469 318.64 62.377 318.437 62.7832C318.234 63.1895 318.082 63.6465 317.98 64.1543C317.896 64.6452 317.853 65.1361 317.853 65.627C317.853 65.9316 317.879 66.2533 317.929 66.5918C317.997 66.9303 318.073 67.252 318.158 67.5566ZM331.844 61.5645C331.776 62.0215 331.691 62.4531 331.59 62.8594C331.488 63.2487 331.386 63.5957 331.285 63.9004C331.2 64.1882 331.124 64.4251 331.056 64.6113C330.989 64.7975 330.946 64.8991 330.929 64.916C330.76 65.3053 330.464 65.5 330.041 65.5C329.804 65.5 329.584 65.4154 329.381 65.2461C329.177 65.0599 329.076 64.8314 329.076 64.5605C329.076 64.459 329.093 64.3828 329.127 64.332C329.161 64.2812 329.211 64.1797 329.279 64.0273C329.347 63.875 329.431 63.6211 329.533 63.2656C329.635 62.9102 329.761 62.36 329.914 61.6152C329.626 61.6152 329.33 61.6068 329.025 61.5898C328.72 61.5729 328.441 61.5137 328.187 61.4121C327.916 61.3105 327.696 61.1497 327.527 60.9297C327.358 60.7096 327.273 60.4049 327.273 60.0156C327.273 59.7279 327.358 59.3385 327.527 58.8477C327.679 58.3568 327.891 57.8743 328.162 57.4004C328.433 56.9264 328.737 56.5202 329.076 56.1816C329.414 55.8262 329.753 55.6484 330.092 55.6484C330.481 55.6484 330.794 55.7923 331.031 56.0801C331.285 56.3678 331.48 56.7233 331.615 57.1465C331.75 57.5527 331.844 57.9844 331.894 58.4414C331.962 58.8984 331.996 59.2962 331.996 59.6348C332.284 59.6348 332.563 59.6348 332.834 59.6348C333.122 59.6178 333.392 59.6094 333.646 59.6094C334.611 59.6094 335.347 59.821 335.855 60.2441C336.363 60.6673 336.617 61.3613 336.617 62.3262C336.617 62.7155 336.592 63.1217 336.541 63.5449C336.49 63.9681 336.431 64.4082 336.363 64.8652C336.295 65.3053 336.236 65.7454 336.185 66.1855C336.135 66.6257 336.109 67.0573 336.109 67.4805C336.109 68.0898 336.194 68.5977 336.363 69.0039C336.532 69.3932 336.744 69.7064 336.998 69.9434C337.252 70.1803 337.523 70.3496 337.81 70.4512C338.098 70.5358 338.36 70.5781 338.597 70.5781C339.325 70.5781 340.011 70.3411 340.654 69.8672C341.297 69.3932 341.89 68.8262 342.431 68.166C342.973 67.4889 343.455 66.778 343.879 66.0332C344.319 65.2884 344.683 64.6367 344.97 64.0781C345.055 63.9258 345.174 63.8073 345.326 63.7227C345.478 63.638 345.639 63.5957 345.808 63.5957C346.113 63.5957 346.35 63.6973 346.519 63.9004C346.689 64.0866 346.773 64.2982 346.773 64.5352C346.773 64.7044 346.739 64.8568 346.672 64.9922C346.282 65.6862 345.825 66.4733 345.301 67.3535C344.793 68.2168 344.209 69.0293 343.549 69.791C342.888 70.5527 342.144 71.196 341.314 71.7207C340.502 72.2454 339.605 72.5078 338.623 72.5078C338.013 72.5078 337.438 72.3893 336.896 72.1523C336.355 71.9323 335.881 71.6107 335.474 71.1875C335.085 70.7474 334.772 70.2142 334.535 69.5879C334.298 68.9447 334.179 68.2253 334.179 67.4297C334.179 66.5833 334.264 65.7454 334.433 64.916C334.603 64.0697 334.687 63.2656 334.687 62.5039C334.687 62.1823 334.611 61.9453 334.459 61.793C334.323 61.6237 334.01 61.5391 333.519 61.5391C333.282 61.5391 333.02 61.5391 332.732 61.5391C332.461 61.5391 332.165 61.5475 331.844 61.5645ZM330.142 59.6855C330.142 59.5671 330.134 59.4147 330.117 59.2285C330.117 59.0254 330.1 58.8307 330.066 58.6445C330.049 58.4583 330.015 58.2975 329.965 58.1621C329.931 58.0267 329.888 57.959 329.838 57.959C329.787 57.959 329.719 58.0267 329.635 58.1621C329.567 58.2806 329.491 58.4329 329.406 58.6191C329.321 58.7884 329.245 58.9746 329.177 59.1777C329.11 59.3809 329.059 59.5501 329.025 59.6855H330.142Z" fill="#EEEEEE"/>
</svg>
