<svg width="306" height="98" viewBox="0 0 306 98" fill="none" xmlns="http://www.w3.org/2000/svg">
<rect width="274" height="67" fill="#022F45"/>
<rect x="26" y="28" width="280" height="64" fill="#FF6F61"/>
<path d="M71.5977 44.584C71.5977 44.8548 71.5046 45.0749 71.3184 45.2441C71.1322 45.3965 70.9036 45.4727 70.6328 45.4727H57.7598V45.752C57.7598 46.7845 57.6836 47.8848 57.5312 49.0527C57.3789 50.2207 57.1673 51.3887 56.8965 52.5566C56.6426 53.7077 56.3464 54.8333 56.0078 55.9336C55.6862 57.0339 55.3477 58.0495 54.9922 58.9805C54.6536 59.9115 54.3151 60.724 53.9766 61.418C53.638 62.0951 53.3333 62.6029 53.0625 62.9414C53.2826 63.7201 53.5449 64.4479 53.8496 65.125C54.1543 65.7852 54.4928 66.3691 54.8652 66.877C55.2546 67.3678 55.6693 67.7572 56.1094 68.0449C56.5495 68.3327 57.0234 68.4766 57.5312 68.4766C58.1237 68.4766 58.7077 68.2311 59.2832 67.7402C59.8757 67.2324 60.4173 66.64 60.9082 65.9629C61.416 65.2689 61.8561 64.5749 62.2285 63.8809C62.6178 63.1699 62.8971 62.6029 63.0664 62.1797C63.2357 61.7734 63.5319 61.5703 63.9551 61.5703C64.2428 61.5703 64.4714 61.6719 64.6406 61.875C64.8268 62.0781 64.9199 62.2982 64.9199 62.5352C64.9199 62.6536 64.8945 62.7721 64.8438 62.8906C64.793 63.0091 64.666 63.2799 64.4629 63.7031C64.2767 64.1263 64.0228 64.6172 63.7012 65.1758C63.3965 65.7344 63.0326 66.3268 62.6094 66.9531C62.2031 67.5625 61.7376 68.1211 61.2129 68.6289C60.7051 69.1367 60.1549 69.5599 59.5625 69.8984C58.9701 70.237 58.3438 70.4062 57.6836 70.4062C56.5156 70.4062 55.4661 70.0254 54.5352 69.2637C53.6042 68.502 52.8086 67.4355 52.1484 66.0645C51.5052 64.6934 51.0143 63.0684 50.6758 61.1895C50.3372 59.3105 50.168 57.2539 50.168 55.0195C50.168 54.4609 50.1764 53.8092 50.1934 53.0645C50.2103 52.3027 50.2441 51.5072 50.2949 50.6777C50.3457 49.8314 50.4219 48.9681 50.5234 48.0879C50.625 47.1908 50.7604 46.319 50.9297 45.4727H41.8145C41.5436 45.4727 41.3151 45.3965 41.1289 45.2441C40.9427 45.0749 40.8496 44.8548 40.8496 44.584C40.8496 44.3132 40.9427 44.1016 41.1289 43.9492C41.3151 43.7799 41.5436 43.6953 41.8145 43.6953H51.3613C51.5306 43.0859 51.7253 42.5273 51.9453 42.0195C52.1823 41.5117 52.4447 41.0716 52.7324 40.6992C53.0371 40.3268 53.3672 40.0391 53.7227 39.8359C54.0951 39.6159 54.5013 39.5059 54.9414 39.5059C55.3646 39.5059 55.7285 39.6159 56.0332 39.8359C56.3548 40.0391 56.6257 40.3268 56.8457 40.6992C57.0658 41.0716 57.235 41.5117 57.3535 42.0195C57.4889 42.5273 57.5905 43.0859 57.6582 43.6953H70.6328C70.9036 43.6953 71.1322 43.7799 71.3184 43.9492C71.5046 44.1016 71.5977 44.3132 71.5977 44.584ZM52.4785 60.4023C52.9863 59.2852 53.4434 58.0833 53.8496 56.7969C54.2728 55.4935 54.6283 54.1816 54.916 52.8613C55.2207 51.541 55.4492 50.2461 55.6016 48.9766C55.7708 47.707 55.8555 46.5391 55.8555 45.4727H52.8594C52.6224 46.5221 52.4277 47.8255 52.2754 49.3828C52.14 50.9232 52.0723 52.8021 52.0723 55.0195C52.0723 56.2552 52.1061 57.2962 52.1738 58.1426C52.2415 58.972 52.3431 59.7253 52.4785 60.4023ZM54.8398 41.4102C54.6875 41.4102 54.4674 41.5794 54.1797 41.918C53.8919 42.2396 53.6042 42.832 53.3164 43.6953H55.7539C55.6693 42.9844 55.5423 42.4258 55.373 42.0195C55.2207 41.6133 55.043 41.4102 54.8398 41.4102ZM52.8848 62.2305V62.2559V62.2305ZM66.2148 67.207C66.5703 67.6979 67.0273 68.0957 67.5859 68.4004C68.1445 68.6882 68.8301 68.832 69.6426 68.832C70.472 68.832 71.2253 68.6374 71.9023 68.248C72.5794 67.8418 73.1973 67.3171 73.7559 66.6738C74.3145 66.0306 74.8138 65.3112 75.2539 64.5156C75.694 63.7201 76.0918 62.9245 76.4473 62.1289C76.5319 61.9427 76.6504 61.8073 76.8027 61.7227C76.9551 61.6211 77.1243 61.5703 77.3105 61.5703C77.5983 61.5703 77.8268 61.6719 77.9961 61.875C78.1823 62.0781 78.2754 62.2982 78.2754 62.5352C78.2754 62.6198 78.2669 62.696 78.25 62.7637C78.2331 62.8145 78.2077 62.8737 78.1738 62.9414C77.0059 65.5143 75.7279 67.4525 74.3398 68.7559C72.9688 70.0592 71.4115 70.7279 69.668 70.7617C68.5508 70.7617 67.5859 70.5417 66.7734 70.1016C65.9609 69.6784 65.2923 69.1283 64.7676 68.4512C64.2428 67.7572 63.8535 66.9785 63.5996 66.1152C63.3457 65.252 63.2188 64.3887 63.2188 63.5254C63.2188 62.6621 63.3203 61.8665 63.5234 61.1387C63.7435 60.4108 64.0482 59.776 64.4375 59.2344C64.8438 58.6927 65.3177 58.2695 65.8594 57.9648C66.418 57.6602 67.0273 57.5078 67.6875 57.5078C68.0768 57.5078 68.4577 57.5924 68.8301 57.7617C69.2194 57.9141 69.5664 58.1426 69.8711 58.4473C70.1758 58.735 70.4212 59.0905 70.6074 59.5137C70.7936 59.9368 70.8867 60.4193 70.8867 60.9609C70.8867 61.6549 70.7682 62.3066 70.5312 62.916C70.2943 63.5254 69.9642 64.0924 69.541 64.6172C69.1348 65.1419 68.6439 65.6243 68.0684 66.0645C67.4928 66.5046 66.875 66.8854 66.2148 67.207ZM65.4531 65.5566C65.9779 65.3366 66.4518 65.0573 66.875 64.7188C67.3151 64.3802 67.6875 64.0078 67.9922 63.6016C68.2969 63.1953 68.5339 62.7721 68.7031 62.332C68.8724 61.875 68.957 61.418 68.957 60.9609C68.957 60.4531 68.8301 60.0723 68.5762 59.8184C68.3223 59.5475 68.026 59.4121 67.6875 59.4121C67.2305 59.4121 66.8411 59.5391 66.5195 59.793C66.1979 60.0469 65.9355 60.377 65.7324 60.7832C65.5293 61.1895 65.377 61.6465 65.2754 62.1543C65.1908 62.6452 65.1484 63.1361 65.1484 63.627C65.1484 63.9316 65.1738 64.2533 65.2246 64.5918C65.2923 64.9303 65.3685 65.252 65.4531 65.5566ZM93.0781 62.9668C92.9766 63.153 92.7988 63.4915 92.5449 63.9824C92.3079 64.4733 91.9779 65.0319 91.5547 65.6582C91.1484 66.2676 90.6576 66.9023 90.082 67.5625C89.5065 68.2227 88.8464 68.832 88.1016 69.3906C87.3568 69.9323 86.5189 70.3809 85.5879 70.7363C84.6738 71.0918 83.6751 71.2695 82.5918 71.2695C81.627 71.2695 80.7721 71.0918 80.0273 70.7363C79.2826 70.3978 78.6478 69.9154 78.123 69.2891C77.5983 68.6458 77.2005 67.8926 76.9297 67.0293C76.6589 66.166 76.5234 65.2096 76.5234 64.1602C76.5234 63.1445 76.6673 62.1966 76.9551 61.3164C77.2428 60.4193 77.6322 59.6406 78.123 58.9805C78.6309 58.3203 79.2148 57.804 79.875 57.4316C80.5352 57.0423 81.2376 56.8477 81.9824 56.8477C82.541 56.8477 83.0488 56.9492 83.5059 57.1523C83.9629 57.3385 84.3438 57.5924 84.6484 57.9141C84.9701 58.2357 85.2155 58.5911 85.3848 58.9805C85.571 59.3698 85.6641 59.7591 85.6641 60.1484C85.6641 60.5208 85.6133 60.8678 85.5117 61.1895C85.4271 61.5111 85.3086 61.7988 85.1562 62.0527C85.0208 62.2897 84.86 62.4844 84.6738 62.6367C84.4876 62.7721 84.3014 62.8398 84.1152 62.8398C83.8275 62.8398 83.5905 62.7467 83.4043 62.5605C83.235 62.3743 83.1504 62.1458 83.1504 61.875C83.1504 61.7396 83.1758 61.6211 83.2266 61.5195C83.2943 61.418 83.362 61.3164 83.4297 61.2148C83.5143 61.0964 83.582 60.9609 83.6328 60.8086C83.7005 60.6393 83.7344 60.4277 83.7344 60.1738C83.7344 59.8184 83.5651 59.4967 83.2266 59.209C82.9049 58.9212 82.4902 58.7773 81.9824 58.7773C81.5085 58.7773 81.0514 58.9212 80.6113 59.209C80.1882 59.4967 79.8158 59.8861 79.4941 60.377C79.1725 60.8509 78.9102 61.418 78.707 62.0781C78.5208 62.7214 78.4277 63.4069 78.4277 64.1348C78.4277 64.8288 78.5124 65.4889 78.6816 66.1152C78.8509 66.7415 79.1048 67.3001 79.4434 67.791C79.7819 68.265 80.2051 68.6458 80.7129 68.9336C81.2376 69.2214 81.8555 69.3652 82.5664 69.3652C83.4805 69.3652 84.3268 69.2044 85.1055 68.8828C85.8841 68.5443 86.5951 68.1211 87.2383 67.6133C87.8815 67.1055 88.4486 66.5553 88.9395 65.9629C89.4303 65.3535 89.8451 64.7865 90.1836 64.2617C90.5391 63.7201 90.8099 63.2546 90.9961 62.8652C91.1992 62.459 91.3177 62.2051 91.3516 62.1035C91.4193 61.9342 91.5293 61.8073 91.6816 61.7227C91.8509 61.6211 92.0286 61.5703 92.2148 61.5703C92.5026 61.5703 92.7311 61.6719 92.9004 61.875C93.0866 62.0781 93.1797 62.3066 93.1797 62.5605C93.1797 62.6621 93.1458 62.7975 93.0781 62.9668ZM93.3574 67.8418C93.6283 67.2663 93.9414 66.6484 94.2969 65.9883C94.6523 65.3112 95.0332 64.6257 95.4395 63.9316C95.8457 63.2207 96.2773 62.5182 96.7344 61.8242C97.1914 61.1302 97.6654 60.4785 98.1562 59.8691C98.6471 59.2767 99.138 58.8535 99.6289 58.5996C100.137 58.3288 100.611 58.1934 101.051 58.1934C101.491 58.1934 101.872 58.2865 102.193 58.4727C102.532 58.6419 102.803 58.8789 103.006 59.1836C103.226 59.4883 103.387 59.8438 103.488 60.25C103.607 60.6562 103.666 61.0964 103.666 61.5703C103.666 61.9596 103.624 62.4844 103.539 63.1445C103.471 63.7878 103.438 64.4648 103.438 65.1758C103.438 65.582 103.454 65.9883 103.488 66.3945C103.539 66.7839 103.615 67.1393 103.717 67.4609C103.835 67.7656 104.005 68.0195 104.225 68.2227C104.445 68.4089 104.732 68.502 105.088 68.502C105.494 68.502 105.9 68.3919 106.307 68.1719C106.713 67.9349 107.111 67.6302 107.5 67.2578C107.889 66.8685 108.262 66.4453 108.617 65.9883C108.973 65.5143 109.294 65.0488 109.582 64.5918C109.87 64.1178 110.124 63.6693 110.344 63.2461C110.564 62.806 110.742 62.4421 110.877 62.1543C111.046 61.765 111.342 61.5703 111.766 61.5703C112.053 61.5703 112.282 61.6719 112.451 61.875C112.62 62.0781 112.705 62.2982 112.705 62.5352C112.705 62.6706 112.68 62.7975 112.629 62.916C112.561 63.0514 112.426 63.3307 112.223 63.7539C112.036 64.1771 111.774 64.668 111.436 65.2266C111.114 65.7852 110.733 66.3691 110.293 66.9785C109.853 67.5879 109.362 68.1549 108.82 68.6797C108.296 69.1875 107.72 69.6107 107.094 69.9492C106.484 70.2708 105.841 70.4316 105.164 70.4316C104.385 70.4316 103.759 70.2708 103.285 69.9492C102.811 69.6107 102.439 69.1875 102.168 68.6797C101.914 68.1719 101.736 67.6048 101.635 66.9785C101.55 66.3522 101.508 65.7428 101.508 65.1504C101.508 64.8457 101.516 64.5241 101.533 64.1855C101.567 63.8301 101.601 63.4831 101.635 63.1445C101.669 62.806 101.694 62.4928 101.711 62.2051C101.745 61.9004 101.762 61.6465 101.762 61.4434C101.762 60.9186 101.686 60.5632 101.533 60.377C101.398 60.1908 101.237 60.0977 101.051 60.0977C100.78 60.0977 100.467 60.2585 100.111 60.5801C99.7728 60.8848 99.4089 61.291 99.0195 61.7988C98.6471 62.3066 98.2663 62.8822 97.877 63.5254C97.5046 64.1517 97.1406 64.778 96.7852 65.4043C96.4297 66.0306 96.1081 66.6315 95.8203 67.207C95.5326 67.7656 95.2956 68.2311 95.1094 68.6035C94.7539 69.3145 94.39 69.7884 94.0176 70.0254C93.6621 70.2793 93.3405 70.4062 93.0527 70.4062C92.528 70.4062 92.1217 70.2031 91.834 69.7969C91.5632 69.3737 91.4277 68.8659 91.4277 68.2734V66.6738C91.4277 63.4746 91.4277 60.4277 91.4277 57.5332C91.4447 54.6217 91.487 51.9219 91.5547 49.4336C91.6393 46.9284 91.7663 44.6686 91.9355 42.6543C92.1217 40.623 92.3926 38.8965 92.748 37.4746C93.1035 36.0358 93.5521 34.9271 94.0938 34.1484C94.6523 33.3698 95.3464 32.9805 96.1758 32.9805C96.8867 32.9805 97.4876 33.1751 97.9785 33.5645C98.4694 33.9538 98.8672 34.487 99.1719 35.1641C99.4766 35.8242 99.6966 36.6029 99.832 37.5C99.9674 38.3802 100.035 39.3112 100.035 40.293C100.035 42.2904 99.849 44.2539 99.4766 46.1836C99.1211 48.0964 98.6387 49.9668 98.0293 51.7949C97.4199 53.623 96.709 55.4089 95.8965 57.1523C95.084 58.8789 94.2292 60.5632 93.332 62.2051C93.332 62.5098 93.332 62.8737 93.332 63.2969C93.332 63.7201 93.332 64.1432 93.332 64.5664C93.332 64.9896 93.332 65.3874 93.332 65.7598C93.332 66.1322 93.332 66.4284 93.332 66.6484L93.3574 67.8418ZM93.3574 58.4727C94.0684 56.9154 94.7116 55.4004 95.2871 53.9277C95.8796 52.4382 96.3789 50.957 96.7852 49.4844C97.2083 48.0117 97.5384 46.5221 97.7754 45.0156C98.0124 43.4922 98.1309 41.9095 98.1309 40.2676C98.1309 39.9967 98.1139 39.5651 98.0801 38.9727C98.0632 38.3802 97.987 37.7793 97.8516 37.1699C97.7331 36.5605 97.5384 36.0273 97.2676 35.5703C97.0137 35.1133 96.6497 34.8848 96.1758 34.8848C95.8034 34.8848 95.4818 35.1387 95.2109 35.6465C94.9401 36.1374 94.7031 36.8145 94.5 37.6777C94.2969 38.5241 94.1276 39.5143 93.9922 40.6484C93.8568 41.7826 93.7467 42.9844 93.6621 44.2539C93.5775 45.5234 93.5098 46.8268 93.459 48.1641C93.4251 49.5013 93.3997 50.8047 93.3828 52.0742C93.3659 53.3268 93.3574 54.5033 93.3574 55.6035C93.3574 56.7038 93.3574 57.6602 93.3574 58.4727ZM116.539 67.7148C116.81 67.1562 117.123 66.5469 117.479 65.8867C117.834 65.2096 118.215 64.5326 118.621 63.8555C119.027 63.1615 119.451 62.4759 119.891 61.7988C120.348 61.1217 120.822 60.4785 121.312 59.8691C121.803 59.2767 122.294 58.8535 122.785 58.5996C123.293 58.3288 123.767 58.1934 124.207 58.1934C125.087 58.1934 125.739 58.515 126.162 59.1582C126.585 59.8014 126.797 60.597 126.797 61.5449C126.797 61.765 126.78 62.0358 126.746 62.3574C126.729 62.6621 126.704 62.9922 126.67 63.3477C126.653 63.7031 126.628 64.0671 126.594 64.4395C126.577 64.7949 126.568 65.1335 126.568 65.4551C126.568 65.8613 126.585 66.2507 126.619 66.623C126.67 66.9954 126.755 67.3255 126.873 67.6133C126.992 67.8841 127.161 68.1042 127.381 68.2734C127.601 68.4258 127.889 68.502 128.244 68.502C128.887 68.502 129.514 68.2565 130.123 67.7656C130.732 67.2578 131.291 66.6654 131.799 65.9883C132.324 65.2943 132.772 64.5918 133.145 63.8809C133.534 63.1699 133.822 62.5944 134.008 62.1543C134.092 61.9681 134.211 61.8242 134.363 61.7227C134.533 61.6211 134.71 61.5703 134.896 61.5703C135.184 61.5703 135.413 61.6803 135.582 61.9004C135.768 62.1035 135.861 62.3236 135.861 62.5605C135.861 62.679 135.836 62.7975 135.785 62.916C135.717 63.0514 135.582 63.3307 135.379 63.7539C135.176 64.1771 134.905 64.668 134.566 65.2266C134.245 65.7682 133.864 66.3522 133.424 66.9785C132.984 67.5879 132.493 68.1465 131.951 68.6543C131.426 69.1621 130.851 69.5853 130.225 69.9238C129.615 70.2624 128.972 70.4316 128.295 70.4316C127.533 70.4316 126.915 70.2878 126.441 70C125.967 69.6953 125.595 69.306 125.324 68.832C125.053 68.3411 124.867 67.8079 124.766 67.2324C124.681 66.64 124.639 66.0475 124.639 65.4551C124.639 65.2012 124.647 64.9134 124.664 64.5918C124.698 64.2702 124.732 63.9316 124.766 63.5762C124.816 63.2207 124.85 62.8652 124.867 62.5098C124.901 62.1543 124.918 61.8158 124.918 61.4941C124.918 60.9525 124.833 60.5885 124.664 60.4023C124.495 60.1992 124.342 60.0977 124.207 60.0977C123.936 60.0977 123.623 60.2585 123.268 60.5801C122.929 60.8848 122.565 61.291 122.176 61.7988C121.803 62.3066 121.414 62.8822 121.008 63.5254C120.618 64.1517 120.246 64.778 119.891 65.4043C119.552 66.0306 119.23 66.6315 118.926 67.207C118.638 67.7656 118.41 68.2311 118.24 68.6035C117.902 69.3145 117.563 69.7884 117.225 70.0254C116.886 70.2793 116.539 70.4062 116.184 70.4062C115.693 70.4062 115.295 70.2624 114.99 69.9746C114.702 69.6699 114.559 69.2467 114.559 68.7051C114.559 68.5866 114.576 68.3581 114.609 68.0195C114.643 67.6641 114.686 67.2493 114.736 66.7754C114.787 66.2845 114.838 65.7598 114.889 65.2012C114.939 64.6426 114.99 64.0924 115.041 63.5508C115.092 62.9922 115.134 62.4759 115.168 62.002C115.202 61.528 115.219 61.1302 115.219 60.8086C115.219 60.3854 115.202 59.9792 115.168 59.5898C115.134 59.2005 115.066 58.9635 114.965 58.8789C114.812 58.9297 114.542 59.2513 114.152 59.8438C113.763 60.4193 113.264 61.4434 112.654 62.916C112.57 63.1022 112.443 63.2461 112.273 63.3477C112.104 63.4492 111.926 63.5 111.74 63.5C111.452 63.5 111.224 63.4069 111.055 63.2207C110.885 63.0176 110.801 62.7891 110.801 62.5352C110.801 62.4167 110.826 62.2897 110.877 62.1543C111.639 60.3431 112.35 59.0143 113.01 58.168C113.687 57.3047 114.355 56.873 115.016 56.873C115.405 56.873 115.735 56.9746 116.006 57.1777C116.277 57.3639 116.488 57.6178 116.641 57.9395C116.81 58.2611 116.928 58.6165 116.996 59.0059C117.081 59.3952 117.123 59.793 117.123 60.1992C117.123 60.5039 117.098 60.9779 117.047 61.6211C117.013 62.2643 116.962 62.9583 116.895 63.7031C116.827 64.431 116.759 65.1589 116.691 65.8867C116.641 66.6146 116.59 67.224 116.539 67.7148ZM138.197 50.0684C138.197 50.7116 137.969 51.2617 137.512 51.7188C137.072 52.1589 136.53 52.3789 135.887 52.3789C135.243 52.3789 134.693 52.1589 134.236 51.7188C133.796 51.2617 133.576 50.7116 133.576 50.0684C133.576 49.7467 133.635 49.4505 133.754 49.1797C133.872 48.8919 134.033 48.6465 134.236 48.4434C134.456 48.2233 134.702 48.054 134.973 47.9355C135.26 47.8171 135.565 47.7578 135.887 47.7578C136.208 47.7578 136.505 47.8171 136.775 47.9355C137.063 48.054 137.309 48.2233 137.512 48.4434C137.732 48.6465 137.901 48.8919 138.02 49.1797C138.138 49.4505 138.197 49.7467 138.197 50.0684ZM134.084 64.9473C134.084 62.5098 134.236 60.0807 134.541 57.6602C134.575 57.4232 134.676 57.2201 134.846 57.0508C135.032 56.8646 135.269 56.7715 135.557 56.7715C135.811 56.7715 136.022 56.873 136.191 57.0762C136.361 57.2624 136.445 57.4824 136.445 57.7363C136.445 57.8379 136.42 58.1426 136.369 58.6504C136.335 59.1582 136.285 59.7676 136.217 60.4785C136.166 61.1725 136.115 61.9173 136.064 62.7129C136.031 63.4915 136.014 64.2109 136.014 64.8711C136.014 65.7682 136.098 66.4961 136.268 67.0547C136.454 67.5964 136.682 68.0195 136.953 68.3242C137.241 68.6289 137.537 68.832 137.842 68.9336C138.163 69.0352 138.468 69.0859 138.756 69.0859C139.23 69.0859 139.721 68.9167 140.229 68.5781C140.736 68.2396 141.253 67.7656 141.777 67.1562C142.319 66.5469 142.861 65.819 143.402 64.9727C143.944 64.1094 144.477 63.153 145.002 62.1035C145.087 61.9342 145.205 61.8073 145.357 61.7227C145.51 61.6211 145.679 61.5703 145.865 61.5703C146.136 61.5703 146.356 61.6719 146.525 61.875C146.712 62.0781 146.805 62.2982 146.805 62.5352C146.805 62.7044 146.771 62.8483 146.703 62.9668C146.5 63.3561 146.246 63.8301 145.941 64.3887C145.637 64.9473 145.29 65.5228 144.9 66.1152C144.511 66.7077 144.079 67.3001 143.605 67.8926C143.148 68.4681 142.658 68.9928 142.133 69.4668C141.608 69.9238 141.058 70.2962 140.482 70.584C139.907 70.8717 139.323 71.0156 138.73 71.0156C137.969 71.0156 137.3 70.8548 136.725 70.5332C136.149 70.2116 135.658 69.7799 135.252 69.2383C134.863 68.6966 134.566 68.0618 134.363 67.334C134.177 66.5892 134.084 65.7936 134.084 64.9473ZM136.775 50.0684C136.775 49.8314 136.682 49.6283 136.496 49.459C136.327 49.2728 136.124 49.1797 135.887 49.1797C135.65 49.1797 135.447 49.2728 135.277 49.459C135.108 49.6283 135.023 49.8314 135.023 50.0684C135.023 50.3053 135.108 50.5085 135.277 50.6777C135.447 50.847 135.65 50.9316 135.887 50.9316C136.124 50.9316 136.327 50.847 136.496 50.6777C136.682 50.5085 136.775 50.3053 136.775 50.0684ZM161.582 62.9668C161.48 63.153 161.303 63.4915 161.049 63.9824C160.812 64.4733 160.482 65.0319 160.059 65.6582C159.652 66.2676 159.161 66.9023 158.586 67.5625C158.01 68.2227 157.35 68.832 156.605 69.3906C155.861 69.9323 155.023 70.3809 154.092 70.7363C153.178 71.0918 152.179 71.2695 151.096 71.2695C150.131 71.2695 149.276 71.0918 148.531 70.7363C147.786 70.3978 147.152 69.9154 146.627 69.2891C146.102 68.6458 145.704 67.8926 145.434 67.0293C145.163 66.166 145.027 65.2096 145.027 64.1602C145.027 63.1445 145.171 62.1966 145.459 61.3164C145.747 60.4193 146.136 59.6406 146.627 58.9805C147.135 58.3203 147.719 57.804 148.379 57.4316C149.039 57.0423 149.742 56.8477 150.486 56.8477C151.045 56.8477 151.553 56.9492 152.01 57.1523C152.467 57.3385 152.848 57.5924 153.152 57.9141C153.474 58.2357 153.719 58.5911 153.889 58.9805C154.075 59.3698 154.168 59.7591 154.168 60.1484C154.168 60.5208 154.117 60.8678 154.016 61.1895C153.931 61.5111 153.812 61.7988 153.66 62.0527C153.525 62.2897 153.364 62.4844 153.178 62.6367C152.992 62.7721 152.805 62.8398 152.619 62.8398C152.331 62.8398 152.094 62.7467 151.908 62.5605C151.739 62.3743 151.654 62.1458 151.654 61.875C151.654 61.7396 151.68 61.6211 151.73 61.5195C151.798 61.418 151.866 61.3164 151.934 61.2148C152.018 61.0964 152.086 60.9609 152.137 60.8086C152.204 60.6393 152.238 60.4277 152.238 60.1738C152.238 59.8184 152.069 59.4967 151.73 59.209C151.409 58.9212 150.994 58.7773 150.486 58.7773C150.012 58.7773 149.555 58.9212 149.115 59.209C148.692 59.4967 148.32 59.8861 147.998 60.377C147.676 60.8509 147.414 61.418 147.211 62.0781C147.025 62.7214 146.932 63.4069 146.932 64.1348C146.932 64.8288 147.016 65.4889 147.186 66.1152C147.355 66.7415 147.609 67.3001 147.947 67.791C148.286 68.265 148.709 68.6458 149.217 68.9336C149.742 69.2214 150.359 69.3652 151.07 69.3652C151.984 69.3652 152.831 69.2044 153.609 68.8828C154.388 68.5443 155.099 68.1211 155.742 67.6133C156.385 67.1055 156.952 66.5553 157.443 65.9629C157.934 65.3535 158.349 64.7865 158.688 64.2617C159.043 63.7201 159.314 63.2546 159.5 62.8652C159.703 62.459 159.822 62.2051 159.855 62.1035C159.923 61.9342 160.033 61.8073 160.186 61.7227C160.355 61.6211 160.533 61.5703 160.719 61.5703C161.007 61.5703 161.235 61.6719 161.404 61.875C161.59 62.0781 161.684 62.3066 161.684 62.5605C161.684 62.6621 161.65 62.7975 161.582 62.9668ZM179.482 62.916C179.415 63.0514 179.271 63.3392 179.051 63.7793C178.848 64.2025 178.577 64.6934 178.238 65.252C177.917 65.8105 177.536 66.3945 177.096 67.0039C176.656 67.6133 176.165 68.1719 175.623 68.6797C175.081 69.1875 174.497 69.6107 173.871 69.9492C173.245 70.2708 172.585 70.4316 171.891 70.4316C170.909 70.4316 170.079 70.1185 169.402 69.4922C168.742 68.8659 168.26 68.0788 167.955 67.1309C167.38 68.0957 166.694 68.8659 165.898 69.4414C165.103 70 164.307 70.2793 163.512 70.2793C162.885 70.2793 162.318 70.1693 161.811 69.9492C161.303 69.7122 160.871 69.3906 160.516 68.9844C160.16 68.5612 159.881 68.0703 159.678 67.5117C159.492 66.9531 159.398 66.3438 159.398 65.6836C159.398 64.3633 159.618 63.2038 160.059 62.2051C160.516 61.1895 161.091 60.3431 161.785 59.666C162.479 58.9889 163.241 58.4811 164.07 58.1426C164.917 57.804 165.729 57.6348 166.508 57.6348C167.033 57.6348 167.515 57.7109 167.955 57.8633C168.395 57.9987 168.768 58.151 169.072 58.3203C169.394 58.4896 169.639 58.6504 169.809 58.8027C169.978 58.9382 170.071 59.0143 170.088 59.0312C170.274 59.2513 170.367 59.4798 170.367 59.7168C170.367 59.9707 170.274 60.1992 170.088 60.4023C169.902 60.5885 169.682 60.6816 169.428 60.6816C169.157 60.6816 168.928 60.5885 168.742 60.4023C168.708 60.3685 168.632 60.3092 168.514 60.2246C168.395 60.123 168.234 60.0215 168.031 59.9199C167.828 59.8184 167.583 59.7337 167.295 59.666C167.024 59.5814 166.711 59.5391 166.355 59.5391C165.831 59.5391 165.272 59.6576 164.68 59.8945C164.087 60.1315 163.546 60.5039 163.055 61.0117C162.564 61.5026 162.149 62.1289 161.811 62.8906C161.489 63.6354 161.328 64.5241 161.328 65.5566C161.328 65.8783 161.362 66.2083 161.43 66.5469C161.497 66.8685 161.616 67.1647 161.785 67.4355C161.954 67.7064 162.183 67.9264 162.471 68.0957C162.758 68.265 163.114 68.3496 163.537 68.3496C163.842 68.3496 164.189 68.248 164.578 68.0449C164.984 67.8418 165.365 67.5286 165.721 67.1055C166.093 66.6823 166.423 66.1491 166.711 65.5059C167.016 64.8626 167.227 64.1009 167.346 63.2207C167.38 62.9837 167.49 62.7891 167.676 62.6367C167.862 62.4674 168.082 62.3828 168.336 62.3828C168.573 62.3828 168.776 62.4759 168.945 62.6621C169.132 62.8483 169.233 63.0599 169.25 63.2969C169.267 63.6185 169.301 64.0755 169.352 64.668C169.402 65.2435 169.512 65.819 169.682 66.3945C169.868 66.9701 170.139 67.4694 170.494 67.8926C170.85 68.3158 171.34 68.5273 171.967 68.5273C172.373 68.5273 172.771 68.4173 173.16 68.1973C173.566 67.9772 173.956 67.6895 174.328 67.334C174.717 66.9616 175.081 66.5469 175.42 66.0898C175.775 65.6159 176.097 65.1419 176.385 64.668C176.673 64.194 176.926 63.737 177.146 63.2969C177.367 62.8568 177.553 62.4759 177.705 62.1543C177.79 61.9681 177.908 61.8242 178.061 61.7227C178.23 61.6211 178.408 61.5703 178.594 61.5703C178.882 61.5703 179.11 61.6803 179.279 61.9004C179.465 62.1035 179.559 62.3236 179.559 62.5605C179.559 62.679 179.533 62.7975 179.482 62.916ZM192.178 62.9668C191.992 63.3561 191.755 63.8216 191.467 64.3633C191.196 64.888 190.883 65.4382 190.527 66.0137C190.172 66.5892 189.774 67.1647 189.334 67.7402C188.894 68.2988 188.411 68.8066 187.887 69.2637C187.379 69.7038 186.829 70.0592 186.236 70.3301C185.661 70.6178 185.043 70.7617 184.383 70.7617C183.367 70.7617 182.495 70.4486 181.768 69.8223C181.04 69.196 180.422 68.375 179.914 67.3594C179.406 66.3438 178.992 65.1927 178.67 63.9062C178.365 62.6029 178.128 61.2826 177.959 59.9453C177.79 58.5911 177.671 57.2793 177.604 56.0098C177.553 54.7402 177.527 53.6146 177.527 52.6328C177.527 51.2109 177.57 49.7383 177.654 48.2148C177.756 46.6914 177.908 45.2018 178.111 43.7461C178.314 42.2904 178.568 40.9108 178.873 39.6074C179.195 38.304 179.567 37.1615 179.99 36.1797C180.43 35.1979 180.93 34.4193 181.488 33.8438C182.047 33.2682 182.682 32.9805 183.393 32.9805C183.951 32.9805 184.451 33.1159 184.891 33.3867C185.348 33.6406 185.729 34.0638 186.033 34.6562C186.338 35.2487 186.575 36.0189 186.744 36.9668C186.913 37.9147 186.998 39.0742 186.998 40.4453C186.998 42.138 186.82 43.89 186.465 45.7012C186.109 47.4954 185.627 49.3066 185.018 51.1348C184.408 52.9629 183.689 54.791 182.859 56.6191C182.03 58.4303 181.141 60.1992 180.193 61.9258C180.617 64.0755 181.184 65.7682 181.895 67.0039C182.605 68.2227 183.46 68.832 184.459 68.832C185.136 68.832 185.788 68.5697 186.414 68.0449C187.04 67.5033 187.616 66.8685 188.141 66.1406C188.665 65.4128 189.122 64.6764 189.512 63.9316C189.918 63.1699 190.231 62.5605 190.451 62.1035C190.536 61.9342 190.654 61.8073 190.807 61.7227C190.959 61.6211 191.128 61.5703 191.314 61.5703C191.602 61.5703 191.831 61.6719 192 61.875C192.186 62.0781 192.279 62.3066 192.279 62.5605C192.279 62.6621 192.245 62.7975 192.178 62.9668ZM179.457 52.7598C179.457 53.8431 179.482 54.8841 179.533 55.8828C179.584 56.8815 179.652 57.8379 179.736 58.752C180.447 57.3809 181.124 55.9251 181.768 54.3848C182.411 52.8275 182.978 51.2617 183.469 49.6875C183.96 48.0964 184.349 46.5221 184.637 44.9648C184.941 43.3906 185.094 41.8926 185.094 40.4707C185.094 38.4733 184.933 37.043 184.611 36.1797C184.29 35.3164 183.858 34.8848 183.316 34.8848C182.961 34.8848 182.614 35.1302 182.275 35.6211C181.954 36.112 181.649 36.7806 181.361 37.627C181.074 38.4733 180.811 39.472 180.574 40.623C180.337 41.7741 180.134 43.0098 179.965 44.3301C179.812 45.6504 179.686 47.0299 179.584 48.4688C179.499 49.9076 179.457 51.3379 179.457 52.7598ZM204.721 60.6055C204.619 60.8763 204.492 61.181 204.34 61.5195C204.204 61.8581 204.044 62.2135 203.857 62.5859C203.705 62.8737 203.544 63.1022 203.375 63.2715C203.223 63.4238 203.02 63.5 202.766 63.5C202.478 63.5 202.249 63.4154 202.08 63.2461C201.911 63.0599 201.826 62.8483 201.826 62.6113C201.826 62.5267 201.835 62.459 201.852 62.4082C201.868 62.3405 201.911 62.2389 201.979 62.1035C202.419 61.2572 202.74 60.5208 202.943 59.8945C203.163 59.2513 203.341 58.5827 203.477 57.8887C203.358 57.4993 203.273 57.1693 203.223 56.8984C203.172 56.6276 203.146 56.3483 203.146 56.0605C203.146 55.502 203.265 55.0534 203.502 54.7148C203.739 54.3594 204.069 54.1816 204.492 54.1816C204.882 54.1816 205.186 54.3509 205.406 54.6895C205.643 55.028 205.762 55.4427 205.762 55.9336C205.762 56.2044 205.736 56.4753 205.686 56.7461C205.635 57.0169 205.567 57.3555 205.482 57.7617C205.872 58.7266 206.261 59.5814 206.65 60.3262C207.04 61.071 207.387 61.7565 207.691 62.3828C207.996 62.9922 208.242 63.5677 208.428 64.1094C208.631 64.651 208.732 65.1927 208.732 65.7344C208.732 66.4453 208.589 67.1224 208.301 67.7656C208.013 68.4089 207.539 68.9505 206.879 69.3906C206.964 69.4076 207.048 69.416 207.133 69.416C207.217 69.416 207.302 69.416 207.387 69.416C208.352 69.416 209.24 69.196 210.053 68.7559C210.865 68.3158 211.593 67.7487 212.236 67.0547C212.896 66.3438 213.48 65.5651 213.988 64.7188C214.496 63.8555 214.936 63.0007 215.309 62.1543C215.478 61.765 215.715 61.5703 216.02 61.5703C216.307 61.5703 216.527 61.6719 216.68 61.875C216.849 62.0781 216.934 62.2982 216.934 62.5352C216.934 62.6706 216.908 62.7975 216.857 62.916C216.671 63.373 216.426 63.8978 216.121 64.4902C215.833 65.0658 215.478 65.6667 215.055 66.293C214.648 66.9023 214.174 67.5033 213.633 68.0957C213.091 68.6882 212.482 69.2214 211.805 69.6953C211.145 70.1523 210.417 70.5163 209.621 70.7871C208.826 71.0749 207.954 71.2188 207.006 71.2188C205.872 71.2188 204.814 71.0156 203.832 70.6094C202.867 70.2201 202.08 69.5684 201.471 68.6543C201.369 68.502 201.318 68.3411 201.318 68.1719C201.318 67.918 201.411 67.6979 201.598 67.5117C201.801 67.3086 202.029 67.207 202.283 67.207C202.554 67.207 202.783 67.3001 202.969 67.4863C202.986 67.5202 203.045 67.5794 203.146 67.6641C203.248 67.7318 203.367 67.8164 203.502 67.918C203.654 68.0026 203.824 68.0788 204.01 68.1465C204.213 68.2142 204.416 68.248 204.619 68.248C205.025 68.248 205.364 68.1634 205.635 67.9941C205.923 67.8249 206.151 67.6217 206.32 67.3848C206.49 67.1309 206.608 66.8685 206.676 66.5977C206.76 66.3099 206.803 66.0645 206.803 65.8613C206.803 65.4382 206.735 65.015 206.6 64.5918C206.464 64.1686 206.286 63.7454 206.066 63.3223C205.863 62.8991 205.635 62.4674 205.381 62.0273C205.144 61.5703 204.924 61.0964 204.721 60.6055ZM221.504 66.877C221.792 67.5202 222.266 68.0365 222.926 68.4258C223.586 68.7982 224.331 68.9844 225.16 68.9844C225.414 68.9844 225.829 68.9505 226.404 68.8828C226.98 68.7982 227.64 68.5443 228.385 68.1211C229.146 67.681 229.951 66.9954 230.797 66.0645C231.643 65.1335 232.464 63.8216 233.26 62.1289C233.344 61.9427 233.463 61.8073 233.615 61.7227C233.768 61.6211 233.937 61.5703 234.123 61.5703C234.411 61.5703 234.639 61.6719 234.809 61.875C234.995 62.0781 235.088 62.2982 235.088 62.5352C235.088 62.6367 235.054 62.7721 234.986 62.9414C234.394 64.1771 233.734 65.2858 233.006 66.2676C232.278 67.2324 231.491 68.0618 230.645 68.7559C229.798 69.4329 228.91 69.9492 227.979 70.3047C227.064 70.6771 226.125 70.8633 225.16 70.8633C224.398 70.8633 223.679 70.7448 223.002 70.5078C222.342 70.2708 221.766 69.9577 221.275 69.5684C220.801 69.1621 220.421 68.7135 220.133 68.2227C219.862 67.7148 219.727 67.1986 219.727 66.6738C219.727 66.6061 219.735 66.513 219.752 66.3945C219.769 66.276 219.811 66.1491 219.879 66.0137C219.964 65.8613 220.074 65.7259 220.209 65.6074C220.361 65.472 220.564 65.362 220.818 65.2773C221.512 65.0742 222.147 64.8288 222.723 64.541C223.315 64.2363 223.823 63.8978 224.246 63.5254C224.669 63.153 224.999 62.7467 225.236 62.3066C225.473 61.8496 225.592 61.3587 225.592 60.834C225.592 60.377 225.439 60.0046 225.135 59.7168C224.83 59.429 224.458 59.2852 224.018 59.2852C223.561 59.2852 223.112 59.446 222.672 59.7676C222.232 60.0723 221.8 60.487 221.377 61.0117C220.971 61.5195 220.581 62.112 220.209 62.7891C219.837 63.4492 219.49 64.1432 219.168 64.8711C218.863 65.599 218.592 66.3268 218.355 67.0547C218.118 67.7656 217.924 68.4258 217.771 69.0352C217.721 69.2214 217.661 69.4245 217.594 69.6445C217.543 69.8646 217.458 70.0677 217.34 70.2539C217.221 70.457 217.077 70.6178 216.908 70.7363C216.739 70.8717 216.519 70.9395 216.248 70.9395C215.994 70.9395 215.749 70.8294 215.512 70.6094C215.275 70.4062 215.156 70.0508 215.156 69.543C215.156 69.4414 215.156 69.0521 215.156 68.375C215.173 67.6979 215.19 66.8177 215.207 65.7344C215.224 64.6341 215.241 63.3815 215.258 61.9766C215.292 60.5547 215.317 59.0566 215.334 57.4824C215.351 55.8913 215.376 54.2578 215.41 52.582C215.444 50.9062 215.469 49.2728 215.486 47.6816C215.503 46.0905 215.52 44.584 215.537 43.1621C215.571 41.7233 215.596 40.4538 215.613 39.3535C215.63 38.2363 215.639 37.3307 215.639 36.6367C215.656 35.9258 215.664 35.5026 215.664 35.3672C215.664 35.0964 215.766 34.8763 215.969 34.707C216.172 34.5208 216.392 34.4277 216.629 34.4277C216.9 34.4277 217.128 34.5208 217.314 34.707C217.501 34.8763 217.594 35.1048 217.594 35.3926C217.594 35.4264 217.585 35.765 217.568 36.4082C217.568 37.0345 217.56 37.8809 217.543 38.9473C217.526 40.0137 217.501 41.2578 217.467 42.6797C217.45 44.1016 217.424 45.6165 217.391 47.2246C217.374 48.8158 217.348 50.4577 217.314 52.1504C217.298 53.8431 217.272 55.4935 217.238 57.1016C217.221 58.7096 217.204 60.2415 217.188 61.6973C217.171 63.153 217.154 64.4395 217.137 65.5566C217.408 64.6934 217.755 63.7878 218.178 62.8398C218.601 61.875 219.1 60.9863 219.676 60.1738C220.251 59.3613 220.895 58.6927 221.605 58.168C222.333 57.6432 223.137 57.3809 224.018 57.3809C224.508 57.3809 224.965 57.474 225.389 57.6602C225.812 57.8294 226.176 58.0749 226.48 58.3965C226.802 58.7012 227.048 59.0651 227.217 59.4883C227.403 59.9115 227.496 60.3685 227.496 60.8594C227.496 61.6211 227.327 62.3236 226.988 62.9668C226.65 63.5931 226.201 64.1602 225.643 64.668C225.084 65.1589 224.441 65.5905 223.713 65.9629C223.002 66.3353 222.266 66.64 221.504 66.877ZM237.424 50.0684C237.424 50.7116 237.195 51.2617 236.738 51.7188C236.298 52.1589 235.757 52.3789 235.113 52.3789C234.47 52.3789 233.92 52.1589 233.463 51.7188C233.023 51.2617 232.803 50.7116 232.803 50.0684C232.803 49.7467 232.862 49.4505 232.98 49.1797C233.099 48.8919 233.26 48.6465 233.463 48.4434C233.683 48.2233 233.928 48.054 234.199 47.9355C234.487 47.8171 234.792 47.7578 235.113 47.7578C235.435 47.7578 235.731 47.8171 236.002 47.9355C236.29 48.054 236.535 48.2233 236.738 48.4434C236.958 48.6465 237.128 48.8919 237.246 49.1797C237.365 49.4505 237.424 49.7467 237.424 50.0684ZM233.311 64.9473C233.311 62.5098 233.463 60.0807 233.768 57.6602C233.801 57.4232 233.903 57.2201 234.072 57.0508C234.258 56.8646 234.495 56.7715 234.783 56.7715C235.037 56.7715 235.249 56.873 235.418 57.0762C235.587 57.2624 235.672 57.4824 235.672 57.7363C235.672 57.8379 235.646 58.1426 235.596 58.6504C235.562 59.1582 235.511 59.7676 235.443 60.4785C235.393 61.1725 235.342 61.9173 235.291 62.7129C235.257 63.4915 235.24 64.2109 235.24 64.8711C235.24 65.7682 235.325 66.4961 235.494 67.0547C235.68 67.5964 235.909 68.0195 236.18 68.3242C236.467 68.6289 236.764 68.832 237.068 68.9336C237.39 69.0352 237.695 69.0859 237.982 69.0859C238.456 69.0859 238.947 68.9167 239.455 68.5781C239.963 68.2396 240.479 67.7656 241.004 67.1562C241.546 66.5469 242.087 65.819 242.629 64.9727C243.171 64.1094 243.704 63.153 244.229 62.1035C244.313 61.9342 244.432 61.8073 244.584 61.7227C244.736 61.6211 244.906 61.5703 245.092 61.5703C245.363 61.5703 245.583 61.6719 245.752 61.875C245.938 62.0781 246.031 62.2982 246.031 62.5352C246.031 62.7044 245.997 62.8483 245.93 62.9668C245.727 63.3561 245.473 63.8301 245.168 64.3887C244.863 64.9473 244.516 65.5228 244.127 66.1152C243.738 66.7077 243.306 67.3001 242.832 67.8926C242.375 68.4681 241.884 68.9928 241.359 69.4668C240.835 69.9238 240.285 70.2962 239.709 70.584C239.133 70.8717 238.549 71.0156 237.957 71.0156C237.195 71.0156 236.527 70.8548 235.951 70.5332C235.376 70.2116 234.885 69.7799 234.479 69.2383C234.089 68.6966 233.793 68.0618 233.59 67.334C233.404 66.5892 233.311 65.7936 233.311 64.9473ZM236.002 50.0684C236.002 49.8314 235.909 49.6283 235.723 49.459C235.553 49.2728 235.35 49.1797 235.113 49.1797C234.876 49.1797 234.673 49.2728 234.504 49.459C234.335 49.6283 234.25 49.8314 234.25 50.0684C234.25 50.3053 234.335 50.5085 234.504 50.6777C234.673 50.847 234.876 50.9316 235.113 50.9316C235.35 50.9316 235.553 50.847 235.723 50.6777C235.909 50.5085 236.002 50.3053 236.002 50.0684ZM258.65 62.9668C258.464 63.3561 258.227 63.8216 257.939 64.3633C257.669 64.888 257.355 65.4382 257 66.0137C256.645 66.5892 256.247 67.1647 255.807 67.7402C255.367 68.2988 254.884 68.8066 254.359 69.2637C253.852 69.7038 253.301 70.0592 252.709 70.3301C252.133 70.6178 251.516 70.7617 250.855 70.7617C249.84 70.7617 248.968 70.4486 248.24 69.8223C247.512 69.196 246.895 68.375 246.387 67.3594C245.879 66.3438 245.464 65.1927 245.143 63.9062C244.838 62.6029 244.601 61.2826 244.432 59.9453C244.262 58.5911 244.144 57.2793 244.076 56.0098C244.025 54.7402 244 53.6146 244 52.6328C244 51.2109 244.042 49.7383 244.127 48.2148C244.229 46.6914 244.381 45.2018 244.584 43.7461C244.787 42.2904 245.041 40.9108 245.346 39.6074C245.667 38.304 246.04 37.1615 246.463 36.1797C246.903 35.1979 247.402 34.4193 247.961 33.8438C248.52 33.2682 249.154 32.9805 249.865 32.9805C250.424 32.9805 250.923 33.1159 251.363 33.3867C251.82 33.6406 252.201 34.0638 252.506 34.6562C252.811 35.2487 253.048 36.0189 253.217 36.9668C253.386 37.9147 253.471 39.0742 253.471 40.4453C253.471 42.138 253.293 43.89 252.938 45.7012C252.582 47.4954 252.1 49.3066 251.49 51.1348C250.881 52.9629 250.161 54.791 249.332 56.6191C248.503 58.4303 247.614 60.1992 246.666 61.9258C247.089 64.0755 247.656 65.7682 248.367 67.0039C249.078 68.2227 249.933 68.832 250.932 68.832C251.609 68.832 252.26 68.5697 252.887 68.0449C253.513 67.5033 254.089 66.8685 254.613 66.1406C255.138 65.4128 255.595 64.6764 255.984 63.9316C256.391 63.1699 256.704 62.5605 256.924 62.1035C257.008 61.9342 257.127 61.8073 257.279 61.7227C257.432 61.6211 257.601 61.5703 257.787 61.5703C258.075 61.5703 258.303 61.6719 258.473 61.875C258.659 62.0781 258.752 62.3066 258.752 62.5605C258.752 62.6621 258.718 62.7975 258.65 62.9668ZM245.93 52.7598C245.93 53.8431 245.955 54.8841 246.006 55.8828C246.057 56.8815 246.124 57.8379 246.209 58.752C246.92 57.3809 247.597 55.9251 248.24 54.3848C248.883 52.8275 249.451 51.2617 249.941 49.6875C250.432 48.0964 250.822 46.5221 251.109 44.9648C251.414 43.3906 251.566 41.8926 251.566 40.4707C251.566 38.4733 251.406 37.043 251.084 36.1797C250.762 35.3164 250.331 34.8848 249.789 34.8848C249.434 34.8848 249.087 35.1302 248.748 35.6211C248.426 36.112 248.122 36.7806 247.834 37.627C247.546 38.4733 247.284 39.472 247.047 40.623C246.81 41.7741 246.607 43.0098 246.438 44.3301C246.285 45.6504 246.158 47.0299 246.057 48.4688C245.972 49.9076 245.93 51.3379 245.93 52.7598ZM271.396 62.9668C271.21 63.3561 270.973 63.8216 270.686 64.3633C270.415 64.888 270.102 65.4382 269.746 66.0137C269.391 66.5892 268.993 67.1647 268.553 67.7402C268.113 68.2988 267.63 68.8066 267.105 69.2637C266.598 69.7038 266.048 70.0592 265.455 70.3301C264.88 70.6178 264.262 70.7617 263.602 70.7617C262.586 70.7617 261.714 70.4486 260.986 69.8223C260.258 69.196 259.641 68.375 259.133 67.3594C258.625 66.3438 258.21 65.1927 257.889 63.9062C257.584 62.6029 257.347 61.2826 257.178 59.9453C257.008 58.5911 256.89 57.2793 256.822 56.0098C256.771 54.7402 256.746 53.6146 256.746 52.6328C256.746 51.2109 256.788 49.7383 256.873 48.2148C256.975 46.6914 257.127 45.2018 257.33 43.7461C257.533 42.2904 257.787 40.9108 258.092 39.6074C258.413 38.304 258.786 37.1615 259.209 36.1797C259.649 35.1979 260.148 34.4193 260.707 33.8438C261.266 33.2682 261.9 32.9805 262.611 32.9805C263.17 32.9805 263.669 33.1159 264.109 33.3867C264.566 33.6406 264.947 34.0638 265.252 34.6562C265.557 35.2487 265.794 36.0189 265.963 36.9668C266.132 37.9147 266.217 39.0742 266.217 40.4453C266.217 42.138 266.039 43.89 265.684 45.7012C265.328 47.4954 264.846 49.3066 264.236 51.1348C263.627 52.9629 262.908 54.791 262.078 56.6191C261.249 58.4303 260.36 60.1992 259.412 61.9258C259.835 64.0755 260.402 65.7682 261.113 67.0039C261.824 68.2227 262.679 68.832 263.678 68.832C264.355 68.832 265.007 68.5697 265.633 68.0449C266.259 67.5033 266.835 66.8685 267.359 66.1406C267.884 65.4128 268.341 64.6764 268.73 63.9316C269.137 63.1699 269.45 62.5605 269.67 62.1035C269.755 61.9342 269.873 61.8073 270.025 61.7227C270.178 61.6211 270.347 61.5703 270.533 61.5703C270.821 61.5703 271.049 61.6719 271.219 61.875C271.405 62.0781 271.498 62.3066 271.498 62.5605C271.498 62.6621 271.464 62.7975 271.396 62.9668ZM258.676 52.7598C258.676 53.8431 258.701 54.8841 258.752 55.8828C258.803 56.8815 258.87 57.8379 258.955 58.752C259.666 57.3809 260.343 55.9251 260.986 54.3848C261.63 52.8275 262.197 51.2617 262.688 49.6875C263.178 48.0964 263.568 46.5221 263.855 44.9648C264.16 43.3906 264.312 41.8926 264.312 40.4707C264.312 38.4733 264.152 37.043 263.83 36.1797C263.508 35.3164 263.077 34.8848 262.535 34.8848C262.18 34.8848 261.833 35.1302 261.494 35.6211C261.173 36.112 260.868 36.7806 260.58 37.627C260.292 38.4733 260.03 39.472 259.793 40.623C259.556 41.7741 259.353 43.0098 259.184 44.3301C259.031 45.6504 258.904 47.0299 258.803 48.4688C258.718 49.9076 258.676 51.3379 258.676 52.7598ZM272.514 60.6055C272.412 60.8763 272.285 61.181 272.133 61.5195C271.997 61.8581 271.837 62.2135 271.65 62.5859C271.498 62.8737 271.337 63.1022 271.168 63.2715C271.016 63.4238 270.812 63.5 270.559 63.5C270.271 63.5 270.042 63.4154 269.873 63.2461C269.704 63.0599 269.619 62.8483 269.619 62.6113C269.619 62.5267 269.628 62.459 269.645 62.4082C269.661 62.3405 269.704 62.2389 269.771 62.1035C270.212 61.2572 270.533 60.5208 270.736 59.8945C270.956 59.2513 271.134 58.5827 271.27 57.8887C271.151 57.4993 271.066 57.1693 271.016 56.8984C270.965 56.6276 270.939 56.3483 270.939 56.0605C270.939 55.502 271.058 55.0534 271.295 54.7148C271.532 54.3594 271.862 54.1816 272.285 54.1816C272.674 54.1816 272.979 54.3509 273.199 54.6895C273.436 55.028 273.555 55.4427 273.555 55.9336C273.555 56.2044 273.529 56.4753 273.479 56.7461C273.428 57.0169 273.36 57.3555 273.275 57.7617C273.665 58.7266 274.054 59.5814 274.443 60.3262C274.833 61.071 275.18 61.7565 275.484 62.3828C275.789 62.9922 276.035 63.5677 276.221 64.1094C276.424 64.651 276.525 65.1927 276.525 65.7344C276.525 66.4453 276.382 67.1224 276.094 67.7656C275.806 68.4089 275.332 68.9505 274.672 69.3906C274.757 69.4076 274.841 69.416 274.926 69.416C275.01 69.416 275.095 69.416 275.18 69.416C276.145 69.416 277.033 69.196 277.846 68.7559C278.658 68.3158 279.386 67.7487 280.029 67.0547C280.689 66.3438 281.273 65.5651 281.781 64.7188C282.289 63.8555 282.729 63.0007 283.102 62.1543C283.271 61.765 283.508 61.5703 283.812 61.5703C284.1 61.5703 284.32 61.6719 284.473 61.875C284.642 62.0781 284.727 62.2982 284.727 62.5352C284.727 62.6706 284.701 62.7975 284.65 62.916C284.464 63.373 284.219 63.8978 283.914 64.4902C283.626 65.0658 283.271 65.6667 282.848 66.293C282.441 66.9023 281.967 67.5033 281.426 68.0957C280.884 68.6882 280.275 69.2214 279.598 69.6953C278.938 70.1523 278.21 70.5163 277.414 70.7871C276.618 71.0749 275.747 71.2188 274.799 71.2188C273.665 71.2188 272.607 71.0156 271.625 70.6094C270.66 70.2201 269.873 69.5684 269.264 68.6543C269.162 68.502 269.111 68.3411 269.111 68.1719C269.111 67.918 269.204 67.6979 269.391 67.5117C269.594 67.3086 269.822 67.207 270.076 67.207C270.347 67.207 270.576 67.3001 270.762 67.4863C270.779 67.5202 270.838 67.5794 270.939 67.6641C271.041 67.7318 271.16 67.8164 271.295 67.918C271.447 68.0026 271.617 68.0788 271.803 68.1465C272.006 68.2142 272.209 68.248 272.412 68.248C272.818 68.248 273.157 68.1634 273.428 67.9941C273.715 67.8249 273.944 67.6217 274.113 67.3848C274.283 67.1309 274.401 66.8685 274.469 66.5977C274.553 66.3099 274.596 66.0645 274.596 65.8613C274.596 65.4382 274.528 65.015 274.393 64.5918C274.257 64.1686 274.079 63.7454 273.859 63.3223C273.656 62.8991 273.428 62.4674 273.174 62.0273C272.937 61.5703 272.717 61.0964 272.514 60.6055Z" fill="#EEEEEE"/>
</svg>
